<?xml version="1.0" encoding="utf-8" standalone="no"?>
<!DOCTYPE svg PUBLIC "-//W3C//DTD SVG 1.1//EN"
  "http://www.w3.org/Graphics/SVG/1.1/DTD/svg11.dtd">
<svg xmlns:xlink="http://www.w3.org/1999/xlink" width="1152pt" height="720pt" viewBox="0 0 1152 720" xmlns="http://www.w3.org/2000/svg" version="1.1">
 <metadata>
  <rdf:RDF xmlns:dc="http://purl.org/dc/elements/1.1/" xmlns:cc="http://creativecommons.org/ns#" xmlns:rdf="http://www.w3.org/1999/02/22-rdf-syntax-ns#">
   <cc:Work>
    <dc:type rdf:resource="http://purl.org/dc/dcmitype/StillImage"/>
    <dc:date>2023-06-24T23:26:55.487632</dc:date>
    <dc:format>image/svg+xml</dc:format>
    <dc:creator>
     <cc:Agent>
      <dc:title>Matplotlib v3.7.1, https://matplotlib.org/</dc:title>
     </cc:Agent>
    </dc:creator>
   </cc:Work>
  </rdf:RDF>
 </metadata>
 <defs>
  <style type="text/css">*{stroke-linejoin: round; stroke-linecap: butt}</style>
 </defs>
 <g id="figure_1">
  <g id="patch_1">
   <path d="M 0 720 
L 1152 720 
L 1152 0 
L 0 0 
z
" style="fill: #ffffff"/>
  </g>
  <g id="axes_1">
   <g id="patch_2">
    <path d="M 144 640.8 
L 1036.8 640.8 
L 1036.8 86.4 
L 144 86.4 
z
" style="fill: #eaeaf2"/>
   </g>
   <g id="matplotlib.axis_1">
    <g id="xtick_1">
     <g id="line2d_1">
      <path d="M 221.826938 640.8 
L 221.826938 86.4 
" clip-path="url(#pad0584fffa)" style="fill: none; stroke: #ffffff; stroke-width: 0.8; stroke-linecap: round"/>
     </g>
     <g id="text_1">
      <!-- 250 -->
      <g style="fill: #262626" transform="translate(200.973422 665.694531) scale(0.25 -0.25)">
       <defs>
        <path id="ArialMT-32" d="M 3222 541 
L 3222 0 
L 194 0 
Q 188 203 259 391 
Q 375 700 629 1000 
Q 884 1300 1366 1694 
Q 2113 2306 2375 2664 
Q 2638 3022 2638 3341 
Q 2638 3675 2398 3904 
Q 2159 4134 1775 4134 
Q 1369 4134 1125 3890 
Q 881 3647 878 3216 
L 300 3275 
Q 359 3922 746 4261 
Q 1134 4600 1788 4600 
Q 2447 4600 2831 4234 
Q 3216 3869 3216 3328 
Q 3216 3053 3103 2787 
Q 2991 2522 2730 2228 
Q 2469 1934 1863 1422 
Q 1356 997 1212 845 
Q 1069 694 975 541 
L 3222 541 
z
" transform="scale(0.015625)"/>
        <path id="ArialMT-35" d="M 266 1200 
L 856 1250 
Q 922 819 1161 601 
Q 1400 384 1738 384 
Q 2144 384 2425 690 
Q 2706 997 2706 1503 
Q 2706 1984 2436 2262 
Q 2166 2541 1728 2541 
Q 1456 2541 1237 2417 
Q 1019 2294 894 2097 
L 366 2166 
L 809 4519 
L 3088 4519 
L 3088 3981 
L 1259 3981 
L 1013 2750 
Q 1425 3038 1878 3038 
Q 2478 3038 2890 2622 
Q 3303 2206 3303 1553 
Q 3303 931 2941 478 
Q 2500 -78 1738 -78 
Q 1113 -78 717 272 
Q 322 622 266 1200 
z
" transform="scale(0.015625)"/>
        <path id="ArialMT-30" d="M 266 2259 
Q 266 3072 433 3567 
Q 600 4063 929 4331 
Q 1259 4600 1759 4600 
Q 2128 4600 2406 4451 
Q 2684 4303 2865 4023 
Q 3047 3744 3150 3342 
Q 3253 2941 3253 2259 
Q 3253 1453 3087 958 
Q 2922 463 2592 192 
Q 2263 -78 1759 -78 
Q 1097 -78 719 397 
Q 266 969 266 2259 
z
M 844 2259 
Q 844 1131 1108 757 
Q 1372 384 1759 384 
Q 2147 384 2411 759 
Q 2675 1134 2675 2259 
Q 2675 3391 2411 3762 
Q 2147 4134 1753 4134 
Q 1366 4134 1134 3806 
Q 844 3388 844 2259 
z
" transform="scale(0.015625)"/>
       </defs>
       <use xlink:href="#ArialMT-32"/>
       <use xlink:href="#ArialMT-35" x="55.615234"/>
       <use xlink:href="#ArialMT-30" x="111.230469"/>
      </g>
     </g>
    </g>
    <g id="xtick_2">
     <g id="line2d_2">
      <path d="M 353.830704 640.8 
L 353.830704 86.4 
" clip-path="url(#pad0584fffa)" style="fill: none; stroke: #ffffff; stroke-width: 0.8; stroke-linecap: round"/>
     </g>
     <g id="text_2">
      <!-- 300 -->
      <g style="fill: #262626" transform="translate(332.977189 665.694531) scale(0.25 -0.25)">
       <defs>
        <path id="ArialMT-33" d="M 269 1209 
L 831 1284 
Q 928 806 1161 595 
Q 1394 384 1728 384 
Q 2125 384 2398 659 
Q 2672 934 2672 1341 
Q 2672 1728 2419 1979 
Q 2166 2231 1775 2231 
Q 1616 2231 1378 2169 
L 1441 2663 
Q 1497 2656 1531 2656 
Q 1891 2656 2178 2843 
Q 2466 3031 2466 3422 
Q 2466 3731 2256 3934 
Q 2047 4138 1716 4138 
Q 1388 4138 1169 3931 
Q 950 3725 888 3313 
L 325 3413 
Q 428 3978 793 4289 
Q 1159 4600 1703 4600 
Q 2078 4600 2393 4439 
Q 2709 4278 2876 4000 
Q 3044 3722 3044 3409 
Q 3044 3113 2884 2869 
Q 2725 2625 2413 2481 
Q 2819 2388 3044 2092 
Q 3269 1797 3269 1353 
Q 3269 753 2831 336 
Q 2394 -81 1725 -81 
Q 1122 -81 723 278 
Q 325 638 269 1209 
z
" transform="scale(0.015625)"/>
       </defs>
       <use xlink:href="#ArialMT-33"/>
       <use xlink:href="#ArialMT-30" x="55.615234"/>
       <use xlink:href="#ArialMT-30" x="111.230469"/>
      </g>
     </g>
    </g>
    <g id="xtick_3">
     <g id="line2d_3">
      <path d="M 485.834471 640.8 
L 485.834471 86.4 
" clip-path="url(#pad0584fffa)" style="fill: none; stroke: #ffffff; stroke-width: 0.8; stroke-linecap: round"/>
     </g>
     <g id="text_3">
      <!-- 350 -->
      <g style="fill: #262626" transform="translate(464.980955 665.694531) scale(0.25 -0.25)">
       <use xlink:href="#ArialMT-33"/>
       <use xlink:href="#ArialMT-35" x="55.615234"/>
       <use xlink:href="#ArialMT-30" x="111.230469"/>
      </g>
     </g>
    </g>
    <g id="xtick_4">
     <g id="line2d_4">
      <path d="M 617.838237 640.8 
L 617.838237 86.4 
" clip-path="url(#pad0584fffa)" style="fill: none; stroke: #ffffff; stroke-width: 0.8; stroke-linecap: round"/>
     </g>
     <g id="text_4">
      <!-- 400 -->
      <g style="fill: #262626" transform="translate(596.984721 665.694531) scale(0.25 -0.25)">
       <defs>
        <path id="ArialMT-34" d="M 2069 0 
L 2069 1097 
L 81 1097 
L 81 1613 
L 2172 4581 
L 2631 4581 
L 2631 1613 
L 3250 1613 
L 3250 1097 
L 2631 1097 
L 2631 0 
L 2069 0 
z
M 2069 1613 
L 2069 3678 
L 634 1613 
L 2069 1613 
z
" transform="scale(0.015625)"/>
       </defs>
       <use xlink:href="#ArialMT-34"/>
       <use xlink:href="#ArialMT-30" x="55.615234"/>
       <use xlink:href="#ArialMT-30" x="111.230469"/>
      </g>
     </g>
    </g>
    <g id="xtick_5">
     <g id="line2d_5">
      <path d="M 749.842003 640.8 
L 749.842003 86.4 
" clip-path="url(#pad0584fffa)" style="fill: none; stroke: #ffffff; stroke-width: 0.8; stroke-linecap: round"/>
     </g>
     <g id="text_5">
      <!-- 450 -->
      <g style="fill: #262626" transform="translate(728.988488 665.694531) scale(0.25 -0.25)">
       <use xlink:href="#ArialMT-34"/>
       <use xlink:href="#ArialMT-35" x="55.615234"/>
       <use xlink:href="#ArialMT-30" x="111.230469"/>
      </g>
     </g>
    </g>
    <g id="xtick_6">
     <g id="line2d_6">
      <path d="M 881.84577 640.8 
L 881.84577 86.4 
" clip-path="url(#pad0584fffa)" style="fill: none; stroke: #ffffff; stroke-width: 0.8; stroke-linecap: round"/>
     </g>
     <g id="text_6">
      <!-- 500 -->
      <g style="fill: #262626" transform="translate(860.992254 665.694531) scale(0.25 -0.25)">
       <use xlink:href="#ArialMT-35"/>
       <use xlink:href="#ArialMT-30" x="55.615234"/>
       <use xlink:href="#ArialMT-30" x="111.230469"/>
      </g>
     </g>
    </g>
    <g id="xtick_7">
     <g id="line2d_7">
      <path d="M 1013.849536 640.8 
L 1013.849536 86.4 
" clip-path="url(#pad0584fffa)" style="fill: none; stroke: #ffffff; stroke-width: 0.8; stroke-linecap: round"/>
     </g>
     <g id="text_7">
      <!-- 550 -->
      <g style="fill: #262626" transform="translate(992.99602 665.694531) scale(0.25 -0.25)">
       <use xlink:href="#ArialMT-35"/>
       <use xlink:href="#ArialMT-35" x="55.615234"/>
       <use xlink:href="#ArialMT-30" x="111.230469"/>
      </g>
     </g>
    </g>
    <g id="text_8">
     <!-- Значения -->
     <g style="fill: #262626" transform="translate(524.111719 696.136719) scale(0.3 -0.3)">
      <defs>
       <path id="ArialMT-417" d="M 244 1294 
L 822 1444 
Q 888 1109 1173 775 
Q 1459 441 1931 441 
Q 2413 441 2691 687 
Q 2969 934 2969 1284 
Q 2969 1663 2675 1886 
Q 2381 2109 1875 2109 
L 1584 2109 
L 1584 2638 
Q 2003 2638 2225 2686 
Q 2447 2734 2617 2932 
Q 2788 3131 2788 3384 
Q 2788 3684 2555 3906 
Q 2322 4128 1925 4128 
Q 1578 4128 1333 3954 
Q 1088 3781 994 3495 
Q 900 3209 900 3069 
L 319 3200 
Q 534 4659 1931 4659 
Q 2603 4659 2997 4286 
Q 3391 3913 3391 3413 
Q 3391 2772 2784 2419 
Q 3134 2322 3370 2023 
Q 3606 1725 3606 1309 
Q 3606 719 3148 320 
Q 2691 -78 1934 -78 
Q 634 -78 244 1294 
z
" transform="scale(0.015625)"/>
       <path id="ArialMT-43d" d="M 425 3319 
L 988 3319 
L 988 1938 
L 2547 1938 
L 2547 3319 
L 3109 3319 
L 3109 0 
L 2547 0 
L 2547 1472 
L 988 1472 
L 988 0 
L 425 0 
L 425 3319 
z
" transform="scale(0.015625)"/>
       <path id="ArialMT-430" d="M 2588 409 
Q 2275 144 1986 34 
Q 1697 -75 1366 -75 
Q 819 -75 525 192 
Q 231 459 231 875 
Q 231 1119 342 1320 
Q 453 1522 633 1644 
Q 813 1766 1038 1828 
Q 1203 1872 1538 1913 
Q 2219 1994 2541 2106 
Q 2544 2222 2544 2253 
Q 2544 2597 2384 2738 
Q 2169 2928 1744 2928 
Q 1347 2928 1158 2789 
Q 969 2650 878 2297 
L 328 2372 
Q 403 2725 575 2942 
Q 747 3159 1072 3276 
Q 1397 3394 1825 3394 
Q 2250 3394 2515 3294 
Q 2781 3194 2906 3042 
Q 3031 2891 3081 2659 
Q 3109 2516 3109 2141 
L 3109 1391 
Q 3109 606 3145 398 
Q 3181 191 3288 0 
L 2700 0 
Q 2613 175 2588 409 
z
M 2541 1666 
Q 2234 1541 1622 1453 
Q 1275 1403 1131 1340 
Q 988 1278 909 1158 
Q 831 1038 831 891 
Q 831 666 1001 516 
Q 1172 366 1500 366 
Q 1825 366 2078 508 
Q 2331 650 2450 897 
Q 2541 1088 2541 1459 
L 2541 1666 
z
" transform="scale(0.015625)"/>
       <path id="ArialMT-447" d="M 216 3319 
L 778 3319 
L 778 2691 
Q 778 2284 826 2101 
Q 875 1919 1059 1783 
Q 1244 1647 1522 1647 
Q 1841 1647 2347 1816 
L 2347 3319 
L 2909 3319 
L 2909 0 
L 2347 0 
L 2347 1338 
Q 1828 1175 1378 1175 
Q 1000 1175 711 1367 
Q 422 1559 319 1837 
Q 216 2116 216 2450 
L 216 3319 
z
" transform="scale(0.015625)"/>
       <path id="ArialMT-435" d="M 2694 1069 
L 3275 997 
Q 3138 488 2766 206 
Q 2394 -75 1816 -75 
Q 1088 -75 661 373 
Q 234 822 234 1631 
Q 234 2469 665 2931 
Q 1097 3394 1784 3394 
Q 2450 3394 2872 2941 
Q 3294 2488 3294 1666 
Q 3294 1616 3291 1516 
L 816 1516 
Q 847 969 1125 678 
Q 1403 388 1819 388 
Q 2128 388 2347 550 
Q 2566 713 2694 1069 
z
M 847 1978 
L 2700 1978 
Q 2663 2397 2488 2606 
Q 2219 2931 1791 2931 
Q 1403 2931 1139 2672 
Q 875 2413 847 1978 
z
" transform="scale(0.015625)"/>
       <path id="ArialMT-438" d="M 422 3319 
L 984 3319 
L 984 788 
L 2544 3319 
L 3150 3319 
L 3150 0 
L 2588 0 
L 2588 2516 
L 1028 0 
L 422 0 
L 422 3319 
z
" transform="scale(0.015625)"/>
       <path id="ArialMT-44f" d="M 3034 3319 
L 3034 0 
L 2475 0 
L 2475 1294 
L 2150 1294 
Q 1853 1294 1708 1217 
Q 1563 1141 1284 725 
L 794 0 
L 97 0 
L 703 894 
Q 981 1303 1256 1356 
Q 775 1422 542 1703 
Q 309 1984 309 2350 
Q 309 2781 614 3050 
Q 919 3319 1497 3319 
L 3034 3319 
z
M 2475 2853 
L 1675 2853 
Q 1172 2853 1026 2697 
Q 881 2541 881 2331 
Q 881 2034 1095 1895 
Q 1309 1756 1853 1756 
L 2475 1756 
L 2475 2853 
z
" transform="scale(0.015625)"/>
      </defs>
      <use xlink:href="#ArialMT-417"/>
      <use xlink:href="#ArialMT-43d" x="60.400391"/>
      <use xlink:href="#ArialMT-430" x="115.625"/>
      <use xlink:href="#ArialMT-447" x="168.990234"/>
      <use xlink:href="#ArialMT-435" x="221.089844"/>
      <use xlink:href="#ArialMT-43d" x="276.705078"/>
      <use xlink:href="#ArialMT-438" x="331.929688"/>
      <use xlink:href="#ArialMT-44f" x="387.789062"/>
     </g>
    </g>
   </g>
   <g id="matplotlib.axis_2">
    <g id="ytick_1">
     <g id="line2d_8">
      <path d="M 144 640.8 
L 1036.8 640.8 
" clip-path="url(#pad0584fffa)" style="fill: none; stroke: #ffffff; stroke-width: 0.8; stroke-linecap: round"/>
     </g>
     <g id="text_9">
      <!-- 0.0000 -->
      <g style="fill: #262626" transform="translate(60.542969 649.747266) scale(0.25 -0.25)">
       <defs>
        <path id="ArialMT-2e" d="M 581 0 
L 581 641 
L 1222 641 
L 1222 0 
L 581 0 
z
" transform="scale(0.015625)"/>
       </defs>
       <use xlink:href="#ArialMT-30"/>
       <use xlink:href="#ArialMT-2e" x="55.615234"/>
       <use xlink:href="#ArialMT-30" x="83.398438"/>
       <use xlink:href="#ArialMT-30" x="139.013672"/>
       <use xlink:href="#ArialMT-30" x="194.628906"/>
       <use xlink:href="#ArialMT-30" x="250.244141"/>
      </g>
     </g>
    </g>
    <g id="ytick_2">
     <g id="line2d_9">
      <path d="M 144 573.547389 
L 1036.8 573.547389 
" clip-path="url(#pad0584fffa)" style="fill: none; stroke: #ffffff; stroke-width: 0.8; stroke-linecap: round"/>
     </g>
     <g id="text_10">
      <!-- 0.0025 -->
      <g style="fill: #262626" transform="translate(60.542969 582.494655) scale(0.25 -0.25)">
       <use xlink:href="#ArialMT-30"/>
       <use xlink:href="#ArialMT-2e" x="55.615234"/>
       <use xlink:href="#ArialMT-30" x="83.398438"/>
       <use xlink:href="#ArialMT-30" x="139.013672"/>
       <use xlink:href="#ArialMT-32" x="194.628906"/>
       <use xlink:href="#ArialMT-35" x="250.244141"/>
      </g>
     </g>
    </g>
    <g id="ytick_3">
     <g id="line2d_10">
      <path d="M 144 506.294779 
L 1036.8 506.294779 
" clip-path="url(#pad0584fffa)" style="fill: none; stroke: #ffffff; stroke-width: 0.8; stroke-linecap: round"/>
     </g>
     <g id="text_11">
      <!-- 0.0050 -->
      <g style="fill: #262626" transform="translate(60.542969 515.242044) scale(0.25 -0.25)">
       <use xlink:href="#ArialMT-30"/>
       <use xlink:href="#ArialMT-2e" x="55.615234"/>
       <use xlink:href="#ArialMT-30" x="83.398438"/>
       <use xlink:href="#ArialMT-30" x="139.013672"/>
       <use xlink:href="#ArialMT-35" x="194.628906"/>
       <use xlink:href="#ArialMT-30" x="250.244141"/>
      </g>
     </g>
    </g>
    <g id="ytick_4">
     <g id="line2d_11">
      <path d="M 144 439.042168 
L 1036.8 439.042168 
" clip-path="url(#pad0584fffa)" style="fill: none; stroke: #ffffff; stroke-width: 0.8; stroke-linecap: round"/>
     </g>
     <g id="text_12">
      <!-- 0.0075 -->
      <g style="fill: #262626" transform="translate(60.542969 447.989434) scale(0.25 -0.25)">
       <defs>
        <path id="ArialMT-37" d="M 303 3981 
L 303 4522 
L 3269 4522 
L 3269 4084 
Q 2831 3619 2401 2847 
Q 1972 2075 1738 1259 
Q 1569 684 1522 0 
L 944 0 
Q 953 541 1156 1306 
Q 1359 2072 1739 2783 
Q 2119 3494 2547 3981 
L 303 3981 
z
" transform="scale(0.015625)"/>
       </defs>
       <use xlink:href="#ArialMT-30"/>
       <use xlink:href="#ArialMT-2e" x="55.615234"/>
       <use xlink:href="#ArialMT-30" x="83.398438"/>
       <use xlink:href="#ArialMT-30" x="139.013672"/>
       <use xlink:href="#ArialMT-37" x="194.628906"/>
       <use xlink:href="#ArialMT-35" x="250.244141"/>
      </g>
     </g>
    </g>
    <g id="ytick_5">
     <g id="line2d_12">
      <path d="M 144 371.789557 
L 1036.8 371.789557 
" clip-path="url(#pad0584fffa)" style="fill: none; stroke: #ffffff; stroke-width: 0.8; stroke-linecap: round"/>
     </g>
     <g id="text_13">
      <!-- 0.0100 -->
      <g style="fill: #262626" transform="translate(60.542969 380.736823) scale(0.25 -0.25)">
       <defs>
        <path id="ArialMT-31" d="M 2384 0 
L 1822 0 
L 1822 3584 
Q 1619 3391 1289 3197 
Q 959 3003 697 2906 
L 697 3450 
Q 1169 3672 1522 3987 
Q 1875 4303 2022 4600 
L 2384 4600 
L 2384 0 
z
" transform="scale(0.015625)"/>
       </defs>
       <use xlink:href="#ArialMT-30"/>
       <use xlink:href="#ArialMT-2e" x="55.615234"/>
       <use xlink:href="#ArialMT-30" x="83.398438"/>
       <use xlink:href="#ArialMT-31" x="139.013672"/>
       <use xlink:href="#ArialMT-30" x="194.628906"/>
       <use xlink:href="#ArialMT-30" x="250.244141"/>
      </g>
     </g>
    </g>
    <g id="ytick_6">
     <g id="line2d_13">
      <path d="M 144 304.536947 
L 1036.8 304.536947 
" clip-path="url(#pad0584fffa)" style="fill: none; stroke: #ffffff; stroke-width: 0.8; stroke-linecap: round"/>
     </g>
     <g id="text_14">
      <!-- 0.0125 -->
      <g style="fill: #262626" transform="translate(60.542969 313.484212) scale(0.25 -0.25)">
       <use xlink:href="#ArialMT-30"/>
       <use xlink:href="#ArialMT-2e" x="55.615234"/>
       <use xlink:href="#ArialMT-30" x="83.398438"/>
       <use xlink:href="#ArialMT-31" x="139.013672"/>
       <use xlink:href="#ArialMT-32" x="194.628906"/>
       <use xlink:href="#ArialMT-35" x="250.244141"/>
      </g>
     </g>
    </g>
    <g id="ytick_7">
     <g id="line2d_14">
      <path d="M 144 237.284336 
L 1036.8 237.284336 
" clip-path="url(#pad0584fffa)" style="fill: none; stroke: #ffffff; stroke-width: 0.8; stroke-linecap: round"/>
     </g>
     <g id="text_15">
      <!-- 0.0150 -->
      <g style="fill: #262626" transform="translate(60.542969 246.231602) scale(0.25 -0.25)">
       <use xlink:href="#ArialMT-30"/>
       <use xlink:href="#ArialMT-2e" x="55.615234"/>
       <use xlink:href="#ArialMT-30" x="83.398438"/>
       <use xlink:href="#ArialMT-31" x="139.013672"/>
       <use xlink:href="#ArialMT-35" x="194.628906"/>
       <use xlink:href="#ArialMT-30" x="250.244141"/>
      </g>
     </g>
    </g>
    <g id="ytick_8">
     <g id="line2d_15">
      <path d="M 144 170.031726 
L 1036.8 170.031726 
" clip-path="url(#pad0584fffa)" style="fill: none; stroke: #ffffff; stroke-width: 0.8; stroke-linecap: round"/>
     </g>
     <g id="text_16">
      <!-- 0.0175 -->
      <g style="fill: #262626" transform="translate(60.542969 178.978991) scale(0.25 -0.25)">
       <use xlink:href="#ArialMT-30"/>
       <use xlink:href="#ArialMT-2e" x="55.615234"/>
       <use xlink:href="#ArialMT-30" x="83.398438"/>
       <use xlink:href="#ArialMT-31" x="139.013672"/>
       <use xlink:href="#ArialMT-37" x="194.628906"/>
       <use xlink:href="#ArialMT-35" x="250.244141"/>
      </g>
     </g>
    </g>
    <g id="ytick_9">
     <g id="line2d_16">
      <path d="M 144 102.779115 
L 1036.8 102.779115 
" clip-path="url(#pad0584fffa)" style="fill: none; stroke: #ffffff; stroke-width: 0.8; stroke-linecap: round"/>
     </g>
     <g id="text_17">
      <!-- 0.0200 -->
      <g style="fill: #262626" transform="translate(60.542969 111.726381) scale(0.25 -0.25)">
       <use xlink:href="#ArialMT-30"/>
       <use xlink:href="#ArialMT-2e" x="55.615234"/>
       <use xlink:href="#ArialMT-30" x="83.398438"/>
       <use xlink:href="#ArialMT-32" x="139.013672"/>
       <use xlink:href="#ArialMT-30" x="194.628906"/>
       <use xlink:href="#ArialMT-30" x="250.244141"/>
      </g>
     </g>
    </g>
    <g id="text_18">
     <!-- Плотность вероятности -->
     <g style="fill: #262626" transform="translate(50.580469 528.339844) rotate(-90) scale(0.3 -0.3)">
      <defs>
       <path id="ArialMT-41f" d="M 500 4581 
L 4103 4581 
L 4103 0 
L 3494 0 
L 3494 4041 
L 1106 4041 
L 1106 0 
L 500 0 
L 500 4581 
z
" transform="scale(0.015625)"/>
       <path id="ArialMT-43b" d="M 697 3319 
L 3309 3319 
L 3309 0 
L 2750 0 
L 2750 2853 
L 1259 2853 
L 1259 1200 
Q 1259 622 1221 437 
Q 1184 253 1015 115 
Q 847 -22 528 -22 
Q 331 -22 75 3 
L 75 472 
L 322 472 
Q 497 472 572 508 
Q 647 544 672 622 
Q 697 700 697 1131 
L 697 3319 
z
" transform="scale(0.015625)"/>
       <path id="ArialMT-43e" d="M 213 1659 
Q 213 2581 725 3025 
Q 1153 3394 1769 3394 
Q 2453 3394 2887 2945 
Q 3322 2497 3322 1706 
Q 3322 1066 3130 698 
Q 2938 331 2570 128 
Q 2203 -75 1769 -75 
Q 1072 -75 642 372 
Q 213 819 213 1659 
z
M 791 1659 
Q 791 1022 1069 705 
Q 1347 388 1769 388 
Q 2188 388 2466 706 
Q 2744 1025 2744 1678 
Q 2744 2294 2464 2611 
Q 2184 2928 1769 2928 
Q 1347 2928 1069 2612 
Q 791 2297 791 1659 
z
" transform="scale(0.015625)"/>
       <path id="ArialMT-442" d="M 119 3319 
L 2816 3319 
L 2816 2853 
L 1747 2853 
L 1747 0 
L 1188 0 
L 1188 2853 
L 119 2853 
L 119 3319 
z
" transform="scale(0.015625)"/>
       <path id="ArialMT-441" d="M 2588 1216 
L 3141 1144 
Q 3050 572 2676 248 
Q 2303 -75 1759 -75 
Q 1078 -75 664 370 
Q 250 816 250 1647 
Q 250 2184 428 2587 
Q 606 2991 970 3192 
Q 1334 3394 1763 3394 
Q 2303 3394 2647 3120 
Q 2991 2847 3088 2344 
L 2541 2259 
Q 2463 2594 2264 2762 
Q 2066 2931 1784 2931 
Q 1359 2931 1093 2626 
Q 828 2322 828 1663 
Q 828 994 1084 691 
Q 1341 388 1753 388 
Q 2084 388 2306 591 
Q 2528 794 2588 1216 
z
" transform="scale(0.015625)"/>
       <path id="ArialMT-44c" d="M 413 3319 
L 975 3319 
L 975 2022 
L 1688 2022 
Q 2384 2022 2761 1751 
Q 3138 1481 3138 1006 
Q 3138 591 2823 295 
Q 2509 0 1819 0 
L 413 0 
L 413 3319 
z
M 975 463 
L 1566 463 
Q 2100 463 2328 594 
Q 2556 725 2556 1003 
Q 2556 1219 2387 1387 
Q 2219 1556 1641 1556 
L 975 1556 
L 975 463 
z
" transform="scale(0.015625)"/>
       <path id="ArialMT-20" transform="scale(0.015625)"/>
       <path id="ArialMT-432" d="M 425 3319 
L 1722 3319 
Q 2200 3319 2433 3239 
Q 2666 3159 2833 2946 
Q 3000 2734 3000 2438 
Q 3000 2200 2901 2023 
Q 2803 1847 2606 1728 
Q 2841 1650 2995 1436 
Q 3150 1222 3150 928 
Q 3119 456 2812 228 
Q 2506 0 1922 0 
L 425 0 
L 425 3319 
z
M 988 1922 
L 1588 1922 
Q 1947 1922 2081 1959 
Q 2216 1997 2322 2111 
Q 2428 2225 2428 2384 
Q 2428 2647 2242 2750 
Q 2056 2853 1606 2853 
L 988 2853 
L 988 1922 
z
M 988 463 
L 1728 463 
Q 2206 463 2384 573 
Q 2563 684 2572 956 
Q 2572 1116 2469 1252 
Q 2366 1388 2200 1423 
Q 2034 1459 1669 1459 
L 988 1459 
L 988 463 
z
" transform="scale(0.015625)"/>
       <path id="ArialMT-440" d="M 422 -1272 
L 422 3319 
L 934 3319 
L 934 2888 
Q 1116 3141 1344 3267 
Q 1572 3394 1897 3394 
Q 2322 3394 2647 3175 
Q 2972 2956 3137 2557 
Q 3303 2159 3303 1684 
Q 3303 1175 3120 767 
Q 2938 359 2589 142 
Q 2241 -75 1856 -75 
Q 1575 -75 1351 44 
Q 1128 163 984 344 
L 984 -1272 
L 422 -1272 
z
M 931 1641 
Q 931 1000 1190 694 
Q 1450 388 1819 388 
Q 2194 388 2461 705 
Q 2728 1022 2728 1688 
Q 2728 2322 2467 2637 
Q 2206 2953 1844 2953 
Q 1484 2953 1207 2617 
Q 931 2281 931 1641 
z
" transform="scale(0.015625)"/>
      </defs>
      <use xlink:href="#ArialMT-41f"/>
      <use xlink:href="#ArialMT-43b" x="71.875"/>
      <use xlink:href="#ArialMT-43e" x="131.349609"/>
      <use xlink:href="#ArialMT-442" x="184.714844"/>
      <use xlink:href="#ArialMT-43d" x="230.515625"/>
      <use xlink:href="#ArialMT-43e" x="285.740234"/>
      <use xlink:href="#ArialMT-441" x="341.355469"/>
      <use xlink:href="#ArialMT-442" x="391.355469"/>
      <use xlink:href="#ArialMT-44c" x="437.15625"/>
      <use xlink:href="#ArialMT-20" x="489.255859"/>
      <use xlink:href="#ArialMT-432" x="517.039062"/>
      <use xlink:href="#ArialMT-435" x="569.039062"/>
      <use xlink:href="#ArialMT-440" x="624.654297"/>
      <use xlink:href="#ArialMT-43e" x="680.269531"/>
      <use xlink:href="#ArialMT-44f" x="735.884766"/>
      <use xlink:href="#ArialMT-442" x="790.035156"/>
      <use xlink:href="#ArialMT-43d" x="835.835938"/>
      <use xlink:href="#ArialMT-43e" x="891.060547"/>
      <use xlink:href="#ArialMT-441" x="946.675781"/>
      <use xlink:href="#ArialMT-442" x="996.675781"/>
      <use xlink:href="#ArialMT-438" x="1042.476562"/>
     </g>
    </g>
   </g>
   <g id="PolyCollection_1">
    <defs>
     <path id="m208aa9d73d" d="M 184.581818 -79.244715 
L 184.581818 -79.2 
L 188.660393 -79.2 
L 192.738968 -79.2 
L 196.817542 -79.2 
L 200.896117 -79.2 
L 204.974692 -79.2 
L 209.053266 -79.2 
L 213.131841 -79.2 
L 217.210416 -79.2 
L 221.28899 -79.2 
L 225.367565 -79.2 
L 229.44614 -79.2 
L 233.524714 -79.2 
L 237.603289 -79.2 
L 241.681864 -79.2 
L 245.760439 -79.2 
L 249.839013 -79.2 
L 253.917588 -79.2 
L 257.996163 -79.2 
L 262.074737 -79.2 
L 266.153312 -79.2 
L 270.231887 -79.2 
L 274.310461 -79.2 
L 278.389036 -79.2 
L 282.467611 -79.2 
L 286.546185 -79.2 
L 290.62476 -79.2 
L 294.703335 -79.2 
L 298.78191 -79.2 
L 302.860484 -79.2 
L 306.939059 -79.2 
L 311.017634 -79.2 
L 315.096208 -79.2 
L 319.174783 -79.2 
L 323.253358 -79.2 
L 327.331932 -79.2 
L 331.410507 -79.2 
L 335.489082 -79.2 
L 339.567656 -79.2 
L 343.646231 -79.2 
L 347.724806 -79.2 
L 351.803381 -79.2 
L 355.881955 -79.2 
L 359.96053 -79.2 
L 364.039105 -79.2 
L 368.117679 -79.2 
L 372.196254 -79.2 
L 376.274829 -79.2 
L 380.353403 -79.2 
L 384.431978 -79.2 
L 388.510553 -79.2 
L 392.589127 -79.2 
L 396.667702 -79.2 
L 400.746277 -79.2 
L 404.824852 -79.2 
L 408.903426 -79.2 
L 412.982001 -79.2 
L 417.060576 -79.2 
L 421.13915 -79.2 
L 425.217725 -79.2 
L 429.2963 -79.2 
L 433.374874 -79.2 
L 437.453449 -79.2 
L 441.532024 -79.2 
L 445.610598 -79.2 
L 449.689173 -79.2 
L 453.767748 -79.2 
L 457.846323 -79.2 
L 461.924897 -79.2 
L 466.003472 -79.2 
L 470.082047 -79.2 
L 474.160621 -79.2 
L 478.239196 -79.2 
L 482.317771 -79.2 
L 486.396345 -79.2 
L 490.47492 -79.2 
L 494.553495 -79.2 
L 498.632069 -79.2 
L 502.710644 -79.2 
L 506.789219 -79.2 
L 510.867794 -79.2 
L 514.946368 -79.2 
L 519.024943 -79.2 
L 523.103518 -79.2 
L 527.182092 -79.2 
L 531.260667 -79.2 
L 535.339242 -79.2 
L 539.417816 -79.2 
L 543.496391 -79.2 
L 547.574966 -79.2 
L 551.65354 -79.2 
L 555.732115 -79.2 
L 559.81069 -79.2 
L 563.889265 -79.2 
L 567.967839 -79.2 
L 572.046414 -79.2 
L 576.124989 -79.2 
L 580.203563 -79.2 
L 584.282138 -79.2 
L 588.360713 -79.2 
L 592.439287 -79.2 
L 596.517862 -79.2 
L 600.596437 -79.2 
L 604.675011 -79.2 
L 608.753586 -79.2 
L 612.832161 -79.2 
L 616.910735 -79.2 
L 620.98931 -79.2 
L 625.067885 -79.2 
L 629.14646 -79.2 
L 633.225034 -79.2 
L 637.303609 -79.2 
L 641.382184 -79.2 
L 645.460758 -79.2 
L 649.539333 -79.2 
L 653.617908 -79.2 
L 657.696482 -79.2 
L 661.775057 -79.2 
L 665.853632 -79.2 
L 669.932206 -79.2 
L 674.010781 -79.2 
L 678.089356 -79.2 
L 682.167931 -79.2 
L 686.246505 -79.2 
L 690.32508 -79.2 
L 694.403655 -79.2 
L 698.482229 -79.2 
L 702.560804 -79.2 
L 706.639379 -79.2 
L 710.717953 -79.2 
L 714.796528 -79.2 
L 718.875103 -79.2 
L 722.953677 -79.2 
L 727.032252 -79.2 
L 731.110827 -79.2 
L 735.189402 -79.2 
L 739.267976 -79.2 
L 743.346551 -79.2 
L 747.425126 -79.2 
L 751.5037 -79.2 
L 755.582275 -79.2 
L 759.66085 -79.2 
L 763.739424 -79.2 
L 767.817999 -79.2 
L 771.896574 -79.2 
L 775.975148 -79.2 
L 780.053723 -79.2 
L 784.132298 -79.2 
L 788.210873 -79.2 
L 792.289447 -79.2 
L 796.368022 -79.2 
L 800.446597 -79.2 
L 804.525171 -79.2 
L 808.603746 -79.2 
L 812.682321 -79.2 
L 816.760895 -79.2 
L 820.83947 -79.2 
L 824.918045 -79.2 
L 828.996619 -79.2 
L 833.075194 -79.2 
L 837.153769 -79.2 
L 841.232344 -79.2 
L 845.310918 -79.2 
L 849.389493 -79.2 
L 853.468068 -79.2 
L 857.546642 -79.2 
L 861.625217 -79.2 
L 865.703792 -79.2 
L 869.782366 -79.2 
L 873.860941 -79.2 
L 877.939516 -79.2 
L 882.01809 -79.2 
L 886.096665 -79.2 
L 890.17524 -79.2 
L 894.253815 -79.2 
L 898.332389 -79.2 
L 902.410964 -79.2 
L 906.489539 -79.2 
L 910.568113 -79.2 
L 914.646688 -79.2 
L 918.725263 -79.2 
L 922.803837 -79.2 
L 926.882412 -79.2 
L 930.960987 -79.2 
L 935.039561 -79.2 
L 939.118136 -79.2 
L 943.196711 -79.2 
L 947.275286 -79.2 
L 951.35386 -79.2 
L 955.432435 -79.2 
L 959.51101 -79.2 
L 963.589584 -79.2 
L 967.668159 -79.2 
L 971.746734 -79.2 
L 975.825308 -79.2 
L 979.903883 -79.2 
L 983.982458 -79.2 
L 988.061032 -79.2 
L 992.139607 -79.2 
L 996.218182 -79.2 
L 996.218182 -79.245476 
L 996.218182 -79.245476 
L 992.139607 -79.26652 
L 988.061032 -79.296013 
L 983.982458 -79.336749 
L 979.903883 -79.392205 
L 975.825308 -79.466616 
L 971.746734 -79.565021 
L 967.668159 -79.693288 
L 963.589584 -79.858071 
L 959.51101 -80.066728 
L 955.432435 -80.327148 
L 951.35386 -80.647518 
L 947.275286 -81.036009 
L 943.196711 -81.500397 
L 939.118136 -82.047634 
L 935.039561 -82.683398 
L 930.960987 -83.41164 
L 926.882412 -84.23418 
L 922.803837 -85.150368 
L 918.725263 -86.156863 
L 914.646688 -87.24753 
L 910.568113 -88.41349 
L 906.489539 -89.643311 
L 902.410964 -90.923335 
L 898.332389 -92.238106 
L 894.253815 -93.570885 
L 890.17524 -94.904193 
L 886.096665 -96.22037 
L 882.01809 -97.502102 
L 877.939516 -98.732906 
L 873.860941 -99.897565 
L 869.782366 -100.982509 
L 865.703792 -101.97616 
L 861.625217 -102.869245 
L 857.546642 -103.655093 
L 853.468068 -104.329922 
L 849.389493 -104.893102 
L 845.310918 -105.347383 
L 841.232344 -105.699057 
L 837.153769 -105.958023 
L 833.075194 -106.137707 
L 828.996619 -106.254831 
L 824.918045 -106.328993 
L 820.83947 -106.382065 
L 816.760895 -106.437433 
L 812.682321 -106.519105 
L 808.603746 -106.650761 
L 804.525171 -106.854777 
L 800.446597 -107.151314 
L 796.368022 -107.557526 
L 792.289447 -108.086927 
L 788.210873 -108.748959 
L 784.132298 -109.548769 
L 780.053723 -110.487187 
L 775.975148 -111.56089 
L 771.896574 -112.762702 
L 767.817999 -114.081998 
L 763.739424 -115.505169 
L 759.66085 -117.016112 
L 755.582275 -118.596711 
L 751.5037 -120.227312 
L 747.425126 -121.887183 
L 743.346551 -123.55497 
L 739.267976 -125.209176 
L 735.189402 -126.828671 
L 731.110827 -128.393244 
L 727.032252 -129.884204 
L 722.953677 -131.285004 
L 718.875103 -132.581859 
L 714.796528 -133.764309 
L 710.717953 -134.825664 
L 706.639379 -135.763282 
L 702.560804 -136.57862 
L 698.482229 -137.277032 
L 694.403655 -137.867297 
L 690.32508 -138.360907 
L 686.246505 -138.771154 
L 682.167931 -139.112104 
L 678.089356 -139.397535 
L 674.010781 -139.639955 
L 669.932206 -139.849787 
L 665.853632 -140.034797 
L 661.775057 -140.199812 
L 657.696482 -140.346754 
L 653.617908 -140.474955 
L 649.539333 -140.581708 
L 645.460758 -140.662963 
L 641.382184 -140.714082 
L 637.303609 -140.730549 
L 633.225034 -140.708547 
L 629.14646 -140.645333 
L 625.067885 -140.539384 
L 620.98931 -140.390305 
L 616.910735 -140.19853 
L 612.832161 -139.964886 
L 608.753586 -139.690098 
L 604.675011 -139.37432 
L 600.596437 -139.016781 
L 596.517862 -138.615628 
L 592.439287 -138.167991 
L 588.360713 -137.670308 
L 584.282138 -137.118878 
L 580.203563 -136.510611 
L 576.124989 -135.843893 
L 572.046414 -135.1195 
L 567.967839 -134.341467 
L 563.889265 -133.517844 
L 559.81069 -132.661276 
L 555.732115 -131.789382 
L 551.65354 -130.924913 
L 547.574966 -130.095727 
L 543.496391 -129.334603 
L 539.417816 -128.678968 
L 535.339242 -128.170584 
L 531.260667 -127.855268 
L 527.182092 -127.78268 
L 523.103518 -128.006226 
L 519.024943 -128.583057 
L 514.946368 -129.574162 
L 510.867794 -131.044509 
L 506.789219 -133.063143 
L 502.710644 -135.70318 
L 498.632069 -139.041567 
L 494.553495 -143.158535 
L 490.47492 -148.136612 
L 486.396345 -154.059136 
L 482.317771 -161.008195 
L 478.239196 -169.061975 
L 474.160621 -178.291515 
L 470.082047 -188.756946 
L 466.003472 -200.503299 
L 461.924897 -213.556047 
L 457.846323 -227.916558 
L 453.767748 -243.55768 
L 449.689173 -260.419702 
L 445.610598 -278.406932 
L 441.532024 -297.385133 
L 437.453449 -317.180052 
L 433.374874 -337.577236 
L 429.2963 -358.323303 
L 425.217725 -379.128798 
L 421.13915 -399.672699 
L 417.060576 -419.608602 
L 412.982001 -438.572521 
L 408.903426 -456.192192 
L 404.824852 -472.097654 
L 400.746277 -485.932807 
L 396.667702 -497.367536 
L 392.589127 -506.109915 
L 388.510553 -511.917898 
L 384.431978 -514.609892 
L 380.353403 -514.073549 
L 376.274829 -510.272192 
L 372.196254 -503.24834 
L 368.117679 -493.12397 
L 364.039105 -480.09732 
L 359.96053 -464.436263 
L 355.881955 -446.46854 
L 351.803381 -426.569337 
L 347.724806 -405.146912 
L 343.646231 -382.627102 
L 339.567656 -359.437637 
L 335.489082 -335.993161 
L 331.410507 -312.68179 
L 327.331932 -289.853882 
L 323.253358 -267.813506 
L 319.174783 -246.812855 
L 315.096208 -227.049622 
L 311.017634 -208.667152 
L 306.939059 -191.757005 
L 302.860484 -176.363438 
L 298.78191 -162.489271 
L 294.703335 -150.102559 
L 290.62476 -139.143574 
L 286.546185 -129.531642 
L 282.467611 -121.171498 
L 278.389036 -113.958922 
L 274.310461 -107.785521 
L 270.231887 -102.542616 
L 266.153312 -98.124254 
L 262.074737 -94.429438 
L 257.996163 -91.363649 
L 253.917588 -88.839813 
L 249.839013 -86.778799 
L 245.760439 -85.109571 
L 241.681864 -83.769072 
L 237.603289 -82.701929 
L 233.524714 -81.860014 
L 229.44614 -81.201928 
L 225.367565 -80.692427 
L 221.28899 -80.301826 
L 217.210416 -80.005389 
L 213.131841 -79.782739 
L 209.053266 -79.617275 
L 204.974692 -79.495639 
L 200.896117 -79.407207 
L 196.817542 -79.343639 
L 192.738968 -79.298465 
L 188.660393 -79.266737 
L 184.581818 -79.244715 
z
" style="stroke: #0000ff"/>
    </defs>
    <g clip-path="url(#pad0584fffa)">
     <use xlink:href="#m208aa9d73d" x="0" y="720" style="fill: #0000ff; fill-opacity: 0.8; stroke: #0000ff"/>
    </g>
   </g>
   <g id="PolyCollection_2">
    <defs>
     <path id="m4a29a768b9" d="M 250.302142 -79.688838 
L 250.302142 -79.2 
L 253.908049 -79.2 
L 257.513955 -79.2 
L 261.119861 -79.2 
L 264.725767 -79.2 
L 268.331673 -79.2 
L 271.937579 -79.2 
L 275.543485 -79.2 
L 279.149392 -79.2 
L 282.755298 -79.2 
L 286.361204 -79.2 
L 289.96711 -79.2 
L 293.573016 -79.2 
L 297.178922 -79.2 
L 300.784829 -79.2 
L 304.390735 -79.2 
L 307.996641 -79.2 
L 311.602547 -79.2 
L 315.208453 -79.2 
L 318.814359 -79.2 
L 322.420265 -79.2 
L 326.026172 -79.2 
L 329.632078 -79.2 
L 333.237984 -79.2 
L 336.84389 -79.2 
L 340.449796 -79.2 
L 344.055702 -79.2 
L 347.661609 -79.2 
L 351.267515 -79.2 
L 354.873421 -79.2 
L 358.479327 -79.2 
L 362.085233 -79.2 
L 365.691139 -79.2 
L 369.297046 -79.2 
L 372.902952 -79.2 
L 376.508858 -79.2 
L 380.114764 -79.2 
L 383.72067 -79.2 
L 387.326576 -79.2 
L 390.932482 -79.2 
L 394.538389 -79.2 
L 398.144295 -79.2 
L 401.750201 -79.2 
L 405.356107 -79.2 
L 408.962013 -79.2 
L 412.567919 -79.2 
L 416.173826 -79.2 
L 419.779732 -79.2 
L 423.385638 -79.2 
L 426.991544 -79.2 
L 430.59745 -79.2 
L 434.203356 -79.2 
L 437.809262 -79.2 
L 441.415169 -79.2 
L 445.021075 -79.2 
L 448.626981 -79.2 
L 452.232887 -79.2 
L 455.838793 -79.2 
L 459.444699 -79.2 
L 463.050606 -79.2 
L 466.656512 -79.2 
L 470.262418 -79.2 
L 473.868324 -79.2 
L 477.47423 -79.2 
L 481.080136 -79.2 
L 484.686043 -79.2 
L 488.291949 -79.2 
L 491.897855 -79.2 
L 495.503761 -79.2 
L 499.109667 -79.2 
L 502.715573 -79.2 
L 506.321479 -79.2 
L 509.927386 -79.2 
L 513.533292 -79.2 
L 517.139198 -79.2 
L 520.745104 -79.2 
L 524.35101 -79.2 
L 527.956916 -79.2 
L 531.562823 -79.2 
L 535.168729 -79.2 
L 538.774635 -79.2 
L 542.380541 -79.2 
L 545.986447 -79.2 
L 549.592353 -79.2 
L 553.198259 -79.2 
L 556.804166 -79.2 
L 560.410072 -79.2 
L 564.015978 -79.2 
L 567.621884 -79.2 
L 571.22779 -79.2 
L 574.833696 -79.2 
L 578.439603 -79.2 
L 582.045509 -79.2 
L 585.651415 -79.2 
L 589.257321 -79.2 
L 592.863227 -79.2 
L 596.469133 -79.2 
L 600.075039 -79.2 
L 603.680946 -79.2 
L 607.286852 -79.2 
L 610.892758 -79.2 
L 614.498664 -79.2 
L 618.10457 -79.2 
L 621.710476 -79.2 
L 625.316383 -79.2 
L 628.922289 -79.2 
L 632.528195 -79.2 
L 636.134101 -79.2 
L 639.740007 -79.2 
L 643.345913 -79.2 
L 646.95182 -79.2 
L 650.557726 -79.2 
L 654.163632 -79.2 
L 657.769538 -79.2 
L 661.375444 -79.2 
L 664.98135 -79.2 
L 668.587256 -79.2 
L 672.193163 -79.2 
L 675.799069 -79.2 
L 679.404975 -79.2 
L 683.010881 -79.2 
L 686.616787 -79.2 
L 690.222693 -79.2 
L 693.8286 -79.2 
L 697.434506 -79.2 
L 701.040412 -79.2 
L 704.646318 -79.2 
L 708.252224 -79.2 
L 711.85813 -79.2 
L 715.464036 -79.2 
L 719.069943 -79.2 
L 722.675849 -79.2 
L 726.281755 -79.2 
L 729.887661 -79.2 
L 733.493567 -79.2 
L 737.099473 -79.2 
L 740.70538 -79.2 
L 744.311286 -79.2 
L 747.917192 -79.2 
L 751.523098 -79.2 
L 755.129004 -79.2 
L 758.73491 -79.2 
L 762.340817 -79.2 
L 765.946723 -79.2 
L 769.552629 -79.2 
L 773.158535 -79.2 
L 776.764441 -79.2 
L 780.370347 -79.2 
L 783.976253 -79.2 
L 787.58216 -79.2 
L 791.188066 -79.2 
L 794.793972 -79.2 
L 798.399878 -79.2 
L 802.005784 -79.2 
L 805.61169 -79.2 
L 809.217597 -79.2 
L 812.823503 -79.2 
L 816.429409 -79.2 
L 820.035315 -79.2 
L 823.641221 -79.2 
L 827.247127 -79.2 
L 830.853033 -79.2 
L 834.45894 -79.2 
L 838.064846 -79.2 
L 841.670752 -79.2 
L 845.276658 -79.2 
L 848.882564 -79.2 
L 852.48847 -79.2 
L 856.094377 -79.2 
L 859.700283 -79.2 
L 863.306189 -79.2 
L 866.912095 -79.2 
L 870.518001 -79.2 
L 874.123907 -79.2 
L 877.729813 -79.2 
L 881.33572 -79.2 
L 884.941626 -79.2 
L 888.547532 -79.2 
L 892.153438 -79.2 
L 895.759344 -79.2 
L 899.36525 -79.2 
L 902.971157 -79.2 
L 906.577063 -79.2 
L 910.182969 -79.2 
L 913.788875 -79.2 
L 917.394781 -79.2 
L 921.000687 -79.2 
L 924.606594 -79.2 
L 928.2125 -79.2 
L 931.818406 -79.2 
L 935.424312 -79.2 
L 939.030218 -79.2 
L 942.636124 -79.2 
L 946.24203 -79.2 
L 949.847937 -79.2 
L 953.453843 -79.2 
L 957.059749 -79.2 
L 960.665655 -79.2 
L 964.271561 -79.2 
L 967.877467 -79.2 
L 967.877467 -79.217111 
L 967.877467 -79.217111 
L 964.271561 -79.224215 
L 960.665655 -79.233838 
L 957.059749 -79.246694 
L 953.453843 -79.263632 
L 949.847937 -79.285636 
L 946.24203 -79.313826 
L 942.636124 -79.349436 
L 939.030218 -79.39379 
L 935.424312 -79.448261 
L 931.818406 -79.51422 
L 928.2125 -79.592969 
L 924.606594 -79.685672 
L 921.000687 -79.793279 
L 917.394781 -79.916454 
L 913.788875 -80.055513 
L 910.182969 -80.210384 
L 906.577063 -80.380588 
L 902.971157 -80.565256 
L 899.36525 -80.763179 
L 895.759344 -80.972905 
L 892.153438 -81.19286 
L 888.547532 -81.421502 
L 884.941626 -81.657501 
L 881.33572 -81.899911 
L 877.729813 -82.148343 
L 874.123907 -82.403105 
L 870.518001 -82.665314 
L 866.912095 -82.936944 
L 863.306189 -83.220833 
L 859.700283 -83.520624 
L 856.094377 -83.840662 
L 852.48847 -84.185854 
L 848.882564 -84.561496 
L 845.276658 -84.973116 
L 841.670752 -85.426317 
L 838.064846 -85.926668 
L 834.45894 -86.479646 
L 830.853033 -87.090637 
L 827.247127 -87.765019 
L 823.641221 -88.508297 
L 820.035315 -89.326302 
L 816.429409 -90.225428 
L 812.823503 -91.212878 
L 809.217597 -92.296899 
L 805.61169 -93.486968 
L 802.005784 -94.793897 
L 798.399878 -96.229832 
L 794.793972 -97.808115 
L 791.188066 -99.543 
L 787.58216 -101.449209 
L 783.976253 -103.541346 
L 780.370347 -105.833169 
L 776.764441 -108.336778 
L 773.158535 -111.061737 
L 769.552629 -114.014195 
L 765.946723 -117.196047 
L 762.340817 -120.604206 
L 758.73491 -124.230012 
L 755.129004 -128.058833 
L 751.523098 -132.069866 
L 747.917192 -136.236164 
L 744.311286 -140.524874 
L 740.70538 -144.897674 
L 737.099473 -149.311387 
L 733.493567 -153.718724 
L 729.887661 -158.069149 
L 726.281755 -162.309811 
L 722.675849 -166.38653 
L 719.069943 -170.244805 
L 715.464036 -173.830849 
L 711.85813 -177.09262 
L 708.252224 -179.980864 
L 704.646318 -182.450145 
L 701.040412 -184.459885 
L 697.434506 -185.975372 
L 693.8286 -186.968757 
L 690.222693 -187.41998 
L 686.616787 -187.317618 
L 683.010881 -186.65961 
L 679.404975 -185.453795 
L 675.799069 -183.718239 
L 672.193163 -181.481266 
L 668.587256 -178.781177 
L 664.98135 -175.665604 
L 661.375444 -172.190482 
L 657.769538 -168.418647 
L 654.163632 -164.418088 
L 650.557726 -160.259914 
L 646.95182 -156.016112 
L 643.345913 -151.757214 
L 639.740007 -147.549986 
L 636.134101 -143.455284 
L 632.528195 -139.526177 
L 628.922289 -135.806478 
L 625.316383 -132.329748 
L 621.710476 -129.118824 
L 618.10457 -126.185913 
L 614.498664 -123.533195 
L 610.892758 -121.15391 
L 607.286852 -119.033816 
L 603.680946 -117.152932 
L 600.075039 -115.487429 
L 596.469133 -114.011553 
L 592.863227 -112.699469 
L 589.257321 -111.526922 
L 585.651415 -110.472627 
L 582.045509 -109.519359 
L 578.439603 -108.654685 
L 574.833696 -107.871352 
L 571.22779 -107.167349 
L 567.621884 -106.545667 
L 564.015978 -106.01382 
L 560.410072 -105.583175 
L 556.804166 -105.26816 
L 553.198259 -105.085404 
L 549.592353 -105.052866 
L 545.986447 -105.189008 
L 542.380541 -105.512047 
L 538.774635 -106.039334 
L 535.168729 -106.786875 
L 531.562823 -107.769034 
L 527.956916 -108.998437 
L 524.35101 -110.4861 
L 520.745104 -112.241805 
L 517.139198 -114.274753 
L 513.533292 -116.594489 
L 509.927386 -119.212141 
L 506.321479 -122.141927 
L 502.715573 -125.402924 
L 499.109667 -129.021033 
L 495.503761 -133.031033 
L 491.897855 -137.478599 
L 488.291949 -142.422111 
L 484.686043 -147.934043 
L 481.080136 -154.101714 
L 477.47423 -161.02716 
L 473.868324 -168.825913 
L 470.262418 -177.624494 
L 466.656512 -187.556503 
L 463.050606 -198.75725 
L 459.444699 -211.356976 
L 455.838793 -225.47283 
L 452.232887 -241.19987 
L 448.626981 -258.601473 
L 445.021075 -277.699642 
L 441.415169 -298.465754 
L 437.809262 -320.812367 
L 434.203356 -344.586695 
L 430.59745 -369.566333 
L 426.991544 -395.45777 
L 423.385638 -421.898082 
L 419.779732 -448.460104 
L 416.173826 -474.661164 
L 412.567919 -499.975297 
L 408.962013 -523.848655 
L 405.356107 -545.71758 
L 401.750201 -565.028672 
L 398.144295 -581.259949 
L 394.538389 -593.942101 
L 390.932482 -602.678738 
L 387.326576 -607.164505 
L 383.72067 -607.2 
L 380.114764 -602.702542 
L 376.508858 -593.712039 
L 372.902952 -580.391466 
L 369.297046 -563.021797 
L 365.691139 -541.991533 
L 362.085233 -517.781356 
L 358.479327 -490.944741 
L 354.873421 -462.085607 
L 351.267515 -431.834296 
L 347.661609 -400.82325 
L 344.055702 -369.663734 
L 340.449796 -338.924857 
L 336.84389 -309.115929 
L 333.237984 -280.672902 
L 329.632078 -253.949364 
L 326.026172 -229.212179 
L 322.420265 -206.641586 
L 318.814359 -186.335284 
L 315.208453 -168.3158 
L 311.602547 -152.540352 
L 307.996641 -138.91229 
L 304.390735 -127.293275 
L 300.784829 -117.515399 
L 297.178922 -109.39258 
L 293.573016 -102.730731 
L 289.96711 -97.336369 
L 286.361204 -93.023479 
L 282.755298 -89.618608 
L 279.149392 -86.964283 
L 275.543485 -84.92094 
L 271.937579 -83.367574 
L 268.331673 -82.201414 
L 264.725767 -81.33684 
L 261.119861 -80.703835 
L 257.513955 -80.246137 
L 253.908049 -79.919311 
L 250.302142 -79.688838 
z
" style="stroke: #00ffff"/>
    </defs>
    <g clip-path="url(#pad0584fffa)">
     <use xlink:href="#m4a29a768b9" x="0" y="720" style="fill: #00ffff; fill-opacity: 0.8; stroke: #00ffff"/>
    </g>
   </g>
   <g id="patch_3">
    <path d="M 144 640.8 
L 144 86.4 
" style="fill: none; stroke: #ffffff; stroke-width: 0.8; stroke-linejoin: miter; stroke-linecap: square"/>
   </g>
   <g id="patch_4">
    <path d="M 1036.8 640.8 
L 1036.8 86.4 
" style="fill: none; stroke: #ffffff; stroke-width: 0.8; stroke-linejoin: miter; stroke-linecap: square"/>
   </g>
   <g id="patch_5">
    <path d="M 144 640.8 
L 1036.8 640.8 
" style="fill: none; stroke: #ffffff; stroke-width: 0.8; stroke-linejoin: miter; stroke-linecap: square"/>
   </g>
   <g id="patch_6">
    <path d="M 144 86.4 
L 1036.8 86.4 
" style="fill: none; stroke: #ffffff; stroke-width: 0.8; stroke-linejoin: miter; stroke-linecap: square"/>
   </g>
   <g id="text_19">
    <!-- Распределение предсказаний и реальных данных (NN) -->
    <g style="fill: #262626" transform="translate(256.293906 80.4) scale(0.26 -0.26)">
     <defs>
      <path id="ArialMT-420" d="M 494 0 
L 494 4581 
L 2222 4581 
Q 2678 4581 2919 4538 
Q 3256 4481 3484 4323 
Q 3713 4166 3852 3881 
Q 3991 3597 3991 3256 
Q 3991 2672 3619 2267 
Q 3247 1863 2275 1863 
L 1100 1863 
L 1100 0 
L 494 0 
z
M 1100 2403 
L 2284 2403 
Q 2872 2403 3119 2622 
Q 3366 2841 3366 3238 
Q 3366 3525 3220 3729 
Q 3075 3934 2838 4000 
Q 2684 4041 2272 4041 
L 1100 4041 
L 1100 2403 
z
" transform="scale(0.015625)"/>
      <path id="ArialMT-43f" d="M 425 3319 
L 3044 3319 
L 3044 0 
L 2481 0 
L 2481 2853 
L 988 2853 
L 988 0 
L 425 0 
L 425 3319 
z
" transform="scale(0.015625)"/>
      <path id="ArialMT-434" d="M 866 3319 
L 3178 3319 
L 3178 463 
L 3538 463 
L 3538 -941 
L 3075 -941 
L 3075 0 
L 463 0 
L 463 -941 
L 0 -941 
L 0 463 
L 297 463 
Q 891 1269 866 3319 
z
M 1334 2853 
Q 1272 1238 834 463 
L 2619 463 
L 2619 2853 
L 1334 2853 
z
" transform="scale(0.015625)"/>
      <path id="ArialMT-43a" d="M 419 3319 
L 981 3319 
L 981 1884 
Q 1250 1884 1358 1987 
Q 1466 2091 1675 2588 
Q 1841 2981 1944 3106 
Q 2047 3231 2181 3275 
Q 2316 3319 2613 3319 
L 2725 3319 
L 2725 2853 
L 2569 2856 
Q 2347 2856 2284 2791 
Q 2219 2722 2084 2381 
Q 1956 2056 1850 1931 
Q 1744 1806 1522 1703 
Q 1884 1606 2234 1028 
L 2850 0 
L 2231 0 
L 1631 1028 
Q 1447 1338 1309 1436 
Q 1172 1534 981 1534 
L 981 0 
L 419 0 
L 419 3319 
z
" transform="scale(0.015625)"/>
      <path id="ArialMT-437" d="M 1156 1500 
L 1156 1941 
Q 1513 1944 1642 1969 
Q 1772 1994 1887 2119 
Q 2003 2244 2003 2431 
Q 2003 2659 1851 2795 
Q 1700 2931 1459 2931 
Q 984 2931 794 2372 
L 259 2459 
Q 509 3394 1466 3394 
Q 1997 3394 2298 3103 
Q 2600 2813 2600 2409 
Q 2600 2003 2206 1763 
Q 2456 1628 2581 1420 
Q 2706 1213 2706 928 
Q 2706 481 2381 203 
Q 2056 -75 1472 -75 
Q 338 -75 156 934 
L 684 1047 
Q 756 728 976 553 
Q 1197 378 1481 378 
Q 1766 378 1955 539 
Q 2144 700 2144 950 
Q 2144 1144 2025 1287 
Q 1906 1431 1772 1467 
Q 1638 1503 1284 1503 
Q 1256 1503 1156 1500 
z
" transform="scale(0.015625)"/>
      <path id="ArialMT-439" d="M 422 3319 
L 984 3319 
L 984 788 
L 2544 3319 
L 3150 3319 
L 3150 0 
L 2588 0 
L 2588 2516 
L 1028 0 
L 422 0 
L 422 3319 
z
M 2374 4575 
L 2759 4575 
Q 2712 4184 2473 3975 
Q 2234 3766 1837 3766 
Q 1437 3766 1198 3973 
Q 959 4181 912 4575 
L 1296 4575 
Q 1340 4363 1469 4258 
Q 1599 4153 1818 4153 
Q 2071 4153 2201 4254 
Q 2331 4356 2374 4575 
z
" transform="scale(0.015625)"/>
      <path id="ArialMT-44b" d="M 3581 3319 
L 4144 3319 
L 4144 0 
L 3581 0 
L 3581 3319 
z
M 434 3319 
L 997 3319 
L 997 2022 
L 1709 2022 
Q 2406 2022 2782 1751 
Q 3159 1481 3159 1006 
Q 3159 591 2845 295 
Q 2531 0 1841 0 
L 434 0 
L 434 3319 
z
M 997 463 
L 1588 463 
Q 2122 463 2350 594 
Q 2578 725 2578 1003 
Q 2578 1219 2409 1387 
Q 2241 1556 1663 1556 
L 997 1556 
L 997 463 
z
" transform="scale(0.015625)"/>
      <path id="ArialMT-445" d="M 47 0 
L 1259 1725 
L 138 3319 
L 841 3319 
L 1350 2541 
Q 1494 2319 1581 2169 
Q 1719 2375 1834 2534 
L 2394 3319 
L 3066 3319 
L 1919 1756 
L 3153 0 
L 2463 0 
L 1781 1031 
L 1600 1309 
L 728 0 
L 47 0 
z
" transform="scale(0.015625)"/>
      <path id="ArialMT-28" d="M 1497 -1347 
Q 1031 -759 709 28 
Q 388 816 388 1659 
Q 388 2403 628 3084 
Q 909 3875 1497 4659 
L 1900 4659 
Q 1522 4009 1400 3731 
Q 1209 3300 1100 2831 
Q 966 2247 966 1656 
Q 966 153 1900 -1347 
L 1497 -1347 
z
" transform="scale(0.015625)"/>
      <path id="ArialMT-4e" d="M 488 0 
L 488 4581 
L 1109 4581 
L 3516 984 
L 3516 4581 
L 4097 4581 
L 4097 0 
L 3475 0 
L 1069 3600 
L 1069 0 
L 488 0 
z
" transform="scale(0.015625)"/>
      <path id="ArialMT-29" d="M 791 -1347 
L 388 -1347 
Q 1322 153 1322 1656 
Q 1322 2244 1188 2822 
Q 1081 3291 891 3722 
Q 769 4003 388 4659 
L 791 4659 
Q 1378 3875 1659 3084 
Q 1900 2403 1900 1659 
Q 1900 816 1576 28 
Q 1253 -759 791 -1347 
z
" transform="scale(0.015625)"/>
     </defs>
     <use xlink:href="#ArialMT-420"/>
     <use xlink:href="#ArialMT-430" x="63.324219"/>
     <use xlink:href="#ArialMT-441" x="118.939453"/>
     <use xlink:href="#ArialMT-43f" x="168.939453"/>
     <use xlink:href="#ArialMT-440" x="223.089844"/>
     <use xlink:href="#ArialMT-435" x="278.705078"/>
     <use xlink:href="#ArialMT-434" x="332.070312"/>
     <use xlink:href="#ArialMT-435" x="390.419922"/>
     <use xlink:href="#ArialMT-43b" x="442.660156"/>
     <use xlink:href="#ArialMT-435" x="501.009766"/>
     <use xlink:href="#ArialMT-43d" x="556.625"/>
     <use xlink:href="#ArialMT-438" x="611.849609"/>
     <use xlink:href="#ArialMT-435" x="667.708984"/>
     <use xlink:href="#ArialMT-20" x="723.324219"/>
     <use xlink:href="#ArialMT-43f" x="751.107422"/>
     <use xlink:href="#ArialMT-440" x="805.257812"/>
     <use xlink:href="#ArialMT-435" x="860.873047"/>
     <use xlink:href="#ArialMT-434" x="914.238281"/>
     <use xlink:href="#ArialMT-441" x="972.587891"/>
     <use xlink:href="#ArialMT-43a" x="1022.587891"/>
     <use xlink:href="#ArialMT-430" x="1068.587891"/>
     <use xlink:href="#ArialMT-437" x="1123.078125"/>
     <use xlink:href="#ArialMT-430" x="1168.927734"/>
     <use xlink:href="#ArialMT-43d" x="1224.542969"/>
     <use xlink:href="#ArialMT-438" x="1279.767578"/>
     <use xlink:href="#ArialMT-439" x="1335.626953"/>
     <use xlink:href="#ArialMT-20" x="1391.486328"/>
     <use xlink:href="#ArialMT-438" x="1419.269531"/>
     <use xlink:href="#ArialMT-20" x="1475.128906"/>
     <use xlink:href="#ArialMT-440" x="1502.912109"/>
     <use xlink:href="#ArialMT-435" x="1558.527344"/>
     <use xlink:href="#ArialMT-430" x="1614.142578"/>
     <use xlink:href="#ArialMT-43b" x="1669.757812"/>
     <use xlink:href="#ArialMT-44c" x="1728.107422"/>
     <use xlink:href="#ArialMT-43d" x="1780.207031"/>
     <use xlink:href="#ArialMT-44b" x="1835.431641"/>
     <use xlink:href="#ArialMT-445" x="1907.306641"/>
     <use xlink:href="#ArialMT-20" x="1957.306641"/>
     <use xlink:href="#ArialMT-434" x="1985.089844"/>
     <use xlink:href="#ArialMT-430" x="2043.439453"/>
     <use xlink:href="#ArialMT-43d" x="2099.054688"/>
     <use xlink:href="#ArialMT-43d" x="2154.279297"/>
     <use xlink:href="#ArialMT-44b" x="2209.503906"/>
     <use xlink:href="#ArialMT-445" x="2281.378906"/>
     <use xlink:href="#ArialMT-20" x="2331.378906"/>
     <use xlink:href="#ArialMT-28" x="2359.162109"/>
     <use xlink:href="#ArialMT-4e" x="2392.462891"/>
     <use xlink:href="#ArialMT-4e" x="2464.679688"/>
     <use xlink:href="#ArialMT-29" x="2536.896484"/>
    </g>
   </g>
   <g id="legend_1">
    <g id="patch_7">
     <path d="M 757.038281 212.489844 
L 1019.3 212.489844 
Q 1024.3 212.489844 1024.3 207.489844 
L 1024.3 103.9 
Q 1024.3 98.9 1019.3 98.9 
L 757.038281 98.9 
Q 752.038281 98.9 752.038281 103.9 
L 752.038281 207.489844 
Q 752.038281 212.489844 757.038281 212.489844 
z
" style="fill: #eaeaf2; opacity: 0.8; stroke: #cccccc; stroke-linejoin: miter"/>
    </g>
    <g id="text_20">
     <!-- Данные -->
     <g style="fill: #262626" transform="translate(843.012891 126.794531) scale(0.25 -0.25)">
      <defs>
       <path id="ArialMT-414" d="M 909 4581 
L 3697 4581 
L 3697 541 
L 4109 541 
L 4109 -1069 
L 3569 -1069 
L 3569 0 
L 541 0 
L 541 -1069 
L 0 -1069 
L 0 541 
L 356 541 
Q 909 1375 909 3913 
L 909 4581 
z
M 3091 4041 
L 1494 4041 
L 1494 3806 
Q 1494 3222 1389 2208 
Q 1284 1194 978 541 
L 3091 541 
L 3091 4041 
z
" transform="scale(0.015625)"/>
      </defs>
      <use xlink:href="#ArialMT-414"/>
      <use xlink:href="#ArialMT-430" x="67.724609"/>
      <use xlink:href="#ArialMT-43d" x="123.339844"/>
      <use xlink:href="#ArialMT-43d" x="178.564453"/>
      <use xlink:href="#ArialMT-44b" x="233.789062"/>
      <use xlink:href="#ArialMT-435" x="305.664062"/>
     </g>
    </g>
    <g id="patch_8">
     <path d="M 762.038281 162.157812 
L 812.038281 162.157812 
L 812.038281 144.657812 
L 762.038281 144.657812 
z
" style="fill: #0000ff; fill-opacity: 0.8; stroke: #0000ff; stroke-linejoin: miter"/>
    </g>
    <g id="text_21">
     <!-- Реальные -->
     <g style="fill: #262626" transform="translate(832.038281 162.157812) scale(0.25 -0.25)">
      <use xlink:href="#ArialMT-420"/>
      <use xlink:href="#ArialMT-435" x="62.324219"/>
      <use xlink:href="#ArialMT-430" x="117.939453"/>
      <use xlink:href="#ArialMT-43b" x="173.554688"/>
      <use xlink:href="#ArialMT-44c" x="231.904297"/>
      <use xlink:href="#ArialMT-43d" x="284.003906"/>
      <use xlink:href="#ArialMT-44b" x="339.228516"/>
      <use xlink:href="#ArialMT-435" x="411.103516"/>
     </g>
    </g>
    <g id="patch_9">
     <path d="M 762.038281 197.521094 
L 812.038281 197.521094 
L 812.038281 180.021094 
L 762.038281 180.021094 
z
" style="fill: #00ffff; fill-opacity: 0.8; stroke: #00ffff; stroke-linejoin: miter"/>
    </g>
    <g id="text_22">
     <!-- Предсказанные -->
     <g style="fill: #262626" transform="translate(832.038281 197.521094) scale(0.25 -0.25)">
      <use xlink:href="#ArialMT-41f"/>
      <use xlink:href="#ArialMT-440" x="71.875"/>
      <use xlink:href="#ArialMT-435" x="127.490234"/>
      <use xlink:href="#ArialMT-434" x="180.855469"/>
      <use xlink:href="#ArialMT-441" x="239.205078"/>
      <use xlink:href="#ArialMT-43a" x="289.205078"/>
      <use xlink:href="#ArialMT-430" x="335.205078"/>
      <use xlink:href="#ArialMT-437" x="389.695312"/>
      <use xlink:href="#ArialMT-430" x="435.544922"/>
      <use xlink:href="#ArialMT-43d" x="491.160156"/>
      <use xlink:href="#ArialMT-43d" x="546.384766"/>
      <use xlink:href="#ArialMT-44b" x="601.609375"/>
      <use xlink:href="#ArialMT-435" x="673.484375"/>
     </g>
    </g>
   </g>
  </g>
 </g>
 <defs>
  <clipPath id="pad0584fffa">
   <rect x="144" y="86.4" width="892.8" height="554.4"/>
  </clipPath>
 </defs>
</svg>
