<?xml version="1.0" encoding="utf-8" standalone="no"?>
<!DOCTYPE svg PUBLIC "-//W3C//DTD SVG 1.1//EN"
  "http://www.w3.org/Graphics/SVG/1.1/DTD/svg11.dtd">
<svg xmlns:xlink="http://www.w3.org/1999/xlink" width="1152pt" height="720pt" viewBox="0 0 1152 720" xmlns="http://www.w3.org/2000/svg" version="1.1">
 <metadata>
  <rdf:RDF xmlns:dc="http://purl.org/dc/elements/1.1/" xmlns:cc="http://creativecommons.org/ns#" xmlns:rdf="http://www.w3.org/1999/02/22-rdf-syntax-ns#">
   <cc:Work>
    <dc:type rdf:resource="http://purl.org/dc/dcmitype/StillImage"/>
    <dc:date>2023-06-24T23:34:16.777711</dc:date>
    <dc:format>image/svg+xml</dc:format>
    <dc:creator>
     <cc:Agent>
      <dc:title>Matplotlib v3.7.1, https://matplotlib.org/</dc:title>
     </cc:Agent>
    </dc:creator>
   </cc:Work>
  </rdf:RDF>
 </metadata>
 <defs>
  <style type="text/css">*{stroke-linejoin: round; stroke-linecap: butt}</style>
 </defs>
 <g id="figure_1">
  <g id="patch_1">
   <path d="M 0 720 
L 1152 720 
L 1152 0 
L 0 0 
z
" style="fill: #ffffff"/>
  </g>
  <g id="axes_1">
   <g id="patch_2">
    <path d="M 144 640.8 
L 1036.8 640.8 
L 1036.8 86.4 
L 144 86.4 
z
" style="fill: #eaeaf2"/>
   </g>
   <g id="matplotlib.axis_1">
    <g id="xtick_1">
     <g id="line2d_1">
      <path d="M 221.826906 640.8 
L 221.826906 86.4 
" clip-path="url(#p45ab7675a0)" style="fill: none; stroke: #ffffff; stroke-width: 0.8; stroke-linecap: round"/>
     </g>
     <g id="text_1">
      <!-- 250 -->
      <g style="fill: #262626" transform="translate(200.973391 665.694531) scale(0.25 -0.25)">
       <defs>
        <path id="ArialMT-32" d="M 3222 541 
L 3222 0 
L 194 0 
Q 188 203 259 391 
Q 375 700 629 1000 
Q 884 1300 1366 1694 
Q 2113 2306 2375 2664 
Q 2638 3022 2638 3341 
Q 2638 3675 2398 3904 
Q 2159 4134 1775 4134 
Q 1369 4134 1125 3890 
Q 881 3647 878 3216 
L 300 3275 
Q 359 3922 746 4261 
Q 1134 4600 1788 4600 
Q 2447 4600 2831 4234 
Q 3216 3869 3216 3328 
Q 3216 3053 3103 2787 
Q 2991 2522 2730 2228 
Q 2469 1934 1863 1422 
Q 1356 997 1212 845 
Q 1069 694 975 541 
L 3222 541 
z
" transform="scale(0.015625)"/>
        <path id="ArialMT-35" d="M 266 1200 
L 856 1250 
Q 922 819 1161 601 
Q 1400 384 1738 384 
Q 2144 384 2425 690 
Q 2706 997 2706 1503 
Q 2706 1984 2436 2262 
Q 2166 2541 1728 2541 
Q 1456 2541 1237 2417 
Q 1019 2294 894 2097 
L 366 2166 
L 809 4519 
L 3088 4519 
L 3088 3981 
L 1259 3981 
L 1013 2750 
Q 1425 3038 1878 3038 
Q 2478 3038 2890 2622 
Q 3303 2206 3303 1553 
Q 3303 931 2941 478 
Q 2500 -78 1738 -78 
Q 1113 -78 717 272 
Q 322 622 266 1200 
z
" transform="scale(0.015625)"/>
        <path id="ArialMT-30" d="M 266 2259 
Q 266 3072 433 3567 
Q 600 4063 929 4331 
Q 1259 4600 1759 4600 
Q 2128 4600 2406 4451 
Q 2684 4303 2865 4023 
Q 3047 3744 3150 3342 
Q 3253 2941 3253 2259 
Q 3253 1453 3087 958 
Q 2922 463 2592 192 
Q 2263 -78 1759 -78 
Q 1097 -78 719 397 
Q 266 969 266 2259 
z
M 844 2259 
Q 844 1131 1108 757 
Q 1372 384 1759 384 
Q 2147 384 2411 759 
Q 2675 1134 2675 2259 
Q 2675 3391 2411 3762 
Q 2147 4134 1753 4134 
Q 1366 4134 1134 3806 
Q 844 3388 844 2259 
z
" transform="scale(0.015625)"/>
       </defs>
       <use xlink:href="#ArialMT-32"/>
       <use xlink:href="#ArialMT-35" x="55.615234"/>
       <use xlink:href="#ArialMT-30" x="111.230469"/>
      </g>
     </g>
    </g>
    <g id="xtick_2">
     <g id="line2d_2">
      <path d="M 353.830683 640.8 
L 353.830683 86.4 
" clip-path="url(#p45ab7675a0)" style="fill: none; stroke: #ffffff; stroke-width: 0.8; stroke-linecap: round"/>
     </g>
     <g id="text_2">
      <!-- 300 -->
      <g style="fill: #262626" transform="translate(332.977167 665.694531) scale(0.25 -0.25)">
       <defs>
        <path id="ArialMT-33" d="M 269 1209 
L 831 1284 
Q 928 806 1161 595 
Q 1394 384 1728 384 
Q 2125 384 2398 659 
Q 2672 934 2672 1341 
Q 2672 1728 2419 1979 
Q 2166 2231 1775 2231 
Q 1616 2231 1378 2169 
L 1441 2663 
Q 1497 2656 1531 2656 
Q 1891 2656 2178 2843 
Q 2466 3031 2466 3422 
Q 2466 3731 2256 3934 
Q 2047 4138 1716 4138 
Q 1388 4138 1169 3931 
Q 950 3725 888 3313 
L 325 3413 
Q 428 3978 793 4289 
Q 1159 4600 1703 4600 
Q 2078 4600 2393 4439 
Q 2709 4278 2876 4000 
Q 3044 3722 3044 3409 
Q 3044 3113 2884 2869 
Q 2725 2625 2413 2481 
Q 2819 2388 3044 2092 
Q 3269 1797 3269 1353 
Q 3269 753 2831 336 
Q 2394 -81 1725 -81 
Q 1122 -81 723 278 
Q 325 638 269 1209 
z
" transform="scale(0.015625)"/>
       </defs>
       <use xlink:href="#ArialMT-33"/>
       <use xlink:href="#ArialMT-30" x="55.615234"/>
       <use xlink:href="#ArialMT-30" x="111.230469"/>
      </g>
     </g>
    </g>
    <g id="xtick_3">
     <g id="line2d_3">
      <path d="M 485.83446 640.8 
L 485.83446 86.4 
" clip-path="url(#p45ab7675a0)" style="fill: none; stroke: #ffffff; stroke-width: 0.8; stroke-linecap: round"/>
     </g>
     <g id="text_3">
      <!-- 350 -->
      <g style="fill: #262626" transform="translate(464.980944 665.694531) scale(0.25 -0.25)">
       <use xlink:href="#ArialMT-33"/>
       <use xlink:href="#ArialMT-35" x="55.615234"/>
       <use xlink:href="#ArialMT-30" x="111.230469"/>
      </g>
     </g>
    </g>
    <g id="xtick_4">
     <g id="line2d_4">
      <path d="M 617.838236 640.8 
L 617.838236 86.4 
" clip-path="url(#p45ab7675a0)" style="fill: none; stroke: #ffffff; stroke-width: 0.8; stroke-linecap: round"/>
     </g>
     <g id="text_4">
      <!-- 400 -->
      <g style="fill: #262626" transform="translate(596.984721 665.694531) scale(0.25 -0.25)">
       <defs>
        <path id="ArialMT-34" d="M 2069 0 
L 2069 1097 
L 81 1097 
L 81 1613 
L 2172 4581 
L 2631 4581 
L 2631 1613 
L 3250 1613 
L 3250 1097 
L 2631 1097 
L 2631 0 
L 2069 0 
z
M 2069 1613 
L 2069 3678 
L 634 1613 
L 2069 1613 
z
" transform="scale(0.015625)"/>
       </defs>
       <use xlink:href="#ArialMT-34"/>
       <use xlink:href="#ArialMT-30" x="55.615234"/>
       <use xlink:href="#ArialMT-30" x="111.230469"/>
      </g>
     </g>
    </g>
    <g id="xtick_5">
     <g id="line2d_5">
      <path d="M 749.842013 640.8 
L 749.842013 86.4 
" clip-path="url(#p45ab7675a0)" style="fill: none; stroke: #ffffff; stroke-width: 0.8; stroke-linecap: round"/>
     </g>
     <g id="text_5">
      <!-- 450 -->
      <g style="fill: #262626" transform="translate(728.988498 665.694531) scale(0.25 -0.25)">
       <use xlink:href="#ArialMT-34"/>
       <use xlink:href="#ArialMT-35" x="55.615234"/>
       <use xlink:href="#ArialMT-30" x="111.230469"/>
      </g>
     </g>
    </g>
    <g id="xtick_6">
     <g id="line2d_6">
      <path d="M 881.84579 640.8 
L 881.84579 86.4 
" clip-path="url(#p45ab7675a0)" style="fill: none; stroke: #ffffff; stroke-width: 0.8; stroke-linecap: round"/>
     </g>
     <g id="text_6">
      <!-- 500 -->
      <g style="fill: #262626" transform="translate(860.992274 665.694531) scale(0.25 -0.25)">
       <use xlink:href="#ArialMT-35"/>
       <use xlink:href="#ArialMT-30" x="55.615234"/>
       <use xlink:href="#ArialMT-30" x="111.230469"/>
      </g>
     </g>
    </g>
    <g id="xtick_7">
     <g id="line2d_7">
      <path d="M 1013.849567 640.8 
L 1013.849567 86.4 
" clip-path="url(#p45ab7675a0)" style="fill: none; stroke: #ffffff; stroke-width: 0.8; stroke-linecap: round"/>
     </g>
     <g id="text_7">
      <!-- 550 -->
      <g style="fill: #262626" transform="translate(992.996051 665.694531) scale(0.25 -0.25)">
       <use xlink:href="#ArialMT-35"/>
       <use xlink:href="#ArialMT-35" x="55.615234"/>
       <use xlink:href="#ArialMT-30" x="111.230469"/>
      </g>
     </g>
    </g>
    <g id="text_8">
     <!-- Значения -->
     <g style="fill: #262626" transform="translate(524.111719 696.136719) scale(0.3 -0.3)">
      <defs>
       <path id="ArialMT-417" d="M 244 1294 
L 822 1444 
Q 888 1109 1173 775 
Q 1459 441 1931 441 
Q 2413 441 2691 687 
Q 2969 934 2969 1284 
Q 2969 1663 2675 1886 
Q 2381 2109 1875 2109 
L 1584 2109 
L 1584 2638 
Q 2003 2638 2225 2686 
Q 2447 2734 2617 2932 
Q 2788 3131 2788 3384 
Q 2788 3684 2555 3906 
Q 2322 4128 1925 4128 
Q 1578 4128 1333 3954 
Q 1088 3781 994 3495 
Q 900 3209 900 3069 
L 319 3200 
Q 534 4659 1931 4659 
Q 2603 4659 2997 4286 
Q 3391 3913 3391 3413 
Q 3391 2772 2784 2419 
Q 3134 2322 3370 2023 
Q 3606 1725 3606 1309 
Q 3606 719 3148 320 
Q 2691 -78 1934 -78 
Q 634 -78 244 1294 
z
" transform="scale(0.015625)"/>
       <path id="ArialMT-43d" d="M 425 3319 
L 988 3319 
L 988 1938 
L 2547 1938 
L 2547 3319 
L 3109 3319 
L 3109 0 
L 2547 0 
L 2547 1472 
L 988 1472 
L 988 0 
L 425 0 
L 425 3319 
z
" transform="scale(0.015625)"/>
       <path id="ArialMT-430" d="M 2588 409 
Q 2275 144 1986 34 
Q 1697 -75 1366 -75 
Q 819 -75 525 192 
Q 231 459 231 875 
Q 231 1119 342 1320 
Q 453 1522 633 1644 
Q 813 1766 1038 1828 
Q 1203 1872 1538 1913 
Q 2219 1994 2541 2106 
Q 2544 2222 2544 2253 
Q 2544 2597 2384 2738 
Q 2169 2928 1744 2928 
Q 1347 2928 1158 2789 
Q 969 2650 878 2297 
L 328 2372 
Q 403 2725 575 2942 
Q 747 3159 1072 3276 
Q 1397 3394 1825 3394 
Q 2250 3394 2515 3294 
Q 2781 3194 2906 3042 
Q 3031 2891 3081 2659 
Q 3109 2516 3109 2141 
L 3109 1391 
Q 3109 606 3145 398 
Q 3181 191 3288 0 
L 2700 0 
Q 2613 175 2588 409 
z
M 2541 1666 
Q 2234 1541 1622 1453 
Q 1275 1403 1131 1340 
Q 988 1278 909 1158 
Q 831 1038 831 891 
Q 831 666 1001 516 
Q 1172 366 1500 366 
Q 1825 366 2078 508 
Q 2331 650 2450 897 
Q 2541 1088 2541 1459 
L 2541 1666 
z
" transform="scale(0.015625)"/>
       <path id="ArialMT-447" d="M 216 3319 
L 778 3319 
L 778 2691 
Q 778 2284 826 2101 
Q 875 1919 1059 1783 
Q 1244 1647 1522 1647 
Q 1841 1647 2347 1816 
L 2347 3319 
L 2909 3319 
L 2909 0 
L 2347 0 
L 2347 1338 
Q 1828 1175 1378 1175 
Q 1000 1175 711 1367 
Q 422 1559 319 1837 
Q 216 2116 216 2450 
L 216 3319 
z
" transform="scale(0.015625)"/>
       <path id="ArialMT-435" d="M 2694 1069 
L 3275 997 
Q 3138 488 2766 206 
Q 2394 -75 1816 -75 
Q 1088 -75 661 373 
Q 234 822 234 1631 
Q 234 2469 665 2931 
Q 1097 3394 1784 3394 
Q 2450 3394 2872 2941 
Q 3294 2488 3294 1666 
Q 3294 1616 3291 1516 
L 816 1516 
Q 847 969 1125 678 
Q 1403 388 1819 388 
Q 2128 388 2347 550 
Q 2566 713 2694 1069 
z
M 847 1978 
L 2700 1978 
Q 2663 2397 2488 2606 
Q 2219 2931 1791 2931 
Q 1403 2931 1139 2672 
Q 875 2413 847 1978 
z
" transform="scale(0.015625)"/>
       <path id="ArialMT-438" d="M 422 3319 
L 984 3319 
L 984 788 
L 2544 3319 
L 3150 3319 
L 3150 0 
L 2588 0 
L 2588 2516 
L 1028 0 
L 422 0 
L 422 3319 
z
" transform="scale(0.015625)"/>
       <path id="ArialMT-44f" d="M 3034 3319 
L 3034 0 
L 2475 0 
L 2475 1294 
L 2150 1294 
Q 1853 1294 1708 1217 
Q 1563 1141 1284 725 
L 794 0 
L 97 0 
L 703 894 
Q 981 1303 1256 1356 
Q 775 1422 542 1703 
Q 309 1984 309 2350 
Q 309 2781 614 3050 
Q 919 3319 1497 3319 
L 3034 3319 
z
M 2475 2853 
L 1675 2853 
Q 1172 2853 1026 2697 
Q 881 2541 881 2331 
Q 881 2034 1095 1895 
Q 1309 1756 1853 1756 
L 2475 1756 
L 2475 2853 
z
" transform="scale(0.015625)"/>
      </defs>
      <use xlink:href="#ArialMT-417"/>
      <use xlink:href="#ArialMT-43d" x="60.400391"/>
      <use xlink:href="#ArialMT-430" x="115.625"/>
      <use xlink:href="#ArialMT-447" x="168.990234"/>
      <use xlink:href="#ArialMT-435" x="221.089844"/>
      <use xlink:href="#ArialMT-43d" x="276.705078"/>
      <use xlink:href="#ArialMT-438" x="331.929688"/>
      <use xlink:href="#ArialMT-44f" x="387.789062"/>
     </g>
    </g>
   </g>
   <g id="matplotlib.axis_2">
    <g id="ytick_1">
     <g id="line2d_8">
      <path d="M 144 640.8 
L 1036.8 640.8 
" clip-path="url(#p45ab7675a0)" style="fill: none; stroke: #ffffff; stroke-width: 0.8; stroke-linecap: round"/>
     </g>
     <g id="text_9">
      <!-- 0.000 -->
      <g style="fill: #262626" transform="translate(74.445312 649.747266) scale(0.25 -0.25)">
       <defs>
        <path id="ArialMT-2e" d="M 581 0 
L 581 641 
L 1222 641 
L 1222 0 
L 581 0 
z
" transform="scale(0.015625)"/>
       </defs>
       <use xlink:href="#ArialMT-30"/>
       <use xlink:href="#ArialMT-2e" x="55.615234"/>
       <use xlink:href="#ArialMT-30" x="83.398438"/>
       <use xlink:href="#ArialMT-30" x="139.013672"/>
       <use xlink:href="#ArialMT-30" x="194.628906"/>
      </g>
     </g>
    </g>
    <g id="ytick_2">
     <g id="line2d_9">
      <path d="M 144 577.247498 
L 1036.8 577.247498 
" clip-path="url(#p45ab7675a0)" style="fill: none; stroke: #ffffff; stroke-width: 0.8; stroke-linecap: round"/>
     </g>
     <g id="text_10">
      <!-- 0.002 -->
      <g style="fill: #262626" transform="translate(74.445312 586.194763) scale(0.25 -0.25)">
       <use xlink:href="#ArialMT-30"/>
       <use xlink:href="#ArialMT-2e" x="55.615234"/>
       <use xlink:href="#ArialMT-30" x="83.398438"/>
       <use xlink:href="#ArialMT-30" x="139.013672"/>
       <use xlink:href="#ArialMT-32" x="194.628906"/>
      </g>
     </g>
    </g>
    <g id="ytick_3">
     <g id="line2d_10">
      <path d="M 144 513.694996 
L 1036.8 513.694996 
" clip-path="url(#p45ab7675a0)" style="fill: none; stroke: #ffffff; stroke-width: 0.8; stroke-linecap: round"/>
     </g>
     <g id="text_11">
      <!-- 0.004 -->
      <g style="fill: #262626" transform="translate(74.445312 522.642261) scale(0.25 -0.25)">
       <use xlink:href="#ArialMT-30"/>
       <use xlink:href="#ArialMT-2e" x="55.615234"/>
       <use xlink:href="#ArialMT-30" x="83.398438"/>
       <use xlink:href="#ArialMT-30" x="139.013672"/>
       <use xlink:href="#ArialMT-34" x="194.628906"/>
      </g>
     </g>
    </g>
    <g id="ytick_4">
     <g id="line2d_11">
      <path d="M 144 450.142493 
L 1036.8 450.142493 
" clip-path="url(#p45ab7675a0)" style="fill: none; stroke: #ffffff; stroke-width: 0.8; stroke-linecap: round"/>
     </g>
     <g id="text_12">
      <!-- 0.006 -->
      <g style="fill: #262626" transform="translate(74.445312 459.089759) scale(0.25 -0.25)">
       <defs>
        <path id="ArialMT-36" d="M 3184 3459 
L 2625 3416 
Q 2550 3747 2413 3897 
Q 2184 4138 1850 4138 
Q 1581 4138 1378 3988 
Q 1113 3794 959 3422 
Q 806 3050 800 2363 
Q 1003 2672 1297 2822 
Q 1591 2972 1913 2972 
Q 2475 2972 2870 2558 
Q 3266 2144 3266 1488 
Q 3266 1056 3080 686 
Q 2894 316 2569 119 
Q 2244 -78 1831 -78 
Q 1128 -78 684 439 
Q 241 956 241 2144 
Q 241 3472 731 4075 
Q 1159 4600 1884 4600 
Q 2425 4600 2770 4297 
Q 3116 3994 3184 3459 
z
M 888 1484 
Q 888 1194 1011 928 
Q 1134 663 1356 523 
Q 1578 384 1822 384 
Q 2178 384 2434 671 
Q 2691 959 2691 1453 
Q 2691 1928 2437 2201 
Q 2184 2475 1800 2475 
Q 1419 2475 1153 2201 
Q 888 1928 888 1484 
z
" transform="scale(0.015625)"/>
       </defs>
       <use xlink:href="#ArialMT-30"/>
       <use xlink:href="#ArialMT-2e" x="55.615234"/>
       <use xlink:href="#ArialMT-30" x="83.398438"/>
       <use xlink:href="#ArialMT-30" x="139.013672"/>
       <use xlink:href="#ArialMT-36" x="194.628906"/>
      </g>
     </g>
    </g>
    <g id="ytick_5">
     <g id="line2d_12">
      <path d="M 144 386.589991 
L 1036.8 386.589991 
" clip-path="url(#p45ab7675a0)" style="fill: none; stroke: #ffffff; stroke-width: 0.8; stroke-linecap: round"/>
     </g>
     <g id="text_13">
      <!-- 0.008 -->
      <g style="fill: #262626" transform="translate(74.445312 395.537257) scale(0.25 -0.25)">
       <defs>
        <path id="ArialMT-38" d="M 1131 2484 
Q 781 2613 612 2850 
Q 444 3088 444 3419 
Q 444 3919 803 4259 
Q 1163 4600 1759 4600 
Q 2359 4600 2725 4251 
Q 3091 3903 3091 3403 
Q 3091 3084 2923 2848 
Q 2756 2613 2416 2484 
Q 2838 2347 3058 2040 
Q 3278 1734 3278 1309 
Q 3278 722 2862 322 
Q 2447 -78 1769 -78 
Q 1091 -78 675 323 
Q 259 725 259 1325 
Q 259 1772 486 2073 
Q 713 2375 1131 2484 
z
M 1019 3438 
Q 1019 3113 1228 2906 
Q 1438 2700 1772 2700 
Q 2097 2700 2305 2904 
Q 2513 3109 2513 3406 
Q 2513 3716 2298 3927 
Q 2084 4138 1766 4138 
Q 1444 4138 1231 3931 
Q 1019 3725 1019 3438 
z
M 838 1322 
Q 838 1081 952 856 
Q 1066 631 1291 507 
Q 1516 384 1775 384 
Q 2178 384 2440 643 
Q 2703 903 2703 1303 
Q 2703 1709 2433 1975 
Q 2163 2241 1756 2241 
Q 1359 2241 1098 1978 
Q 838 1716 838 1322 
z
" transform="scale(0.015625)"/>
       </defs>
       <use xlink:href="#ArialMT-30"/>
       <use xlink:href="#ArialMT-2e" x="55.615234"/>
       <use xlink:href="#ArialMT-30" x="83.398438"/>
       <use xlink:href="#ArialMT-30" x="139.013672"/>
       <use xlink:href="#ArialMT-38" x="194.628906"/>
      </g>
     </g>
    </g>
    <g id="ytick_6">
     <g id="line2d_13">
      <path d="M 144 323.037489 
L 1036.8 323.037489 
" clip-path="url(#p45ab7675a0)" style="fill: none; stroke: #ffffff; stroke-width: 0.8; stroke-linecap: round"/>
     </g>
     <g id="text_14">
      <!-- 0.010 -->
      <g style="fill: #262626" transform="translate(74.445312 331.984755) scale(0.25 -0.25)">
       <defs>
        <path id="ArialMT-31" d="M 2384 0 
L 1822 0 
L 1822 3584 
Q 1619 3391 1289 3197 
Q 959 3003 697 2906 
L 697 3450 
Q 1169 3672 1522 3987 
Q 1875 4303 2022 4600 
L 2384 4600 
L 2384 0 
z
" transform="scale(0.015625)"/>
       </defs>
       <use xlink:href="#ArialMT-30"/>
       <use xlink:href="#ArialMT-2e" x="55.615234"/>
       <use xlink:href="#ArialMT-30" x="83.398438"/>
       <use xlink:href="#ArialMT-31" x="139.013672"/>
       <use xlink:href="#ArialMT-30" x="194.628906"/>
      </g>
     </g>
    </g>
    <g id="ytick_7">
     <g id="line2d_14">
      <path d="M 144 259.484987 
L 1036.8 259.484987 
" clip-path="url(#p45ab7675a0)" style="fill: none; stroke: #ffffff; stroke-width: 0.8; stroke-linecap: round"/>
     </g>
     <g id="text_15">
      <!-- 0.012 -->
      <g style="fill: #262626" transform="translate(74.445312 268.432252) scale(0.25 -0.25)">
       <use xlink:href="#ArialMT-30"/>
       <use xlink:href="#ArialMT-2e" x="55.615234"/>
       <use xlink:href="#ArialMT-30" x="83.398438"/>
       <use xlink:href="#ArialMT-31" x="139.013672"/>
       <use xlink:href="#ArialMT-32" x="194.628906"/>
      </g>
     </g>
    </g>
    <g id="ytick_8">
     <g id="line2d_15">
      <path d="M 144 195.932485 
L 1036.8 195.932485 
" clip-path="url(#p45ab7675a0)" style="fill: none; stroke: #ffffff; stroke-width: 0.8; stroke-linecap: round"/>
     </g>
     <g id="text_16">
      <!-- 0.014 -->
      <g style="fill: #262626" transform="translate(74.445312 204.87975) scale(0.25 -0.25)">
       <use xlink:href="#ArialMT-30"/>
       <use xlink:href="#ArialMT-2e" x="55.615234"/>
       <use xlink:href="#ArialMT-30" x="83.398438"/>
       <use xlink:href="#ArialMT-31" x="139.013672"/>
       <use xlink:href="#ArialMT-34" x="194.628906"/>
      </g>
     </g>
    </g>
    <g id="ytick_9">
     <g id="line2d_16">
      <path d="M 144 132.379982 
L 1036.8 132.379982 
" clip-path="url(#p45ab7675a0)" style="fill: none; stroke: #ffffff; stroke-width: 0.8; stroke-linecap: round"/>
     </g>
     <g id="text_17">
      <!-- 0.016 -->
      <g style="fill: #262626" transform="translate(74.445312 141.327248) scale(0.25 -0.25)">
       <use xlink:href="#ArialMT-30"/>
       <use xlink:href="#ArialMT-2e" x="55.615234"/>
       <use xlink:href="#ArialMT-30" x="83.398438"/>
       <use xlink:href="#ArialMT-31" x="139.013672"/>
       <use xlink:href="#ArialMT-36" x="194.628906"/>
      </g>
     </g>
    </g>
    <g id="text_18">
     <!-- Плотность вероятности -->
     <g style="fill: #262626" transform="translate(64.482812 528.339844) rotate(-90) scale(0.3 -0.3)">
      <defs>
       <path id="ArialMT-41f" d="M 500 4581 
L 4103 4581 
L 4103 0 
L 3494 0 
L 3494 4041 
L 1106 4041 
L 1106 0 
L 500 0 
L 500 4581 
z
" transform="scale(0.015625)"/>
       <path id="ArialMT-43b" d="M 697 3319 
L 3309 3319 
L 3309 0 
L 2750 0 
L 2750 2853 
L 1259 2853 
L 1259 1200 
Q 1259 622 1221 437 
Q 1184 253 1015 115 
Q 847 -22 528 -22 
Q 331 -22 75 3 
L 75 472 
L 322 472 
Q 497 472 572 508 
Q 647 544 672 622 
Q 697 700 697 1131 
L 697 3319 
z
" transform="scale(0.015625)"/>
       <path id="ArialMT-43e" d="M 213 1659 
Q 213 2581 725 3025 
Q 1153 3394 1769 3394 
Q 2453 3394 2887 2945 
Q 3322 2497 3322 1706 
Q 3322 1066 3130 698 
Q 2938 331 2570 128 
Q 2203 -75 1769 -75 
Q 1072 -75 642 372 
Q 213 819 213 1659 
z
M 791 1659 
Q 791 1022 1069 705 
Q 1347 388 1769 388 
Q 2188 388 2466 706 
Q 2744 1025 2744 1678 
Q 2744 2294 2464 2611 
Q 2184 2928 1769 2928 
Q 1347 2928 1069 2612 
Q 791 2297 791 1659 
z
" transform="scale(0.015625)"/>
       <path id="ArialMT-442" d="M 119 3319 
L 2816 3319 
L 2816 2853 
L 1747 2853 
L 1747 0 
L 1188 0 
L 1188 2853 
L 119 2853 
L 119 3319 
z
" transform="scale(0.015625)"/>
       <path id="ArialMT-441" d="M 2588 1216 
L 3141 1144 
Q 3050 572 2676 248 
Q 2303 -75 1759 -75 
Q 1078 -75 664 370 
Q 250 816 250 1647 
Q 250 2184 428 2587 
Q 606 2991 970 3192 
Q 1334 3394 1763 3394 
Q 2303 3394 2647 3120 
Q 2991 2847 3088 2344 
L 2541 2259 
Q 2463 2594 2264 2762 
Q 2066 2931 1784 2931 
Q 1359 2931 1093 2626 
Q 828 2322 828 1663 
Q 828 994 1084 691 
Q 1341 388 1753 388 
Q 2084 388 2306 591 
Q 2528 794 2588 1216 
z
" transform="scale(0.015625)"/>
       <path id="ArialMT-44c" d="M 413 3319 
L 975 3319 
L 975 2022 
L 1688 2022 
Q 2384 2022 2761 1751 
Q 3138 1481 3138 1006 
Q 3138 591 2823 295 
Q 2509 0 1819 0 
L 413 0 
L 413 3319 
z
M 975 463 
L 1566 463 
Q 2100 463 2328 594 
Q 2556 725 2556 1003 
Q 2556 1219 2387 1387 
Q 2219 1556 1641 1556 
L 975 1556 
L 975 463 
z
" transform="scale(0.015625)"/>
       <path id="ArialMT-20" transform="scale(0.015625)"/>
       <path id="ArialMT-432" d="M 425 3319 
L 1722 3319 
Q 2200 3319 2433 3239 
Q 2666 3159 2833 2946 
Q 3000 2734 3000 2438 
Q 3000 2200 2901 2023 
Q 2803 1847 2606 1728 
Q 2841 1650 2995 1436 
Q 3150 1222 3150 928 
Q 3119 456 2812 228 
Q 2506 0 1922 0 
L 425 0 
L 425 3319 
z
M 988 1922 
L 1588 1922 
Q 1947 1922 2081 1959 
Q 2216 1997 2322 2111 
Q 2428 2225 2428 2384 
Q 2428 2647 2242 2750 
Q 2056 2853 1606 2853 
L 988 2853 
L 988 1922 
z
M 988 463 
L 1728 463 
Q 2206 463 2384 573 
Q 2563 684 2572 956 
Q 2572 1116 2469 1252 
Q 2366 1388 2200 1423 
Q 2034 1459 1669 1459 
L 988 1459 
L 988 463 
z
" transform="scale(0.015625)"/>
       <path id="ArialMT-440" d="M 422 -1272 
L 422 3319 
L 934 3319 
L 934 2888 
Q 1116 3141 1344 3267 
Q 1572 3394 1897 3394 
Q 2322 3394 2647 3175 
Q 2972 2956 3137 2557 
Q 3303 2159 3303 1684 
Q 3303 1175 3120 767 
Q 2938 359 2589 142 
Q 2241 -75 1856 -75 
Q 1575 -75 1351 44 
Q 1128 163 984 344 
L 984 -1272 
L 422 -1272 
z
M 931 1641 
Q 931 1000 1190 694 
Q 1450 388 1819 388 
Q 2194 388 2461 705 
Q 2728 1022 2728 1688 
Q 2728 2322 2467 2637 
Q 2206 2953 1844 2953 
Q 1484 2953 1207 2617 
Q 931 2281 931 1641 
z
" transform="scale(0.015625)"/>
      </defs>
      <use xlink:href="#ArialMT-41f"/>
      <use xlink:href="#ArialMT-43b" x="71.875"/>
      <use xlink:href="#ArialMT-43e" x="131.349609"/>
      <use xlink:href="#ArialMT-442" x="184.714844"/>
      <use xlink:href="#ArialMT-43d" x="230.515625"/>
      <use xlink:href="#ArialMT-43e" x="285.740234"/>
      <use xlink:href="#ArialMT-441" x="341.355469"/>
      <use xlink:href="#ArialMT-442" x="391.355469"/>
      <use xlink:href="#ArialMT-44c" x="437.15625"/>
      <use xlink:href="#ArialMT-20" x="489.255859"/>
      <use xlink:href="#ArialMT-432" x="517.039062"/>
      <use xlink:href="#ArialMT-435" x="569.039062"/>
      <use xlink:href="#ArialMT-440" x="624.654297"/>
      <use xlink:href="#ArialMT-43e" x="680.269531"/>
      <use xlink:href="#ArialMT-44f" x="735.884766"/>
      <use xlink:href="#ArialMT-442" x="790.035156"/>
      <use xlink:href="#ArialMT-43d" x="835.835938"/>
      <use xlink:href="#ArialMT-43e" x="891.060547"/>
      <use xlink:href="#ArialMT-441" x="946.675781"/>
      <use xlink:href="#ArialMT-442" x="996.675781"/>
      <use xlink:href="#ArialMT-438" x="1042.476562"/>
     </g>
    </g>
   </g>
   <g id="PolyCollection_1">
    <defs>
     <path id="m5b0275b4de" d="M 184.581818 -79.252818 
L 184.581818 -79.2 
L 188.660393 -79.2 
L 192.738968 -79.2 
L 196.817542 -79.2 
L 200.896117 -79.2 
L 204.974692 -79.2 
L 209.053266 -79.2 
L 213.131841 -79.2 
L 217.210416 -79.2 
L 221.28899 -79.2 
L 225.367565 -79.2 
L 229.44614 -79.2 
L 233.524714 -79.2 
L 237.603289 -79.2 
L 241.681864 -79.2 
L 245.760439 -79.2 
L 249.839013 -79.2 
L 253.917588 -79.2 
L 257.996163 -79.2 
L 262.074737 -79.2 
L 266.153312 -79.2 
L 270.231887 -79.2 
L 274.310461 -79.2 
L 278.389036 -79.2 
L 282.467611 -79.2 
L 286.546185 -79.2 
L 290.62476 -79.2 
L 294.703335 -79.2 
L 298.78191 -79.2 
L 302.860484 -79.2 
L 306.939059 -79.2 
L 311.017634 -79.2 
L 315.096208 -79.2 
L 319.174783 -79.2 
L 323.253358 -79.2 
L 327.331932 -79.2 
L 331.410507 -79.2 
L 335.489082 -79.2 
L 339.567656 -79.2 
L 343.646231 -79.2 
L 347.724806 -79.2 
L 351.803381 -79.2 
L 355.881955 -79.2 
L 359.96053 -79.2 
L 364.039105 -79.2 
L 368.117679 -79.2 
L 372.196254 -79.2 
L 376.274829 -79.2 
L 380.353403 -79.2 
L 384.431978 -79.2 
L 388.510553 -79.2 
L 392.589127 -79.2 
L 396.667702 -79.2 
L 400.746277 -79.2 
L 404.824852 -79.2 
L 408.903426 -79.2 
L 412.982001 -79.2 
L 417.060576 -79.2 
L 421.13915 -79.2 
L 425.217725 -79.2 
L 429.2963 -79.2 
L 433.374874 -79.2 
L 437.453449 -79.2 
L 441.532024 -79.2 
L 445.610598 -79.2 
L 449.689173 -79.2 
L 453.767748 -79.2 
L 457.846323 -79.2 
L 461.924897 -79.2 
L 466.003472 -79.2 
L 470.082047 -79.2 
L 474.160621 -79.2 
L 478.239196 -79.2 
L 482.317771 -79.2 
L 486.396345 -79.2 
L 490.47492 -79.2 
L 494.553495 -79.2 
L 498.632069 -79.2 
L 502.710644 -79.2 
L 506.789219 -79.2 
L 510.867794 -79.2 
L 514.946368 -79.2 
L 519.024943 -79.2 
L 523.103518 -79.2 
L 527.182092 -79.2 
L 531.260667 -79.2 
L 535.339242 -79.2 
L 539.417816 -79.2 
L 543.496391 -79.2 
L 547.574966 -79.2 
L 551.65354 -79.2 
L 555.732115 -79.2 
L 559.81069 -79.2 
L 563.889265 -79.2 
L 567.967839 -79.2 
L 572.046414 -79.2 
L 576.124989 -79.2 
L 580.203563 -79.2 
L 584.282138 -79.2 
L 588.360713 -79.2 
L 592.439287 -79.2 
L 596.517862 -79.2 
L 600.596437 -79.2 
L 604.675011 -79.2 
L 608.753586 -79.2 
L 612.832161 -79.2 
L 616.910735 -79.2 
L 620.98931 -79.2 
L 625.067885 -79.2 
L 629.14646 -79.2 
L 633.225034 -79.2 
L 637.303609 -79.2 
L 641.382184 -79.2 
L 645.460758 -79.2 
L 649.539333 -79.2 
L 653.617908 -79.2 
L 657.696482 -79.2 
L 661.775057 -79.2 
L 665.853632 -79.2 
L 669.932206 -79.2 
L 674.010781 -79.2 
L 678.089356 -79.2 
L 682.167931 -79.2 
L 686.246505 -79.2 
L 690.32508 -79.2 
L 694.403655 -79.2 
L 698.482229 -79.2 
L 702.560804 -79.2 
L 706.639379 -79.2 
L 710.717953 -79.2 
L 714.796528 -79.2 
L 718.875103 -79.2 
L 722.953677 -79.2 
L 727.032252 -79.2 
L 731.110827 -79.2 
L 735.189402 -79.2 
L 739.267976 -79.2 
L 743.346551 -79.2 
L 747.425126 -79.2 
L 751.5037 -79.2 
L 755.582275 -79.2 
L 759.66085 -79.2 
L 763.739424 -79.2 
L 767.817999 -79.2 
L 771.896574 -79.2 
L 775.975148 -79.2 
L 780.053723 -79.2 
L 784.132298 -79.2 
L 788.210873 -79.2 
L 792.289447 -79.2 
L 796.368022 -79.2 
L 800.446597 -79.2 
L 804.525171 -79.2 
L 808.603746 -79.2 
L 812.682321 -79.2 
L 816.760895 -79.2 
L 820.83947 -79.2 
L 824.918045 -79.2 
L 828.996619 -79.2 
L 833.075194 -79.2 
L 837.153769 -79.2 
L 841.232344 -79.2 
L 845.310918 -79.2 
L 849.389493 -79.2 
L 853.468068 -79.2 
L 857.546642 -79.2 
L 861.625217 -79.2 
L 865.703792 -79.2 
L 869.782366 -79.2 
L 873.860941 -79.2 
L 877.939516 -79.2 
L 882.01809 -79.2 
L 886.096665 -79.2 
L 890.17524 -79.2 
L 894.253815 -79.2 
L 898.332389 -79.2 
L 902.410964 -79.2 
L 906.489539 -79.2 
L 910.568113 -79.2 
L 914.646688 -79.2 
L 918.725263 -79.2 
L 922.803837 -79.2 
L 926.882412 -79.2 
L 930.960987 -79.2 
L 935.039561 -79.2 
L 939.118136 -79.2 
L 943.196711 -79.2 
L 947.275286 -79.2 
L 951.35386 -79.2 
L 955.432435 -79.2 
L 959.51101 -79.2 
L 963.589584 -79.2 
L 967.668159 -79.2 
L 971.746734 -79.2 
L 975.825308 -79.2 
L 979.903883 -79.2 
L 983.982458 -79.2 
L 988.061032 -79.2 
L 992.139607 -79.2 
L 996.218182 -79.2 
L 996.218182 -79.253717 
L 996.218182 -79.253717 
L 992.139607 -79.278576 
L 988.061032 -79.313413 
L 983.982458 -79.361532 
L 979.903883 -79.427038 
L 975.825308 -79.514934 
L 971.746734 -79.631174 
L 967.668159 -79.782686 
L 963.589584 -79.977333 
L 959.51101 -80.223804 
L 955.432435 -80.53142 
L 951.35386 -80.90985 
L 947.275286 -81.368746 
L 943.196711 -81.917294 
L 939.118136 -82.563707 
L 935.039561 -83.314689 
L 930.960987 -84.174909 
L 926.882412 -85.146516 
L 922.803837 -86.228743 
L 918.725263 -87.417643 
L 914.646688 -88.705968 
L 910.568113 -90.083233 
L 906.489539 -91.535932 
L 902.410964 -93.047931 
L 898.332389 -94.600975 
L 894.253815 -96.17529 
L 890.17524 -97.75023 
L 886.096665 -99.304934 
L 882.01809 -100.818951 
L 877.939516 -102.27281 
L 873.860941 -103.648536 
L 869.782366 -104.930102 
L 865.703792 -106.103829 
L 861.625217 -107.158765 
L 857.546642 -108.08703 
L 853.468068 -108.884156 
L 849.389493 -109.549399 
L 845.310918 -110.086008 
L 841.232344 -110.501416 
L 837.153769 -110.807312 
L 833.075194 -111.01956 
L 828.996619 -111.157911 
L 824.918045 -111.245513 
L 820.83947 -111.308203 
L 816.760895 -111.373604 
L 812.682321 -111.470078 
L 808.603746 -111.625594 
L 804.525171 -111.866583 
L 800.446597 -112.216861 
L 796.368022 -112.69669 
L 792.289447 -113.322033 
L 788.210873 -114.104044 
L 784.132298 -115.048802 
L 780.053723 -116.157288 
L 775.975148 -117.425576 
L 771.896574 -118.845189 
L 767.817999 -120.403578 
L 763.739424 -122.084668 
L 759.66085 -123.869435 
L 755.582275 -125.736483 
L 751.5037 -127.662594 
L 747.425126 -129.623278 
L 743.346551 -131.593314 
L 739.267976 -133.547308 
L 735.189402 -135.4603 
L 731.110827 -137.308416 
L 727.032252 -139.069577 
L 722.953677 -140.72424 
L 718.875103 -142.25612 
L 714.796528 -143.652862 
L 710.717953 -144.906562 
L 706.639379 -146.014101 
L 702.560804 -146.9772 
L 698.482229 -147.802182 
L 694.403655 -148.499419 
L 690.32508 -149.082483 
L 686.246505 -149.567078 
L 682.167931 -149.969816 
L 678.089356 -150.306974 
L 674.010781 -150.593327 
L 669.932206 -150.841187 
L 665.853632 -151.059726 
L 661.775057 -151.254646 
L 657.696482 -151.428218 
L 653.617908 -151.579653 
L 649.539333 -151.705753 
L 645.460758 -151.801734 
L 641.382184 -151.862117 
L 637.303609 -151.881569 
L 633.225034 -151.85558 
L 629.14646 -151.78091 
L 625.067885 -151.655762 
L 620.98931 -151.479666 
L 616.910735 -151.253136 
L 612.832161 -150.97715 
L 608.753586 -150.652564 
L 604.675011 -150.279558 
L 600.596437 -149.857224 
L 596.517862 -149.383371 
L 592.439287 -148.854611 
L 588.360713 -148.266734 
L 584.282138 -147.615371 
L 580.203563 -146.896869 
L 576.124989 -146.109324 
L 572.046414 -145.253651 
L 567.967839 -144.334617 
L 563.889265 -143.361731 
L 559.81069 -142.349929 
L 555.732115 -141.320023 
L 551.65354 -140.298888 
L 547.574966 -139.31943 
L 543.496391 -138.420369 
L 539.417816 -137.645914 
L 535.339242 -137.045396 
L 531.260667 -136.672935 
L 527.182092 -136.587191 
L 523.103518 -136.851248 
L 519.024943 -137.532615 
L 514.946368 -138.703334 
L 510.867794 -140.440146 
L 506.789219 -142.82461 
L 502.710644 -145.943091 
L 498.632069 -149.886483 
L 494.553495 -154.749555 
L 490.47492 -160.629793 
L 486.396345 -167.625637 
L 482.317771 -175.834052 
L 478.239196 -185.347393 
L 474.160621 -196.249574 
L 470.082047 -208.611623 
L 466.003472 -222.486731 
L 461.924897 -237.904989 
L 457.846323 -254.868012 
L 453.767748 -273.343728 
L 449.689173 -293.261605 
L 445.610598 -314.508608 
L 441.532024 -336.926173 
L 437.453449 -360.30847 
L 433.374874 -384.402178 
L 429.2963 -408.907999 
L 425.217725 -433.48402 
L 421.13915 -457.75104 
L 417.060576 -481.299878 
L 412.982001 -503.700585 
L 408.903426 -524.513431 
L 404.824852 -543.301409 
L 400.746277 -559.643883 
L 396.667702 -573.150913 
L 392.589127 -583.477667 
L 388.510553 -590.338233 
L 384.431978 -593.518109 
L 380.353403 -592.884585 
L 376.274829 -588.394337 
L 372.196254 -580.09759 
L 368.117679 -568.138426 
L 364.039105 -552.751007 
L 359.96053 -534.251752 
L 355.881955 -513.027799 
L 351.803381 -489.522327 
L 347.724806 -464.217579 
L 343.646231 -437.616568 
L 339.567656 -410.22454 
L 335.489082 -382.531284 
L 331.410507 -354.995253 
L 327.331932 -328.030298 
L 323.253358 -301.995597 
L 319.174783 -277.189045 
L 315.096208 -253.844164 
L 311.017634 -232.130278 
L 306.939059 -212.155538 
L 302.860484 -193.972226 
L 298.78191 -177.583669 
L 294.703335 -162.952135 
L 290.62476 -150.007071 
L 286.546185 -138.653184 
L 282.467611 -128.777944 
L 278.389036 -120.258244 
L 274.310461 -112.966046 
L 270.231887 -106.772975 
L 266.153312 -101.55388 
L 262.074737 -97.189456 
L 257.996163 -93.568058 
L 253.917588 -90.58683 
L 249.839013 -88.1523 
L 245.760439 -86.180558 
L 241.681864 -84.597122 
L 237.603289 -83.336582 
L 233.524714 -82.342087 
L 229.44614 -81.564737 
L 225.367565 -80.962899 
L 221.28899 -80.501509 
L 217.210416 -80.15135 
L 213.131841 -79.888348 
L 209.053266 -79.692898 
L 204.974692 -79.549218 
L 200.896117 -79.44476 
L 196.817542 -79.369671 
L 192.738968 -79.31631 
L 188.660393 -79.278832 
L 184.581818 -79.252818 
z
" style="stroke: #0000ff"/>
    </defs>
    <g clip-path="url(#p45ab7675a0)">
     <use xlink:href="#m5b0275b4de" x="0" y="720" style="fill: #0000ff; fill-opacity: 0.8; stroke: #0000ff"/>
    </g>
   </g>
   <g id="PolyCollection_2">
    <defs>
     <path id="m7d6493e829" d="M 188.796683 -79.26282 
L 188.796683 -79.2 
L 192.820441 -79.2 
L 196.844199 -79.2 
L 200.867957 -79.2 
L 204.891715 -79.2 
L 208.915473 -79.2 
L 212.939231 -79.2 
L 216.962989 -79.2 
L 220.986747 -79.2 
L 225.010505 -79.2 
L 229.034263 -79.2 
L 233.058021 -79.2 
L 237.081779 -79.2 
L 241.105537 -79.2 
L 245.129296 -79.2 
L 249.153054 -79.2 
L 253.176812 -79.2 
L 257.20057 -79.2 
L 261.224328 -79.2 
L 265.248086 -79.2 
L 269.271844 -79.2 
L 273.295602 -79.2 
L 277.31936 -79.2 
L 281.343118 -79.2 
L 285.366876 -79.2 
L 289.390634 -79.2 
L 293.414392 -79.2 
L 297.43815 -79.2 
L 301.461908 -79.2 
L 305.485666 -79.2 
L 309.509424 -79.2 
L 313.533182 -79.2 
L 317.556941 -79.2 
L 321.580699 -79.2 
L 325.604457 -79.2 
L 329.628215 -79.2 
L 333.651973 -79.2 
L 337.675731 -79.2 
L 341.699489 -79.2 
L 345.723247 -79.2 
L 349.747005 -79.2 
L 353.770763 -79.2 
L 357.794521 -79.2 
L 361.818279 -79.2 
L 365.842037 -79.2 
L 369.865795 -79.2 
L 373.889553 -79.2 
L 377.913311 -79.2 
L 381.937069 -79.2 
L 385.960827 -79.2 
L 389.984586 -79.2 
L 394.008344 -79.2 
L 398.032102 -79.2 
L 402.05586 -79.2 
L 406.079618 -79.2 
L 410.103376 -79.2 
L 414.127134 -79.2 
L 418.150892 -79.2 
L 422.17465 -79.2 
L 426.198408 -79.2 
L 430.222166 -79.2 
L 434.245924 -79.2 
L 438.269682 -79.2 
L 442.29344 -79.2 
L 446.317198 -79.2 
L 450.340956 -79.2 
L 454.364714 -79.2 
L 458.388472 -79.2 
L 462.412231 -79.2 
L 466.435989 -79.2 
L 470.459747 -79.2 
L 474.483505 -79.2 
L 478.507263 -79.2 
L 482.531021 -79.2 
L 486.554779 -79.2 
L 490.578537 -79.2 
L 494.602295 -79.2 
L 498.626053 -79.2 
L 502.649811 -79.2 
L 506.673569 -79.2 
L 510.697327 -79.2 
L 514.721085 -79.2 
L 518.744843 -79.2 
L 522.768601 -79.2 
L 526.792359 -79.2 
L 530.816117 -79.2 
L 534.839876 -79.2 
L 538.863634 -79.2 
L 542.887392 -79.2 
L 546.91115 -79.2 
L 550.934908 -79.2 
L 554.958666 -79.2 
L 558.982424 -79.2 
L 563.006182 -79.2 
L 567.02994 -79.2 
L 571.053698 -79.2 
L 575.077456 -79.2 
L 579.101214 -79.2 
L 583.124972 -79.2 
L 587.14873 -79.2 
L 591.172488 -79.2 
L 595.196246 -79.2 
L 599.220004 -79.2 
L 603.243762 -79.2 
L 607.267521 -79.2 
L 611.291279 -79.2 
L 615.315037 -79.2 
L 619.338795 -79.2 
L 623.362553 -79.2 
L 627.386311 -79.2 
L 631.410069 -79.2 
L 635.433827 -79.2 
L 639.457585 -79.2 
L 643.481343 -79.2 
L 647.505101 -79.2 
L 651.528859 -79.2 
L 655.552617 -79.2 
L 659.576375 -79.2 
L 663.600133 -79.2 
L 667.623891 -79.2 
L 671.647649 -79.2 
L 675.671407 -79.2 
L 679.695165 -79.2 
L 683.718924 -79.2 
L 687.742682 -79.2 
L 691.76644 -79.2 
L 695.790198 -79.2 
L 699.813956 -79.2 
L 703.837714 -79.2 
L 707.861472 -79.2 
L 711.88523 -79.2 
L 715.908988 -79.2 
L 719.932746 -79.2 
L 723.956504 -79.2 
L 727.980262 -79.2 
L 732.00402 -79.2 
L 736.027778 -79.2 
L 740.051536 -79.2 
L 744.075294 -79.2 
L 748.099052 -79.2 
L 752.12281 -79.2 
L 756.146569 -79.2 
L 760.170327 -79.2 
L 764.194085 -79.2 
L 768.217843 -79.2 
L 772.241601 -79.2 
L 776.265359 -79.2 
L 780.289117 -79.2 
L 784.312875 -79.2 
L 788.336633 -79.2 
L 792.360391 -79.2 
L 796.384149 -79.2 
L 800.407907 -79.2 
L 804.431665 -79.2 
L 808.455423 -79.2 
L 812.479181 -79.2 
L 816.502939 -79.2 
L 820.526697 -79.2 
L 824.550455 -79.2 
L 828.574214 -79.2 
L 832.597972 -79.2 
L 836.62173 -79.2 
L 840.645488 -79.2 
L 844.669246 -79.2 
L 848.693004 -79.2 
L 852.716762 -79.2 
L 856.74052 -79.2 
L 860.764278 -79.2 
L 864.788036 -79.2 
L 868.811794 -79.2 
L 872.835552 -79.2 
L 876.85931 -79.2 
L 880.883068 -79.2 
L 884.906826 -79.2 
L 888.930584 -79.2 
L 892.954342 -79.2 
L 896.9781 -79.2 
L 901.001859 -79.2 
L 905.025617 -79.2 
L 909.049375 -79.2 
L 913.073133 -79.2 
L 917.096891 -79.2 
L 921.120649 -79.2 
L 925.144407 -79.2 
L 929.168165 -79.2 
L 933.191923 -79.2 
L 937.215681 -79.2 
L 941.239439 -79.2 
L 945.263197 -79.2 
L 949.286955 -79.2 
L 953.310713 -79.2 
L 957.334471 -79.2 
L 961.358229 -79.2 
L 965.381987 -79.2 
L 969.405745 -79.2 
L 973.429504 -79.2 
L 977.453262 -79.2 
L 981.47702 -79.2 
L 985.500778 -79.2 
L 989.524536 -79.2 
L 989.524536 -79.270091 
L 989.524536 -79.270091 
L 985.500778 -79.301725 
L 981.47702 -79.345698 
L 977.453262 -79.40595 
L 973.429504 -79.487329 
L 969.405745 -79.595673 
L 965.381987 -79.737857 
L 961.358229 -79.921784 
L 957.334471 -80.15631 
L 953.310713 -80.451086 
L 949.286955 -80.816302 
L 945.263197 -81.26234 
L 941.239439 -81.799329 
L 937.215681 -82.436626 
L 933.191923 -83.182241 
L 929.168165 -84.04224 
L 925.144407 -85.020175 
L 921.120649 -86.116576 
L 917.096891 -87.328555 
L 913.073133 -88.649561 
L 909.049375 -90.069318 
L 905.025617 -91.573949 
L 901.001859 -93.146306 
L 896.9781 -94.766463 
L 892.954342 -96.412366 
L 888.930584 -98.060579 
L 884.906826 -99.687091 
L 880.883068 -101.268136 
L 876.85931 -102.780977 
L 872.835552 -104.204642 
L 868.811794 -105.520575 
L 864.788036 -106.713202 
L 860.764278 -107.770419 
L 856.74052 -108.683979 
L 852.716762 -109.449819 
L 848.693004 -110.068284 
L 844.669246 -110.54427 
L 840.645488 -110.887249 
L 836.62173 -111.111169 
L 832.597972 -111.234188 
L 828.574214 -111.278249 
L 824.550455 -111.268461 
L 820.526697 -111.23232 
L 816.502939 -111.198766 
L 812.479181 -111.197142 
L 808.455423 -111.256097 
L 804.431665 -111.402501 
L 800.407907 -111.660437 
L 796.384149 -112.050346 
L 792.360391 -112.588356 
L 788.336633 -113.285854 
L 784.312875 -114.149284 
L 780.289117 -115.180195 
L 776.265359 -116.375482 
L 772.241601 -117.727798 
L 768.217843 -119.226056 
L 764.194085 -120.856004 
L 760.170327 -122.600777 
L 756.146569 -124.44143 
L 752.12281 -126.357402 
L 748.099052 -128.326923 
L 744.075294 -130.327374 
L 740.051536 -132.335632 
L 736.027778 -134.328421 
L 732.00402 -136.282731 
L 727.980262 -138.176294 
L 723.956504 -139.988145 
L 719.932746 -141.699253 
L 715.908988 -143.293176 
L 711.88523 -144.75669 
L 707.861472 -146.080328 
L 703.837714 -147.258759 
L 699.813956 -148.290947 
L 695.790198 -149.180055 
L 691.76644 -149.933078 
L 687.742682 -150.56023 
L 683.718924 -151.074126 
L 679.695165 -151.488851 
L 675.671407 -151.818989 
L 671.647649 -152.078711 
L 667.623891 -152.281005 
L 663.600133 -152.437115 
L 659.576375 -152.556204 
L 655.552617 -152.645258 
L 651.528859 -152.709192 
L 647.505101 -152.7511 
L 643.481343 -152.772585 
L 639.457585 -152.774092 
L 635.433827 -152.755186 
L 631.410069 -152.714716 
L 627.386311 -152.650863 
L 623.362553 -152.561059 
L 619.338795 -152.441823 
L 615.315037 -152.288555 
L 611.291279 -152.095342 
L 607.267521 -151.854864 
L 603.243762 -151.558425 
L 599.220004 -151.196169 
L 595.196246 -150.757497 
L 591.172488 -150.231674 
L 587.14873 -149.608615 
L 583.124972 -148.879793 
L 579.101214 -148.039215 
L 575.077456 -147.084403 
L 571.053698 -146.01731 
L 567.02994 -144.845107 
L 563.006182 -143.580805 
L 558.982424 -142.243664 
L 554.958666 -140.859388 
L 550.934908 -139.460101 
L 546.91115 -138.084144 
L 542.887392 -136.775712 
L 538.863634 -135.584408 
L 534.839876 -134.564758 
L 530.816117 -133.77575 
L 526.792359 -133.280461 
L 522.768601 -133.145803 
L 518.744843 -133.442422 
L 514.721085 -134.244748 
L 510.697327 -135.631163 
L 506.673569 -137.684234 
L 502.649811 -140.490919 
L 498.626053 -144.142627 
L 494.602295 -148.734997 
L 490.578537 -154.367242 
L 486.554779 -161.140907 
L 482.531021 -169.157915 
L 478.507263 -178.517787 
L 474.483505 -189.314004 
L 470.459747 -201.629502 
L 466.435989 -215.531408 
L 462.412231 -231.065162 
L 458.388472 -248.248279 
L 454.364714 -267.06405 
L 450.340956 -287.455557 
L 446.317198 -309.32037 
L 442.29344 -332.506347 
L 438.269682 -356.808908 
L 434.245924 -381.970115 
L 430.222166 -407.679841 
L 426.198408 -433.579213 
L 422.17465 -459.266425 
L 418.150892 -484.304891 
L 414.127134 -508.233635 
L 410.103376 -530.579646 
L 406.079618 -550.871848 
L 402.05586 -568.656207 
L 398.032102 -583.511398 
L 394.008344 -595.06435 
L 389.984586 -603.004968 
L 385.960827 -607.09924 
L 381.937069 -607.2 
L 377.913311 -603.254658 
L 373.889553 -595.309319 
L 369.865795 -583.508899 
L 365.842037 -568.093053 
L 361.818279 -549.387979 
L 357.794521 -527.794448 
L 353.770763 -503.772628 
L 349.747005 -477.824538 
L 345.723247 -450.475118 
L 341.699489 -422.25297 
L 337.675731 -393.671885 
L 333.651973 -365.214126 
L 329.628215 -337.31633 
L 325.604457 -310.358633 
L 321.580699 -284.657369 
L 317.556941 -260.46142 
L 313.533182 -237.952033 
L 309.509424 -217.245696 
L 305.485666 -198.399507 
L 301.461908 -181.418365 
L 297.43815 -166.2633 
L 293.414392 -152.860269 
L 289.390634 -141.108848 
L 285.366876 -130.890358 
L 281.343118 -122.075094 
L 277.31936 -114.528459 
L 273.295602 -108.115927 
L 269.271844 -102.70686 
L 265.248086 -98.177265 
L 261.224328 -94.411637 
L 257.20057 -91.304046 
L 253.176812 -88.758628 
L 249.153054 -86.689631 
L 245.129296 -85.021143 
L 241.105537 -83.686609 
L 237.081779 -82.62821 
L 233.058021 -81.796168 
L 229.034263 -81.148017 
L 225.010505 -80.647868 
L 220.986747 -80.265678 
L 216.962989 -79.976558 
L 212.939231 -79.760103 
L 208.915473 -79.599768 
L 204.891715 -79.482293 
L 200.867957 -79.397176 
L 196.844199 -79.336204 
L 192.820441 -79.293031 
L 188.796683 -79.26282 
z
" style="stroke: #00ffff"/>
    </defs>
    <g clip-path="url(#p45ab7675a0)">
     <use xlink:href="#m7d6493e829" x="0" y="720" style="fill: #00ffff; fill-opacity: 0.8; stroke: #00ffff"/>
    </g>
   </g>
   <g id="patch_3">
    <path d="M 144 640.8 
L 144 86.4 
" style="fill: none; stroke: #ffffff; stroke-width: 0.8; stroke-linejoin: miter; stroke-linecap: square"/>
   </g>
   <g id="patch_4">
    <path d="M 1036.8 640.8 
L 1036.8 86.4 
" style="fill: none; stroke: #ffffff; stroke-width: 0.8; stroke-linejoin: miter; stroke-linecap: square"/>
   </g>
   <g id="patch_5">
    <path d="M 144 640.8 
L 1036.8 640.8 
" style="fill: none; stroke: #ffffff; stroke-width: 0.8; stroke-linejoin: miter; stroke-linecap: square"/>
   </g>
   <g id="patch_6">
    <path d="M 144 86.4 
L 1036.8 86.4 
" style="fill: none; stroke: #ffffff; stroke-width: 0.8; stroke-linejoin: miter; stroke-linecap: square"/>
   </g>
   <g id="text_19">
    <!-- Распределение предсказаний и реальных данных (XGB) -->
    <g style="fill: #262626" transform="translate(247.616406 80.4) scale(0.26 -0.26)">
     <defs>
      <path id="ArialMT-420" d="M 494 0 
L 494 4581 
L 2222 4581 
Q 2678 4581 2919 4538 
Q 3256 4481 3484 4323 
Q 3713 4166 3852 3881 
Q 3991 3597 3991 3256 
Q 3991 2672 3619 2267 
Q 3247 1863 2275 1863 
L 1100 1863 
L 1100 0 
L 494 0 
z
M 1100 2403 
L 2284 2403 
Q 2872 2403 3119 2622 
Q 3366 2841 3366 3238 
Q 3366 3525 3220 3729 
Q 3075 3934 2838 4000 
Q 2684 4041 2272 4041 
L 1100 4041 
L 1100 2403 
z
" transform="scale(0.015625)"/>
      <path id="ArialMT-43f" d="M 425 3319 
L 3044 3319 
L 3044 0 
L 2481 0 
L 2481 2853 
L 988 2853 
L 988 0 
L 425 0 
L 425 3319 
z
" transform="scale(0.015625)"/>
      <path id="ArialMT-434" d="M 866 3319 
L 3178 3319 
L 3178 463 
L 3538 463 
L 3538 -941 
L 3075 -941 
L 3075 0 
L 463 0 
L 463 -941 
L 0 -941 
L 0 463 
L 297 463 
Q 891 1269 866 3319 
z
M 1334 2853 
Q 1272 1238 834 463 
L 2619 463 
L 2619 2853 
L 1334 2853 
z
" transform="scale(0.015625)"/>
      <path id="ArialMT-43a" d="M 419 3319 
L 981 3319 
L 981 1884 
Q 1250 1884 1358 1987 
Q 1466 2091 1675 2588 
Q 1841 2981 1944 3106 
Q 2047 3231 2181 3275 
Q 2316 3319 2613 3319 
L 2725 3319 
L 2725 2853 
L 2569 2856 
Q 2347 2856 2284 2791 
Q 2219 2722 2084 2381 
Q 1956 2056 1850 1931 
Q 1744 1806 1522 1703 
Q 1884 1606 2234 1028 
L 2850 0 
L 2231 0 
L 1631 1028 
Q 1447 1338 1309 1436 
Q 1172 1534 981 1534 
L 981 0 
L 419 0 
L 419 3319 
z
" transform="scale(0.015625)"/>
      <path id="ArialMT-437" d="M 1156 1500 
L 1156 1941 
Q 1513 1944 1642 1969 
Q 1772 1994 1887 2119 
Q 2003 2244 2003 2431 
Q 2003 2659 1851 2795 
Q 1700 2931 1459 2931 
Q 984 2931 794 2372 
L 259 2459 
Q 509 3394 1466 3394 
Q 1997 3394 2298 3103 
Q 2600 2813 2600 2409 
Q 2600 2003 2206 1763 
Q 2456 1628 2581 1420 
Q 2706 1213 2706 928 
Q 2706 481 2381 203 
Q 2056 -75 1472 -75 
Q 338 -75 156 934 
L 684 1047 
Q 756 728 976 553 
Q 1197 378 1481 378 
Q 1766 378 1955 539 
Q 2144 700 2144 950 
Q 2144 1144 2025 1287 
Q 1906 1431 1772 1467 
Q 1638 1503 1284 1503 
Q 1256 1503 1156 1500 
z
" transform="scale(0.015625)"/>
      <path id="ArialMT-439" d="M 422 3319 
L 984 3319 
L 984 788 
L 2544 3319 
L 3150 3319 
L 3150 0 
L 2588 0 
L 2588 2516 
L 1028 0 
L 422 0 
L 422 3319 
z
M 2374 4575 
L 2759 4575 
Q 2712 4184 2473 3975 
Q 2234 3766 1837 3766 
Q 1437 3766 1198 3973 
Q 959 4181 912 4575 
L 1296 4575 
Q 1340 4363 1469 4258 
Q 1599 4153 1818 4153 
Q 2071 4153 2201 4254 
Q 2331 4356 2374 4575 
z
" transform="scale(0.015625)"/>
      <path id="ArialMT-44b" d="M 3581 3319 
L 4144 3319 
L 4144 0 
L 3581 0 
L 3581 3319 
z
M 434 3319 
L 997 3319 
L 997 2022 
L 1709 2022 
Q 2406 2022 2782 1751 
Q 3159 1481 3159 1006 
Q 3159 591 2845 295 
Q 2531 0 1841 0 
L 434 0 
L 434 3319 
z
M 997 463 
L 1588 463 
Q 2122 463 2350 594 
Q 2578 725 2578 1003 
Q 2578 1219 2409 1387 
Q 2241 1556 1663 1556 
L 997 1556 
L 997 463 
z
" transform="scale(0.015625)"/>
      <path id="ArialMT-445" d="M 47 0 
L 1259 1725 
L 138 3319 
L 841 3319 
L 1350 2541 
Q 1494 2319 1581 2169 
Q 1719 2375 1834 2534 
L 2394 3319 
L 3066 3319 
L 1919 1756 
L 3153 0 
L 2463 0 
L 1781 1031 
L 1600 1309 
L 728 0 
L 47 0 
z
" transform="scale(0.015625)"/>
      <path id="ArialMT-28" d="M 1497 -1347 
Q 1031 -759 709 28 
Q 388 816 388 1659 
Q 388 2403 628 3084 
Q 909 3875 1497 4659 
L 1900 4659 
Q 1522 4009 1400 3731 
Q 1209 3300 1100 2831 
Q 966 2247 966 1656 
Q 966 153 1900 -1347 
L 1497 -1347 
z
" transform="scale(0.015625)"/>
      <path id="ArialMT-58" d="M 28 0 
L 1800 2388 
L 238 4581 
L 959 4581 
L 1791 3406 
Q 2050 3041 2159 2844 
Q 2313 3094 2522 3366 
L 3444 4581 
L 4103 4581 
L 2494 2422 
L 4228 0 
L 3478 0 
L 2325 1634 
Q 2228 1775 2125 1941 
Q 1972 1691 1906 1597 
L 756 0 
L 28 0 
z
" transform="scale(0.015625)"/>
      <path id="ArialMT-47" d="M 2638 1797 
L 2638 2334 
L 4578 2338 
L 4578 638 
Q 4131 281 3656 101 
Q 3181 -78 2681 -78 
Q 2006 -78 1454 211 
Q 903 500 622 1047 
Q 341 1594 341 2269 
Q 341 2938 620 3517 
Q 900 4097 1425 4378 
Q 1950 4659 2634 4659 
Q 3131 4659 3532 4498 
Q 3934 4338 4162 4050 
Q 4391 3763 4509 3300 
L 3963 3150 
Q 3859 3500 3706 3700 
Q 3553 3900 3268 4020 
Q 2984 4141 2638 4141 
Q 2222 4141 1919 4014 
Q 1616 3888 1430 3681 
Q 1244 3475 1141 3228 
Q 966 2803 966 2306 
Q 966 1694 1177 1281 
Q 1388 869 1791 669 
Q 2194 469 2647 469 
Q 3041 469 3416 620 
Q 3791 772 3984 944 
L 3984 1797 
L 2638 1797 
z
" transform="scale(0.015625)"/>
      <path id="ArialMT-42" d="M 469 0 
L 469 4581 
L 2188 4581 
Q 2713 4581 3030 4442 
Q 3347 4303 3526 4014 
Q 3706 3725 3706 3409 
Q 3706 3116 3547 2856 
Q 3388 2597 3066 2438 
Q 3481 2316 3704 2022 
Q 3928 1728 3928 1328 
Q 3928 1006 3792 729 
Q 3656 453 3456 303 
Q 3256 153 2954 76 
Q 2653 0 2216 0 
L 469 0 
z
M 1075 2656 
L 2066 2656 
Q 2469 2656 2644 2709 
Q 2875 2778 2992 2937 
Q 3109 3097 3109 3338 
Q 3109 3566 3000 3739 
Q 2891 3913 2687 3977 
Q 2484 4041 1991 4041 
L 1075 4041 
L 1075 2656 
z
M 1075 541 
L 2216 541 
Q 2509 541 2628 563 
Q 2838 600 2978 687 
Q 3119 775 3209 942 
Q 3300 1109 3300 1328 
Q 3300 1584 3169 1773 
Q 3038 1963 2805 2039 
Q 2572 2116 2134 2116 
L 1075 2116 
L 1075 541 
z
" transform="scale(0.015625)"/>
      <path id="ArialMT-29" d="M 791 -1347 
L 388 -1347 
Q 1322 153 1322 1656 
Q 1322 2244 1188 2822 
Q 1081 3291 891 3722 
Q 769 4003 388 4659 
L 791 4659 
Q 1378 3875 1659 3084 
Q 1900 2403 1900 1659 
Q 1900 816 1576 28 
Q 1253 -759 791 -1347 
z
" transform="scale(0.015625)"/>
     </defs>
     <use xlink:href="#ArialMT-420"/>
     <use xlink:href="#ArialMT-430" x="63.324219"/>
     <use xlink:href="#ArialMT-441" x="118.939453"/>
     <use xlink:href="#ArialMT-43f" x="168.939453"/>
     <use xlink:href="#ArialMT-440" x="223.089844"/>
     <use xlink:href="#ArialMT-435" x="278.705078"/>
     <use xlink:href="#ArialMT-434" x="332.070312"/>
     <use xlink:href="#ArialMT-435" x="390.419922"/>
     <use xlink:href="#ArialMT-43b" x="442.660156"/>
     <use xlink:href="#ArialMT-435" x="501.009766"/>
     <use xlink:href="#ArialMT-43d" x="556.625"/>
     <use xlink:href="#ArialMT-438" x="611.849609"/>
     <use xlink:href="#ArialMT-435" x="667.708984"/>
     <use xlink:href="#ArialMT-20" x="723.324219"/>
     <use xlink:href="#ArialMT-43f" x="751.107422"/>
     <use xlink:href="#ArialMT-440" x="805.257812"/>
     <use xlink:href="#ArialMT-435" x="860.873047"/>
     <use xlink:href="#ArialMT-434" x="914.238281"/>
     <use xlink:href="#ArialMT-441" x="972.587891"/>
     <use xlink:href="#ArialMT-43a" x="1022.587891"/>
     <use xlink:href="#ArialMT-430" x="1068.587891"/>
     <use xlink:href="#ArialMT-437" x="1123.078125"/>
     <use xlink:href="#ArialMT-430" x="1168.927734"/>
     <use xlink:href="#ArialMT-43d" x="1224.542969"/>
     <use xlink:href="#ArialMT-438" x="1279.767578"/>
     <use xlink:href="#ArialMT-439" x="1335.626953"/>
     <use xlink:href="#ArialMT-20" x="1391.486328"/>
     <use xlink:href="#ArialMT-438" x="1419.269531"/>
     <use xlink:href="#ArialMT-20" x="1475.128906"/>
     <use xlink:href="#ArialMT-440" x="1502.912109"/>
     <use xlink:href="#ArialMT-435" x="1558.527344"/>
     <use xlink:href="#ArialMT-430" x="1614.142578"/>
     <use xlink:href="#ArialMT-43b" x="1669.757812"/>
     <use xlink:href="#ArialMT-44c" x="1728.107422"/>
     <use xlink:href="#ArialMT-43d" x="1780.207031"/>
     <use xlink:href="#ArialMT-44b" x="1835.431641"/>
     <use xlink:href="#ArialMT-445" x="1907.306641"/>
     <use xlink:href="#ArialMT-20" x="1957.306641"/>
     <use xlink:href="#ArialMT-434" x="1985.089844"/>
     <use xlink:href="#ArialMT-430" x="2043.439453"/>
     <use xlink:href="#ArialMT-43d" x="2099.054688"/>
     <use xlink:href="#ArialMT-43d" x="2154.279297"/>
     <use xlink:href="#ArialMT-44b" x="2209.503906"/>
     <use xlink:href="#ArialMT-445" x="2281.378906"/>
     <use xlink:href="#ArialMT-20" x="2331.378906"/>
     <use xlink:href="#ArialMT-28" x="2359.162109"/>
     <use xlink:href="#ArialMT-58" x="2392.462891"/>
     <use xlink:href="#ArialMT-47" x="2459.162109"/>
     <use xlink:href="#ArialMT-42" x="2536.945312"/>
     <use xlink:href="#ArialMT-29" x="2603.644531"/>
    </g>
   </g>
   <g id="legend_1">
    <g id="patch_7">
     <path d="M 757.038281 212.489844 
L 1019.3 212.489844 
Q 1024.3 212.489844 1024.3 207.489844 
L 1024.3 103.9 
Q 1024.3 98.9 1019.3 98.9 
L 757.038281 98.9 
Q 752.038281 98.9 752.038281 103.9 
L 752.038281 207.489844 
Q 752.038281 212.489844 757.038281 212.489844 
z
" style="fill: #eaeaf2; opacity: 0.8; stroke: #cccccc; stroke-linejoin: miter"/>
    </g>
    <g id="text_20">
     <!-- Данные -->
     <g style="fill: #262626" transform="translate(843.012891 126.794531) scale(0.25 -0.25)">
      <defs>
       <path id="ArialMT-414" d="M 909 4581 
L 3697 4581 
L 3697 541 
L 4109 541 
L 4109 -1069 
L 3569 -1069 
L 3569 0 
L 541 0 
L 541 -1069 
L 0 -1069 
L 0 541 
L 356 541 
Q 909 1375 909 3913 
L 909 4581 
z
M 3091 4041 
L 1494 4041 
L 1494 3806 
Q 1494 3222 1389 2208 
Q 1284 1194 978 541 
L 3091 541 
L 3091 4041 
z
" transform="scale(0.015625)"/>
      </defs>
      <use xlink:href="#ArialMT-414"/>
      <use xlink:href="#ArialMT-430" x="67.724609"/>
      <use xlink:href="#ArialMT-43d" x="123.339844"/>
      <use xlink:href="#ArialMT-43d" x="178.564453"/>
      <use xlink:href="#ArialMT-44b" x="233.789062"/>
      <use xlink:href="#ArialMT-435" x="305.664062"/>
     </g>
    </g>
    <g id="patch_8">
     <path d="M 762.038281 162.157812 
L 812.038281 162.157812 
L 812.038281 144.657812 
L 762.038281 144.657812 
z
" style="fill: #0000ff; fill-opacity: 0.8; stroke: #0000ff; stroke-linejoin: miter"/>
    </g>
    <g id="text_21">
     <!-- Реальные -->
     <g style="fill: #262626" transform="translate(832.038281 162.157812) scale(0.25 -0.25)">
      <use xlink:href="#ArialMT-420"/>
      <use xlink:href="#ArialMT-435" x="62.324219"/>
      <use xlink:href="#ArialMT-430" x="117.939453"/>
      <use xlink:href="#ArialMT-43b" x="173.554688"/>
      <use xlink:href="#ArialMT-44c" x="231.904297"/>
      <use xlink:href="#ArialMT-43d" x="284.003906"/>
      <use xlink:href="#ArialMT-44b" x="339.228516"/>
      <use xlink:href="#ArialMT-435" x="411.103516"/>
     </g>
    </g>
    <g id="patch_9">
     <path d="M 762.038281 197.521094 
L 812.038281 197.521094 
L 812.038281 180.021094 
L 762.038281 180.021094 
z
" style="fill: #00ffff; fill-opacity: 0.8; stroke: #00ffff; stroke-linejoin: miter"/>
    </g>
    <g id="text_22">
     <!-- Предсказанные -->
     <g style="fill: #262626" transform="translate(832.038281 197.521094) scale(0.25 -0.25)">
      <use xlink:href="#ArialMT-41f"/>
      <use xlink:href="#ArialMT-440" x="71.875"/>
      <use xlink:href="#ArialMT-435" x="127.490234"/>
      <use xlink:href="#ArialMT-434" x="180.855469"/>
      <use xlink:href="#ArialMT-441" x="239.205078"/>
      <use xlink:href="#ArialMT-43a" x="289.205078"/>
      <use xlink:href="#ArialMT-430" x="335.205078"/>
      <use xlink:href="#ArialMT-437" x="389.695312"/>
      <use xlink:href="#ArialMT-430" x="435.544922"/>
      <use xlink:href="#ArialMT-43d" x="491.160156"/>
      <use xlink:href="#ArialMT-43d" x="546.384766"/>
      <use xlink:href="#ArialMT-44b" x="601.609375"/>
      <use xlink:href="#ArialMT-435" x="673.484375"/>
     </g>
    </g>
   </g>
  </g>
 </g>
 <defs>
  <clipPath id="p45ab7675a0">
   <rect x="144" y="86.4" width="892.8" height="554.4"/>
  </clipPath>
 </defs>
</svg>
