<?xml version="1.0" encoding="utf-8" standalone="no"?>
<!DOCTYPE svg PUBLIC "-//W3C//DTD SVG 1.1//EN"
  "http://www.w3.org/Graphics/SVG/1.1/DTD/svg11.dtd">
<svg xmlns:xlink="http://www.w3.org/1999/xlink" width="1152pt" height="720pt" viewBox="0 0 1152 720" xmlns="http://www.w3.org/2000/svg" version="1.1">
 <metadata>
  <rdf:RDF xmlns:dc="http://purl.org/dc/elements/1.1/" xmlns:cc="http://creativecommons.org/ns#" xmlns:rdf="http://www.w3.org/1999/02/22-rdf-syntax-ns#">
   <cc:Work>
    <dc:type rdf:resource="http://purl.org/dc/dcmitype/StillImage"/>
    <dc:date>2023-06-24T23:24:55.837237</dc:date>
    <dc:format>image/svg+xml</dc:format>
    <dc:creator>
     <cc:Agent>
      <dc:title>Matplotlib v3.7.1, https://matplotlib.org/</dc:title>
     </cc:Agent>
    </dc:creator>
   </cc:Work>
  </rdf:RDF>
 </metadata>
 <defs>
  <style type="text/css">*{stroke-linejoin: round; stroke-linecap: butt}</style>
 </defs>
 <g id="figure_1">
  <g id="patch_1">
   <path d="M 0 720 
L 1152 720 
L 1152 0 
L 0 0 
z
" style="fill: #ffffff"/>
  </g>
  <g id="axes_1">
   <g id="patch_2">
    <path d="M 144 640.8 
L 1036.8 640.8 
L 1036.8 86.4 
L 144 86.4 
z
" style="fill: #eaeaf2"/>
   </g>
   <g id="matplotlib.axis_1">
    <g id="xtick_1">
     <g id="line2d_1">
      <path d="M 151.578203 640.8 
L 151.578203 86.4 
" clip-path="url(#p5d7399741a)" style="fill: none; stroke: #ffffff; stroke-width: 0.8; stroke-linecap: round"/>
     </g>
     <g id="text_1">
      <!-- −100 -->
      <g style="fill: #262626" transform="translate(130.180937 661.399844) scale(0.19 -0.19)">
       <defs>
        <path id="ArialMT-2212" d="M 3381 1997 
L 356 1997 
L 356 2522 
L 3381 2522 
L 3381 1997 
z
" transform="scale(0.015625)"/>
        <path id="ArialMT-31" d="M 2384 0 
L 1822 0 
L 1822 3584 
Q 1619 3391 1289 3197 
Q 959 3003 697 2906 
L 697 3450 
Q 1169 3672 1522 3987 
Q 1875 4303 2022 4600 
L 2384 4600 
L 2384 0 
z
" transform="scale(0.015625)"/>
        <path id="ArialMT-30" d="M 266 2259 
Q 266 3072 433 3567 
Q 600 4063 929 4331 
Q 1259 4600 1759 4600 
Q 2128 4600 2406 4451 
Q 2684 4303 2865 4023 
Q 3047 3744 3150 3342 
Q 3253 2941 3253 2259 
Q 3253 1453 3087 958 
Q 2922 463 2592 192 
Q 2263 -78 1759 -78 
Q 1097 -78 719 397 
Q 266 969 266 2259 
z
M 844 2259 
Q 844 1131 1108 757 
Q 1372 384 1759 384 
Q 2147 384 2411 759 
Q 2675 1134 2675 2259 
Q 2675 3391 2411 3762 
Q 2147 4134 1753 4134 
Q 1366 4134 1134 3806 
Q 844 3388 844 2259 
z
" transform="scale(0.015625)"/>
       </defs>
       <use xlink:href="#ArialMT-2212"/>
       <use xlink:href="#ArialMT-31" x="58.398438"/>
       <use xlink:href="#ArialMT-30" x="114.013672"/>
       <use xlink:href="#ArialMT-30" x="169.628906"/>
      </g>
     </g>
    </g>
    <g id="xtick_2">
     <g id="line2d_2">
      <path d="M 268.127917 640.8 
L 268.127917 86.4 
" clip-path="url(#p5d7399741a)" style="fill: none; stroke: #ffffff; stroke-width: 0.8; stroke-linecap: round"/>
     </g>
     <g id="text_2">
      <!-- 0 -->
      <g style="fill: #262626" transform="translate(262.845027 661.399844) scale(0.19 -0.19)">
       <use xlink:href="#ArialMT-30"/>
      </g>
     </g>
    </g>
    <g id="xtick_3">
     <g id="line2d_3">
      <path d="M 384.677632 640.8 
L 384.677632 86.4 
" clip-path="url(#p5d7399741a)" style="fill: none; stroke: #ffffff; stroke-width: 0.8; stroke-linecap: round"/>
     </g>
     <g id="text_3">
      <!-- 100 -->
      <g style="fill: #262626" transform="translate(368.82896 661.399844) scale(0.19 -0.19)">
       <use xlink:href="#ArialMT-31"/>
       <use xlink:href="#ArialMT-30" x="55.615234"/>
       <use xlink:href="#ArialMT-30" x="111.230469"/>
      </g>
     </g>
    </g>
    <g id="xtick_4">
     <g id="line2d_4">
      <path d="M 501.227347 640.8 
L 501.227347 86.4 
" clip-path="url(#p5d7399741a)" style="fill: none; stroke: #ffffff; stroke-width: 0.8; stroke-linecap: round"/>
     </g>
     <g id="text_4">
      <!-- 200 -->
      <g style="fill: #262626" transform="translate(485.378675 661.399844) scale(0.19 -0.19)">
       <defs>
        <path id="ArialMT-32" d="M 3222 541 
L 3222 0 
L 194 0 
Q 188 203 259 391 
Q 375 700 629 1000 
Q 884 1300 1366 1694 
Q 2113 2306 2375 2664 
Q 2638 3022 2638 3341 
Q 2638 3675 2398 3904 
Q 2159 4134 1775 4134 
Q 1369 4134 1125 3890 
Q 881 3647 878 3216 
L 300 3275 
Q 359 3922 746 4261 
Q 1134 4600 1788 4600 
Q 2447 4600 2831 4234 
Q 3216 3869 3216 3328 
Q 3216 3053 3103 2787 
Q 2991 2522 2730 2228 
Q 2469 1934 1863 1422 
Q 1356 997 1212 845 
Q 1069 694 975 541 
L 3222 541 
z
" transform="scale(0.015625)"/>
       </defs>
       <use xlink:href="#ArialMT-32"/>
       <use xlink:href="#ArialMT-30" x="55.615234"/>
       <use xlink:href="#ArialMT-30" x="111.230469"/>
      </g>
     </g>
    </g>
    <g id="xtick_5">
     <g id="line2d_5">
      <path d="M 617.777061 640.8 
L 617.777061 86.4 
" clip-path="url(#p5d7399741a)" style="fill: none; stroke: #ffffff; stroke-width: 0.8; stroke-linecap: round"/>
     </g>
     <g id="text_5">
      <!-- 300 -->
      <g style="fill: #262626" transform="translate(601.928389 661.399844) scale(0.19 -0.19)">
       <defs>
        <path id="ArialMT-33" d="M 269 1209 
L 831 1284 
Q 928 806 1161 595 
Q 1394 384 1728 384 
Q 2125 384 2398 659 
Q 2672 934 2672 1341 
Q 2672 1728 2419 1979 
Q 2166 2231 1775 2231 
Q 1616 2231 1378 2169 
L 1441 2663 
Q 1497 2656 1531 2656 
Q 1891 2656 2178 2843 
Q 2466 3031 2466 3422 
Q 2466 3731 2256 3934 
Q 2047 4138 1716 4138 
Q 1388 4138 1169 3931 
Q 950 3725 888 3313 
L 325 3413 
Q 428 3978 793 4289 
Q 1159 4600 1703 4600 
Q 2078 4600 2393 4439 
Q 2709 4278 2876 4000 
Q 3044 3722 3044 3409 
Q 3044 3113 2884 2869 
Q 2725 2625 2413 2481 
Q 2819 2388 3044 2092 
Q 3269 1797 3269 1353 
Q 3269 753 2831 336 
Q 2394 -81 1725 -81 
Q 1122 -81 723 278 
Q 325 638 269 1209 
z
" transform="scale(0.015625)"/>
       </defs>
       <use xlink:href="#ArialMT-33"/>
       <use xlink:href="#ArialMT-30" x="55.615234"/>
       <use xlink:href="#ArialMT-30" x="111.230469"/>
      </g>
     </g>
    </g>
    <g id="xtick_6">
     <g id="line2d_6">
      <path d="M 734.326776 640.8 
L 734.326776 86.4 
" clip-path="url(#p5d7399741a)" style="fill: none; stroke: #ffffff; stroke-width: 0.8; stroke-linecap: round"/>
     </g>
     <g id="text_6">
      <!-- 400 -->
      <g style="fill: #262626" transform="translate(718.478104 661.399844) scale(0.19 -0.19)">
       <defs>
        <path id="ArialMT-34" d="M 2069 0 
L 2069 1097 
L 81 1097 
L 81 1613 
L 2172 4581 
L 2631 4581 
L 2631 1613 
L 3250 1613 
L 3250 1097 
L 2631 1097 
L 2631 0 
L 2069 0 
z
M 2069 1613 
L 2069 3678 
L 634 1613 
L 2069 1613 
z
" transform="scale(0.015625)"/>
       </defs>
       <use xlink:href="#ArialMT-34"/>
       <use xlink:href="#ArialMT-30" x="55.615234"/>
       <use xlink:href="#ArialMT-30" x="111.230469"/>
      </g>
     </g>
    </g>
    <g id="xtick_7">
     <g id="line2d_7">
      <path d="M 850.87649 640.8 
L 850.87649 86.4 
" clip-path="url(#p5d7399741a)" style="fill: none; stroke: #ffffff; stroke-width: 0.8; stroke-linecap: round"/>
     </g>
     <g id="text_7">
      <!-- 500 -->
      <g style="fill: #262626" transform="translate(835.027818 661.399844) scale(0.19 -0.19)">
       <defs>
        <path id="ArialMT-35" d="M 266 1200 
L 856 1250 
Q 922 819 1161 601 
Q 1400 384 1738 384 
Q 2144 384 2425 690 
Q 2706 997 2706 1503 
Q 2706 1984 2436 2262 
Q 2166 2541 1728 2541 
Q 1456 2541 1237 2417 
Q 1019 2294 894 2097 
L 366 2166 
L 809 4519 
L 3088 4519 
L 3088 3981 
L 1259 3981 
L 1013 2750 
Q 1425 3038 1878 3038 
Q 2478 3038 2890 2622 
Q 3303 2206 3303 1553 
Q 3303 931 2941 478 
Q 2500 -78 1738 -78 
Q 1113 -78 717 272 
Q 322 622 266 1200 
z
" transform="scale(0.015625)"/>
       </defs>
       <use xlink:href="#ArialMT-35"/>
       <use xlink:href="#ArialMT-30" x="55.615234"/>
       <use xlink:href="#ArialMT-30" x="111.230469"/>
      </g>
     </g>
    </g>
    <g id="xtick_8">
     <g id="line2d_8">
      <path d="M 967.426205 640.8 
L 967.426205 86.4 
" clip-path="url(#p5d7399741a)" style="fill: none; stroke: #ffffff; stroke-width: 0.8; stroke-linecap: round"/>
     </g>
     <g id="text_8">
      <!-- 600 -->
      <g style="fill: #262626" transform="translate(951.577533 661.399844) scale(0.19 -0.19)">
       <defs>
        <path id="ArialMT-36" d="M 3184 3459 
L 2625 3416 
Q 2550 3747 2413 3897 
Q 2184 4138 1850 4138 
Q 1581 4138 1378 3988 
Q 1113 3794 959 3422 
Q 806 3050 800 2363 
Q 1003 2672 1297 2822 
Q 1591 2972 1913 2972 
Q 2475 2972 2870 2558 
Q 3266 2144 3266 1488 
Q 3266 1056 3080 686 
Q 2894 316 2569 119 
Q 2244 -78 1831 -78 
Q 1128 -78 684 439 
Q 241 956 241 2144 
Q 241 3472 731 4075 
Q 1159 4600 1884 4600 
Q 2425 4600 2770 4297 
Q 3116 3994 3184 3459 
z
M 888 1484 
Q 888 1194 1011 928 
Q 1134 663 1356 523 
Q 1578 384 1822 384 
Q 2178 384 2434 671 
Q 2691 959 2691 1453 
Q 2691 1928 2437 2201 
Q 2184 2475 1800 2475 
Q 1419 2475 1153 2201 
Q 888 1928 888 1484 
z
" transform="scale(0.015625)"/>
       </defs>
       <use xlink:href="#ArialMT-36"/>
       <use xlink:href="#ArialMT-30" x="55.615234"/>
       <use xlink:href="#ArialMT-30" x="111.230469"/>
      </g>
     </g>
    </g>
    <g id="text_9">
     <!-- Выработка электроэнергии ТА гр.130 -->
     <g style="fill: #262626" transform="translate(425.806562 683.1025) scale(0.19 -0.19)">
      <defs>
       <path id="ArialMT-412" d="M 469 0 
L 469 4581 
L 2188 4581 
Q 2713 4581 3030 4442 
Q 3347 4303 3526 4014 
Q 3706 3725 3706 3409 
Q 3706 3116 3547 2856 
Q 3388 2597 3066 2438 
Q 3481 2316 3704 2022 
Q 3928 1728 3928 1328 
Q 3928 1006 3792 729 
Q 3656 453 3456 303 
Q 3256 153 2954 76 
Q 2653 0 2216 0 
L 469 0 
z
M 1075 2656 
L 2066 2656 
Q 2469 2656 2644 2709 
Q 2875 2778 2992 2937 
Q 3109 3097 3109 3338 
Q 3109 3566 3000 3739 
Q 2891 3913 2687 3977 
Q 2484 4041 1991 4041 
L 1075 4041 
L 1075 2656 
z
M 1075 541 
L 2216 541 
Q 2509 541 2628 563 
Q 2838 600 2978 687 
Q 3119 775 3209 942 
Q 3300 1109 3300 1328 
Q 3300 1584 3169 1773 
Q 3038 1963 2805 2039 
Q 2572 2116 2134 2116 
L 1075 2116 
L 1075 541 
z
" transform="scale(0.015625)"/>
       <path id="ArialMT-44b" d="M 3581 3319 
L 4144 3319 
L 4144 0 
L 3581 0 
L 3581 3319 
z
M 434 3319 
L 997 3319 
L 997 2022 
L 1709 2022 
Q 2406 2022 2782 1751 
Q 3159 1481 3159 1006 
Q 3159 591 2845 295 
Q 2531 0 1841 0 
L 434 0 
L 434 3319 
z
M 997 463 
L 1588 463 
Q 2122 463 2350 594 
Q 2578 725 2578 1003 
Q 2578 1219 2409 1387 
Q 2241 1556 1663 1556 
L 997 1556 
L 997 463 
z
" transform="scale(0.015625)"/>
       <path id="ArialMT-440" d="M 422 -1272 
L 422 3319 
L 934 3319 
L 934 2888 
Q 1116 3141 1344 3267 
Q 1572 3394 1897 3394 
Q 2322 3394 2647 3175 
Q 2972 2956 3137 2557 
Q 3303 2159 3303 1684 
Q 3303 1175 3120 767 
Q 2938 359 2589 142 
Q 2241 -75 1856 -75 
Q 1575 -75 1351 44 
Q 1128 163 984 344 
L 984 -1272 
L 422 -1272 
z
M 931 1641 
Q 931 1000 1190 694 
Q 1450 388 1819 388 
Q 2194 388 2461 705 
Q 2728 1022 2728 1688 
Q 2728 2322 2467 2637 
Q 2206 2953 1844 2953 
Q 1484 2953 1207 2617 
Q 931 2281 931 1641 
z
" transform="scale(0.015625)"/>
       <path id="ArialMT-430" d="M 2588 409 
Q 2275 144 1986 34 
Q 1697 -75 1366 -75 
Q 819 -75 525 192 
Q 231 459 231 875 
Q 231 1119 342 1320 
Q 453 1522 633 1644 
Q 813 1766 1038 1828 
Q 1203 1872 1538 1913 
Q 2219 1994 2541 2106 
Q 2544 2222 2544 2253 
Q 2544 2597 2384 2738 
Q 2169 2928 1744 2928 
Q 1347 2928 1158 2789 
Q 969 2650 878 2297 
L 328 2372 
Q 403 2725 575 2942 
Q 747 3159 1072 3276 
Q 1397 3394 1825 3394 
Q 2250 3394 2515 3294 
Q 2781 3194 2906 3042 
Q 3031 2891 3081 2659 
Q 3109 2516 3109 2141 
L 3109 1391 
Q 3109 606 3145 398 
Q 3181 191 3288 0 
L 2700 0 
Q 2613 175 2588 409 
z
M 2541 1666 
Q 2234 1541 1622 1453 
Q 1275 1403 1131 1340 
Q 988 1278 909 1158 
Q 831 1038 831 891 
Q 831 666 1001 516 
Q 1172 366 1500 366 
Q 1825 366 2078 508 
Q 2331 650 2450 897 
Q 2541 1088 2541 1459 
L 2541 1666 
z
" transform="scale(0.015625)"/>
       <path id="ArialMT-431" d="M 2853 4691 
L 3350 4684 
Q 3316 4350 3202 4219 
Q 3088 4088 2908 4050 
Q 2728 4013 2203 4013 
Q 1506 4013 1253 3878 
Q 1000 3744 889 3448 
Q 778 3153 766 2688 
Q 978 3003 1262 3161 
Q 1547 3319 1903 3319 
Q 2556 3319 2984 2870 
Q 3413 2422 3413 1656 
Q 3413 1075 3197 703 
Q 2981 331 2686 128 
Q 2391 -75 1881 -75 
Q 1291 -75 962 195 
Q 634 466 459 887 
Q 284 1309 284 2356 
Q 284 3672 729 4128 
Q 1175 4584 2100 4584 
Q 2675 4584 2753 4603 
Q 2831 4622 2853 4691 
z
M 2825 1672 
Q 2825 2191 2579 2522 
Q 2334 2853 1888 2853 
Q 1422 2853 1169 2503 
Q 916 2153 916 1569 
Q 916 991 1195 684 
Q 1475 378 1884 378 
Q 2303 378 2564 733 
Q 2825 1088 2825 1672 
z
" transform="scale(0.015625)"/>
       <path id="ArialMT-43e" d="M 213 1659 
Q 213 2581 725 3025 
Q 1153 3394 1769 3394 
Q 2453 3394 2887 2945 
Q 3322 2497 3322 1706 
Q 3322 1066 3130 698 
Q 2938 331 2570 128 
Q 2203 -75 1769 -75 
Q 1072 -75 642 372 
Q 213 819 213 1659 
z
M 791 1659 
Q 791 1022 1069 705 
Q 1347 388 1769 388 
Q 2188 388 2466 706 
Q 2744 1025 2744 1678 
Q 2744 2294 2464 2611 
Q 2184 2928 1769 2928 
Q 1347 2928 1069 2612 
Q 791 2297 791 1659 
z
" transform="scale(0.015625)"/>
       <path id="ArialMT-442" d="M 119 3319 
L 2816 3319 
L 2816 2853 
L 1747 2853 
L 1747 0 
L 1188 0 
L 1188 2853 
L 119 2853 
L 119 3319 
z
" transform="scale(0.015625)"/>
       <path id="ArialMT-43a" d="M 419 3319 
L 981 3319 
L 981 1884 
Q 1250 1884 1358 1987 
Q 1466 2091 1675 2588 
Q 1841 2981 1944 3106 
Q 2047 3231 2181 3275 
Q 2316 3319 2613 3319 
L 2725 3319 
L 2725 2853 
L 2569 2856 
Q 2347 2856 2284 2791 
Q 2219 2722 2084 2381 
Q 1956 2056 1850 1931 
Q 1744 1806 1522 1703 
Q 1884 1606 2234 1028 
L 2850 0 
L 2231 0 
L 1631 1028 
Q 1447 1338 1309 1436 
Q 1172 1534 981 1534 
L 981 0 
L 419 0 
L 419 3319 
z
" transform="scale(0.015625)"/>
       <path id="ArialMT-20" transform="scale(0.015625)"/>
       <path id="ArialMT-44d" d="M 1278 1931 
L 1278 1469 
L 2450 1469 
Q 2397 928 2170 658 
Q 1944 388 1541 388 
Q 828 388 700 1213 
L 150 1141 
Q 238 594 605 259 
Q 972 -75 1566 -75 
Q 2272 -116 2659 373 
Q 3047 863 3028 1659 
Q 3028 2469 2625 2931 
Q 2222 3394 1525 3394 
Q 969 3394 625 3098 
Q 281 2803 206 2338 
L 753 2250 
Q 891 2928 1544 2928 
Q 1919 2928 2158 2651 
Q 2397 2375 2450 1931 
L 1278 1931 
z
" transform="scale(0.015625)"/>
       <path id="ArialMT-43b" d="M 697 3319 
L 3309 3319 
L 3309 0 
L 2750 0 
L 2750 2853 
L 1259 2853 
L 1259 1200 
Q 1259 622 1221 437 
Q 1184 253 1015 115 
Q 847 -22 528 -22 
Q 331 -22 75 3 
L 75 472 
L 322 472 
Q 497 472 572 508 
Q 647 544 672 622 
Q 697 700 697 1131 
L 697 3319 
z
" transform="scale(0.015625)"/>
       <path id="ArialMT-435" d="M 2694 1069 
L 3275 997 
Q 3138 488 2766 206 
Q 2394 -75 1816 -75 
Q 1088 -75 661 373 
Q 234 822 234 1631 
Q 234 2469 665 2931 
Q 1097 3394 1784 3394 
Q 2450 3394 2872 2941 
Q 3294 2488 3294 1666 
Q 3294 1616 3291 1516 
L 816 1516 
Q 847 969 1125 678 
Q 1403 388 1819 388 
Q 2128 388 2347 550 
Q 2566 713 2694 1069 
z
M 847 1978 
L 2700 1978 
Q 2663 2397 2488 2606 
Q 2219 2931 1791 2931 
Q 1403 2931 1139 2672 
Q 875 2413 847 1978 
z
" transform="scale(0.015625)"/>
       <path id="ArialMT-43d" d="M 425 3319 
L 988 3319 
L 988 1938 
L 2547 1938 
L 2547 3319 
L 3109 3319 
L 3109 0 
L 2547 0 
L 2547 1472 
L 988 1472 
L 988 0 
L 425 0 
L 425 3319 
z
" transform="scale(0.015625)"/>
       <path id="ArialMT-433" d="M 425 3319 
L 2334 3319 
L 2334 2853 
L 988 2853 
L 988 0 
L 425 0 
L 425 3319 
z
" transform="scale(0.015625)"/>
       <path id="ArialMT-438" d="M 422 3319 
L 984 3319 
L 984 788 
L 2544 3319 
L 3150 3319 
L 3150 0 
L 2588 0 
L 2588 2516 
L 1028 0 
L 422 0 
L 422 3319 
z
" transform="scale(0.015625)"/>
       <path id="ArialMT-422" d="M 1659 0 
L 1659 4041 
L 150 4041 
L 150 4581 
L 3781 4581 
L 3781 4041 
L 2266 4041 
L 2266 0 
L 1659 0 
z
" transform="scale(0.015625)"/>
       <path id="ArialMT-410" d="M -9 0 
L 1750 4581 
L 2403 4581 
L 4278 0 
L 3588 0 
L 3053 1388 
L 1138 1388 
L 634 0 
L -9 0 
z
M 1313 1881 
L 2866 1881 
L 2388 3150 
Q 2169 3728 2063 4100 
Q 1975 3659 1816 3225 
L 1313 1881 
z
" transform="scale(0.015625)"/>
       <path id="ArialMT-2e" d="M 581 0 
L 581 641 
L 1222 641 
L 1222 0 
L 581 0 
z
" transform="scale(0.015625)"/>
      </defs>
      <use xlink:href="#ArialMT-412"/>
      <use xlink:href="#ArialMT-44b" x="66.699219"/>
      <use xlink:href="#ArialMT-440" x="138.574219"/>
      <use xlink:href="#ArialMT-430" x="194.189453"/>
      <use xlink:href="#ArialMT-431" x="249.804688"/>
      <use xlink:href="#ArialMT-43e" x="307.080078"/>
      <use xlink:href="#ArialMT-442" x="360.445312"/>
      <use xlink:href="#ArialMT-43a" x="406.246094"/>
      <use xlink:href="#ArialMT-430" x="452.246094"/>
      <use xlink:href="#ArialMT-20" x="507.861328"/>
      <use xlink:href="#ArialMT-44d" x="535.644531"/>
      <use xlink:href="#ArialMT-43b" x="584.419922"/>
      <use xlink:href="#ArialMT-435" x="642.769531"/>
      <use xlink:href="#ArialMT-43a" x="698.384766"/>
      <use xlink:href="#ArialMT-442" x="743.259766"/>
      <use xlink:href="#ArialMT-440" x="789.060547"/>
      <use xlink:href="#ArialMT-43e" x="844.675781"/>
      <use xlink:href="#ArialMT-44d" x="900.291016"/>
      <use xlink:href="#ArialMT-43d" x="951.316406"/>
      <use xlink:href="#ArialMT-435" x="1006.541016"/>
      <use xlink:href="#ArialMT-440" x="1062.15625"/>
      <use xlink:href="#ArialMT-433" x="1117.771484"/>
      <use xlink:href="#ArialMT-438" x="1154.246094"/>
      <use xlink:href="#ArialMT-438" x="1210.105469"/>
      <use xlink:href="#ArialMT-20" x="1265.964844"/>
      <use xlink:href="#ArialMT-422" x="1293.748047"/>
      <use xlink:href="#ArialMT-410" x="1351.457031"/>
      <use xlink:href="#ArialMT-20" x="1418.15625"/>
      <use xlink:href="#ArialMT-433" x="1445.939453"/>
      <use xlink:href="#ArialMT-440" x="1482.414062"/>
      <use xlink:href="#ArialMT-2e" x="1538.029297"/>
      <use xlink:href="#ArialMT-31" x="1565.8125"/>
      <use xlink:href="#ArialMT-33" x="1621.427734"/>
      <use xlink:href="#ArialMT-30" x="1677.042969"/>
     </g>
    </g>
   </g>
   <g id="matplotlib.axis_2">
    <g id="ytick_1">
     <g id="line2d_9">
      <path d="M 144 640.8 
L 1036.8 640.8 
" clip-path="url(#p5d7399741a)" style="fill: none; stroke: #ffffff; stroke-width: 0.8; stroke-linecap: round"/>
     </g>
     <g id="text_10">
      <!-- 0.000 -->
      <g style="fill: #262626" transform="translate(89.458438 647.599922) scale(0.19 -0.19)">
       <use xlink:href="#ArialMT-30"/>
       <use xlink:href="#ArialMT-2e" x="55.615234"/>
       <use xlink:href="#ArialMT-30" x="83.398438"/>
       <use xlink:href="#ArialMT-30" x="139.013672"/>
       <use xlink:href="#ArialMT-30" x="194.628906"/>
      </g>
     </g>
    </g>
    <g id="ytick_2">
     <g id="line2d_10">
      <path d="M 144 573.581514 
L 1036.8 573.581514 
" clip-path="url(#p5d7399741a)" style="fill: none; stroke: #ffffff; stroke-width: 0.8; stroke-linecap: round"/>
     </g>
     <g id="text_11">
      <!-- 0.002 -->
      <g style="fill: #262626" transform="translate(89.458438 580.381436) scale(0.19 -0.19)">
       <use xlink:href="#ArialMT-30"/>
       <use xlink:href="#ArialMT-2e" x="55.615234"/>
       <use xlink:href="#ArialMT-30" x="83.398438"/>
       <use xlink:href="#ArialMT-30" x="139.013672"/>
       <use xlink:href="#ArialMT-32" x="194.628906"/>
      </g>
     </g>
    </g>
    <g id="ytick_3">
     <g id="line2d_11">
      <path d="M 144 506.363028 
L 1036.8 506.363028 
" clip-path="url(#p5d7399741a)" style="fill: none; stroke: #ffffff; stroke-width: 0.8; stroke-linecap: round"/>
     </g>
     <g id="text_12">
      <!-- 0.004 -->
      <g style="fill: #262626" transform="translate(89.458438 513.16295) scale(0.19 -0.19)">
       <use xlink:href="#ArialMT-30"/>
       <use xlink:href="#ArialMT-2e" x="55.615234"/>
       <use xlink:href="#ArialMT-30" x="83.398438"/>
       <use xlink:href="#ArialMT-30" x="139.013672"/>
       <use xlink:href="#ArialMT-34" x="194.628906"/>
      </g>
     </g>
    </g>
    <g id="ytick_4">
     <g id="line2d_12">
      <path d="M 144 439.144543 
L 1036.8 439.144543 
" clip-path="url(#p5d7399741a)" style="fill: none; stroke: #ffffff; stroke-width: 0.8; stroke-linecap: round"/>
     </g>
     <g id="text_13">
      <!-- 0.006 -->
      <g style="fill: #262626" transform="translate(89.458438 445.944465) scale(0.19 -0.19)">
       <use xlink:href="#ArialMT-30"/>
       <use xlink:href="#ArialMT-2e" x="55.615234"/>
       <use xlink:href="#ArialMT-30" x="83.398438"/>
       <use xlink:href="#ArialMT-30" x="139.013672"/>
       <use xlink:href="#ArialMT-36" x="194.628906"/>
      </g>
     </g>
    </g>
    <g id="ytick_5">
     <g id="line2d_13">
      <path d="M 144 371.926057 
L 1036.8 371.926057 
" clip-path="url(#p5d7399741a)" style="fill: none; stroke: #ffffff; stroke-width: 0.8; stroke-linecap: round"/>
     </g>
     <g id="text_14">
      <!-- 0.008 -->
      <g style="fill: #262626" transform="translate(89.458438 378.725979) scale(0.19 -0.19)">
       <defs>
        <path id="ArialMT-38" d="M 1131 2484 
Q 781 2613 612 2850 
Q 444 3088 444 3419 
Q 444 3919 803 4259 
Q 1163 4600 1759 4600 
Q 2359 4600 2725 4251 
Q 3091 3903 3091 3403 
Q 3091 3084 2923 2848 
Q 2756 2613 2416 2484 
Q 2838 2347 3058 2040 
Q 3278 1734 3278 1309 
Q 3278 722 2862 322 
Q 2447 -78 1769 -78 
Q 1091 -78 675 323 
Q 259 725 259 1325 
Q 259 1772 486 2073 
Q 713 2375 1131 2484 
z
M 1019 3438 
Q 1019 3113 1228 2906 
Q 1438 2700 1772 2700 
Q 2097 2700 2305 2904 
Q 2513 3109 2513 3406 
Q 2513 3716 2298 3927 
Q 2084 4138 1766 4138 
Q 1444 4138 1231 3931 
Q 1019 3725 1019 3438 
z
M 838 1322 
Q 838 1081 952 856 
Q 1066 631 1291 507 
Q 1516 384 1775 384 
Q 2178 384 2440 643 
Q 2703 903 2703 1303 
Q 2703 1709 2433 1975 
Q 2163 2241 1756 2241 
Q 1359 2241 1098 1978 
Q 838 1716 838 1322 
z
" transform="scale(0.015625)"/>
       </defs>
       <use xlink:href="#ArialMT-30"/>
       <use xlink:href="#ArialMT-2e" x="55.615234"/>
       <use xlink:href="#ArialMT-30" x="83.398438"/>
       <use xlink:href="#ArialMT-30" x="139.013672"/>
       <use xlink:href="#ArialMT-38" x="194.628906"/>
      </g>
     </g>
    </g>
    <g id="ytick_6">
     <g id="line2d_14">
      <path d="M 144 304.707571 
L 1036.8 304.707571 
" clip-path="url(#p5d7399741a)" style="fill: none; stroke: #ffffff; stroke-width: 0.8; stroke-linecap: round"/>
     </g>
     <g id="text_15">
      <!-- 0.010 -->
      <g style="fill: #262626" transform="translate(89.458438 311.507493) scale(0.19 -0.19)">
       <use xlink:href="#ArialMT-30"/>
       <use xlink:href="#ArialMT-2e" x="55.615234"/>
       <use xlink:href="#ArialMT-30" x="83.398438"/>
       <use xlink:href="#ArialMT-31" x="139.013672"/>
       <use xlink:href="#ArialMT-30" x="194.628906"/>
      </g>
     </g>
    </g>
    <g id="ytick_7">
     <g id="line2d_15">
      <path d="M 144 237.489085 
L 1036.8 237.489085 
" clip-path="url(#p5d7399741a)" style="fill: none; stroke: #ffffff; stroke-width: 0.8; stroke-linecap: round"/>
     </g>
     <g id="text_16">
      <!-- 0.012 -->
      <g style="fill: #262626" transform="translate(89.458438 244.289007) scale(0.19 -0.19)">
       <use xlink:href="#ArialMT-30"/>
       <use xlink:href="#ArialMT-2e" x="55.615234"/>
       <use xlink:href="#ArialMT-30" x="83.398438"/>
       <use xlink:href="#ArialMT-31" x="139.013672"/>
       <use xlink:href="#ArialMT-32" x="194.628906"/>
      </g>
     </g>
    </g>
    <g id="ytick_8">
     <g id="line2d_16">
      <path d="M 144 170.2706 
L 1036.8 170.2706 
" clip-path="url(#p5d7399741a)" style="fill: none; stroke: #ffffff; stroke-width: 0.8; stroke-linecap: round"/>
     </g>
     <g id="text_17">
      <!-- 0.014 -->
      <g style="fill: #262626" transform="translate(89.458438 177.070522) scale(0.19 -0.19)">
       <use xlink:href="#ArialMT-30"/>
       <use xlink:href="#ArialMT-2e" x="55.615234"/>
       <use xlink:href="#ArialMT-30" x="83.398438"/>
       <use xlink:href="#ArialMT-31" x="139.013672"/>
       <use xlink:href="#ArialMT-34" x="194.628906"/>
      </g>
     </g>
    </g>
    <g id="ytick_9">
     <g id="line2d_17">
      <path d="M 144 103.052114 
L 1036.8 103.052114 
" clip-path="url(#p5d7399741a)" style="fill: none; stroke: #ffffff; stroke-width: 0.8; stroke-linecap: round"/>
     </g>
     <g id="text_18">
      <!-- 0.016 -->
      <g style="fill: #262626" transform="translate(89.458438 109.852036) scale(0.19 -0.19)">
       <use xlink:href="#ArialMT-30"/>
       <use xlink:href="#ArialMT-2e" x="55.615234"/>
       <use xlink:href="#ArialMT-30" x="83.398438"/>
       <use xlink:href="#ArialMT-31" x="139.013672"/>
       <use xlink:href="#ArialMT-36" x="194.628906"/>
      </g>
     </g>
    </g>
    <g id="text_19">
     <!-- Density -->
     <g style="fill: #262626" transform="translate(81.459531 395.276562) rotate(-90) scale(0.19 -0.19)">
      <defs>
       <path id="ArialMT-44" d="M 494 0 
L 494 4581 
L 2072 4581 
Q 2606 4581 2888 4516 
Q 3281 4425 3559 4188 
Q 3922 3881 4101 3404 
Q 4281 2928 4281 2316 
Q 4281 1794 4159 1391 
Q 4038 988 3847 723 
Q 3656 459 3429 307 
Q 3203 156 2883 78 
Q 2563 0 2147 0 
L 494 0 
z
M 1100 541 
L 2078 541 
Q 2531 541 2789 625 
Q 3047 709 3200 863 
Q 3416 1078 3536 1442 
Q 3656 1806 3656 2325 
Q 3656 3044 3420 3430 
Q 3184 3816 2847 3947 
Q 2603 4041 2063 4041 
L 1100 4041 
L 1100 541 
z
" transform="scale(0.015625)"/>
       <path id="ArialMT-65" d="M 2694 1069 
L 3275 997 
Q 3138 488 2766 206 
Q 2394 -75 1816 -75 
Q 1088 -75 661 373 
Q 234 822 234 1631 
Q 234 2469 665 2931 
Q 1097 3394 1784 3394 
Q 2450 3394 2872 2941 
Q 3294 2488 3294 1666 
Q 3294 1616 3291 1516 
L 816 1516 
Q 847 969 1125 678 
Q 1403 388 1819 388 
Q 2128 388 2347 550 
Q 2566 713 2694 1069 
z
M 847 1978 
L 2700 1978 
Q 2663 2397 2488 2606 
Q 2219 2931 1791 2931 
Q 1403 2931 1139 2672 
Q 875 2413 847 1978 
z
" transform="scale(0.015625)"/>
       <path id="ArialMT-6e" d="M 422 0 
L 422 3319 
L 928 3319 
L 928 2847 
Q 1294 3394 1984 3394 
Q 2284 3394 2536 3286 
Q 2788 3178 2913 3003 
Q 3038 2828 3088 2588 
Q 3119 2431 3119 2041 
L 3119 0 
L 2556 0 
L 2556 2019 
Q 2556 2363 2490 2533 
Q 2425 2703 2258 2804 
Q 2091 2906 1866 2906 
Q 1506 2906 1245 2678 
Q 984 2450 984 1813 
L 984 0 
L 422 0 
z
" transform="scale(0.015625)"/>
       <path id="ArialMT-73" d="M 197 991 
L 753 1078 
Q 800 744 1014 566 
Q 1228 388 1613 388 
Q 2000 388 2187 545 
Q 2375 703 2375 916 
Q 2375 1106 2209 1216 
Q 2094 1291 1634 1406 
Q 1016 1563 777 1677 
Q 538 1791 414 1992 
Q 291 2194 291 2438 
Q 291 2659 392 2848 
Q 494 3038 669 3163 
Q 800 3259 1026 3326 
Q 1253 3394 1513 3394 
Q 1903 3394 2198 3281 
Q 2494 3169 2634 2976 
Q 2775 2784 2828 2463 
L 2278 2388 
Q 2241 2644 2061 2787 
Q 1881 2931 1553 2931 
Q 1166 2931 1000 2803 
Q 834 2675 834 2503 
Q 834 2394 903 2306 
Q 972 2216 1119 2156 
Q 1203 2125 1616 2013 
Q 2213 1853 2448 1751 
Q 2684 1650 2818 1456 
Q 2953 1263 2953 975 
Q 2953 694 2789 445 
Q 2625 197 2315 61 
Q 2006 -75 1616 -75 
Q 969 -75 630 194 
Q 291 463 197 991 
z
" transform="scale(0.015625)"/>
       <path id="ArialMT-69" d="M 425 3934 
L 425 4581 
L 988 4581 
L 988 3934 
L 425 3934 
z
M 425 0 
L 425 3319 
L 988 3319 
L 988 0 
L 425 0 
z
" transform="scale(0.015625)"/>
       <path id="ArialMT-74" d="M 1650 503 
L 1731 6 
Q 1494 -44 1306 -44 
Q 1000 -44 831 53 
Q 663 150 594 308 
Q 525 466 525 972 
L 525 2881 
L 113 2881 
L 113 3319 
L 525 3319 
L 525 4141 
L 1084 4478 
L 1084 3319 
L 1650 3319 
L 1650 2881 
L 1084 2881 
L 1084 941 
Q 1084 700 1114 631 
Q 1144 563 1211 522 
Q 1278 481 1403 481 
Q 1497 481 1650 503 
z
" transform="scale(0.015625)"/>
       <path id="ArialMT-79" d="M 397 -1278 
L 334 -750 
Q 519 -800 656 -800 
Q 844 -800 956 -737 
Q 1069 -675 1141 -563 
Q 1194 -478 1313 -144 
Q 1328 -97 1363 -6 
L 103 3319 
L 709 3319 
L 1400 1397 
Q 1534 1031 1641 628 
Q 1738 1016 1872 1384 
L 2581 3319 
L 3144 3319 
L 1881 -56 
Q 1678 -603 1566 -809 
Q 1416 -1088 1222 -1217 
Q 1028 -1347 759 -1347 
Q 597 -1347 397 -1278 
z
" transform="scale(0.015625)"/>
      </defs>
      <use xlink:href="#ArialMT-44"/>
      <use xlink:href="#ArialMT-65" x="72.216797"/>
      <use xlink:href="#ArialMT-6e" x="127.832031"/>
      <use xlink:href="#ArialMT-73" x="183.447266"/>
      <use xlink:href="#ArialMT-69" x="233.447266"/>
      <use xlink:href="#ArialMT-74" x="255.664062"/>
      <use xlink:href="#ArialMT-79" x="283.447266"/>
     </g>
    </g>
   </g>
   <g id="PolyCollection_1">
    <defs>
     <path id="m2a4c02fa7e" d="M 241.324157 -79.2116 
L 241.324157 -79.2 
L 243.296216 -79.2 
L 245.268275 -79.2 
L 247.240333 -79.2 
L 249.212392 -79.2 
L 251.184451 -79.2 
L 253.15651 -79.2 
L 255.128568 -79.2 
L 257.100627 -79.2 
L 259.072686 -79.2 
L 261.044744 -79.2 
L 263.016803 -79.2 
L 264.988862 -79.2 
L 266.960921 -79.2 
L 268.932979 -79.2 
L 270.905038 -79.2 
L 272.877097 -79.2 
L 274.849155 -79.2 
L 276.821214 -79.2 
L 278.793273 -79.2 
L 280.765332 -79.2 
L 282.73739 -79.2 
L 284.709449 -79.2 
L 286.681508 -79.2 
L 288.653566 -79.2 
L 290.625625 -79.2 
L 292.597684 -79.2 
L 294.569743 -79.2 
L 296.541801 -79.2 
L 298.51386 -79.2 
L 300.485919 -79.2 
L 302.457977 -79.2 
L 304.430036 -79.2 
L 306.402095 -79.2 
L 308.374154 -79.2 
L 310.346212 -79.2 
L 312.318271 -79.2 
L 314.29033 -79.2 
L 316.262389 -79.2 
L 318.234447 -79.2 
L 320.206506 -79.2 
L 322.178565 -79.2 
L 324.150623 -79.2 
L 326.122682 -79.2 
L 328.094741 -79.2 
L 330.0668 -79.2 
L 332.038858 -79.2 
L 334.010917 -79.2 
L 335.982976 -79.2 
L 337.955034 -79.2 
L 339.927093 -79.2 
L 341.899152 -79.2 
L 343.871211 -79.2 
L 345.843269 -79.2 
L 347.815328 -79.2 
L 349.787387 -79.2 
L 351.759445 -79.2 
L 353.731504 -79.2 
L 355.703563 -79.2 
L 357.675622 -79.2 
L 359.64768 -79.2 
L 361.619739 -79.2 
L 363.591798 -79.2 
L 365.563856 -79.2 
L 367.535915 -79.2 
L 369.507974 -79.2 
L 371.480033 -79.2 
L 373.452091 -79.2 
L 375.42415 -79.2 
L 377.396209 -79.2 
L 379.368268 -79.2 
L 381.340326 -79.2 
L 383.312385 -79.2 
L 385.284444 -79.2 
L 387.256502 -79.2 
L 389.228561 -79.2 
L 391.20062 -79.2 
L 393.172679 -79.2 
L 395.144737 -79.2 
L 397.116796 -79.2 
L 399.088855 -79.2 
L 401.060913 -79.2 
L 403.032972 -79.2 
L 405.005031 -79.2 
L 406.97709 -79.2 
L 408.949148 -79.2 
L 410.921207 -79.2 
L 412.893266 -79.2 
L 414.865324 -79.2 
L 416.837383 -79.2 
L 418.809442 -79.2 
L 420.781501 -79.2 
L 422.753559 -79.2 
L 424.725618 -79.2 
L 426.697677 -79.2 
L 428.669735 -79.2 
L 430.641794 -79.2 
L 432.613853 -79.2 
L 434.585912 -79.2 
L 436.55797 -79.2 
L 438.530029 -79.2 
L 440.502088 -79.2 
L 442.474147 -79.2 
L 444.446205 -79.2 
L 446.418264 -79.2 
L 448.390323 -79.2 
L 450.362381 -79.2 
L 452.33444 -79.2 
L 454.306499 -79.2 
L 456.278558 -79.2 
L 458.250616 -79.2 
L 460.222675 -79.2 
L 462.194734 -79.2 
L 464.166792 -79.2 
L 466.138851 -79.2 
L 468.11091 -79.2 
L 470.082969 -79.2 
L 472.055027 -79.2 
L 474.027086 -79.2 
L 475.999145 -79.2 
L 477.971203 -79.2 
L 479.943262 -79.2 
L 481.915321 -79.2 
L 483.88738 -79.2 
L 485.859438 -79.2 
L 487.831497 -79.2 
L 489.803556 -79.2 
L 491.775614 -79.2 
L 493.747673 -79.2 
L 495.719732 -79.2 
L 497.691791 -79.2 
L 499.663849 -79.2 
L 501.635908 -79.2 
L 503.607967 -79.2 
L 505.580025 -79.2 
L 507.552084 -79.2 
L 509.524143 -79.2 
L 511.496202 -79.2 
L 513.46826 -79.2 
L 515.440319 -79.2 
L 517.412378 -79.2 
L 519.384437 -79.2 
L 521.356495 -79.2 
L 523.328554 -79.2 
L 525.300613 -79.2 
L 527.272671 -79.2 
L 529.24473 -79.2 
L 531.216789 -79.2 
L 533.188848 -79.2 
L 535.160906 -79.2 
L 537.132965 -79.2 
L 539.105024 -79.2 
L 541.077082 -79.2 
L 543.049141 -79.2 
L 545.0212 -79.2 
L 546.993259 -79.2 
L 548.965317 -79.2 
L 550.937376 -79.2 
L 552.909435 -79.2 
L 554.881493 -79.2 
L 556.853552 -79.2 
L 558.825611 -79.2 
L 560.79767 -79.2 
L 562.769728 -79.2 
L 564.741787 -79.2 
L 566.713846 -79.2 
L 568.685904 -79.2 
L 570.657963 -79.2 
L 572.630022 -79.2 
L 574.602081 -79.2 
L 576.574139 -79.2 
L 578.546198 -79.2 
L 580.518257 -79.2 
L 582.490316 -79.2 
L 584.462374 -79.2 
L 586.434433 -79.2 
L 588.406492 -79.2 
L 590.37855 -79.2 
L 592.350609 -79.2 
L 594.322668 -79.2 
L 596.294727 -79.2 
L 598.266785 -79.2 
L 600.238844 -79.2 
L 602.210903 -79.2 
L 604.182961 -79.2 
L 606.15502 -79.2 
L 608.127079 -79.2 
L 610.099138 -79.2 
L 612.071196 -79.2 
L 614.043255 -79.2 
L 616.015314 -79.2 
L 617.987372 -79.2 
L 619.959431 -79.2 
L 621.93149 -79.2 
L 623.903549 -79.2 
L 625.875607 -79.2 
L 627.847666 -79.2 
L 629.819725 -79.2 
L 631.791783 -79.2 
L 633.763842 -79.2 
L 633.763842 -79.221768 
L 633.763842 -79.221768 
L 631.791783 -79.23208 
L 629.819725 -79.246606 
L 627.847666 -79.266752 
L 625.875607 -79.294263 
L 623.903549 -79.331259 
L 621.93149 -79.380249 
L 619.959431 -79.444138 
L 617.987372 -79.526197 
L 616.015314 -79.630016 
L 614.043255 -79.759418 
L 612.071196 -79.918345 
L 610.099138 -80.110719 
L 608.127079 -80.340291 
L 606.15502 -80.610475 
L 604.182961 -80.924205 
L 602.210903 -81.283814 
L 600.238844 -81.690953 
L 598.266785 -82.146568 
L 596.294727 -82.650944 
L 594.322668 -83.203802 
L 592.350609 -83.804469 
L 590.37855 -84.452088 
L 588.406492 -85.14587 
L 586.434433 -85.885365 
L 584.462374 -86.670753 
L 582.490316 -87.503147 
L 580.518257 -88.384916 
L 578.546198 -89.320048 
L 576.574139 -90.314575 
L 574.602081 -91.37708 
L 572.630022 -92.519298 
L 570.657963 -93.756825 
L 568.685904 -95.109875 
L 566.713846 -96.604055 
L 564.741787 -98.271021 
L 562.769728 -100.148913 
L 560.79767 -102.282384 
L 558.825611 -104.722063 
L 556.853552 -107.523323 
L 554.881493 -110.744216 
L 552.909435 -114.442591 
L 550.937376 -118.672423 
L 548.965317 -123.479567 
L 546.993259 -128.897203 
L 545.0212 -134.941378 
L 543.049141 -141.607084 
L 541.077082 -148.865355 
L 539.105024 -156.661784 
L 537.132965 -164.916814 
L 535.160906 -173.527949 
L 533.188848 -182.373876 
L 531.216789 -191.320256 
L 529.24473 -200.226745 
L 527.272671 -208.954656 
L 525.300613 -217.374549 
L 523.328554 -225.373034 
L 521.356495 -232.858127 
L 519.384437 -239.76265 
L 517.412378 -246.045365 
L 515.440319 -251.689804 
L 513.46826 -256.700995 
L 511.496202 -261.100531 
L 509.524143 -264.920628 
L 507.552084 -268.1979 
L 505.580025 -270.967624 
L 503.607967 -273.259202 
L 501.635908 -275.093347 
L 499.663849 -276.481346 
L 497.691791 -277.426446 
L 495.719732 -277.927192 
L 493.747673 -277.982244 
L 491.775614 -277.596043 
L 489.803556 -276.784542 
L 487.831497 -275.580197 
L 485.859438 -274.035463 
L 483.88738 -272.224212 
L 481.915321 -270.240713 
L 479.943262 -268.196106 
L 477.971203 -266.212622 
L 475.999145 -264.41607 
L 474.027086 -262.927372 
L 472.055027 -261.854052 
L 470.082969 -261.282622 
L 468.11091 -261.27273 
L 466.138851 -261.853706 
L 464.166792 -263.023862 
L 462.194734 -264.75257 
L 460.222675 -266.984755 
L 458.250616 -269.647163 
L 456.278558 -272.655558 
L 454.306499 -275.921888 
L 452.33444 -279.360522 
L 450.362381 -282.892855 
L 448.390323 -286.449814 
L 446.418264 -289.972176 
L 444.446205 -293.408913 
L 442.474147 -296.714079 
L 440.502088 -299.842947 
L 438.530029 -302.748163 
L 436.55797 -305.376665 
L 434.585912 -307.667922 
L 432.613853 -309.553842 
L 430.641794 -310.960412 
L 428.669735 -311.8109 
L 426.697677 -312.0302 
L 424.725618 -311.549819 
L 422.753559 -310.312921 
L 420.781501 -308.278893 
L 418.809442 -305.426991 
L 416.837383 -301.758784 
L 414.865324 -297.299238 
L 412.893266 -292.096452 
L 410.921207 -286.220157 
L 408.949148 -279.759184 
L 406.97709 -272.818132 
L 405.005031 -265.513487 
L 403.032972 -257.969427 
L 401.060913 -250.313528 
L 399.088855 -242.672528 
L 397.116796 -235.168312 
L 395.144737 -227.914234 
L 393.172679 -221.011866 
L 391.20062 -214.54827 
L 389.228561 -208.593867 
L 387.256502 -203.200962 
L 385.284444 -198.403004 
L 383.312385 -194.214608 
L 381.340326 -190.632405 
L 379.368268 -187.636722 
L 377.396209 -185.194092 
L 375.42415 -183.260522 
L 373.452091 -181.785416 
L 371.480033 -180.715938 
L 369.507974 -180.001555 
L 367.535915 -179.598389 
L 365.563856 -179.472978 
L 363.591798 -179.605004 
L 361.619739 -179.988578 
L 359.64768 -180.631762 
L 357.675622 -181.554139 
L 355.703563 -182.782447 
L 353.731504 -184.34452 
L 351.759445 -186.261998 
L 349.787387 -188.542498 
L 347.815328 -191.172079 
L 345.843269 -194.108888 
L 343.871211 -197.278868 
L 341.899152 -200.574232 
L 339.927093 -203.855188 
L 337.955034 -206.955038 
L 335.982976 -209.688474 
L 334.010917 -211.862458 
L 332.038858 -213.28882 
L 330.0668 -213.797451 
L 328.094741 -213.248876 
L 326.122682 -211.54501 
L 324.150623 -208.637089 
L 322.178565 -204.530013 
L 320.206506 -199.282725 
L 318.234447 -193.004642 
L 316.262389 -185.848515 
L 314.29033 -178.000464 
L 312.318271 -169.668135 
L 310.346212 -161.068069 
L 308.374154 -152.41335 
L 306.402095 -143.902518 
L 304.430036 -135.710493 
L 302.457977 -127.982021 
L 300.485919 -120.827858 
L 298.51386 -114.323625 
L 296.541801 -108.511071 
L 294.569743 -103.401266 
L 292.597684 -98.979188 
L 290.625625 -95.20911 
L 288.653566 -92.040252 
L 286.681508 -89.412221 
L 284.709449 -87.259893 
L 282.73739 -85.517495 
L 280.765332 -84.121776 
L 278.793273 -83.01426 
L 276.821214 -82.142637 
L 274.849155 -81.461431 
L 272.877097 -80.932073 
L 270.905038 -80.522569 
L 268.932979 -80.206875 
L 266.960921 -79.96414 
L 264.988862 -79.777891 
L 263.016803 -79.635257 
L 261.044744 -79.526252 
L 259.072686 -79.443165 
L 257.100627 -79.38005 
L 255.128568 -79.332322 
L 253.15651 -79.296432 
L 251.184451 -79.269629 
L 249.212392 -79.249772 
L 247.240333 -79.235198 
L 245.268275 -79.224609 
L 243.296216 -79.217001 
L 241.324157 -79.2116 
z
" style="stroke: #4169e1"/>
    </defs>
    <g clip-path="url(#p5d7399741a)">
     <use xlink:href="#m2a4c02fa7e" x="0" y="720" style="fill: #4169e1; fill-opacity: 0.8; stroke: #4169e1"/>
    </g>
   </g>
   <g id="PolyCollection_2">
    <defs>
     <path id="m22de98f777" d="M 184.581818 -79.2433 
L 184.581818 -79.2 
L 187.701225 -79.2 
L 190.820632 -79.2 
L 193.940039 -79.2 
L 197.059446 -79.2 
L 200.178852 -79.2 
L 203.298259 -79.2 
L 206.417666 -79.2 
L 209.537073 -79.2 
L 212.65648 -79.2 
L 215.775887 -79.2 
L 218.895293 -79.2 
L 222.0147 -79.2 
L 225.134107 -79.2 
L 228.253514 -79.2 
L 231.372921 -79.2 
L 234.492328 -79.2 
L 237.611735 -79.2 
L 240.731141 -79.2 
L 243.850548 -79.2 
L 246.969955 -79.2 
L 250.089362 -79.2 
L 253.208769 -79.2 
L 256.328176 -79.2 
L 259.447582 -79.2 
L 262.566989 -79.2 
L 265.686396 -79.2 
L 268.805803 -79.2 
L 271.92521 -79.2 
L 275.044617 -79.2 
L 278.164024 -79.2 
L 281.28343 -79.2 
L 284.402837 -79.2 
L 287.522244 -79.2 
L 290.641651 -79.2 
L 293.761058 -79.2 
L 296.880465 -79.2 
L 299.999871 -79.2 
L 303.119278 -79.2 
L 306.238685 -79.2 
L 309.358092 -79.2 
L 312.477499 -79.2 
L 315.596906 -79.2 
L 318.716313 -79.2 
L 321.835719 -79.2 
L 324.955126 -79.2 
L 328.074533 -79.2 
L 331.19394 -79.2 
L 334.313347 -79.2 
L 337.432754 -79.2 
L 340.55216 -79.2 
L 343.671567 -79.2 
L 346.790974 -79.2 
L 349.910381 -79.2 
L 353.029788 -79.2 
L 356.149195 -79.2 
L 359.268602 -79.2 
L 362.388008 -79.2 
L 365.507415 -79.2 
L 368.626822 -79.2 
L 371.746229 -79.2 
L 374.865636 -79.2 
L 377.985043 -79.2 
L 381.104449 -79.2 
L 384.223856 -79.2 
L 387.343263 -79.2 
L 390.46267 -79.2 
L 393.582077 -79.2 
L 396.701484 -79.2 
L 399.820891 -79.2 
L 402.940297 -79.2 
L 406.059704 -79.2 
L 409.179111 -79.2 
L 412.298518 -79.2 
L 415.417925 -79.2 
L 418.537332 -79.2 
L 421.656738 -79.2 
L 424.776145 -79.2 
L 427.895552 -79.2 
L 431.014959 -79.2 
L 434.134366 -79.2 
L 437.253773 -79.2 
L 440.37318 -79.2 
L 443.492586 -79.2 
L 446.611993 -79.2 
L 449.7314 -79.2 
L 452.850807 -79.2 
L 455.970214 -79.2 
L 459.089621 -79.2 
L 462.209027 -79.2 
L 465.328434 -79.2 
L 468.447841 -79.2 
L 471.567248 -79.2 
L 474.686655 -79.2 
L 477.806062 -79.2 
L 480.925469 -79.2 
L 484.044875 -79.2 
L 487.164282 -79.2 
L 490.283689 -79.2 
L 493.403096 -79.2 
L 496.522503 -79.2 
L 499.64191 -79.2 
L 502.761316 -79.2 
L 505.880723 -79.2 
L 509.00013 -79.2 
L 512.119537 -79.2 
L 515.238944 -79.2 
L 518.358351 -79.2 
L 521.477758 -79.2 
L 524.597164 -79.2 
L 527.716571 -79.2 
L 530.835978 -79.2 
L 533.955385 -79.2 
L 537.074792 -79.2 
L 540.194199 -79.2 
L 543.313605 -79.2 
L 546.433012 -79.2 
L 549.552419 -79.2 
L 552.671826 -79.2 
L 555.791233 -79.2 
L 558.91064 -79.2 
L 562.030047 -79.2 
L 565.149453 -79.2 
L 568.26886 -79.2 
L 571.388267 -79.2 
L 574.507674 -79.2 
L 577.627081 -79.2 
L 580.746488 -79.2 
L 583.865894 -79.2 
L 586.985301 -79.2 
L 590.104708 -79.2 
L 593.224115 -79.2 
L 596.343522 -79.2 
L 599.462929 -79.2 
L 602.582336 -79.2 
L 605.701742 -79.2 
L 608.821149 -79.2 
L 611.940556 -79.2 
L 615.059963 -79.2 
L 618.17937 -79.2 
L 621.298777 -79.2 
L 624.418183 -79.2 
L 627.53759 -79.2 
L 630.656997 -79.2 
L 633.776404 -79.2 
L 636.895811 -79.2 
L 640.015218 -79.2 
L 643.134625 -79.2 
L 646.254031 -79.2 
L 649.373438 -79.2 
L 652.492845 -79.2 
L 655.612252 -79.2 
L 658.731659 -79.2 
L 661.851066 -79.2 
L 664.970472 -79.2 
L 668.089879 -79.2 
L 671.209286 -79.2 
L 674.328693 -79.2 
L 677.4481 -79.2 
L 680.567507 -79.2 
L 683.686914 -79.2 
L 686.80632 -79.2 
L 689.925727 -79.2 
L 693.045134 -79.2 
L 696.164541 -79.2 
L 699.283948 -79.2 
L 702.403355 -79.2 
L 705.522761 -79.2 
L 708.642168 -79.2 
L 711.761575 -79.2 
L 714.880982 -79.2 
L 718.000389 -79.2 
L 721.119796 -79.2 
L 724.239203 -79.2 
L 727.358609 -79.2 
L 730.478016 -79.2 
L 733.597423 -79.2 
L 736.71683 -79.2 
L 739.836237 -79.2 
L 742.955644 -79.2 
L 746.07505 -79.2 
L 749.194457 -79.2 
L 752.313864 -79.2 
L 755.433271 -79.2 
L 758.552678 -79.2 
L 761.672085 -79.2 
L 764.791492 -79.2 
L 767.910898 -79.2 
L 771.030305 -79.2 
L 774.149712 -79.2 
L 777.269119 -79.2 
L 780.388526 -79.2 
L 783.507933 -79.2 
L 786.627339 -79.2 
L 789.746746 -79.2 
L 792.866153 -79.2 
L 795.98556 -79.2 
L 799.104967 -79.2 
L 802.224374 -79.2 
L 805.343781 -79.2 
L 805.343781 -79.219105 
L 805.343781 -79.219105 
L 802.224374 -79.227105 
L 799.104967 -79.237994 
L 795.98556 -79.252623 
L 792.866153 -79.272018 
L 789.746746 -79.297393 
L 786.627339 -79.330154 
L 783.507933 -79.371888 
L 780.388526 -79.424348 
L 777.269119 -79.489412 
L 774.149712 -79.569032 
L 771.030305 -79.665162 
L 767.910898 -79.779679 
L 764.791492 -79.914284 
L 761.672085 -80.070412 
L 758.552678 -80.249139 
L 755.433271 -80.451112 
L 752.313864 -80.676507 
L 749.194457 -80.925033 
L 746.07505 -81.195988 
L 742.955644 -81.488383 
L 739.836237 -81.801136 
L 736.71683 -82.133336 
L 733.597423 -82.484579 
L 730.478016 -82.855353 
L 727.358609 -83.247459 
L 724.239203 -83.664452 
L 721.119796 -84.112048 
L 718.000389 -84.598494 
L 714.880982 -85.134834 
L 711.761575 -85.735069 
L 708.642168 -86.416149 
L 705.522761 -87.197801 
L 702.403355 -88.102156 
L 699.283948 -89.15319 
L 696.164541 -90.375964 
L 693.045134 -91.79572 
L 689.925727 -93.436826 
L 686.80632 -95.321666 
L 683.686914 -97.469501 
L 680.567507 -99.895391 
L 677.4481 -102.609252 
L 674.328693 -105.615106 
L 671.209286 -108.910608 
L 668.089879 -112.486888 
L 664.970472 -116.328736 
L 661.851066 -120.415142 
L 658.731659 -124.720147 
L 655.612252 -129.213965 
L 652.492845 -133.864284 
L 649.373438 -138.637646 
L 646.254031 -143.500778 
L 643.134625 -148.421781 
L 640.015218 -153.371058 
L 636.895811 -158.3219 
L 633.776404 -163.250699 
L 630.656997 -168.136762 
L 627.53759 -172.961774 
L 624.418183 -177.708976 
L 621.298777 -182.362157 
L 618.17937 -186.904597 
L 615.059963 -191.31807 
L 611.940556 -195.582046 
L 608.821149 -199.673181 
L 605.701742 -203.565175 
L 602.582336 -207.229015 
L 599.462929 -210.633611 
L 596.343522 -213.746761 
L 593.224115 -216.536383 
L 590.104708 -218.971895 
L 586.985301 -221.025659 
L 583.865894 -222.674349 
L 580.746488 -223.900175 
L 577.627081 -224.691879 
L 574.507674 -225.045453 
L 571.388267 -224.964563 
L 568.26886 -224.460696 
L 565.149453 -223.553045 
L 562.030047 -222.268193 
L 558.91064 -220.639626 
L 555.791233 -218.707141 
L 552.671826 -216.516167 
L 549.552419 -214.117031 
L 546.433012 -211.564163 
L 543.313605 -208.915231 
L 540.194199 -206.230175 
L 537.074792 -203.570108 
L 533.955385 -200.99605 
L 530.835978 -198.567477 
L 527.716571 -196.340684 
L 524.597164 -194.366973 
L 521.477758 -192.690729 
L 518.358351 -191.347458 
L 515.238944 -190.361888 
L 512.119537 -189.746265 
L 509.00013 -189.498973 
L 505.880723 -189.60362 
L 502.761316 -190.028701 
L 499.64191 -190.727941 
L 496.522503 -191.641378 
L 493.403096 -192.697191 
L 490.283689 -193.814234 
L 487.164282 -194.90519 
L 484.044875 -195.880194 
L 480.925469 -196.650745 
L 477.806062 -197.133687 
L 474.686655 -197.255038 
L 471.567248 -196.953423 
L 468.447841 -196.182922 
L 465.328434 -194.915142 
L 462.209027 -193.140402 
L 459.089621 -190.867963 
L 455.970214 -188.125289 
L 452.850807 -184.956429 
L 449.7314 -181.419602 
L 446.611993 -177.58418 
L 443.492586 -173.527254 
L 440.37318 -169.33 
L 437.253773 -165.074072 
L 434.134366 -160.838226 
L 431.014959 -156.695354 
L 427.895552 -152.710076 
L 424.776145 -148.936981 
L 421.656738 -145.419587 
L 418.537332 -142.190004 
L 415.417925 -139.269272 
L 412.298518 -136.668301 
L 409.179111 -134.38929 
L 406.059704 -132.427506 
L 402.940297 -130.773289 
L 399.820891 -129.414125 
L 396.701484 -128.336667 
L 393.582077 -127.528572 
L 390.46267 -126.980055 
L 387.343263 -126.685075 
L 384.223856 -126.642095 
L 381.104449 -126.854374 
L 377.985043 -127.32978 
L 374.865636 -128.080122 
L 371.746229 -129.120024 
L 368.626822 -130.465384 
L 365.507415 -132.131467 
L 362.388008 -134.130731 
L 359.268602 -136.470454 
L 356.149195 -139.150311 
L 353.029788 -142.160024 
L 349.910381 -145.477258 
L 346.790974 -149.065917 
L 343.671567 -152.875025 
L 340.55216 -156.838338 
L 337.432754 -160.874831 
L 334.313347 -164.890135 
L 331.19394 -168.77895 
L 328.074533 -172.428406 
L 324.955126 -175.72223 
L 321.835719 -178.545532 
L 318.716313 -180.789954 
L 315.596906 -182.358854 
L 312.477499 -183.172196 
L 309.358092 -183.170805 
L 306.238685 -182.319678 
L 303.119278 -180.610111 
L 299.999871 -178.060471 
L 296.880465 -174.715549 
L 293.761058 -170.644532 
L 290.641651 -165.937736 
L 287.522244 -160.702325 
L 284.402837 -155.057315 
L 281.28343 -149.128199 
L 278.164024 -143.04153 
L 275.044617 -136.919808 
L 271.92521 -130.876953 
L 268.805803 -125.014572 
L 265.686396 -119.419192 
L 262.566989 -114.160511 
L 259.447582 -109.290661 
L 256.328176 -104.844409 
L 253.208769 -100.840165 
L 250.089362 -97.281613 
L 246.969955 -94.159814 
L 243.850548 -91.455545 
L 240.731141 -89.141748 
L 237.611735 -87.185895 
L 234.492328 -85.55218 
L 231.372921 -84.203434 
L 228.253514 -83.102722 
L 225.134107 -82.214592 
L 222.0147 -81.505991 
L 218.895293 -80.946869 
L 215.775887 -80.510513 
L 212.65648 -80.17365 
L 209.537073 -79.916384 
L 206.417666 -79.721998 
L 203.298259 -79.576676 
L 200.178852 -79.469176 
L 197.059446 -79.390486 
L 193.940039 -79.333487 
L 190.820632 -79.292629 
L 187.701225 -79.263646 
L 184.581818 -79.2433 
z
" style="stroke: #0000ff"/>
    </defs>
    <g clip-path="url(#p5d7399741a)">
     <use xlink:href="#m22de98f777" x="0" y="720" style="fill: #0000ff; fill-opacity: 0.8; stroke: #0000ff"/>
    </g>
   </g>
   <g id="PolyCollection_3">
    <defs>
     <path id="m2f2f08d8c5" d="M 541.10155 -79.256882 
L 541.10155 -79.2 
L 543.388568 -79.2 
L 545.675587 -79.2 
L 547.962605 -79.2 
L 550.249623 -79.2 
L 552.536641 -79.2 
L 554.82366 -79.2 
L 557.110678 -79.2 
L 559.397696 -79.2 
L 561.684714 -79.2 
L 563.971733 -79.2 
L 566.258751 -79.2 
L 568.545769 -79.2 
L 570.832787 -79.2 
L 573.119806 -79.2 
L 575.406824 -79.2 
L 577.693842 -79.2 
L 579.98086 -79.2 
L 582.267879 -79.2 
L 584.554897 -79.2 
L 586.841915 -79.2 
L 589.128933 -79.2 
L 591.415952 -79.2 
L 593.70297 -79.2 
L 595.989988 -79.2 
L 598.277006 -79.2 
L 600.564025 -79.2 
L 602.851043 -79.2 
L 605.138061 -79.2 
L 607.425079 -79.2 
L 609.712098 -79.2 
L 611.999116 -79.2 
L 614.286134 -79.2 
L 616.573152 -79.2 
L 618.860171 -79.2 
L 621.147189 -79.2 
L 623.434207 -79.2 
L 625.721225 -79.2 
L 628.008244 -79.2 
L 630.295262 -79.2 
L 632.58228 -79.2 
L 634.869298 -79.2 
L 637.156317 -79.2 
L 639.443335 -79.2 
L 641.730353 -79.2 
L 644.017371 -79.2 
L 646.30439 -79.2 
L 648.591408 -79.2 
L 650.878426 -79.2 
L 653.165444 -79.2 
L 655.452463 -79.2 
L 657.739481 -79.2 
L 660.026499 -79.2 
L 662.313517 -79.2 
L 664.600536 -79.2 
L 666.887554 -79.2 
L 669.174572 -79.2 
L 671.46159 -79.2 
L 673.748609 -79.2 
L 676.035627 -79.2 
L 678.322645 -79.2 
L 680.609663 -79.2 
L 682.896682 -79.2 
L 685.1837 -79.2 
L 687.470718 -79.2 
L 689.757736 -79.2 
L 692.044755 -79.2 
L 694.331773 -79.2 
L 696.618791 -79.2 
L 698.905809 -79.2 
L 701.192828 -79.2 
L 703.479846 -79.2 
L 705.766864 -79.2 
L 708.053882 -79.2 
L 710.340901 -79.2 
L 712.627919 -79.2 
L 714.914937 -79.2 
L 717.201955 -79.2 
L 719.488974 -79.2 
L 721.775992 -79.2 
L 724.06301 -79.2 
L 726.350028 -79.2 
L 728.637047 -79.2 
L 730.924065 -79.2 
L 733.211083 -79.2 
L 735.498101 -79.2 
L 737.78512 -79.2 
L 740.072138 -79.2 
L 742.359156 -79.2 
L 744.646174 -79.2 
L 746.933193 -79.2 
L 749.220211 -79.2 
L 751.507229 -79.2 
L 753.794247 -79.2 
L 756.081266 -79.2 
L 758.368284 -79.2 
L 760.655302 -79.2 
L 762.94232 -79.2 
L 765.229339 -79.2 
L 767.516357 -79.2 
L 769.803375 -79.2 
L 772.090393 -79.2 
L 774.377412 -79.2 
L 776.66443 -79.2 
L 778.951448 -79.2 
L 781.238466 -79.2 
L 783.525485 -79.2 
L 785.812503 -79.2 
L 788.099521 -79.2 
L 790.386539 -79.2 
L 792.673558 -79.2 
L 794.960576 -79.2 
L 797.247594 -79.2 
L 799.534612 -79.2 
L 801.821631 -79.2 
L 804.108649 -79.2 
L 806.395667 -79.2 
L 808.682685 -79.2 
L 810.969704 -79.2 
L 813.256722 -79.2 
L 815.54374 -79.2 
L 817.830758 -79.2 
L 820.117777 -79.2 
L 822.404795 -79.2 
L 824.691813 -79.2 
L 826.978831 -79.2 
L 829.26585 -79.2 
L 831.552868 -79.2 
L 833.839886 -79.2 
L 836.126904 -79.2 
L 838.413923 -79.2 
L 840.700941 -79.2 
L 842.987959 -79.2 
L 845.274977 -79.2 
L 847.561996 -79.2 
L 849.849014 -79.2 
L 852.136032 -79.2 
L 854.42305 -79.2 
L 856.710069 -79.2 
L 858.997087 -79.2 
L 861.284105 -79.2 
L 863.571123 -79.2 
L 865.858142 -79.2 
L 868.14516 -79.2 
L 870.432178 -79.2 
L 872.719196 -79.2 
L 875.006215 -79.2 
L 877.293233 -79.2 
L 879.580251 -79.2 
L 881.867269 -79.2 
L 884.154288 -79.2 
L 886.441306 -79.2 
L 888.728324 -79.2 
L 891.015342 -79.2 
L 893.302361 -79.2 
L 895.589379 -79.2 
L 897.876397 -79.2 
L 900.163415 -79.2 
L 902.450434 -79.2 
L 904.737452 -79.2 
L 907.02447 -79.2 
L 909.311488 -79.2 
L 911.598507 -79.2 
L 913.885525 -79.2 
L 916.172543 -79.2 
L 918.459561 -79.2 
L 920.74658 -79.2 
L 923.033598 -79.2 
L 925.320616 -79.2 
L 927.607634 -79.2 
L 929.894653 -79.2 
L 932.181671 -79.2 
L 934.468689 -79.2 
L 936.755707 -79.2 
L 939.042726 -79.2 
L 941.329744 -79.2 
L 943.616762 -79.2 
L 945.90378 -79.2 
L 948.190799 -79.2 
L 950.477817 -79.2 
L 952.764835 -79.2 
L 955.051853 -79.2 
L 957.338872 -79.2 
L 959.62589 -79.2 
L 961.912908 -79.2 
L 964.199926 -79.2 
L 966.486945 -79.2 
L 968.773963 -79.2 
L 971.060981 -79.2 
L 973.347999 -79.2 
L 975.635018 -79.2 
L 977.922036 -79.2 
L 980.209054 -79.2 
L 982.496072 -79.2 
L 984.783091 -79.2 
L 987.070109 -79.2 
L 989.357127 -79.2 
L 991.644145 -79.2 
L 993.931164 -79.2 
L 996.218182 -79.2 
L 996.218182 -79.210128 
L 996.218182 -79.210128 
L 993.931164 -79.215498 
L 991.644145 -79.223225 
L 989.357127 -79.234084 
L 987.070109 -79.248989 
L 984.783091 -79.268963 
L 982.496072 -79.295091 
L 980.209054 -79.328442 
L 977.922036 -79.36997 
L 975.635018 -79.420393 
L 973.347999 -79.48007 
L 971.060981 -79.548879 
L 968.773963 -79.626139 
L 966.486945 -79.710562 
L 964.199926 -79.800285 
L 961.912908 -79.892962 
L 959.62589 -79.98593 
L 957.338872 -80.076421 
L 955.051853 -80.161804 
L 952.764835 -80.239809 
L 950.477817 -80.308707 
L 948.190799 -80.367414 
L 945.90378 -80.415495 
L 943.616762 -80.453089 
L 941.329744 -80.480749 
L 939.042726 -80.499255 
L 936.755707 -80.509438 
L 934.468689 -80.512058 
L 932.181671 -80.507769 
L 929.894653 -80.497193 
L 927.607634 -80.481083 
L 925.320616 -80.460563 
L 923.033598 -80.437376 
L 920.74658 -80.414106 
L 918.459561 -80.394321 
L 916.172543 -80.382586 
L 913.885525 -80.384362 
L 911.598507 -80.405773 
L 909.311488 -80.453294 
L 907.02447 -80.533406 
L 904.737452 -80.652285 
L 902.450434 -80.815571 
L 900.163415 -81.028279 
L 897.876397 -81.294857 
L 895.589379 -81.61941 
L 893.302361 -82.006023 
L 891.015342 -82.459142 
L 888.728324 -82.983921 
L 886.441306 -83.586433 
L 884.154288 -84.273678 
L 881.867269 -85.053304 
L 879.580251 -85.933049 
L 877.293233 -86.919902 
L 875.006215 -88.019087 
L 872.719196 -89.232983 
L 870.432178 -90.560118 
L 868.14516 -91.994401 
L 865.858142 -93.524695 
L 863.571123 -95.134812 
L 861.284105 -96.803932 
L 858.997087 -98.507401 
L 856.710069 -100.217802 
L 854.42305 -101.906177 
L 852.136032 -103.543284 
L 849.849014 -105.100819 
L 847.561996 -106.552541 
L 845.274977 -107.875352 
L 842.987959 -109.050333 
L 840.700941 -110.063808 
L 838.413923 -110.908424 
L 836.126904 -111.584216 
L 833.839886 -112.09953 
L 831.552868 -112.471656 
L 829.26585 -112.726968 
L 826.978831 -112.90042 
L 824.691813 -113.03429 
L 822.404795 -113.176178 
L 820.117777 -113.376376 
L 817.830758 -113.684819 
L 815.54374 -114.147921 
L 813.256722 -114.805605 
L 810.969704 -115.688816 
L 808.682685 -116.817732 
L 806.395667 -118.200782 
L 804.108649 -119.834475 
L 801.821631 -121.703945 
L 799.534612 -123.784063 
L 797.247594 -126.040931 
L 794.960576 -128.433624 
L 792.673558 -130.916043 
L 790.386539 -133.438862 
L 788.099521 -135.951533 
L 785.812503 -138.404386 
L 783.525485 -140.750813 
L 781.238466 -142.949473 
L 778.951448 -144.966415 
L 776.66443 -146.776895 
L 774.377412 -148.366679 
L 772.090393 -149.732569 
L 769.803375 -150.882003 
L 767.516357 -151.831655 
L 765.229339 -152.605132 
L 762.94232 -153.230014 
L 760.655302 -153.734622 
L 758.368284 -154.144929 
L 756.081266 -154.482065 
L 753.794247 -154.760737 
L 751.507229 -154.988728 
L 749.220211 -155.167468 
L 746.933193 -155.293455 
L 744.646174 -155.360174 
L 742.359156 -155.360096 
L 740.072138 -155.286354 
L 737.78512 -155.133793 
L 735.498101 -154.899258 
L 733.211083 -154.581178 
L 730.924065 -154.178651 
L 728.637047 -153.690381 
L 726.350028 -153.113837 
L 724.06301 -152.444987 
L 721.775992 -151.678813 
L 719.488974 -150.810701 
L 717.201955 -149.838579 
L 714.914937 -148.765572 
L 712.627919 -147.602834 
L 710.340901 -146.372189 
L 708.053882 -145.108287 
L 705.766864 -143.860071 
L 703.479846 -142.691497 
L 701.192828 -141.681599 
L 698.905809 -140.924072 
L 696.618791 -140.526633 
L 694.331773 -140.610384 
L 692.044755 -141.309336 
L 689.757736 -142.770138 
L 687.470718 -145.151885 
L 685.1837 -148.625724 
L 682.896682 -153.373865 
L 680.609663 -159.587485 
L 678.322645 -167.463019 
L 676.035627 -177.196382 
L 673.748609 -188.974797 
L 671.46159 -202.966139 
L 669.174572 -219.305962 
L 666.887554 -238.08267 
L 664.600536 -259.321638 
L 662.313517 -282.969305 
L 660.026499 -308.878511 
L 657.739481 -336.796441 
L 655.452463 -366.356567 
L 653.165444 -397.075892 
L 650.878426 -428.358569 
L 648.591408 -459.506738 
L 646.30439 -489.738956 
L 644.017371 -518.216178 
L 641.730353 -544.074649 
L 639.443335 -566.464453 
L 637.156317 -584.591798 
L 634.869298 -597.762507 
L 632.58228 -605.423655 
L 630.295262 -607.2 
L 628.008244 -602.921868 
L 625.721225 -592.641551 
L 623.434207 -576.636043 
L 621.147189 -555.395138 
L 618.860171 -529.59526 
L 616.573152 -500.060889 
L 614.286134 -467.716754 
L 611.999116 -433.53493 
L 609.712098 -398.481479 
L 607.425079 -363.467134 
L 605.138061 -329.305919 
L 602.851043 -296.684467 
L 600.564025 -266.143471 
L 598.277006 -238.071278 
L 595.989988 -212.708426 
L 593.70297 -190.160982 
L 591.415952 -170.420015 
L 589.128933 -153.38444 
L 586.841915 -138.884709 
L 584.554897 -126.705294 
L 582.267879 -116.604557 
L 579.98086 -108.331173 
L 577.693842 -101.636881 
L 575.406824 -96.28568 
L 573.119806 -92.059928 
L 570.832787 -88.763851 
L 568.545769 -86.22508 
L 566.258751 -84.294704 
L 563.971733 -82.846313 
L 561.684714 -81.774371 
L 559.397696 -80.992197 
L 557.110678 -80.429749 
L 554.82366 -80.031354 
L 552.536641 -79.753509 
L 550.249623 -79.562803 
L 547.962605 -79.434029 
L 545.675587 -79.348518 
L 543.388568 -79.292695 
L 541.10155 -79.256882 
z
" style="stroke: #00ffff"/>
    </defs>
    <g clip-path="url(#p5d7399741a)">
     <use xlink:href="#m2f2f08d8c5" x="0" y="720" style="fill: #00ffff; fill-opacity: 0.8; stroke: #00ffff"/>
    </g>
   </g>
   <g id="patch_3">
    <path d="M 144 640.8 
L 144 86.4 
" style="fill: none; stroke: #ffffff; stroke-width: 0.8; stroke-linejoin: miter; stroke-linecap: square"/>
   </g>
   <g id="patch_4">
    <path d="M 1036.8 640.8 
L 1036.8 86.4 
" style="fill: none; stroke: #ffffff; stroke-width: 0.8; stroke-linejoin: miter; stroke-linecap: square"/>
   </g>
   <g id="patch_5">
    <path d="M 144 640.8 
L 1036.8 640.8 
" style="fill: none; stroke: #ffffff; stroke-width: 0.8; stroke-linejoin: miter; stroke-linecap: square"/>
   </g>
   <g id="patch_6">
    <path d="M 144 86.4 
L 1036.8 86.4 
" style="fill: none; stroke: #ffffff; stroke-width: 0.8; stroke-linejoin: miter; stroke-linecap: square"/>
   </g>
   <g id="text_20">
    <!-- Распределение переменных -->
    <g style="fill: #262626" transform="translate(444.240937 80.4) scale(0.22 -0.22)">
     <defs>
      <path id="ArialMT-420" d="M 494 0 
L 494 4581 
L 2222 4581 
Q 2678 4581 2919 4538 
Q 3256 4481 3484 4323 
Q 3713 4166 3852 3881 
Q 3991 3597 3991 3256 
Q 3991 2672 3619 2267 
Q 3247 1863 2275 1863 
L 1100 1863 
L 1100 0 
L 494 0 
z
M 1100 2403 
L 2284 2403 
Q 2872 2403 3119 2622 
Q 3366 2841 3366 3238 
Q 3366 3525 3220 3729 
Q 3075 3934 2838 4000 
Q 2684 4041 2272 4041 
L 1100 4041 
L 1100 2403 
z
" transform="scale(0.015625)"/>
      <path id="ArialMT-441" d="M 2588 1216 
L 3141 1144 
Q 3050 572 2676 248 
Q 2303 -75 1759 -75 
Q 1078 -75 664 370 
Q 250 816 250 1647 
Q 250 2184 428 2587 
Q 606 2991 970 3192 
Q 1334 3394 1763 3394 
Q 2303 3394 2647 3120 
Q 2991 2847 3088 2344 
L 2541 2259 
Q 2463 2594 2264 2762 
Q 2066 2931 1784 2931 
Q 1359 2931 1093 2626 
Q 828 2322 828 1663 
Q 828 994 1084 691 
Q 1341 388 1753 388 
Q 2084 388 2306 591 
Q 2528 794 2588 1216 
z
" transform="scale(0.015625)"/>
      <path id="ArialMT-43f" d="M 425 3319 
L 3044 3319 
L 3044 0 
L 2481 0 
L 2481 2853 
L 988 2853 
L 988 0 
L 425 0 
L 425 3319 
z
" transform="scale(0.015625)"/>
      <path id="ArialMT-434" d="M 866 3319 
L 3178 3319 
L 3178 463 
L 3538 463 
L 3538 -941 
L 3075 -941 
L 3075 0 
L 463 0 
L 463 -941 
L 0 -941 
L 0 463 
L 297 463 
Q 891 1269 866 3319 
z
M 1334 2853 
Q 1272 1238 834 463 
L 2619 463 
L 2619 2853 
L 1334 2853 
z
" transform="scale(0.015625)"/>
      <path id="ArialMT-43c" d="M 438 3319 
L 1313 3319 
L 2184 663 
L 3153 3319 
L 3963 3319 
L 3963 0 
L 3400 0 
L 3400 2672 
L 2419 0 
L 1916 0 
L 988 2800 
L 988 0 
L 438 0 
L 438 3319 
z
" transform="scale(0.015625)"/>
      <path id="ArialMT-445" d="M 47 0 
L 1259 1725 
L 138 3319 
L 841 3319 
L 1350 2541 
Q 1494 2319 1581 2169 
Q 1719 2375 1834 2534 
L 2394 3319 
L 3066 3319 
L 1919 1756 
L 3153 0 
L 2463 0 
L 1781 1031 
L 1600 1309 
L 728 0 
L 47 0 
z
" transform="scale(0.015625)"/>
     </defs>
     <use xlink:href="#ArialMT-420"/>
     <use xlink:href="#ArialMT-430" x="63.324219"/>
     <use xlink:href="#ArialMT-441" x="118.939453"/>
     <use xlink:href="#ArialMT-43f" x="168.939453"/>
     <use xlink:href="#ArialMT-440" x="223.089844"/>
     <use xlink:href="#ArialMT-435" x="278.705078"/>
     <use xlink:href="#ArialMT-434" x="332.070312"/>
     <use xlink:href="#ArialMT-435" x="390.419922"/>
     <use xlink:href="#ArialMT-43b" x="442.660156"/>
     <use xlink:href="#ArialMT-435" x="501.009766"/>
     <use xlink:href="#ArialMT-43d" x="556.625"/>
     <use xlink:href="#ArialMT-438" x="611.849609"/>
     <use xlink:href="#ArialMT-435" x="667.708984"/>
     <use xlink:href="#ArialMT-20" x="723.324219"/>
     <use xlink:href="#ArialMT-43f" x="751.107422"/>
     <use xlink:href="#ArialMT-435" x="805.257812"/>
     <use xlink:href="#ArialMT-440" x="860.873047"/>
     <use xlink:href="#ArialMT-435" x="916.488281"/>
     <use xlink:href="#ArialMT-43c" x="972.103516"/>
     <use xlink:href="#ArialMT-435" x="1040.853516"/>
     <use xlink:href="#ArialMT-43d" x="1096.46875"/>
     <use xlink:href="#ArialMT-43d" x="1151.693359"/>
     <use xlink:href="#ArialMT-44b" x="1206.917969"/>
     <use xlink:href="#ArialMT-445" x="1278.792969"/>
    </g>
   </g>
   <g id="legend_1">
    <g id="patch_7">
     <path d="M 460.473594 183.475156 
L 1023.5 183.475156 
Q 1027.3 183.475156 1027.3 179.675156 
L 1027.3 99.7 
Q 1027.3 95.9 1023.5 95.9 
L 460.473594 95.9 
Q 456.673594 95.9 456.673594 99.7 
L 456.673594 179.675156 
Q 456.673594 183.475156 460.473594 183.475156 
z
" style="fill: #eaeaf2; opacity: 0.8; stroke: #cccccc; stroke-linejoin: miter"/>
    </g>
    <g id="patch_8">
     <path d="M 464.273594 117.426406 
L 502.273594 117.426406 
L 502.273594 104.126406 
L 464.273594 104.126406 
z
" style="fill: #4169e1; fill-opacity: 0.8; stroke: #4169e1; stroke-linejoin: miter"/>
    </g>
    <g id="text_21">
     <!-- Выработка электроэнергии ТА гр.130 -->
     <g style="fill: #262626" transform="translate(517.473594 117.426406) scale(0.19 -0.19)">
      <use xlink:href="#ArialMT-412"/>
      <use xlink:href="#ArialMT-44b" x="66.699219"/>
      <use xlink:href="#ArialMT-440" x="138.574219"/>
      <use xlink:href="#ArialMT-430" x="194.189453"/>
      <use xlink:href="#ArialMT-431" x="249.804688"/>
      <use xlink:href="#ArialMT-43e" x="307.080078"/>
      <use xlink:href="#ArialMT-442" x="360.445312"/>
      <use xlink:href="#ArialMT-43a" x="406.246094"/>
      <use xlink:href="#ArialMT-430" x="452.246094"/>
      <use xlink:href="#ArialMT-20" x="507.861328"/>
      <use xlink:href="#ArialMT-44d" x="535.644531"/>
      <use xlink:href="#ArialMT-43b" x="584.419922"/>
      <use xlink:href="#ArialMT-435" x="642.769531"/>
      <use xlink:href="#ArialMT-43a" x="698.384766"/>
      <use xlink:href="#ArialMT-442" x="743.259766"/>
      <use xlink:href="#ArialMT-440" x="789.060547"/>
      <use xlink:href="#ArialMT-43e" x="844.675781"/>
      <use xlink:href="#ArialMT-44d" x="900.291016"/>
      <use xlink:href="#ArialMT-43d" x="951.316406"/>
      <use xlink:href="#ArialMT-435" x="1006.541016"/>
      <use xlink:href="#ArialMT-440" x="1062.15625"/>
      <use xlink:href="#ArialMT-433" x="1117.771484"/>
      <use xlink:href="#ArialMT-438" x="1154.246094"/>
      <use xlink:href="#ArialMT-438" x="1210.105469"/>
      <use xlink:href="#ArialMT-20" x="1265.964844"/>
      <use xlink:href="#ArialMT-422" x="1293.748047"/>
      <use xlink:href="#ArialMT-410" x="1351.457031"/>
      <use xlink:href="#ArialMT-20" x="1418.15625"/>
      <use xlink:href="#ArialMT-433" x="1445.939453"/>
      <use xlink:href="#ArialMT-440" x="1482.414062"/>
      <use xlink:href="#ArialMT-2e" x="1538.029297"/>
      <use xlink:href="#ArialMT-31" x="1565.8125"/>
      <use xlink:href="#ArialMT-33" x="1621.427734"/>
      <use xlink:href="#ArialMT-30" x="1677.042969"/>
     </g>
    </g>
    <g id="patch_9">
     <path d="M 464.273594 144.545937 
L 502.273594 144.545937 
L 502.273594 131.245937 
L 464.273594 131.245937 
z
" style="fill: #0000ff; fill-opacity: 0.8; stroke: #0000ff; stroke-linejoin: miter"/>
    </g>
    <g id="text_22">
     <!-- Отпуск тепла из ТО ТА гр.130 -->
     <g style="fill: #262626" transform="translate(517.473594 144.545937) scale(0.19 -0.19)">
      <defs>
       <path id="ArialMT-41e" d="M 309 2231 
Q 309 3372 921 4017 
Q 1534 4663 2503 4663 
Q 3138 4663 3647 4359 
Q 4156 4056 4423 3514 
Q 4691 2972 4691 2284 
Q 4691 1588 4409 1038 
Q 4128 488 3612 205 
Q 3097 -78 2500 -78 
Q 1853 -78 1343 234 
Q 834 547 571 1087 
Q 309 1628 309 2231 
z
M 934 2222 
Q 934 1394 1379 917 
Q 1825 441 2497 441 
Q 3181 441 3623 922 
Q 4066 1403 4066 2288 
Q 4066 2847 3877 3264 
Q 3688 3681 3323 3911 
Q 2959 4141 2506 4141 
Q 1863 4141 1398 3698 
Q 934 3256 934 2222 
z
" transform="scale(0.015625)"/>
       <path id="ArialMT-443" d="M 397 -1278 
L 334 -750 
Q 519 -800 656 -800 
Q 844 -800 956 -737 
Q 1069 -675 1141 -563 
Q 1194 -478 1313 -144 
Q 1328 -97 1363 -6 
L 103 3319 
L 709 3319 
L 1400 1397 
Q 1534 1031 1641 628 
Q 1738 1016 1872 1384 
L 2581 3319 
L 3144 3319 
L 1881 -56 
Q 1678 -603 1566 -809 
Q 1416 -1088 1222 -1217 
Q 1028 -1347 759 -1347 
Q 597 -1347 397 -1278 
z
" transform="scale(0.015625)"/>
       <path id="ArialMT-437" d="M 1156 1500 
L 1156 1941 
Q 1513 1944 1642 1969 
Q 1772 1994 1887 2119 
Q 2003 2244 2003 2431 
Q 2003 2659 1851 2795 
Q 1700 2931 1459 2931 
Q 984 2931 794 2372 
L 259 2459 
Q 509 3394 1466 3394 
Q 1997 3394 2298 3103 
Q 2600 2813 2600 2409 
Q 2600 2003 2206 1763 
Q 2456 1628 2581 1420 
Q 2706 1213 2706 928 
Q 2706 481 2381 203 
Q 2056 -75 1472 -75 
Q 338 -75 156 934 
L 684 1047 
Q 756 728 976 553 
Q 1197 378 1481 378 
Q 1766 378 1955 539 
Q 2144 700 2144 950 
Q 2144 1144 2025 1287 
Q 1906 1431 1772 1467 
Q 1638 1503 1284 1503 
Q 1256 1503 1156 1500 
z
" transform="scale(0.015625)"/>
      </defs>
      <use xlink:href="#ArialMT-41e"/>
      <use xlink:href="#ArialMT-442" x="77.783203"/>
      <use xlink:href="#ArialMT-43f" x="123.583984"/>
      <use xlink:href="#ArialMT-443" x="177.734375"/>
      <use xlink:href="#ArialMT-441" x="226.609375"/>
      <use xlink:href="#ArialMT-43a" x="276.609375"/>
      <use xlink:href="#ArialMT-20" x="320.359375"/>
      <use xlink:href="#ArialMT-442" x="348.142578"/>
      <use xlink:href="#ArialMT-435" x="392.818359"/>
      <use xlink:href="#ArialMT-43f" x="448.433594"/>
      <use xlink:href="#ArialMT-43b" x="502.583984"/>
      <use xlink:href="#ArialMT-430" x="560.933594"/>
      <use xlink:href="#ArialMT-20" x="616.548828"/>
      <use xlink:href="#ArialMT-438" x="644.332031"/>
      <use xlink:href="#ArialMT-437" x="700.191406"/>
      <use xlink:href="#ArialMT-20" x="746.041016"/>
      <use xlink:href="#ArialMT-422" x="773.824219"/>
      <use xlink:href="#ArialMT-41e" x="830.408203"/>
      <use xlink:href="#ArialMT-20" x="908.191406"/>
      <use xlink:href="#ArialMT-422" x="935.974609"/>
      <use xlink:href="#ArialMT-410" x="993.683594"/>
      <use xlink:href="#ArialMT-20" x="1060.382812"/>
      <use xlink:href="#ArialMT-433" x="1088.166016"/>
      <use xlink:href="#ArialMT-440" x="1124.640625"/>
      <use xlink:href="#ArialMT-2e" x="1180.255859"/>
      <use xlink:href="#ArialMT-31" x="1208.039062"/>
      <use xlink:href="#ArialMT-33" x="1263.654297"/>
      <use xlink:href="#ArialMT-30" x="1319.269531"/>
     </g>
    </g>
    <g id="patch_10">
     <path d="M 464.273594 171.87625 
L 502.273594 171.87625 
L 502.273594 158.57625 
L 464.273594 158.57625 
z
" style="fill: #00ffff; fill-opacity: 0.8; stroke: #00ffff; stroke-linejoin: miter"/>
    </g>
    <g id="text_23">
     <!-- Удельный расход условного топлива на отпуск э/э гр.130 -->
     <g style="fill: #262626" transform="translate(517.473594 171.87625) scale(0.19 -0.19)">
      <defs>
       <path id="ArialMT-423" d="M 31 4581 
L 644 4581 
L 2138 1775 
L 3444 4581 
L 4047 4581 
L 2328 1019 
Q 2006 350 1800 143 
Q 1594 -63 1209 -63 
Q 975 -63 634 47 
L 634 566 
Q 878 425 1150 425 
Q 1372 425 1533 567 
Q 1694 709 1888 1216 
L 31 4581 
z
" transform="scale(0.015625)"/>
       <path id="ArialMT-44c" d="M 413 3319 
L 975 3319 
L 975 2022 
L 1688 2022 
Q 2384 2022 2761 1751 
Q 3138 1481 3138 1006 
Q 3138 591 2823 295 
Q 2509 0 1819 0 
L 413 0 
L 413 3319 
z
M 975 463 
L 1566 463 
Q 2100 463 2328 594 
Q 2556 725 2556 1003 
Q 2556 1219 2387 1387 
Q 2219 1556 1641 1556 
L 975 1556 
L 975 463 
z
" transform="scale(0.015625)"/>
       <path id="ArialMT-439" d="M 422 3319 
L 984 3319 
L 984 788 
L 2544 3319 
L 3150 3319 
L 3150 0 
L 2588 0 
L 2588 2516 
L 1028 0 
L 422 0 
L 422 3319 
z
M 2374 4575 
L 2759 4575 
Q 2712 4184 2473 3975 
Q 2234 3766 1837 3766 
Q 1437 3766 1198 3973 
Q 959 4181 912 4575 
L 1296 4575 
Q 1340 4363 1469 4258 
Q 1599 4153 1818 4153 
Q 2071 4153 2201 4254 
Q 2331 4356 2374 4575 
z
" transform="scale(0.015625)"/>
       <path id="ArialMT-432" d="M 425 3319 
L 1722 3319 
Q 2200 3319 2433 3239 
Q 2666 3159 2833 2946 
Q 3000 2734 3000 2438 
Q 3000 2200 2901 2023 
Q 2803 1847 2606 1728 
Q 2841 1650 2995 1436 
Q 3150 1222 3150 928 
Q 3119 456 2812 228 
Q 2506 0 1922 0 
L 425 0 
L 425 3319 
z
M 988 1922 
L 1588 1922 
Q 1947 1922 2081 1959 
Q 2216 1997 2322 2111 
Q 2428 2225 2428 2384 
Q 2428 2647 2242 2750 
Q 2056 2853 1606 2853 
L 988 2853 
L 988 1922 
z
M 988 463 
L 1728 463 
Q 2206 463 2384 573 
Q 2563 684 2572 956 
Q 2572 1116 2469 1252 
Q 2366 1388 2200 1423 
Q 2034 1459 1669 1459 
L 988 1459 
L 988 463 
z
" transform="scale(0.015625)"/>
       <path id="ArialMT-2f" d="M 0 -78 
L 1328 4659 
L 1778 4659 
L 453 -78 
L 0 -78 
z
" transform="scale(0.015625)"/>
      </defs>
      <use xlink:href="#ArialMT-423"/>
      <use xlink:href="#ArialMT-434" x="55.775391"/>
      <use xlink:href="#ArialMT-435" x="114.125"/>
      <use xlink:href="#ArialMT-43b" x="166.365234"/>
      <use xlink:href="#ArialMT-44c" x="224.714844"/>
      <use xlink:href="#ArialMT-43d" x="276.814453"/>
      <use xlink:href="#ArialMT-44b" x="332.039062"/>
      <use xlink:href="#ArialMT-439" x="403.914062"/>
      <use xlink:href="#ArialMT-20" x="459.773438"/>
      <use xlink:href="#ArialMT-440" x="487.556641"/>
      <use xlink:href="#ArialMT-430" x="543.171875"/>
      <use xlink:href="#ArialMT-441" x="598.787109"/>
      <use xlink:href="#ArialMT-445" x="648.787109"/>
      <use xlink:href="#ArialMT-43e" x="697.662109"/>
      <use xlink:href="#ArialMT-434" x="751.027344"/>
      <use xlink:href="#ArialMT-20" x="809.376953"/>
      <use xlink:href="#ArialMT-443" x="837.160156"/>
      <use xlink:href="#ArialMT-441" x="886.035156"/>
      <use xlink:href="#ArialMT-43b" x="936.035156"/>
      <use xlink:href="#ArialMT-43e" x="995.509766"/>
      <use xlink:href="#ArialMT-432" x="1051.125"/>
      <use xlink:href="#ArialMT-43d" x="1104.25"/>
      <use xlink:href="#ArialMT-43e" x="1159.474609"/>
      <use xlink:href="#ArialMT-433" x="1215.089844"/>
      <use xlink:href="#ArialMT-43e" x="1249.314453"/>
      <use xlink:href="#ArialMT-20" x="1304.929688"/>
      <use xlink:href="#ArialMT-442" x="1332.712891"/>
      <use xlink:href="#ArialMT-43e" x="1377.388672"/>
      <use xlink:href="#ArialMT-43f" x="1433.003906"/>
      <use xlink:href="#ArialMT-43b" x="1487.154297"/>
      <use xlink:href="#ArialMT-438" x="1545.503906"/>
      <use xlink:href="#ArialMT-432" x="1601.363281"/>
      <use xlink:href="#ArialMT-430" x="1653.363281"/>
      <use xlink:href="#ArialMT-20" x="1708.978516"/>
      <use xlink:href="#ArialMT-43d" x="1736.761719"/>
      <use xlink:href="#ArialMT-430" x="1791.986328"/>
      <use xlink:href="#ArialMT-20" x="1847.601562"/>
      <use xlink:href="#ArialMT-43e" x="1875.384766"/>
      <use xlink:href="#ArialMT-442" x="1928.75"/>
      <use xlink:href="#ArialMT-43f" x="1974.550781"/>
      <use xlink:href="#ArialMT-443" x="2028.701172"/>
      <use xlink:href="#ArialMT-441" x="2077.576172"/>
      <use xlink:href="#ArialMT-43a" x="2127.576172"/>
      <use xlink:href="#ArialMT-20" x="2171.326172"/>
      <use xlink:href="#ArialMT-44d" x="2199.109375"/>
      <use xlink:href="#ArialMT-2f" x="2250.134766"/>
      <use xlink:href="#ArialMT-44d" x="2277.917969"/>
      <use xlink:href="#ArialMT-20" x="2328.943359"/>
      <use xlink:href="#ArialMT-433" x="2356.726562"/>
      <use xlink:href="#ArialMT-440" x="2393.201172"/>
      <use xlink:href="#ArialMT-2e" x="2448.816406"/>
      <use xlink:href="#ArialMT-31" x="2476.599609"/>
      <use xlink:href="#ArialMT-33" x="2532.214844"/>
      <use xlink:href="#ArialMT-30" x="2587.830078"/>
     </g>
    </g>
   </g>
  </g>
 </g>
 <defs>
  <clipPath id="p5d7399741a">
   <rect x="144" y="86.4" width="892.8" height="554.4"/>
  </clipPath>
 </defs>
</svg>
