<?xml version="1.0" encoding="utf-8" standalone="no"?>
<!DOCTYPE svg PUBLIC "-//W3C//DTD SVG 1.1//EN"
  "http://www.w3.org/Graphics/SVG/1.1/DTD/svg11.dtd">
<svg xmlns:xlink="http://www.w3.org/1999/xlink" width="460.8pt" height="345.6pt" viewBox="0 0 460.8 345.6" xmlns="http://www.w3.org/2000/svg" version="1.1">
 <metadata>
  <rdf:RDF xmlns:dc="http://purl.org/dc/elements/1.1/" xmlns:cc="http://creativecommons.org/ns#" xmlns:rdf="http://www.w3.org/1999/02/22-rdf-syntax-ns#">
   <cc:Work>
    <dc:type rdf:resource="http://purl.org/dc/dcmitype/StillImage"/>
    <dc:date>2023-06-22T17:49:23.874595</dc:date>
    <dc:format>image/svg+xml</dc:format>
    <dc:creator>
     <cc:Agent>
      <dc:title>Matplotlib v3.7.1, https://matplotlib.org/</dc:title>
     </cc:Agent>
    </dc:creator>
   </cc:Work>
  </rdf:RDF>
 </metadata>
 <defs>
  <style type="text/css">*{stroke-linejoin: round; stroke-linecap: butt}</style>
 </defs>
 <g id="figure_1">
  <g id="patch_1">
   <path d="M 0 345.6 
L 460.8 345.6 
L 460.8 0 
L 0 0 
z
" style="fill: #ffffff"/>
  </g>
  <g id="axes_1">
   <g id="patch_2">
    <path d="M 57.6 307.584 
L 414.72 307.584 
L 414.72 41.472 
L 57.6 41.472 
z
" style="fill: #eaeaf2"/>
   </g>
   <g id="matplotlib.axis_1">
    <g id="xtick_1">
     <g id="line2d_1">
      <path d="M 73.832727 307.584 
L 73.832727 41.472 
" clip-path="url(#p433bbc9524)" style="fill: none; stroke: #ffffff; stroke-width: 0.8; stroke-linecap: round"/>
     </g>
     <g id="text_1">
      <!-- 0 -->
      <g style="fill: #262626" transform="translate(71.052259 321.741812) scale(0.1 -0.1)">
       <defs>
        <path id="ArialMT-30" d="M 266 2259 
Q 266 3072 433 3567 
Q 600 4063 929 4331 
Q 1259 4600 1759 4600 
Q 2128 4600 2406 4451 
Q 2684 4303 2865 4023 
Q 3047 3744 3150 3342 
Q 3253 2941 3253 2259 
Q 3253 1453 3087 958 
Q 2922 463 2592 192 
Q 2263 -78 1759 -78 
Q 1097 -78 719 397 
Q 266 969 266 2259 
z
M 844 2259 
Q 844 1131 1108 757 
Q 1372 384 1759 384 
Q 2147 384 2411 759 
Q 2675 1134 2675 2259 
Q 2675 3391 2411 3762 
Q 2147 4134 1753 4134 
Q 1366 4134 1134 3806 
Q 844 3388 844 2259 
z
" transform="scale(0.015625)"/>
       </defs>
       <use xlink:href="#ArialMT-30"/>
      </g>
     </g>
    </g>
    <g id="xtick_2">
     <g id="line2d_2">
      <path d="M 133.898323 307.584 
L 133.898323 41.472 
" clip-path="url(#p433bbc9524)" style="fill: none; stroke: #ffffff; stroke-width: 0.8; stroke-linecap: round"/>
     </g>
     <g id="text_2">
      <!-- 200 -->
      <g style="fill: #262626" transform="translate(125.556917 321.741812) scale(0.1 -0.1)">
       <defs>
        <path id="ArialMT-32" d="M 3222 541 
L 3222 0 
L 194 0 
Q 188 203 259 391 
Q 375 700 629 1000 
Q 884 1300 1366 1694 
Q 2113 2306 2375 2664 
Q 2638 3022 2638 3341 
Q 2638 3675 2398 3904 
Q 2159 4134 1775 4134 
Q 1369 4134 1125 3890 
Q 881 3647 878 3216 
L 300 3275 
Q 359 3922 746 4261 
Q 1134 4600 1788 4600 
Q 2447 4600 2831 4234 
Q 3216 3869 3216 3328 
Q 3216 3053 3103 2787 
Q 2991 2522 2730 2228 
Q 2469 1934 1863 1422 
Q 1356 997 1212 845 
Q 1069 694 975 541 
L 3222 541 
z
" transform="scale(0.015625)"/>
       </defs>
       <use xlink:href="#ArialMT-32"/>
       <use xlink:href="#ArialMT-30" x="55.615234"/>
       <use xlink:href="#ArialMT-30" x="111.230469"/>
      </g>
     </g>
    </g>
    <g id="xtick_3">
     <g id="line2d_3">
      <path d="M 193.963919 307.584 
L 193.963919 41.472 
" clip-path="url(#p433bbc9524)" style="fill: none; stroke: #ffffff; stroke-width: 0.8; stroke-linecap: round"/>
     </g>
     <g id="text_3">
      <!-- 400 -->
      <g style="fill: #262626" transform="translate(185.622513 321.741812) scale(0.1 -0.1)">
       <defs>
        <path id="ArialMT-34" d="M 2069 0 
L 2069 1097 
L 81 1097 
L 81 1613 
L 2172 4581 
L 2631 4581 
L 2631 1613 
L 3250 1613 
L 3250 1097 
L 2631 1097 
L 2631 0 
L 2069 0 
z
M 2069 1613 
L 2069 3678 
L 634 1613 
L 2069 1613 
z
" transform="scale(0.015625)"/>
       </defs>
       <use xlink:href="#ArialMT-34"/>
       <use xlink:href="#ArialMT-30" x="55.615234"/>
       <use xlink:href="#ArialMT-30" x="111.230469"/>
      </g>
     </g>
    </g>
    <g id="xtick_4">
     <g id="line2d_4">
      <path d="M 254.029515 307.584 
L 254.029515 41.472 
" clip-path="url(#p433bbc9524)" style="fill: none; stroke: #ffffff; stroke-width: 0.8; stroke-linecap: round"/>
     </g>
     <g id="text_4">
      <!-- 600 -->
      <g style="fill: #262626" transform="translate(245.688109 321.741812) scale(0.1 -0.1)">
       <defs>
        <path id="ArialMT-36" d="M 3184 3459 
L 2625 3416 
Q 2550 3747 2413 3897 
Q 2184 4138 1850 4138 
Q 1581 4138 1378 3988 
Q 1113 3794 959 3422 
Q 806 3050 800 2363 
Q 1003 2672 1297 2822 
Q 1591 2972 1913 2972 
Q 2475 2972 2870 2558 
Q 3266 2144 3266 1488 
Q 3266 1056 3080 686 
Q 2894 316 2569 119 
Q 2244 -78 1831 -78 
Q 1128 -78 684 439 
Q 241 956 241 2144 
Q 241 3472 731 4075 
Q 1159 4600 1884 4600 
Q 2425 4600 2770 4297 
Q 3116 3994 3184 3459 
z
M 888 1484 
Q 888 1194 1011 928 
Q 1134 663 1356 523 
Q 1578 384 1822 384 
Q 2178 384 2434 671 
Q 2691 959 2691 1453 
Q 2691 1928 2437 2201 
Q 2184 2475 1800 2475 
Q 1419 2475 1153 2201 
Q 888 1928 888 1484 
z
" transform="scale(0.015625)"/>
       </defs>
       <use xlink:href="#ArialMT-36"/>
       <use xlink:href="#ArialMT-30" x="55.615234"/>
       <use xlink:href="#ArialMT-30" x="111.230469"/>
      </g>
     </g>
    </g>
    <g id="xtick_5">
     <g id="line2d_5">
      <path d="M 314.095111 307.584 
L 314.095111 41.472 
" clip-path="url(#p433bbc9524)" style="fill: none; stroke: #ffffff; stroke-width: 0.8; stroke-linecap: round"/>
     </g>
     <g id="text_5">
      <!-- 800 -->
      <g style="fill: #262626" transform="translate(305.753704 321.741812) scale(0.1 -0.1)">
       <defs>
        <path id="ArialMT-38" d="M 1131 2484 
Q 781 2613 612 2850 
Q 444 3088 444 3419 
Q 444 3919 803 4259 
Q 1163 4600 1759 4600 
Q 2359 4600 2725 4251 
Q 3091 3903 3091 3403 
Q 3091 3084 2923 2848 
Q 2756 2613 2416 2484 
Q 2838 2347 3058 2040 
Q 3278 1734 3278 1309 
Q 3278 722 2862 322 
Q 2447 -78 1769 -78 
Q 1091 -78 675 323 
Q 259 725 259 1325 
Q 259 1772 486 2073 
Q 713 2375 1131 2484 
z
M 1019 3438 
Q 1019 3113 1228 2906 
Q 1438 2700 1772 2700 
Q 2097 2700 2305 2904 
Q 2513 3109 2513 3406 
Q 2513 3716 2298 3927 
Q 2084 4138 1766 4138 
Q 1444 4138 1231 3931 
Q 1019 3725 1019 3438 
z
M 838 1322 
Q 838 1081 952 856 
Q 1066 631 1291 507 
Q 1516 384 1775 384 
Q 2178 384 2440 643 
Q 2703 903 2703 1303 
Q 2703 1709 2433 1975 
Q 2163 2241 1756 2241 
Q 1359 2241 1098 1978 
Q 838 1716 838 1322 
z
" transform="scale(0.015625)"/>
       </defs>
       <use xlink:href="#ArialMT-38"/>
       <use xlink:href="#ArialMT-30" x="55.615234"/>
       <use xlink:href="#ArialMT-30" x="111.230469"/>
      </g>
     </g>
    </g>
    <g id="xtick_6">
     <g id="line2d_6">
      <path d="M 374.160706 307.584 
L 374.160706 41.472 
" clip-path="url(#p433bbc9524)" style="fill: none; stroke: #ffffff; stroke-width: 0.8; stroke-linecap: round"/>
     </g>
     <g id="text_6">
      <!-- 1000 -->
      <g style="fill: #262626" transform="translate(363.038831 321.741812) scale(0.1 -0.1)">
       <defs>
        <path id="ArialMT-31" d="M 2384 0 
L 1822 0 
L 1822 3584 
Q 1619 3391 1289 3197 
Q 959 3003 697 2906 
L 697 3450 
Q 1169 3672 1522 3987 
Q 1875 4303 2022 4600 
L 2384 4600 
L 2384 0 
z
" transform="scale(0.015625)"/>
       </defs>
       <use xlink:href="#ArialMT-31"/>
       <use xlink:href="#ArialMT-30" x="55.615234"/>
       <use xlink:href="#ArialMT-30" x="111.230469"/>
       <use xlink:href="#ArialMT-30" x="166.845703"/>
      </g>
     </g>
    </g>
   </g>
   <g id="matplotlib.axis_2">
    <g id="ytick_1">
     <g id="line2d_7">
      <path d="M 57.6 268.912005 
L 414.72 268.912005 
" clip-path="url(#p433bbc9524)" style="fill: none; stroke: #ffffff; stroke-width: 0.8; stroke-linecap: round"/>
     </g>
     <g id="text_7">
      <!-- 300 -->
      <g style="fill: #262626" transform="translate(33.917187 272.490911) scale(0.1 -0.1)">
       <defs>
        <path id="ArialMT-33" d="M 269 1209 
L 831 1284 
Q 928 806 1161 595 
Q 1394 384 1728 384 
Q 2125 384 2398 659 
Q 2672 934 2672 1341 
Q 2672 1728 2419 1979 
Q 2166 2231 1775 2231 
Q 1616 2231 1378 2169 
L 1441 2663 
Q 1497 2656 1531 2656 
Q 1891 2656 2178 2843 
Q 2466 3031 2466 3422 
Q 2466 3731 2256 3934 
Q 2047 4138 1716 4138 
Q 1388 4138 1169 3931 
Q 950 3725 888 3313 
L 325 3413 
Q 428 3978 793 4289 
Q 1159 4600 1703 4600 
Q 2078 4600 2393 4439 
Q 2709 4278 2876 4000 
Q 3044 3722 3044 3409 
Q 3044 3113 2884 2869 
Q 2725 2625 2413 2481 
Q 2819 2388 3044 2092 
Q 3269 1797 3269 1353 
Q 3269 753 2831 336 
Q 2394 -81 1725 -81 
Q 1122 -81 723 278 
Q 325 638 269 1209 
z
" transform="scale(0.015625)"/>
       </defs>
       <use xlink:href="#ArialMT-33"/>
       <use xlink:href="#ArialMT-30" x="55.615234"/>
       <use xlink:href="#ArialMT-30" x="111.230469"/>
      </g>
     </g>
    </g>
    <g id="ytick_2">
     <g id="line2d_8">
      <path d="M 57.6 216.246488 
L 414.72 216.246488 
" clip-path="url(#p433bbc9524)" style="fill: none; stroke: #ffffff; stroke-width: 0.8; stroke-linecap: round"/>
     </g>
     <g id="text_8">
      <!-- 350 -->
      <g style="fill: #262626" transform="translate(33.917187 219.825395) scale(0.1 -0.1)">
       <defs>
        <path id="ArialMT-35" d="M 266 1200 
L 856 1250 
Q 922 819 1161 601 
Q 1400 384 1738 384 
Q 2144 384 2425 690 
Q 2706 997 2706 1503 
Q 2706 1984 2436 2262 
Q 2166 2541 1728 2541 
Q 1456 2541 1237 2417 
Q 1019 2294 894 2097 
L 366 2166 
L 809 4519 
L 3088 4519 
L 3088 3981 
L 1259 3981 
L 1013 2750 
Q 1425 3038 1878 3038 
Q 2478 3038 2890 2622 
Q 3303 2206 3303 1553 
Q 3303 931 2941 478 
Q 2500 -78 1738 -78 
Q 1113 -78 717 272 
Q 322 622 266 1200 
z
" transform="scale(0.015625)"/>
       </defs>
       <use xlink:href="#ArialMT-33"/>
       <use xlink:href="#ArialMT-35" x="55.615234"/>
       <use xlink:href="#ArialMT-30" x="111.230469"/>
      </g>
     </g>
    </g>
    <g id="ytick_3">
     <g id="line2d_9">
      <path d="M 57.6 163.580972 
L 414.72 163.580972 
" clip-path="url(#p433bbc9524)" style="fill: none; stroke: #ffffff; stroke-width: 0.8; stroke-linecap: round"/>
     </g>
     <g id="text_9">
      <!-- 400 -->
      <g style="fill: #262626" transform="translate(33.917187 167.159879) scale(0.1 -0.1)">
       <use xlink:href="#ArialMT-34"/>
       <use xlink:href="#ArialMT-30" x="55.615234"/>
       <use xlink:href="#ArialMT-30" x="111.230469"/>
      </g>
     </g>
    </g>
    <g id="ytick_4">
     <g id="line2d_10">
      <path d="M 57.6 110.915456 
L 414.72 110.915456 
" clip-path="url(#p433bbc9524)" style="fill: none; stroke: #ffffff; stroke-width: 0.8; stroke-linecap: round"/>
     </g>
     <g id="text_10">
      <!-- 450 -->
      <g style="fill: #262626" transform="translate(33.917187 114.494362) scale(0.1 -0.1)">
       <use xlink:href="#ArialMT-34"/>
       <use xlink:href="#ArialMT-35" x="55.615234"/>
       <use xlink:href="#ArialMT-30" x="111.230469"/>
      </g>
     </g>
    </g>
    <g id="ytick_5">
     <g id="line2d_11">
      <path d="M 57.6 58.24994 
L 414.72 58.24994 
" clip-path="url(#p433bbc9524)" style="fill: none; stroke: #ffffff; stroke-width: 0.8; stroke-linecap: round"/>
     </g>
     <g id="text_11">
      <!-- 500 -->
      <g style="fill: #262626" transform="translate(33.917187 61.828846) scale(0.1 -0.1)">
       <use xlink:href="#ArialMT-35"/>
       <use xlink:href="#ArialMT-30" x="55.615234"/>
       <use xlink:href="#ArialMT-30" x="111.230469"/>
      </g>
     </g>
    </g>
   </g>
   <g id="line2d_12">
    <path d="M 73.832727 258.718444 
L 74.133055 274.357955 
L 74.733711 249.935929 
L 75.034039 245.089313 
L 75.334367 253.889153 
L 75.634695 244.195921 
L 76.535679 185.442658 
L 76.836007 132.847571 
L 77.136335 124.300418 
L 77.436663 157.821356 
L 77.736991 155.287471 
L 78.037319 154.5188 
L 78.337647 150.884835 
L 78.637975 143.761714 
L 78.938303 141.313366 
L 79.238631 139.855324 
L 79.538959 136.622168 
L 79.839287 131.081906 
L 80.139615 86.133508 
L 80.439943 83.02083 
L 80.740271 117.201856 
L 81.040599 111.521894 
L 81.340927 120.914672 
L 81.641255 122.768958 
L 81.941583 105.639583 
L 82.241911 78.03236 
L 82.542239 61.948516 
L 82.842567 66.368253 
L 83.142895 102.19903 
L 83.443223 179.419297 
L 83.743551 213.319734 
L 84.043879 184.559231 
L 84.344207 134.690478 
L 84.644535 144.489594 
L 84.944863 158.35788 
L 85.24519 149.035756 
L 85.545518 113.189228 
L 85.845846 157.058054 
L 86.146174 163.323495 
L 86.446502 175.901437 
L 86.74683 219.580964 
L 87.047158 225.339969 
L 87.347486 246.160109 
L 87.647814 220.281778 
L 88.24847 258.334863 
L 88.548798 254.189351 
L 88.849126 253.855498 
L 89.449782 183.171779 
L 89.75011 113.136897 
L 90.050438 98.597916 
L 90.651094 151.138616 
L 90.951422 110.028301 
L 91.25175 153.709049 
L 91.552078 144.280944 
L 91.852406 157.948938 
L 92.152734 127.976235 
L 92.75339 106.565858 
L 93.053718 55.494001 
L 93.354046 59.627877 
L 93.654374 100.09421 
L 93.954702 119.743648 
L 94.25503 58.126087 
L 94.555358 75.221358 
L 94.855686 100.15297 
L 95.156014 71.182339 
L 95.456342 71.971679 
L 95.75667 114.947467 
L 96.056998 109.359406 
L 96.357326 97.809123 
L 96.657654 141.1313 
L 96.957982 166.153206 
L 97.25831 152.145123 
L 97.858966 187.365766 
L 98.159294 204.477848 
L 98.459622 168.145328 
L 99.060278 225.909441 
L 99.360605 200.703186 
L 99.660933 187.812574 
L 99.961261 183.570274 
L 100.261589 188.428913 
L 100.561917 199.408599 
L 100.862245 171.909768 
L 101.162573 127.511876 
L 101.462901 164.057064 
L 101.763229 175.411652 
L 102.063557 195.825679 
L 102.363885 180.609607 
L 102.664213 154.602055 
L 102.964541 217.871263 
L 103.264869 223.847083 
L 103.565197 218.566131 
L 103.865525 177.300719 
L 104.165853 226.884576 
L 104.466181 253.293195 
L 104.766509 244.389656 
L 105.066837 259.16538 
L 105.367165 239.615493 
L 106.268149 213.719804 
L 106.568477 266.330224 
L 106.868805 250.413435 
L 107.169133 256.071603 
L 107.469461 266.624828 
L 107.769789 257.530801 
L 108.070117 272.540634 
L 108.370445 266.624957 
L 108.670773 244.055771 
L 108.971101 248.423306 
L 109.271429 269.535222 
L 109.571757 251.430293 
L 109.872085 255.420195 
L 110.172413 253.046679 
L 110.472741 261.446546 
L 110.773069 263.806658 
L 111.073397 261.578177 
L 111.373725 262.661221 
L 111.674053 262.822586 
L 111.974381 269.069255 
L 112.274709 278.216771 
L 112.575037 281.487536 
L 112.875365 263.888015 
L 113.175693 260.918508 
L 113.476021 260.988133 
L 114.076676 272.321312 
L 114.377004 261.468307 
L 114.677332 279.17053 
L 114.97766 262.99922 
L 115.277988 277.532704 
L 115.578316 275.253725 
L 115.878644 250.61916 
L 116.178972 260.635701 
L 116.4793 261.34484 
L 116.779628 240.662439 
L 117.079956 243.812373 
L 117.680612 257.419196 
L 117.98094 243.981839 
L 118.281268 241.715074 
L 118.581596 262.749908 
L 118.881924 265.104362 
L 119.182252 269.408476 
L 119.48258 263.665575 
L 119.782908 269.648499 
L 120.083236 266.416018 
L 120.383564 269.21352 
L 120.683892 265.59868 
L 120.98422 255.893137 
L 121.284548 250.67522 
L 121.584876 247.452285 
L 121.885204 269.159292 
L 122.185532 270.991463 
L 122.48586 271.700313 
L 123.687172 266.311613 
L 123.9875 254.307353 
L 124.287828 254.379549 
L 124.588156 252.946613 
L 124.888484 260.451256 
L 125.188812 262.600982 
L 125.48914 268.472204 
L 126.390124 258.092333 
L 126.690452 261.053997 
L 126.99078 261.738064 
L 127.591436 265.135382 
L 127.891764 271.143024 
L 128.492419 266.702232 
L 128.792747 266.651894 
L 129.093075 267.654448 
L 129.393403 269.220206 
L 129.693731 269.71057 
L 129.994059 279.669251 
L 130.294387 270.762016 
L 130.594715 277.320454 
L 130.895043 271.184619 
L 131.195371 274.384763 
L 131.495699 278.776663 
L 131.796027 270.796346 
L 132.096355 259.078269 
L 132.697011 271.480574 
L 132.997339 260.768393 
L 133.597995 246.13494 
L 133.898323 258.125281 
L 134.198651 259.683099 
L 134.498979 246.111668 
L 134.799307 261.759022 
L 135.099635 269.079477 
L 135.399963 266.267735 
L 135.700291 262.086124 
L 136.300947 265.250298 
L 136.601275 270.743726 
L 136.901603 266.240155 
L 137.201931 273.55116 
L 137.502259 265.579201 
L 137.802587 266.664045 
L 138.102915 274.389038 
L 138.403243 273.043438 
L 138.703571 266.479085 
L 139.003899 266.149347 
L 139.304227 274.453584 
L 139.604555 266.732095 
L 139.904883 270.831769 
L 140.205211 287.828935 
L 140.505539 286.645664 
L 140.805867 293.964512 
L 141.106195 295.488 
L 141.706851 292.740065 
L 142.007179 287.654101 
L 142.307507 287.432915 
L 142.607834 284.501306 
L 142.908162 288.347264 
L 143.20849 278.831373 
L 143.508818 284.933842 
L 143.809146 285.646485 
L 144.109474 286.009204 
L 144.409802 284.954961 
L 144.71013 284.314064 
L 145.010458 276.763551 
L 145.310786 285.052037 
L 145.611114 283.5966 
L 145.911442 281.001415 
L 146.21177 285.966194 
L 146.512098 282.100049 
L 146.812426 259.249728 
L 147.112754 268.783748 
L 147.413082 269.04309 
L 147.71341 267.159423 
L 148.013738 282.430655 
L 148.314066 282.893793 
L 148.614394 282.701826 
L 148.914722 283.989309 
L 149.21505 284.393397 
L 149.815706 277.112608 
L 150.116034 264.27002 
L 150.416362 268.969383 
L 150.71669 266.309395 
L 151.017018 272.062582 
L 151.317346 261.611672 
L 151.617674 258.514583 
L 152.21833 265.653937 
L 152.518658 254.528346 
L 152.818986 260.481472 
L 153.119314 258.283786 
L 153.419642 263.283538 
L 153.71997 264.801015 
L 154.020298 262.351413 
L 154.320626 261.868378 
L 154.921282 256.518057 
L 155.22161 265.435097 
L 155.521938 259.289072 
L 156.122594 271.065813 
L 156.422922 265.501218 
L 156.72325 266.674845 
L 157.023577 265.941244 
L 157.323905 275.136687 
L 157.624233 266.991083 
L 157.924561 262.132252 
L 158.224889 261.716784 
L 158.525217 249.372275 
L 158.825545 244.020862 
L 159.125873 235.055381 
L 159.426201 200.67207 
L 159.726529 147.095965 
L 160.026857 122.540797 
L 160.627513 195.233481 
L 160.927841 168.542601 
L 161.228169 123.887072 
L 161.528497 131.208459 
L 161.828825 171.625032 
L 162.129153 170.454716 
L 162.429481 175.418177 
L 162.729809 166.493519 
L 163.030137 184.429946 
L 163.330465 173.115411 
L 163.630793 154.956126 
L 164.231449 177.970288 
L 164.531777 176.296686 
L 164.832105 186.719919 
L 165.132433 183.401323 
L 165.432761 177.295158 
L 165.733089 111.978056 
L 166.634073 142.554046 
L 166.934401 55.079048 
L 167.234729 119.931886 
L 167.535057 149.031609 
L 167.835385 135.407911 
L 168.135713 112.678484 
L 168.436041 123.555694 
L 168.736369 130.027728 
L 169.036697 130.177104 
L 169.337025 126.572614 
L 169.637353 105.637718 
L 169.937681 114.404482 
L 170.238009 128.612793 
L 170.838665 175.935832 
L 171.138993 142.647908 
L 171.739648 179.277861 
L 172.039976 158.214066 
L 172.340304 185.800201 
L 172.640632 181.282809 
L 172.94096 184.18073 
L 173.241288 177.562728 
L 173.541616 151.773533 
L 174.142272 178.602795 
L 174.4426 118.64675 
L 174.742928 130.678011 
L 175.043256 148.212471 
L 175.343584 138.130194 
L 175.94424 157.7625 
L 176.244568 160.124091 
L 176.544896 149.262439 
L 176.845224 151.460542 
L 177.145552 148.45648 
L 177.44588 151.100942 
L 177.746208 148.502511 
L 178.046536 155.530805 
L 178.647192 160.422424 
L 178.94752 114.690568 
L 179.247848 141.589166 
L 179.548176 124.835848 
L 179.848504 117.01635 
L 180.148832 70.802359 
L 180.44916 66.735408 
L 180.749488 90.264846 
L 181.049816 96.786896 
L 181.350144 76.474928 
L 181.650472 74.716207 
L 181.9508 78.548408 
L 182.551456 124.640281 
L 182.851784 139.374668 
L 183.152112 177.190656 
L 183.45244 140.969131 
L 183.752768 217.761715 
L 184.053096 250.827938 
L 184.353424 249.503971 
L 184.95408 264.570668 
L 185.254408 268.077855 
L 185.554736 269.785113 
L 185.855063 265.207289 
L 186.155391 265.071414 
L 186.455719 266.114471 
L 186.756047 251.570861 
L 187.056375 265.856833 
L 187.356703 264.034273 
L 187.657031 264.103287 
L 187.957359 257.793775 
L 188.257687 237.242974 
L 188.558015 253.701012 
L 188.858343 259.505083 
L 189.158671 256.868047 
L 189.458999 258.033959 
L 189.759327 264.226464 
L 190.059655 257.806408 
L 190.359983 263.869596 
L 190.660311 245.727541 
L 190.960639 236.528048 
L 191.561295 262.583303 
L 191.861623 246.180521 
L 192.161951 262.416955 
L 192.462279 245.627572 
L 192.762607 235.754459 
L 193.062935 260.339779 
L 193.363263 261.664453 
L 193.963919 252.406136 
L 194.264247 273.552575 
L 194.564575 275.465139 
L 194.864903 271.147814 
L 195.165231 279.039895 
L 195.465559 282.898132 
L 195.765887 279.34816 
L 196.066215 274.107967 
L 196.366543 282.384656 
L 196.666871 275.574173 
L 196.967199 271.658268 
L 197.267527 262.517214 
L 197.567855 266.780183 
L 197.868183 264.962412 
L 198.168511 235.830577 
L 198.468839 232.265047 
L 198.769167 247.685044 
L 199.069495 243.704528 
L 199.369823 256.784824 
L 199.670151 228.624717 
L 200.270806 257.153007 
L 200.571134 252.819739 
L 200.871462 259.30013 
L 201.472118 261.304981 
L 201.772446 255.575581 
L 202.072774 255.879604 
L 202.373102 255.034429 
L 202.67343 254.866506 
L 202.973758 261.100896 
L 203.274086 252.701833 
L 203.574414 254.684761 
L 203.874742 261.612572 
L 204.17507 250.592415 
L 204.775726 253.843315 
L 205.076054 254.99142 
L 205.376382 235.08055 
L 205.67671 254.455153 
L 205.977038 254.902572 
L 206.277366 257.576382 
L 206.878022 249.525187 
L 207.17835 252.689457 
L 207.478678 253.15822 
L 207.779006 254.691608 
L 208.079334 256.877818 
L 208.379662 251.945119 
L 208.67999 231.529164 
L 208.980318 252.50289 
L 209.280646 243.058424 
L 209.580974 238.584427 
L 209.881302 240.239064 
L 210.481958 250.496946 
L 210.782286 237.209993 
L 211.082614 236.606899 
L 211.382942 258.092558 
L 211.983598 256.312236 
L 212.283926 252.062061 
L 212.584254 257.493032 
L 212.884582 257.520226 
L 213.18491 254.424584 
L 213.485238 258.09558 
L 213.785566 256.351613 
L 214.386222 248.351688 
L 214.686549 256.294332 
L 214.986877 252.883674 
L 215.287205 247.861485 
L 215.587533 249.043855 
L 215.887861 251.987132 
L 216.188189 247.256943 
L 216.788845 260.493237 
L 217.089173 262.960004 
L 217.389501 258.026662 
L 217.689829 257.247609 
L 217.990157 253.893782 
L 218.290485 245.508412 
L 218.590813 244.033559 
L 218.891141 247.19783 
L 219.191469 257.857743 
L 219.491797 246.39605 
L 219.792125 256.464408 
L 220.092453 261.071034 
L 220.693109 253.548647 
L 220.993437 263.102115 
L 221.293765 258.830692 
L 221.594093 257.04902 
L 221.894421 264.331127 
L 222.495077 259.329864 
L 222.795405 256.453576 
L 223.095733 244.762146 
L 223.696389 237.070133 
L 223.996717 238.862734 
L 224.597373 245.393753 
L 224.897701 243.079029 
L 225.198029 242.784393 
L 225.498357 241.583636 
L 225.798685 255.352241 
L 226.099013 253.316178 
L 226.399341 249.240161 
L 226.699669 253.029449 
L 226.999997 251.803909 
L 227.300325 248.226967 
L 227.600653 246.987283 
L 227.900981 261.688368 
L 228.201309 262.239903 
L 228.501637 264.962702 
L 228.801965 256.830373 
L 229.102292 262.487512 
L 229.702948 252.853683 
L 230.003276 264.088854 
L 230.303604 265.538538 
L 230.603932 265.436993 
L 230.90426 264.035237 
L 231.204588 268.352884 
L 231.504916 268.621965 
L 231.805244 265.035573 
L 232.105572 268.170335 
L 232.4059 266.365005 
L 232.706228 267.289544 
L 233.006556 267.132968 
L 233.306884 265.218957 
L 233.607212 260.66296 
L 233.90754 263.777985 
L 234.207868 259.405725 
L 234.808524 267.471064 
L 235.40918 247.956439 
L 235.709508 257.019447 
L 236.009836 235.37329 
L 236.310164 246.867899 
L 236.610492 249.241447 
L 236.91082 247.607575 
L 237.211148 266.412643 
L 237.511476 267.37132 
L 237.811804 265.86384 
L 238.112132 262.877039 
L 238.41246 271.726672 
L 238.712788 267.236763 
L 239.013116 273.676492 
L 239.313444 270.28586 
L 239.613772 272.517265 
L 239.9141 258.150933 
L 240.214428 271.898098 
L 240.514756 270.582618 
L 240.815084 272.487307 
L 241.115412 262.042054 
L 241.41574 271.176133 
L 241.716068 271.688066 
L 242.016396 267.847765 
L 242.316724 266.163652 
L 242.617052 260.143344 
L 242.91738 268.166092 
L 243.217708 264.920175 
L 243.518035 263.024582 
L 243.818363 266.987707 
L 244.118691 265.400767 
L 244.419019 267.574248 
L 244.719347 268.703162 
L 245.320003 264.174294 
L 245.620331 263.547444 
L 245.920659 259.639865 
L 246.220987 250.48306 
L 246.521315 246.17615 
L 246.821643 251.348646 
L 247.121971 242.4309 
L 247.422299 258.602691 
L 247.722627 260.367134 
L 248.022955 253.120418 
L 248.323283 253.374488 
L 248.623611 256.324612 
L 248.923939 245.425222 
L 249.224267 239.147759 
L 249.824923 160.930338 
L 250.125251 189.257244 
L 250.425579 195.876467 
L 250.725907 182.726385 
L 251.026235 197.712978 
L 251.626891 181.234849 
L 251.927219 184.070603 
L 252.227547 184.095226 
L 252.527875 196.86986 
L 252.828203 144.879539 
L 253.128531 163.157501 
L 253.428859 163.210989 
L 253.729187 170.435976 
L 254.029515 166.078373 
L 254.329843 167.986888 
L 254.630171 189.019246 
L 254.930499 185.596727 
L 255.230827 152.711477 
L 255.531155 132.505393 
L 255.831483 136.167774 
L 256.131811 76.880591 
L 256.432139 76.310188 
L 256.732467 92.676421 
L 257.333123 70.800334 
L 257.633451 62.535956 
L 257.933778 78.592542 
L 258.234106 53.568 
L 258.534434 136.799284 
L 258.834762 125.142892 
L 259.13509 174.878761 
L 259.435418 177.692206 
L 259.735746 174.003531 
L 260.036074 193.410857 
L 260.336402 190.80934 
L 260.63673 172.782715 
L 260.937058 213.012175 
L 261.537714 230.724652 
L 261.838042 229.523734 
L 262.13837 221.511015 
L 262.438698 218.314311 
L 262.739026 232.765505 
L 263.039354 220.160883 
L 263.339682 215.609192 
L 263.64001 218.403672 
L 264.240666 238.6933 
L 264.540994 245.50343 
L 264.841322 228.289321 
L 265.742306 254.52436 
L 266.042634 255.443853 
L 266.342962 208.523681 
L 266.64329 239.921702 
L 266.943618 252.667084 
L 267.243946 251.807798 
L 267.544274 251.912139 
L 267.844602 250.657154 
L 268.14493 232.730692 
L 268.445258 227.941486 
L 268.745586 229.691046 
L 269.045914 242.48561 
L 269.346242 233.380686 
L 269.64657 244.513251 
L 269.946898 235.292543 
L 270.247226 246.653367 
L 270.547554 245.392049 
L 270.847882 258.796297 
L 271.14821 262.819372 
L 271.448538 262.176675 
L 271.748866 244.880566 
L 272.049194 236.328367 
L 272.649849 272.842889 
L 272.950177 258.528888 
L 273.250505 259.560018 
L 273.851161 267.780615 
L 274.151489 265.970785 
L 274.451817 256.651457 
L 274.752145 265.537574 
L 275.052473 253.263493 
L 275.352801 261.489426 
L 275.653129 259.41315 
L 276.253785 260.323835 
L 276.854441 252.587913 
L 277.154769 215.329439 
L 277.455097 262.683947 
L 277.755425 279.881983 
L 278.055753 281.392967 
L 278.656409 275.996262 
L 278.956737 269.311046 
L 279.257065 285.362392 
L 279.557393 277.863889 
L 280.158049 273.535249 
L 280.458377 256.201081 
L 280.758705 254.136119 
L 281.059033 256.917324 
L 281.359361 251.349707 
L 281.659689 249.842003 
L 281.960017 249.372468 
L 282.260345 256.489963 
L 282.560673 254.932499 
L 282.861001 243.839214 
L 283.161329 241.683926 
L 283.761985 262.925931 
L 284.062313 264.740808 
L 284.362641 264.521712 
L 284.662969 260.306445 
L 284.963297 268.76729 
L 285.263625 260.979197 
L 285.864281 268.089202 
L 286.164609 268.29287 
L 286.464937 264.637528 
L 286.765264 271.100337 
L 287.065592 266.587637 
L 287.36592 269.442099 
L 287.666248 265.842818 
L 287.966576 243.553385 
L 288.266904 232.151706 
L 288.567232 239.674318 
L 288.86756 244.118935 
L 289.167888 238.899796 
L 289.468216 247.271248 
L 289.768544 242.221478 
L 290.068872 239.273862 
L 290.3692 241.435835 
L 290.669528 238.947113 
L 290.969856 242.699885 
L 291.570512 252.872873 
L 291.87084 243.224322 
L 292.171168 247.29542 
L 292.471496 242.169597 
L 292.771824 241.128759 
L 293.072152 248.938228 
L 293.37248 250.028826 
L 293.672808 247.928409 
L 293.973136 249.882408 
L 294.273464 241.548373 
L 294.87412 236.778197 
L 295.174448 235.351014 
L 295.474776 230.28948 
L 295.775104 229.126846 
L 296.075432 240.026075 
L 296.37576 239.105682 
L 296.676088 244.286118 
L 296.976416 241.472641 
L 297.276744 249.986781 
L 297.577072 233.880179 
L 297.8774 258.144279 
L 299.078712 250.471038 
L 299.37904 249.722457 
L 299.679368 265.660687 
L 299.979696 264.691852 
L 300.280024 258.251674 
L 300.580352 266.082551 
L 300.88068 263.614048 
L 301.181007 264.66109 
L 301.481335 266.593263 
L 301.781663 265.830088 
L 302.081991 269.431556 
L 302.382319 269.414584 
L 302.682647 263.934046 
L 302.982975 264.914839 
L 303.283303 275.625765 
L 303.583631 274.270007 
L 304.184287 257.53228 
L 304.484615 258.52458 
L 305.085271 276.311632 
L 305.385599 270.519647 
L 305.685927 274.951213 
L 305.986255 260.807353 
L 306.286583 272.376537 
L 306.586911 269.33943 
L 306.887239 270.164129 
L 307.187567 272.968895 
L 307.487895 268.121058 
L 307.788223 254.466822 
L 308.088551 264.888576 
L 308.388879 260.081112 
L 308.989535 245.738631 
L 309.590191 250.318962 
L 309.890519 248.302314 
L 310.190847 244.761921 
L 311.091831 252.266307 
L 311.392159 245.832011 
L 311.692487 261.926398 
L 311.992815 241.972841 
L 312.293143 257.023465 
L 312.893799 266.125432 
L 313.194127 272.921996 
L 313.494455 268.228934 
L 313.794783 268.551986 
L 314.095111 266.463785 
L 314.395439 262.621876 
L 314.695767 265.540852 
L 314.996095 259.296273 
L 315.296423 245.111557 
L 315.59675 276.873099 
L 315.897078 275.957464 
L 316.197406 273.686939 
L 316.497734 244.888699 
L 316.798062 237.571458 
L 317.09839 219.358942 
L 317.398718 238.619111 
L 317.699046 229.530806 
L 318.299702 243.352707 
L 318.60003 253.700112 
L 318.900358 252.745196 
L 319.200686 263.913249 
L 319.501014 265.041166 
L 319.801342 255.79905 
L 320.10167 259.074669 
L 320.401998 241.073117 
L 320.702326 230.369294 
L 321.002654 228.336702 
L 321.302982 243.086615 
L 321.60331 242.402066 
L 321.903638 252.594341 
L 322.203966 256.969173 
L 322.504294 257.265802 
L 322.804622 255.337262 
L 323.10495 252.507037 
L 323.405278 247.654024 
L 323.705606 240.725957 
L 324.306262 205.402291 
L 324.60659 206.053474 
L 324.906918 211.687308 
L 325.207246 203.501299 
L 325.507574 210.472986 
L 325.807902 203.649035 
L 326.10823 192.224468 
L 326.408558 185.366604 
L 326.708886 191.133228 
L 327.009214 188.052501 
L 327.309542 190.514961 
L 327.60987 187.460946 
L 327.910198 156.944069 
L 328.210526 172.397014 
L 328.510854 164.68266 
L 328.811182 107.119739 
L 329.11151 156.441169 
L 329.411838 156.277939 
L 329.712166 162.722683 
L 330.012493 103.111001 
L 330.312821 108.046336 
L 330.613149 90.583783 
L 330.913477 131.779892 
L 331.213805 141.270292 
L 331.514133 131.403351 
L 331.814461 71.110239 
L 332.114789 122.855909 
L 332.415117 131.035522 
L 332.715445 151.35453 
L 333.015773 109.969026 
L 333.316101 133.91885 
L 333.616429 126.679591 
L 333.916757 136.200143 
L 334.217085 139.243069 
L 334.517413 162.758781 
L 334.817741 167.524618 
L 335.118069 157.679117 
L 335.418397 129.645241 
L 335.718725 118.706957 
L 336.319381 58.264791 
L 336.619709 129.748168 
L 336.920037 132.955255 
L 337.220365 119.408992 
L 337.520693 77.187957 
L 337.821021 145.629984 
L 338.121349 57.126426 
L 338.421677 127.33296 
L 338.722005 129.332411 
L 339.022333 164.2643 
L 339.322661 144.701458 
L 339.622989 107.002316 
L 339.923317 110.39179 
L 340.223645 131.429999 
L 340.523973 129.32161 
L 341.725285 55.897703 
L 342.025613 76.197585 
L 342.325941 59.849674 
L 342.626269 64.37192 
L 342.926597 58.072374 
L 343.226925 83.972242 
L 343.527253 84.722784 
L 343.827581 79.446557 
L 344.127909 91.1908 
L 344.428236 136.933102 
L 344.728564 80.898073 
L 345.028892 191.402823 
L 345.32922 199.771028 
L 345.629548 202.332107 
L 345.929876 211.535265 
L 346.230204 246.693386 
L 346.530532 254.650527 
L 346.83086 275.72027 
L 347.131188 254.990584 
L 347.731844 257.660954 
L 348.032172 261.803478 
L 348.3325 259.837232 
L 348.933156 268.039732 
L 349.233484 265.092019 
L 349.533812 271.0905 
L 349.83414 268.070044 
L 350.134468 257.46513 
L 350.434796 260.590024 
L 350.735124 243.962552 
L 351.035452 235.261781 
L 351.33578 210.781766 
L 351.636108 245.019816 
L 351.936436 256.902152 
L 352.236764 232.970426 
L 352.537092 250.588912 
L 352.83742 247.766466 
L 353.137748 249.14601 
L 353.438076 247.624966 
L 353.738404 254.491091 
L 354.038732 257.813641 
L 354.33906 258.300758 
L 354.639388 257.608012 
L 354.939716 264.183616 
L 355.240044 258.5574 
L 355.540372 227.95534 
L 355.8407 236.670255 
L 356.141028 237.072447 
L 356.441356 246.43247 
L 356.741684 246.653688 
L 357.042012 244.360694 
L 357.34234 249.021965 
L 357.642668 248.080453 
L 357.942996 245.371895 
L 358.543652 232.904883 
L 359.144307 205.594226 
L 359.744963 202.318028 
L 360.045291 223.81526 
L 360.345619 226.254897 
L 360.645947 221.321941 
L 360.946275 253.438488 
L 361.246603 267.654255 
L 361.546931 261.154031 
L 361.847259 264.633349 
L 362.147587 249.240708 
L 362.447915 255.549962 
L 362.748243 256.82163 
L 363.048571 254.585788 
L 363.348899 250.660465 
L 363.649227 245.107185 
L 363.949555 251.463531 
L 364.249883 252.904825 
L 364.550211 267.110274 
L 364.850539 275.118622 
L 365.150867 254.807264 
L 365.451195 256.258491 
L 365.751523 255.235782 
L 366.051851 255.462722 
L 366.352179 243.709382 
L 366.652507 253.324761 
L 366.952835 248.249854 
L 367.253163 247.413198 
L 367.553491 256.63066 
L 367.853819 255.062973 
L 368.154147 254.804532 
L 368.454475 254.96445 
L 368.754803 230.692539 
L 369.055131 253.843701 
L 369.355459 248.5271 
L 369.655787 237.5568 
L 369.956115 247.94236 
L 370.256443 241.151324 
L 370.556771 229.423893 
L 370.857099 237.945041 
L 371.457755 222.286951 
L 371.758083 238.252214 
L 372.058411 240.622933 
L 372.358739 242.006078 
L 372.659067 241.658982 
L 372.959395 241.626902 
L 373.259722 247.945864 
L 373.56005 244.754303 
L 373.860378 230.569458 
L 374.160706 237.77384 
L 374.461034 233.313311 
L 374.761362 247.457782 
L 375.06169 254.478779 
L 375.362018 258.17157 
L 375.662346 257.277921 
L 375.962674 258.953613 
L 376.263002 259.257474 
L 376.56333 260.824903 
L 376.863658 256.293657 
L 377.163986 243.727769 
L 377.464314 247.924134 
L 377.764642 241.110019 
L 378.06497 248.467794 
L 378.365298 260.758204 
L 378.665626 260.013545 
L 378.965954 260.753157 
L 379.266282 259.724405 
L 379.56661 264.329198 
L 379.866938 260.881831 
L 380.167266 262.034854 
L 380.467594 258.879712 
L 380.767922 259.17737 
L 381.06825 255.910398 
L 381.368578 249.213867 
L 381.668906 254.008377 
L 381.969234 252.125579 
L 382.269562 240.267641 
L 382.56989 255.492584 
L 382.870218 261.726428 
L 383.170546 253.640805 
L 383.470874 253.006627 
L 383.771202 258.531138 
L 384.07153 258.571993 
L 384.371858 253.798249 
L 384.672186 265.113299 
L 384.972514 255.55668 
L 385.272842 252.134836 
L 385.57317 252.631565 
L 385.873498 255.718335 
L 386.173826 240.039768 
L 386.474154 236.460095 
L 386.774482 251.965403 
L 387.07481 247.909348 
L 387.375137 252.647862 
L 387.675465 252.316838 
L 387.975793 250.850921 
L 388.276121 247.346594 
L 388.576449 266.341893 
L 388.876777 262.447557 
L 389.177105 247.683983 
L 389.477433 260.815132 
L 389.777761 242.749066 
L 390.078089 273.14119 
L 390.678745 267.333646 
L 390.979073 240.990441 
L 391.279401 248.213242 
L 391.579729 247.683629 
L 391.880057 237.420733 
L 392.180385 214.320134 
L 392.480713 244.443209 
L 392.781041 239.059587 
L 393.081369 239.333233 
L 393.682025 249.13476 
L 393.982353 241.312529 
L 394.282681 241.342648 
L 394.583009 240.520618 
L 395.183665 231.848487 
L 396.384977 255.312222 
L 396.685305 254.971779 
L 396.985633 248.289713 
L 397.285961 246.636137 
L 397.586289 250.680234 
L 397.886617 244.439287 
L 398.186945 249.164654 
L 398.487273 235.393959 
L 398.487273 235.393959 
" clip-path="url(#p433bbc9524)" style="fill: none; stroke: #0000ff; stroke-linecap: round"/>
   </g>
   <g id="line2d_13">
    <path d="M 73.832727 261.188747 
L 74.133055 258.831464 
L 74.433383 260.35778 
L 74.733711 258.631428 
L 75.034039 258.557271 
L 75.634695 242.582815 
L 76.235351 210.145788 
L 76.535679 206.100598 
L 76.836007 145.841205 
L 77.136335 140.583654 
L 77.736991 135.034777 
L 78.037319 137.863395 
L 78.337647 137.811386 
L 78.938303 136.767076 
L 79.238631 138.8808 
L 79.538959 138.184551 
L 80.139615 132.645285 
L 81.040599 118.499496 
L 81.340927 123.488094 
L 81.641255 123.650071 
L 81.941583 124.153775 
L 82.241911 69.409025 
L 82.542239 63.021145 
L 82.842567 61.654362 
L 83.142895 95.07636 
L 83.443223 166.944731 
L 83.743551 171.186549 
L 84.043879 156.06765 
L 84.344207 113.039467 
L 84.644535 103.258962 
L 84.944863 114.655659 
L 85.24519 111.961984 
L 85.545518 100.234424 
L 85.845846 102.096425 
L 86.446502 128.413947 
L 86.74683 186.553764 
L 87.047158 194.971729 
L 87.347486 216.298691 
L 87.647814 216.927019 
L 87.948142 222.230183 
L 88.24847 221.338078 
L 88.548798 222.874584 
L 88.849126 222.985354 
L 89.449782 165.561683 
L 89.75011 132.903052 
L 90.050438 148.474288 
L 90.350766 121.855348 
L 90.651094 121.180217 
L 90.951422 129.370341 
L 91.25175 128.375213 
L 91.552078 128.32825 
L 91.852406 128.500062 
L 92.152734 138.311329 
L 92.75339 126.037377 
L 93.053718 120.97565 
L 93.354046 85.944724 
L 93.654374 111.28965 
L 93.954702 124.433946 
L 94.25503 99.390278 
L 94.555358 110.527954 
L 94.855686 116.322029 
L 95.156014 110.670129 
L 95.456342 117.682898 
L 95.75667 129.249317 
L 96.056998 129.456521 
L 96.357326 122.061105 
L 96.657654 123.809925 
L 96.957982 131.387825 
L 97.25831 135.852854 
L 98.159294 182.495556 
L 98.75995 204.839345 
L 99.060278 203.349609 
L 99.360605 168.515632 
L 99.660933 175.143181 
L 99.961261 171.932976 
L 100.261589 173.927477 
L 100.561917 174.815147 
L 100.862245 181.006977 
L 101.162573 198.128574 
L 101.462901 183.449218 
L 101.763229 185.023912 
L 102.063557 182.686301 
L 102.363885 184.878137 
L 102.664213 231.654559 
L 103.264869 256.600444 
L 103.565197 249.34447 
L 103.865525 207.990211 
L 104.165853 239.090285 
L 104.466181 254.165917 
L 104.766509 249.019779 
L 105.367165 258.710375 
L 105.667493 251.927826 
L 106.268149 220.682266 
L 106.568477 264.544148 
L 106.868805 264.155393 
L 107.169133 263.082828 
L 107.469461 266.784201 
L 107.769789 263.399805 
L 108.070117 265.133839 
L 108.370445 265.042806 
L 108.670773 270.243525 
L 108.971101 268.437102 
L 109.271429 264.263816 
L 109.571757 265.229887 
L 109.872085 261.839062 
L 110.172413 262.794042 
L 110.472741 262.036815 
L 110.773069 260.707898 
L 111.073397 258.666337 
L 111.373725 257.63331 
L 111.674053 258.140839 
L 111.974381 264.024083 
L 112.274709 265.174437 
L 112.575037 263.882936 
L 112.875365 256.187194 
L 113.175693 256.646185 
L 113.476021 261.383092 
L 113.776348 259.380009 
L 114.076676 261.68644 
L 114.377004 265.856222 
L 114.677332 267.706715 
L 114.97766 271.434318 
L 115.277988 269.951879 
L 115.578316 267.585048 
L 115.878644 272.006393 
L 116.178972 266.49249 
L 116.4793 263.875704 
L 116.779628 257.757677 
L 117.079956 260.70449 
L 117.380284 267.337311 
L 117.98094 265.99499 
L 118.281268 262.972058 
L 118.581596 258.222872 
L 118.881924 257.455198 
L 119.182252 263.695084 
L 119.48258 258.87997 
L 119.782908 261.084631 
L 120.083236 258.526862 
L 120.383564 257.06191 
L 120.683892 258.940273 
L 120.98422 261.615208 
L 121.284548 254.096357 
L 121.885204 263.146796 
L 122.185532 264.804904 
L 122.48586 265.647829 
L 122.786188 261.284184 
L 123.386844 259.276761 
L 123.687172 253.531514 
L 123.9875 255.81419 
L 124.287828 254.347662 
L 124.588156 256.539498 
L 124.888484 256.412913 
L 125.48914 259.568794 
L 125.789468 260.81825 
L 126.390124 266.476707 
L 126.690452 264.332606 
L 126.99078 264.109909 
L 127.291108 265.10388 
L 127.591436 263.313626 
L 127.891764 258.934197 
L 128.192091 251.858008 
L 128.492419 256.967116 
L 129.093075 258.310787 
L 129.393403 254.843812 
L 129.693731 262.931203 
L 129.994059 264.330998 
L 130.594715 258.113806 
L 130.895043 257.373454 
L 131.195371 256.98936 
L 131.495699 251.359897 
L 132.096355 261.381742 
L 132.396683 261.537579 
L 132.697011 260.221327 
L 132.997339 262.502877 
L 133.297667 248.223239 
L 133.597995 246.665935 
L 133.898323 246.529739 
L 134.198651 254.649242 
L 134.498979 255.414152 
L 135.099635 259.403089 
L 135.399963 265.757281 
L 136.000619 268.879378 
L 136.300947 268.045904 
L 136.601275 268.71647 
L 136.901603 266.908086 
L 137.201931 267.750432 
L 137.502259 268.241471 
L 137.802587 266.459574 
L 138.102915 260.721913 
L 138.703571 267.90524 
L 139.003899 269.647052 
L 139.304227 268.952925 
L 139.604555 271.049773 
L 139.904883 270.329158 
L 140.205211 267.808485 
L 140.505539 269.112586 
L 140.805867 266.806638 
L 141.106195 266.660477 
L 141.406523 265.987725 
L 142.307507 268.846398 
L 142.908162 271.833809 
L 143.20849 267.899936 
L 143.508818 271.884855 
L 143.809146 272.27901 
L 144.109474 271.855571 
L 144.409802 268.751829 
L 144.71013 268.432152 
L 145.010458 268.596057 
L 145.310786 268.446038 
L 145.611114 267.197547 
L 145.911442 267.176781 
L 146.21177 267.281637 
L 146.512098 269.380414 
L 146.812426 265.150329 
L 147.112754 264.755016 
L 147.413082 264.545209 
L 147.71341 261.568116 
L 148.614394 268.879346 
L 148.914722 268.153427 
L 149.21505 266.167991 
L 149.515378 267.355569 
L 149.815706 268.032757 
L 150.116034 263.813729 
L 150.416362 257.24658 
L 151.017018 262.631648 
L 151.317346 267.798616 
L 151.617674 268.472429 
L 151.918002 266.251374 
L 152.21833 265.389098 
L 152.518658 262.990702 
L 152.818986 262.050637 
L 153.119314 262.752544 
L 153.419642 259.601967 
L 153.71997 258.52368 
L 154.020298 258.872801 
L 154.320626 253.475518 
L 154.620954 232.060223 
L 154.921282 248.483223 
L 155.22161 249.48941 
L 155.521938 251.584426 
L 155.822266 257.106623 
L 156.122594 259.186339 
L 156.422922 251.153465 
L 156.72325 253.519042 
L 157.023577 253.446877 
L 157.323905 257.006493 
L 157.624233 252.325967 
L 157.924561 253.007945 
L 158.224889 252.765189 
L 158.825545 225.195126 
L 159.125873 226.835041 
L 160.026857 141.789651 
L 160.327185 137.025549 
L 160.627513 139.016546 
L 160.927841 131.749419 
L 161.228169 142.595963 
L 161.528497 145.137145 
L 161.828825 145.146949 
L 162.129153 147.608316 
L 162.429481 147.792632 
L 163.030137 151.83824 
L 163.330465 147.535059 
L 163.630793 146.808433 
L 163.931121 146.825019 
L 164.231449 144.946817 
L 164.531777 144.779634 
L 164.832105 150.761689 
L 165.432761 145.275012 
L 165.733089 145.69109 
L 166.033417 142.099363 
L 166.333745 145.126376 
L 166.634073 146.753176 
L 166.934401 139.196555 
L 167.234729 144.289398 
L 167.535057 147.262666 
L 167.835385 153.990217 
L 168.135713 153.317786 
L 168.436041 157.0613 
L 169.036697 149.619371 
L 169.337025 153.049862 
L 169.637353 148.573518 
L 169.937681 147.017693 
L 170.538337 117.631177 
L 170.838665 177.135464 
L 171.138993 160.102747 
L 171.739648 189.340851 
L 172.340304 165.585052 
L 172.640632 159.642534 
L 173.241288 167.763869 
L 173.541616 150.383799 
L 173.841944 119.750109 
L 174.142272 112.731941 
L 174.4426 125.14871 
L 174.742928 130.863999 
L 175.043256 125.771156 
L 175.343584 129.886582 
L 175.643912 129.072812 
L 175.94424 132.231232 
L 176.244568 129.767872 
L 176.544896 128.562969 
L 176.845224 121.756632 
L 177.145552 121.336247 
L 177.44588 121.486329 
L 177.746208 120.959578 
L 178.046536 119.548178 
L 178.346864 121.494172 
L 178.94752 118.340638 
L 179.247848 129.205762 
L 179.548176 147.794368 
L 179.848504 141.6306 
L 180.148832 131.495317 
L 180.44916 131.54064 
L 180.749488 139.105329 
L 181.049816 140.76961 
L 181.350144 134.393334 
L 181.650472 132.474502 
L 181.9508 134.374819 
L 182.251128 149.27655 
L 182.551456 129.045714 
L 182.851784 130.055823 
L 183.152112 149.86428 
L 183.752768 238.200429 
L 184.353424 253.477961 
L 184.653752 246.256446 
L 184.95408 243.52034 
L 185.254408 248.422438 
L 185.554736 250.205171 
L 185.855063 254.999006 
L 186.155391 255.8022 
L 186.455719 255.036904 
L 186.756047 239.833111 
L 187.056375 248.074088 
L 187.356703 245.108985 
L 187.657031 250.624238 
L 187.957359 251.314316 
L 188.257687 243.050613 
L 188.558015 244.563429 
L 188.858343 236.55971 
L 189.158671 240.48333 
L 189.458999 241.736804 
L 190.059655 228.059456 
L 190.359983 232.831015 
L 190.660311 229.360183 
L 190.960639 245.534353 
L 191.260967 233.535526 
L 191.561295 245.2005 
L 191.861623 252.166048 
L 192.462279 242.794132 
L 192.762607 246.649316 
L 193.062935 261.862784 
L 193.363263 261.975804 
L 193.663591 264.320519 
L 194.264247 271.274656 
L 194.564575 270.522925 
L 194.864903 264.955662 
L 195.165231 271.479609 
L 195.465559 272.138057 
L 195.765887 271.7953 
L 196.066215 272.488303 
L 196.366543 269.53249 
L 196.666871 267.982708 
L 196.967199 269.960333 
L 197.267527 268.477122 
L 197.567855 262.527661 
L 197.868183 270.037801 
L 198.168511 247.469772 
L 198.468839 242.155743 
L 198.769167 255.842348 
L 199.069495 249.255623 
L 199.369823 238.294002 
L 199.670151 249.7862 
L 199.970479 235.546066 
L 200.571134 256.347402 
L 200.871462 248.934082 
L 201.17179 246.536071 
L 201.472118 245.881867 
L 201.772446 238.089981 
L 202.072774 246.06403 
L 202.373102 246.320221 
L 202.67343 246.23642 
L 202.973758 246.973333 
L 203.274086 249.936925 
L 203.574414 248.374028 
L 203.874742 249.807544 
L 204.17507 253.911654 
L 204.475398 248.500806 
L 204.775726 246.371845 
L 205.076054 246.951217 
L 205.376382 254.993316 
L 205.67671 256.288899 
L 205.977038 256.947604 
L 206.277366 256.26193 
L 206.577694 261.607268 
L 206.878022 256.684084 
L 207.478678 243.829795 
L 207.779006 247.659842 
L 208.079334 249.771895 
L 208.379662 253.621197 
L 208.67999 246.021567 
L 208.980318 253.040668 
L 209.280646 249.188891 
L 209.580974 247.807289 
L 210.18163 246.704798 
L 210.481958 252.489711 
L 210.782286 251.345078 
L 211.082614 252.997433 
L 211.382942 244.493418 
L 211.68327 244.154487 
L 211.983598 246.513699 
L 212.283926 245.635608 
L 212.584254 249.692338 
L 212.884582 249.943354 
L 213.18491 250.366536 
L 213.485238 248.983456 
L 213.785566 249.413163 
L 214.085894 248.376793 
L 214.386222 246.316042 
L 214.686549 250.739894 
L 214.986877 248.64581 
L 215.287205 244.42434 
L 215.587533 244.312766 
L 215.887861 247.72921 
L 216.188189 248.609872 
L 216.488517 255.025493 
L 216.788845 253.133469 
L 217.089173 253.035364 
L 217.389501 249.613777 
L 217.689829 249.581889 
L 217.990157 249.364914 
L 218.290485 249.294036 
L 218.590813 245.809124 
L 218.891141 246.074766 
L 219.191469 253.466646 
L 219.491797 255.223631 
L 219.792125 259.301769 
L 220.092453 254.539308 
L 220.392781 253.606732 
L 220.693109 261.55169 
L 220.993437 258.679999 
L 221.293765 262.494102 
L 221.594093 258.377583 
L 221.894421 258.018401 
L 222.194749 258.651487 
L 222.495077 256.723396 
L 222.795405 259.519773 
L 223.095733 247.602657 
L 223.396061 246.982205 
L 223.696389 249.945829 
L 223.996717 250.487174 
L 224.297045 248.333719 
L 224.597373 249.031608 
L 224.897701 259.291515 
L 225.198029 264.56771 
L 225.498357 250.26602 
L 225.798685 251.890763 
L 226.099013 249.638592 
L 226.399341 253.414636 
L 227.600653 243.381541 
L 227.900981 252.236284 
L 228.201309 252.526517 
L 228.501637 253.949971 
L 228.801965 251.092969 
L 229.102292 254.281637 
L 229.40262 263.195302 
L 230.003276 254.714816 
L 230.303604 256.160547 
L 230.603932 255.648549 
L 230.90426 257.999147 
L 231.204588 266.625568 
L 231.504916 266.896321 
L 231.805244 266.382138 
L 232.105572 266.405024 
L 232.4059 266.006272 
L 232.706228 266.805963 
L 233.006556 264.968488 
L 233.607212 267.241456 
L 233.90754 270.325012 
L 234.207868 272.229797 
L 234.508196 265.232233 
L 234.808524 264.177926 
L 235.108852 263.644939 
L 235.40918 260.048775 
L 235.709508 264.127074 
L 236.009836 266.502969 
L 236.310164 262.211038 
L 236.610492 252.621825 
L 236.91082 256.592375 
L 237.211148 255.97922 
L 237.511476 263.935718 
L 237.811804 262.623548 
L 238.112132 262.819372 
L 238.41246 262.657203 
L 238.712788 243.362511 
L 239.013116 237.164573 
L 239.313444 258.229205 
L 239.613772 263.272256 
L 239.9141 261.574802 
L 240.214428 265.164312 
L 240.514756 264.416471 
L 240.815084 262.859135 
L 241.115412 264.408209 
L 241.41574 263.145349 
L 241.716068 264.856271 
L 242.016396 259.43099 
L 242.316724 259.533692 
L 242.617052 264.805129 
L 242.91738 263.681776 
L 243.518035 258.73413 
L 243.818363 263.316133 
L 244.118691 257.502643 
L 244.419019 255.703484 
L 244.719347 255.574874 
L 245.019675 258.640686 
L 245.320003 248.268723 
L 245.620331 247.086738 
L 245.920659 244.357222 
L 246.220987 244.683489 
L 246.521315 248.954686 
L 247.121971 253.271208 
L 247.422299 253.117364 
L 247.722627 248.689076 
L 248.022955 249.436918 
L 248.323283 250.805469 
L 248.623611 250.625556 
L 248.923939 244.758257 
L 249.224267 235.246705 
L 249.524595 215.720669 
L 250.125251 156.954516 
L 250.725907 140.443118 
L 251.026235 141.275982 
L 251.326563 136.3915 
L 251.626891 134.570386 
L 251.927219 140.094994 
L 252.227547 134.738437 
L 252.527875 134.136564 
L 252.828203 145.520018 
L 253.128531 134.440844 
L 253.428859 134.202139 
L 253.729187 129.41663 
L 254.029515 129.601589 
L 254.329843 132.975056 
L 254.630171 132.998007 
L 254.930499 128.837032 
L 255.230827 141.818966 
L 255.531155 144.551826 
L 255.831483 120.092287 
L 256.131811 117.323072 
L 256.432139 119.95487 
L 256.732467 117.04078 
L 257.032795 117.492474 
L 257.333123 115.60675 
L 257.633451 115.626358 
L 257.933778 121.819892 
L 258.234106 139.234357 
L 258.834762 211.136545 
L 259.13509 221.559167 
L 259.435418 220.459762 
L 259.735746 232.279319 
L 260.036074 231.065737 
L 260.336402 221.022194 
L 260.63673 223.894239 
L 260.937058 248.669661 
L 261.237386 246.161267 
L 261.537714 249.152246 
L 261.838042 246.368631 
L 262.13837 250.028376 
L 262.438698 242.949808 
L 262.739026 250.123138 
L 263.039354 243.358204 
L 263.339682 243.349428 
L 263.64001 239.296813 
L 263.940338 253.070498 
L 264.240666 251.079469 
L 264.540994 252.03252 
L 264.841322 259.4902 
L 265.14165 254.878593 
L 265.441978 243.96477 
L 265.742306 241.08546 
L 266.042634 241.593729 
L 266.342962 236.234794 
L 266.64329 247.797806 
L 266.943618 245.267297 
L 267.243946 227.986938 
L 267.544274 240.327751 
L 267.844602 241.783574 
L 268.14493 235.870886 
L 268.445258 241.763709 
L 268.745586 251.093548 
L 269.045914 226.592414 
L 269.946898 251.169634 
L 270.247226 254.595335 
L 270.547554 237.771686 
L 270.847882 241.737318 
L 271.14821 250.182316 
L 271.448538 246.748611 
L 271.748866 245.899321 
L 272.049194 240.336944 
L 272.649849 255.374614 
L 272.950177 250.958991 
L 273.250505 251.166869 
L 273.550833 247.13338 
L 273.851161 247.242028 
L 274.151489 251.628207 
L 274.451817 252.166884 
L 274.752145 247.426281 
L 275.052473 245.138429 
L 275.653129 250.288425 
L 275.953457 250.177816 
L 276.554113 247.718892 
L 276.854441 249.102583 
L 277.154769 247.624387 
L 277.455097 263.330951 
L 278.055753 258.701889 
L 278.356081 261.31411 
L 278.656409 261.116711 
L 278.956737 261.125808 
L 279.257065 253.417401 
L 279.557393 260.624804 
L 279.857721 260.964121 
L 280.158049 261.737292 
L 280.458377 259.894578 
L 280.758705 255.549801 
L 281.059033 255.191551 
L 281.359361 252.954906 
L 281.659689 241.321626 
L 282.260345 253.166995 
L 282.560673 253.626983 
L 282.861001 250.06605 
L 283.161329 254.003459 
L 283.461657 249.89922 
L 283.761985 257.845174 
L 284.062313 250.85989 
L 284.362641 253.848201 
L 284.662969 260.185743 
L 284.963297 257.19232 
L 285.263625 261.209544 
L 285.864281 257.700074 
L 286.164609 260.601756 
L 286.464937 259.606371 
L 286.765264 256.938154 
L 287.065592 257.69612 
L 287.666248 255.548773 
L 287.966576 259.464613 
L 288.266904 259.317263 
L 288.567232 257.530351 
L 288.86756 259.863237 
L 289.167888 258.953548 
L 289.468216 255.768641 
L 289.768544 258.999836 
L 290.068872 259.490136 
L 290.3692 259.748674 
L 290.669528 259.672685 
L 290.969856 260.216312 
L 291.570512 253.579602 
L 291.87084 260.838404 
L 292.171168 257.874394 
L 292.471496 259.823249 
L 293.072152 257.615181 
L 293.37248 254.781902 
L 293.672808 257.202574 
L 293.973136 257.579565 
L 294.273464 259.383031 
L 294.573792 257.342306 
L 294.87412 258.120524 
L 295.174448 260.600374 
L 295.474776 260.721848 
L 295.775104 259.838518 
L 296.075432 253.776294 
L 296.37576 252.656605 
L 296.676088 258.603463 
L 296.976416 259.553718 
L 297.276744 259.827428 
L 297.577072 258.894756 
L 297.8774 260.319399 
L 298.478056 258.467556 
L 298.778384 261.76828 
L 299.078712 260.040932 
L 299.37904 258.98341 
L 299.679368 258.573761 
L 299.979696 257.685063 
L 300.280024 265.09324 
L 300.580352 264.305958 
L 300.88068 264.785521 
L 301.181007 266.282008 
L 301.481335 265.80254 
L 301.781663 262.365235 
L 302.081991 260.809828 
L 302.382319 263.81299 
L 302.682647 268.243753 
L 302.982975 265.926232 
L 303.283303 262.462054 
L 303.583631 263.112048 
L 303.883959 259.481811 
L 304.184287 263.864711 
L 304.484615 263.84687 
L 304.784943 264.272303 
L 305.085271 265.848443 
L 305.385599 264.856496 
L 305.685927 264.405799 
L 305.986255 264.24678 
L 306.286583 268.544529 
L 306.586911 267.275883 
L 306.887239 264.070757 
L 307.187567 264.003285 
L 307.487895 268.221991 
L 307.788223 267.815846 
L 308.088551 266.104281 
L 308.388879 263.543362 
L 308.689207 262.467744 
L 308.989535 262.412776 
L 309.289863 264.49651 
L 309.590191 264.712971 
L 310.491175 262.62718 
L 310.791503 262.729946 
L 311.091831 263.200573 
L 311.392159 263.938739 
L 311.692487 261.980626 
L 311.992815 256.845545 
L 312.293143 256.946254 
L 312.593471 259.439123 
L 312.893799 263.880622 
L 313.194127 264.700724 
L 313.494455 262.489955 
L 313.794783 263.350913 
L 314.095111 264.986939 
L 314.695767 261.08881 
L 314.996095 247.890318 
L 315.296423 246.104082 
L 315.59675 261.166053 
L 315.897078 258.155304 
L 316.497734 248.895283 
L 316.798062 246.740221 
L 317.09839 237.686214 
L 317.398718 253.3219 
L 317.699046 257.020026 
L 317.999374 241.77782 
L 318.299702 234.585461 
L 318.60003 235.504697 
L 318.900358 234.498574 
L 319.200686 243.329692 
L 319.501014 248.568567 
L 319.801342 238.291494 
L 320.10167 247.9494 
L 320.401998 239.352712 
L 320.702326 226.744136 
L 321.002654 240.806189 
L 321.302982 235.388237 
L 321.60331 215.593409 
L 321.903638 231.745432 
L 322.203966 227.915963 
L 322.504294 240.10965 
L 322.804622 230.229209 
L 323.10495 244.983493 
L 323.405278 222.037638 
L 323.705606 225.932681 
L 324.005934 228.117831 
L 324.306262 207.047124 
L 324.60659 226.461104 
L 324.906918 223.186417 
L 325.207246 228.764224 
L 325.507574 227.545434 
L 325.807902 229.157319 
L 326.10823 225.806418 
L 326.408558 225.07632 
L 326.708886 227.650996 
L 327.009214 217.230302 
L 327.309542 222.182192 
L 327.60987 163.747995 
L 327.910198 132.645703 
L 328.210526 132.263473 
L 328.811182 128.258625 
L 329.11151 152.104525 
L 329.411838 146.541569 
L 329.712166 144.304442 
L 330.012493 123.746375 
L 330.312821 134.73638 
L 330.613149 141.207996 
L 330.913477 132.30719 
L 331.213805 141.305105 
L 331.514133 138.749747 
L 332.114789 144.655331 
L 332.715445 168.266737 
L 333.015773 176.024101 
L 333.316101 197.380315 
L 333.616429 200.909489 
L 333.916757 171.51873 
L 334.217085 205.647553 
L 334.517413 223.379477 
L 334.817741 215.503951 
L 335.118069 213.119731 
L 335.418397 174.757769 
L 335.718725 164.475425 
L 336.319381 131.846399 
L 336.920037 142.653469 
L 337.220365 128.892867 
L 337.520693 104.89232 
L 337.821021 145.778106 
L 338.121349 110.48652 
L 338.421677 138.491981 
L 338.722005 137.564644 
L 339.022333 144.875456 
L 339.322661 139.997435 
L 339.622989 108.168646 
L 339.923317 116.389661 
L 340.223645 116.247486 
L 340.824301 110.144503 
L 341.124629 113.480264 
L 341.424957 120.542856 
L 341.725285 96.855011 
L 342.025613 97.481956 
L 342.325941 100.4703 
L 342.626269 97.998647 
L 342.926597 87.064798 
L 343.226925 83.722255 
L 343.527253 89.063542 
L 343.827581 79.901562 
L 344.127909 94.305632 
L 344.428236 130.359877 
L 344.728564 128.338439 
L 345.028892 141.093851 
L 345.32922 149.033313 
L 345.629548 153.12913 
L 346.530532 223.791312 
L 346.83086 230.36653 
L 347.131188 209.40955 
L 347.431516 205.954662 
L 347.731844 216.751093 
L 348.032172 216.249831 
L 348.3325 213.224779 
L 348.632828 217.669557 
L 348.933156 216.778833 
L 349.533812 220.040019 
L 349.83414 219.152864 
L 350.134468 217.05264 
L 350.434796 216.216948 
L 350.735124 221.905138 
L 351.035452 240.038772 
L 351.636108 242.793007 
L 351.936436 239.261904 
L 352.236764 247.911405 
L 352.537092 251.654983 
L 352.83742 251.937533 
L 353.137748 256.886208 
L 353.438076 252.443359 
L 353.738404 251.875334 
L 354.038732 247.497223 
L 354.33906 248.183154 
L 354.639388 246.215173 
L 354.939716 248.430313 
L 355.240044 255.370178 
L 355.540372 257.812934 
L 355.8407 250.147954 
L 356.141028 252.361744 
L 356.441356 256.530176 
L 356.741684 255.352724 
L 357.042012 255.956751 
L 357.34234 253.215791 
L 357.642668 252.57933 
L 357.942996 253.465135 
L 358.243324 250.483413 
L 358.543652 254.297452 
L 359.444635 225.384328 
L 359.744963 240.000938 
L 360.045291 245.361866 
L 360.345619 256.590029 
L 360.645947 249.982056 
L 361.546931 257.811455 
L 361.847259 259.429833 
L 362.447915 264.249512 
L 362.748243 261.335454 
L 363.048571 259.758703 
L 363.348899 263.264348 
L 363.649227 247.523132 
L 363.949555 254.531432 
L 364.249883 258.522041 
L 364.550211 258.212168 
L 364.850539 257.0099 
L 365.150867 259.118578 
L 365.451195 256.338466 
L 365.751523 256.860557 
L 366.051851 260.43512 
L 366.352179 239.430438 
L 367.253163 256.737604 
L 367.553491 255.219967 
L 367.853819 260.554601 
L 368.154147 253.931102 
L 368.454475 263.06997 
L 368.754803 253.774912 
L 369.055131 254.50427 
L 369.355459 257.09788 
L 369.655787 256.075074 
L 369.956115 241.512628 
L 370.256443 259.957742 
L 370.556771 258.474756 
L 370.857099 256.356821 
L 371.157427 255.407241 
L 371.758083 258.207571 
L 372.058411 256.531719 
L 372.358739 256.445668 
L 372.659067 257.061235 
L 372.959395 256.530947 
L 373.259722 257.000996 
L 373.56005 257.86594 
L 373.860378 257.399813 
L 374.160706 258.129203 
L 374.461034 257.297561 
L 374.761362 249.76942 
L 375.06169 249.534219 
L 375.362018 253.100456 
L 375.662346 258.561803 
L 375.962674 258.181277 
L 376.263002 259.250788 
L 376.56333 259.308198 
L 376.863658 257.879698 
L 377.163986 258.54631 
L 377.464314 255.064645 
L 377.764642 255.779442 
L 378.06497 253.286926 
L 378.365298 255.307625 
L 378.665626 255.378568 
L 378.965954 257.315337 
L 379.266282 255.544562 
L 379.56661 256.257526 
L 379.866938 258.392884 
L 380.167266 255.314247 
L 380.467594 256.979749 
L 380.767922 259.750442 
L 381.06825 253.693426 
L 381.668906 251.71114 
L 381.969234 251.697736 
L 382.269562 253.750353 
L 382.56989 258.122388 
L 382.870218 256.187934 
L 383.170546 257.840546 
L 383.470874 254.979398 
L 384.07153 258.369772 
L 384.371858 259.153326 
L 384.672186 258.210432 
L 384.972514 260.188186 
L 385.272842 258.644672 
L 385.57317 258.361286 
L 385.873498 257.753081 
L 386.173826 249.867461 
L 386.474154 248.95324 
L 386.774482 258.588548 
L 387.07481 263.957351 
L 387.375137 261.37152 
L 387.675465 262.937696 
L 388.276121 263.145381 
L 388.576449 262.25514 
L 388.876777 251.844443 
L 389.177105 254.02281 
L 389.477433 254.918837 
L 389.777761 260.92063 
L 390.378417 264.158897 
L 390.678745 260.335214 
L 390.979073 257.997379 
L 391.579729 233.729871 
L 392.180385 242.012379 
L 392.480713 238.832711 
L 392.781041 244.202671 
L 393.081369 244.766325 
L 393.381697 247.350709 
L 393.982353 244.067632 
L 394.282681 246.430509 
L 394.583009 241.062927 
L 394.883337 240.306246 
L 395.183665 243.408767 
L 395.483993 248.548477 
L 396.084649 255.102029 
L 396.384977 250.986925 
L 396.685305 251.012608 
L 396.985633 249.157936 
L 397.285961 250.485921 
L 397.586289 246.468343 
L 397.886617 244.378373 
L 398.186945 247.453121 
L 398.487273 246.204212 
L 398.487273 246.204212 
" clip-path="url(#p433bbc9524)" style="fill: none; stroke: #ff0000; stroke-width: 1.2; stroke-linecap: round"/>
   </g>
   <g id="patch_3">
    <path d="M 57.6 307.584 
L 57.6 41.472 
" style="fill: none; stroke: #ffffff; stroke-width: 0.8; stroke-linejoin: miter; stroke-linecap: square"/>
   </g>
   <g id="patch_4">
    <path d="M 414.72 307.584 
L 414.72 41.472 
" style="fill: none; stroke: #ffffff; stroke-width: 0.8; stroke-linejoin: miter; stroke-linecap: square"/>
   </g>
   <g id="patch_5">
    <path d="M 57.6 307.584 
L 414.72 307.584 
" style="fill: none; stroke: #ffffff; stroke-width: 0.8; stroke-linejoin: miter; stroke-linecap: square"/>
   </g>
   <g id="patch_6">
    <path d="M 57.6 41.472 
L 414.72 41.472 
" style="fill: none; stroke: #ffffff; stroke-width: 0.8; stroke-linejoin: miter; stroke-linecap: square"/>
   </g>
   <g id="text_12">
    <!--   (NN)     -->
    <g style="fill: #262626" transform="translate(97.925625 35.472) scale(0.12 -0.12)">
     <defs>
      <path id="ArialMT-421" d="M 3763 1606 
L 4369 1453 
Q 4178 706 3683 314 
Q 3188 -78 2472 -78 
Q 1731 -78 1267 223 
Q 803 525 561 1097 
Q 319 1669 319 2325 
Q 319 3041 592 3573 
Q 866 4106 1370 4382 
Q 1875 4659 2481 4659 
Q 3169 4659 3637 4309 
Q 4106 3959 4291 3325 
L 3694 3184 
Q 3534 3684 3231 3912 
Q 2928 4141 2469 4141 
Q 1941 4141 1586 3887 
Q 1231 3634 1087 3207 
Q 944 2781 944 2328 
Q 944 1744 1114 1308 
Q 1284 872 1643 656 
Q 2003 441 2422 441 
Q 2931 441 3284 734 
Q 3638 1028 3763 1606 
z
" transform="scale(0.015625)"/>
      <path id="ArialMT-445" d="M 47 0 
L 1259 1725 
L 138 3319 
L 841 3319 
L 1350 2541 
Q 1494 2319 1581 2169 
Q 1719 2375 1834 2534 
L 2394 3319 
L 3066 3319 
L 1919 1756 
L 3153 0 
L 2463 0 
L 1781 1031 
L 1600 1309 
L 728 0 
L 47 0 
z
" transform="scale(0.015625)"/>
      <path id="ArialMT-43e" d="M 213 1659 
Q 213 2581 725 3025 
Q 1153 3394 1769 3394 
Q 2453 3394 2887 2945 
Q 3322 2497 3322 1706 
Q 3322 1066 3130 698 
Q 2938 331 2570 128 
Q 2203 -75 1769 -75 
Q 1072 -75 642 372 
Q 213 819 213 1659 
z
M 791 1659 
Q 791 1022 1069 705 
Q 1347 388 1769 388 
Q 2188 388 2466 706 
Q 2744 1025 2744 1678 
Q 2744 2294 2464 2611 
Q 2184 2928 1769 2928 
Q 1347 2928 1069 2612 
Q 791 2297 791 1659 
z
" transform="scale(0.015625)"/>
      <path id="ArialMT-434" d="M 866 3319 
L 3178 3319 
L 3178 463 
L 3538 463 
L 3538 -941 
L 3075 -941 
L 3075 0 
L 463 0 
L 463 -941 
L 0 -941 
L 0 463 
L 297 463 
Q 891 1269 866 3319 
z
M 1334 2853 
Q 1272 1238 834 463 
L 2619 463 
L 2619 2853 
L 1334 2853 
z
" transform="scale(0.015625)"/>
      <path id="ArialMT-438" d="M 422 3319 
L 984 3319 
L 984 788 
L 2544 3319 
L 3150 3319 
L 3150 0 
L 2588 0 
L 2588 2516 
L 1028 0 
L 422 0 
L 422 3319 
z
" transform="scale(0.015625)"/>
      <path id="ArialMT-43c" d="M 438 3319 
L 1313 3319 
L 2184 663 
L 3153 3319 
L 3963 3319 
L 3963 0 
L 3400 0 
L 3400 2672 
L 2419 0 
L 1916 0 
L 988 2800 
L 988 0 
L 438 0 
L 438 3319 
z
" transform="scale(0.015625)"/>
      <path id="ArialMT-441" d="M 2588 1216 
L 3141 1144 
Q 3050 572 2676 248 
Q 2303 -75 1759 -75 
Q 1078 -75 664 370 
Q 250 816 250 1647 
Q 250 2184 428 2587 
Q 606 2991 970 3192 
Q 1334 3394 1763 3394 
Q 2303 3394 2647 3120 
Q 2991 2847 3088 2344 
L 2541 2259 
Q 2463 2594 2264 2762 
Q 2066 2931 1784 2931 
Q 1359 2931 1093 2626 
Q 828 2322 828 1663 
Q 828 994 1084 691 
Q 1341 388 1753 388 
Q 2084 388 2306 591 
Q 2528 794 2588 1216 
z
" transform="scale(0.015625)"/>
      <path id="ArialMT-442" d="M 119 3319 
L 2816 3319 
L 2816 2853 
L 1747 2853 
L 1747 0 
L 1188 0 
L 1188 2853 
L 119 2853 
L 119 3319 
z
" transform="scale(0.015625)"/>
      <path id="ArialMT-44c" d="M 413 3319 
L 975 3319 
L 975 2022 
L 1688 2022 
Q 2384 2022 2761 1751 
Q 3138 1481 3138 1006 
Q 3138 591 2823 295 
Q 2509 0 1819 0 
L 413 0 
L 413 3319 
z
M 975 463 
L 1566 463 
Q 2100 463 2328 594 
Q 2556 725 2556 1003 
Q 2556 1219 2387 1387 
Q 2219 1556 1641 1556 
L 975 1556 
L 975 463 
z
" transform="scale(0.015625)"/>
      <path id="ArialMT-20" transform="scale(0.015625)"/>
      <path id="ArialMT-435" d="M 2694 1069 
L 3275 997 
Q 3138 488 2766 206 
Q 2394 -75 1816 -75 
Q 1088 -75 661 373 
Q 234 822 234 1631 
Q 234 2469 665 2931 
Q 1097 3394 1784 3394 
Q 2450 3394 2872 2941 
Q 3294 2488 3294 1666 
Q 3294 1616 3291 1516 
L 816 1516 
Q 847 969 1125 678 
Q 1403 388 1819 388 
Q 2128 388 2347 550 
Q 2566 713 2694 1069 
z
M 847 1978 
L 2700 1978 
Q 2663 2397 2488 2606 
Q 2219 2931 1791 2931 
Q 1403 2931 1139 2672 
Q 875 2413 847 1978 
z
" transform="scale(0.015625)"/>
      <path id="ArialMT-43b" d="M 697 3319 
L 3309 3319 
L 3309 0 
L 2750 0 
L 2750 2853 
L 1259 2853 
L 1259 1200 
Q 1259 622 1221 437 
Q 1184 253 1015 115 
Q 847 -22 528 -22 
Q 331 -22 75 3 
L 75 472 
L 322 472 
Q 497 472 572 508 
Q 647 544 672 622 
Q 697 700 697 1131 
L 697 3319 
z
" transform="scale(0.015625)"/>
      <path id="ArialMT-28" d="M 1497 -1347 
Q 1031 -759 709 28 
Q 388 816 388 1659 
Q 388 2403 628 3084 
Q 909 3875 1497 4659 
L 1900 4659 
Q 1522 4009 1400 3731 
Q 1209 3300 1100 2831 
Q 966 2247 966 1656 
Q 966 153 1900 -1347 
L 1497 -1347 
z
" transform="scale(0.015625)"/>
      <path id="ArialMT-4e" d="M 488 0 
L 488 4581 
L 1109 4581 
L 3516 984 
L 3516 4581 
L 4097 4581 
L 4097 0 
L 3475 0 
L 1069 3600 
L 1069 0 
L 488 0 
z
" transform="scale(0.015625)"/>
      <path id="ArialMT-29" d="M 791 -1347 
L 388 -1347 
Q 1322 153 1322 1656 
Q 1322 2244 1188 2822 
Q 1081 3291 891 3722 
Q 769 4003 388 4659 
L 791 4659 
Q 1378 3875 1659 3084 
Q 1900 2403 1900 1659 
Q 1900 816 1576 28 
Q 1253 -759 791 -1347 
z
" transform="scale(0.015625)"/>
      <path id="ArialMT-43d" d="M 425 3319 
L 988 3319 
L 988 1938 
L 2547 1938 
L 2547 3319 
L 3109 3319 
L 3109 0 
L 2547 0 
L 2547 1472 
L 988 1472 
L 988 0 
L 425 0 
L 425 3319 
z
" transform="scale(0.015625)"/>
      <path id="ArialMT-430" d="M 2588 409 
Q 2275 144 1986 34 
Q 1697 -75 1366 -75 
Q 819 -75 525 192 
Q 231 459 231 875 
Q 231 1119 342 1320 
Q 453 1522 633 1644 
Q 813 1766 1038 1828 
Q 1203 1872 1538 1913 
Q 2219 1994 2541 2106 
Q 2544 2222 2544 2253 
Q 2544 2597 2384 2738 
Q 2169 2928 1744 2928 
Q 1347 2928 1158 2789 
Q 969 2650 878 2297 
L 328 2372 
Q 403 2725 575 2942 
Q 747 3159 1072 3276 
Q 1397 3394 1825 3394 
Q 2250 3394 2515 3294 
Q 2781 3194 2906 3042 
Q 3031 2891 3081 2659 
Q 3109 2516 3109 2141 
L 3109 1391 
Q 3109 606 3145 398 
Q 3181 191 3288 0 
L 2700 0 
Q 2613 175 2588 409 
z
M 2541 1666 
Q 2234 1541 1622 1453 
Q 1275 1403 1131 1340 
Q 988 1278 909 1158 
Q 831 1038 831 891 
Q 831 666 1001 516 
Q 1172 366 1500 366 
Q 1825 366 2078 508 
Q 2331 650 2450 897 
Q 2541 1088 2541 1459 
L 2541 1666 
z
" transform="scale(0.015625)"/>
      <path id="ArialMT-432" d="M 425 3319 
L 1722 3319 
Q 2200 3319 2433 3239 
Q 2666 3159 2833 2946 
Q 3000 2734 3000 2438 
Q 3000 2200 2901 2023 
Q 2803 1847 2606 1728 
Q 2841 1650 2995 1436 
Q 3150 1222 3150 928 
Q 3119 456 2812 228 
Q 2506 0 1922 0 
L 425 0 
L 425 3319 
z
M 988 1922 
L 1588 1922 
Q 1947 1922 2081 1959 
Q 2216 1997 2322 2111 
Q 2428 2225 2428 2384 
Q 2428 2647 2242 2750 
Q 2056 2853 1606 2853 
L 988 2853 
L 988 1922 
z
M 988 463 
L 1728 463 
Q 2206 463 2384 573 
Q 2563 684 2572 956 
Q 2572 1116 2469 1252 
Q 2366 1388 2200 1423 
Q 2034 1459 1669 1459 
L 988 1459 
L 988 463 
z
" transform="scale(0.015625)"/>
      <path id="ArialMT-451" d="M 2694 1069 
L 3275 997 
Q 3138 488 2766 206 
Q 2394 -75 1816 -75 
Q 1088 -75 661 373 
Q 234 822 234 1631 
Q 234 2469 665 2931 
Q 1097 3394 1784 3394 
Q 2450 3394 2872 2941 
Q 3294 2488 3294 1666 
Q 3294 1616 3291 1516 
L 816 1516 
Q 847 969 1125 678 
Q 1403 388 1819 388 
Q 2128 388 2347 550 
Q 2566 713 2694 1069 
z
M 847 1978 
L 2700 1978 
Q 2663 2397 2488 2606 
Q 2219 2931 1791 2931 
Q 1403 2931 1139 2672 
Q 875 2413 847 1978 
z
M 887 3969 
L 887 4609 
L 1474 4609 
L 1474 3969 
L 887 3969 
z
M 2052 3969 
L 2052 4609 
L 2640 4609 
L 2640 3969 
L 2052 3969 
z
" transform="scale(0.015625)"/>
      <path id="ArialMT-431" d="M 2853 4691 
L 3350 4684 
Q 3316 4350 3202 4219 
Q 3088 4088 2908 4050 
Q 2728 4013 2203 4013 
Q 1506 4013 1253 3878 
Q 1000 3744 889 3448 
Q 778 3153 766 2688 
Q 978 3003 1262 3161 
Q 1547 3319 1903 3319 
Q 2556 3319 2984 2870 
Q 3413 2422 3413 1656 
Q 3413 1075 3197 703 
Q 2981 331 2686 128 
Q 2391 -75 1881 -75 
Q 1291 -75 962 195 
Q 634 466 459 887 
Q 284 1309 284 2356 
Q 284 3672 729 4128 
Q 1175 4584 2100 4584 
Q 2675 4584 2753 4603 
Q 2831 4622 2853 4691 
z
M 2825 1672 
Q 2825 2191 2579 2522 
Q 2334 2853 1888 2853 
Q 1422 2853 1169 2503 
Q 916 2153 916 1569 
Q 916 991 1195 684 
Q 1475 378 1884 378 
Q 2303 378 2564 733 
Q 2825 1088 2825 1672 
z
" transform="scale(0.015625)"/>
      <path id="ArialMT-440" d="M 422 -1272 
L 422 3319 
L 934 3319 
L 934 2888 
Q 1116 3141 1344 3267 
Q 1572 3394 1897 3394 
Q 2322 3394 2647 3175 
Q 2972 2956 3137 2557 
Q 3303 2159 3303 1684 
Q 3303 1175 3120 767 
Q 2938 359 2589 142 
Q 2241 -75 1856 -75 
Q 1575 -75 1351 44 
Q 1128 163 984 344 
L 984 -1272 
L 422 -1272 
z
M 931 1641 
Q 931 1000 1190 694 
Q 1450 388 1819 388 
Q 2194 388 2461 705 
Q 2728 1022 2728 1688 
Q 2728 2322 2467 2637 
Q 2206 2953 1844 2953 
Q 1484 2953 1207 2617 
Q 931 2281 931 1641 
z
" transform="scale(0.015625)"/>
      <path id="ArialMT-44b" d="M 3581 3319 
L 4144 3319 
L 4144 0 
L 3581 0 
L 3581 3319 
z
M 434 3319 
L 997 3319 
L 997 2022 
L 1709 2022 
Q 2406 2022 2782 1751 
Q 3159 1481 3159 1006 
Q 3159 591 2845 295 
Q 2531 0 1841 0 
L 434 0 
L 434 3319 
z
M 997 463 
L 1588 463 
Q 2122 463 2350 594 
Q 2578 725 2578 1003 
Q 2578 1219 2409 1387 
Q 2241 1556 1663 1556 
L 997 1556 
L 997 463 
z
" transform="scale(0.015625)"/>
     </defs>
     <use xlink:href="#ArialMT-421"/>
     <use xlink:href="#ArialMT-445" x="72.216797"/>
     <use xlink:href="#ArialMT-43e" x="121.091797"/>
     <use xlink:href="#ArialMT-434" x="174.457031"/>
     <use xlink:href="#ArialMT-438" x="232.806641"/>
     <use xlink:href="#ArialMT-43c" x="288.666016"/>
     <use xlink:href="#ArialMT-43e" x="357.416016"/>
     <use xlink:href="#ArialMT-441" x="413.03125"/>
     <use xlink:href="#ArialMT-442" x="463.03125"/>
     <use xlink:href="#ArialMT-44c" x="508.832031"/>
     <use xlink:href="#ArialMT-20" x="560.931641"/>
     <use xlink:href="#ArialMT-43c" x="588.714844"/>
     <use xlink:href="#ArialMT-43e" x="657.464844"/>
     <use xlink:href="#ArialMT-434" x="710.830078"/>
     <use xlink:href="#ArialMT-435" x="769.179688"/>
     <use xlink:href="#ArialMT-43b" x="821.419922"/>
     <use xlink:href="#ArialMT-438" x="879.769531"/>
     <use xlink:href="#ArialMT-20" x="935.628906"/>
     <use xlink:href="#ArialMT-28" x="963.412109"/>
     <use xlink:href="#ArialMT-4e" x="996.712891"/>
     <use xlink:href="#ArialMT-4e" x="1068.929688"/>
     <use xlink:href="#ArialMT-29" x="1141.146484"/>
     <use xlink:href="#ArialMT-20" x="1174.447266"/>
     <use xlink:href="#ArialMT-43d" x="1202.230469"/>
     <use xlink:href="#ArialMT-430" x="1257.455078"/>
     <use xlink:href="#ArialMT-20" x="1313.070312"/>
     <use xlink:href="#ArialMT-432" x="1340.853516"/>
     <use xlink:href="#ArialMT-441" x="1392.853516"/>
     <use xlink:href="#ArialMT-451" x="1442.853516"/>
     <use xlink:href="#ArialMT-43c" x="1498.46875"/>
     <use xlink:href="#ArialMT-20" x="1567.21875"/>
     <use xlink:href="#ArialMT-43d" x="1595.001953"/>
     <use xlink:href="#ArialMT-430" x="1650.226562"/>
     <use xlink:href="#ArialMT-431" x="1705.841797"/>
     <use xlink:href="#ArialMT-43e" x="1763.117188"/>
     <use xlink:href="#ArialMT-440" x="1818.732422"/>
     <use xlink:href="#ArialMT-435" x="1874.347656"/>
     <use xlink:href="#ArialMT-20" x="1929.962891"/>
     <use xlink:href="#ArialMT-434" x="1957.746094"/>
     <use xlink:href="#ArialMT-430" x="2016.095703"/>
     <use xlink:href="#ArialMT-43d" x="2071.710938"/>
     <use xlink:href="#ArialMT-43d" x="2126.935547"/>
     <use xlink:href="#ArialMT-44b" x="2182.160156"/>
     <use xlink:href="#ArialMT-445" x="2254.035156"/>
    </g>
   </g>
  </g>
 </g>
 <defs>
  <clipPath id="p433bbc9524">
   <rect x="57.6" y="41.472" width="357.12" height="266.112"/>
  </clipPath>
 </defs>
</svg>
