<?xml version="1.0" encoding="utf-8" standalone="no"?>
<!DOCTYPE svg PUBLIC "-//W3C//DTD SVG 1.1//EN"
  "http://www.w3.org/Graphics/SVG/1.1/DTD/svg11.dtd">
<svg xmlns:xlink="http://www.w3.org/1999/xlink" width="1152pt" height="720pt" viewBox="0 0 1152 720" xmlns="http://www.w3.org/2000/svg" version="1.1">
 <metadata>
  <rdf:RDF xmlns:dc="http://purl.org/dc/elements/1.1/" xmlns:cc="http://creativecommons.org/ns#" xmlns:rdf="http://www.w3.org/1999/02/22-rdf-syntax-ns#">
   <cc:Work>
    <dc:type rdf:resource="http://purl.org/dc/dcmitype/StillImage"/>
    <dc:date>2023-06-22T18:04:19.423844</dc:date>
    <dc:format>image/svg+xml</dc:format>
    <dc:creator>
     <cc:Agent>
      <dc:title>Matplotlib v3.7.1, https://matplotlib.org/</dc:title>
     </cc:Agent>
    </dc:creator>
   </cc:Work>
  </rdf:RDF>
 </metadata>
 <defs>
  <style type="text/css">*{stroke-linejoin: round; stroke-linecap: butt}</style>
 </defs>
 <g id="figure_1">
  <g id="patch_1">
   <path d="M 0 720 
L 1152 720 
L 1152 0 
L 0 0 
z
" style="fill: #ffffff"/>
  </g>
  <g id="axes_1">
   <g id="patch_2">
    <path d="M 144 640.8 
L 1036.8 640.8 
L 1036.8 86.4 
L 144 86.4 
z
" style="fill: #eaeaf2"/>
   </g>
   <g id="matplotlib.axis_1">
    <g id="xtick_1">
     <g id="line2d_1">
      <path d="M 221.826906 640.8 
L 221.826906 86.4 
" clip-path="url(#p78f5239925)" style="fill: none; stroke: #ffffff; stroke-width: 0.8; stroke-linecap: round"/>
     </g>
     <g id="text_1">
      <!-- 250 -->
      <g style="fill: #262626" transform="translate(213.4855 654.957813) scale(0.1 -0.1)">
       <defs>
        <path id="ArialMT-32" d="M 3222 541 
L 3222 0 
L 194 0 
Q 188 203 259 391 
Q 375 700 629 1000 
Q 884 1300 1366 1694 
Q 2113 2306 2375 2664 
Q 2638 3022 2638 3341 
Q 2638 3675 2398 3904 
Q 2159 4134 1775 4134 
Q 1369 4134 1125 3890 
Q 881 3647 878 3216 
L 300 3275 
Q 359 3922 746 4261 
Q 1134 4600 1788 4600 
Q 2447 4600 2831 4234 
Q 3216 3869 3216 3328 
Q 3216 3053 3103 2787 
Q 2991 2522 2730 2228 
Q 2469 1934 1863 1422 
Q 1356 997 1212 845 
Q 1069 694 975 541 
L 3222 541 
z
" transform="scale(0.015625)"/>
        <path id="ArialMT-35" d="M 266 1200 
L 856 1250 
Q 922 819 1161 601 
Q 1400 384 1738 384 
Q 2144 384 2425 690 
Q 2706 997 2706 1503 
Q 2706 1984 2436 2262 
Q 2166 2541 1728 2541 
Q 1456 2541 1237 2417 
Q 1019 2294 894 2097 
L 366 2166 
L 809 4519 
L 3088 4519 
L 3088 3981 
L 1259 3981 
L 1013 2750 
Q 1425 3038 1878 3038 
Q 2478 3038 2890 2622 
Q 3303 2206 3303 1553 
Q 3303 931 2941 478 
Q 2500 -78 1738 -78 
Q 1113 -78 717 272 
Q 322 622 266 1200 
z
" transform="scale(0.015625)"/>
        <path id="ArialMT-30" d="M 266 2259 
Q 266 3072 433 3567 
Q 600 4063 929 4331 
Q 1259 4600 1759 4600 
Q 2128 4600 2406 4451 
Q 2684 4303 2865 4023 
Q 3047 3744 3150 3342 
Q 3253 2941 3253 2259 
Q 3253 1453 3087 958 
Q 2922 463 2592 192 
Q 2263 -78 1759 -78 
Q 1097 -78 719 397 
Q 266 969 266 2259 
z
M 844 2259 
Q 844 1131 1108 757 
Q 1372 384 1759 384 
Q 2147 384 2411 759 
Q 2675 1134 2675 2259 
Q 2675 3391 2411 3762 
Q 2147 4134 1753 4134 
Q 1366 4134 1134 3806 
Q 844 3388 844 2259 
z
" transform="scale(0.015625)"/>
       </defs>
       <use xlink:href="#ArialMT-32"/>
       <use xlink:href="#ArialMT-35" x="55.615234"/>
       <use xlink:href="#ArialMT-30" x="111.230469"/>
      </g>
     </g>
    </g>
    <g id="xtick_2">
     <g id="line2d_2">
      <path d="M 353.830683 640.8 
L 353.830683 86.4 
" clip-path="url(#p78f5239925)" style="fill: none; stroke: #ffffff; stroke-width: 0.8; stroke-linecap: round"/>
     </g>
     <g id="text_2">
      <!-- 300 -->
      <g style="fill: #262626" transform="translate(345.489277 654.957813) scale(0.1 -0.1)">
       <defs>
        <path id="ArialMT-33" d="M 269 1209 
L 831 1284 
Q 928 806 1161 595 
Q 1394 384 1728 384 
Q 2125 384 2398 659 
Q 2672 934 2672 1341 
Q 2672 1728 2419 1979 
Q 2166 2231 1775 2231 
Q 1616 2231 1378 2169 
L 1441 2663 
Q 1497 2656 1531 2656 
Q 1891 2656 2178 2843 
Q 2466 3031 2466 3422 
Q 2466 3731 2256 3934 
Q 2047 4138 1716 4138 
Q 1388 4138 1169 3931 
Q 950 3725 888 3313 
L 325 3413 
Q 428 3978 793 4289 
Q 1159 4600 1703 4600 
Q 2078 4600 2393 4439 
Q 2709 4278 2876 4000 
Q 3044 3722 3044 3409 
Q 3044 3113 2884 2869 
Q 2725 2625 2413 2481 
Q 2819 2388 3044 2092 
Q 3269 1797 3269 1353 
Q 3269 753 2831 336 
Q 2394 -81 1725 -81 
Q 1122 -81 723 278 
Q 325 638 269 1209 
z
" transform="scale(0.015625)"/>
       </defs>
       <use xlink:href="#ArialMT-33"/>
       <use xlink:href="#ArialMT-30" x="55.615234"/>
       <use xlink:href="#ArialMT-30" x="111.230469"/>
      </g>
     </g>
    </g>
    <g id="xtick_3">
     <g id="line2d_3">
      <path d="M 485.83446 640.8 
L 485.83446 86.4 
" clip-path="url(#p78f5239925)" style="fill: none; stroke: #ffffff; stroke-width: 0.8; stroke-linecap: round"/>
     </g>
     <g id="text_3">
      <!-- 350 -->
      <g style="fill: #262626" transform="translate(477.493053 654.957813) scale(0.1 -0.1)">
       <use xlink:href="#ArialMT-33"/>
       <use xlink:href="#ArialMT-35" x="55.615234"/>
       <use xlink:href="#ArialMT-30" x="111.230469"/>
      </g>
     </g>
    </g>
    <g id="xtick_4">
     <g id="line2d_4">
      <path d="M 617.838236 640.8 
L 617.838236 86.4 
" clip-path="url(#p78f5239925)" style="fill: none; stroke: #ffffff; stroke-width: 0.8; stroke-linecap: round"/>
     </g>
     <g id="text_4">
      <!-- 400 -->
      <g style="fill: #262626" transform="translate(609.49683 654.957813) scale(0.1 -0.1)">
       <defs>
        <path id="ArialMT-34" d="M 2069 0 
L 2069 1097 
L 81 1097 
L 81 1613 
L 2172 4581 
L 2631 4581 
L 2631 1613 
L 3250 1613 
L 3250 1097 
L 2631 1097 
L 2631 0 
L 2069 0 
z
M 2069 1613 
L 2069 3678 
L 634 1613 
L 2069 1613 
z
" transform="scale(0.015625)"/>
       </defs>
       <use xlink:href="#ArialMT-34"/>
       <use xlink:href="#ArialMT-30" x="55.615234"/>
       <use xlink:href="#ArialMT-30" x="111.230469"/>
      </g>
     </g>
    </g>
    <g id="xtick_5">
     <g id="line2d_5">
      <path d="M 749.842013 640.8 
L 749.842013 86.4 
" clip-path="url(#p78f5239925)" style="fill: none; stroke: #ffffff; stroke-width: 0.8; stroke-linecap: round"/>
     </g>
     <g id="text_5">
      <!-- 450 -->
      <g style="fill: #262626" transform="translate(741.500607 654.957813) scale(0.1 -0.1)">
       <use xlink:href="#ArialMT-34"/>
       <use xlink:href="#ArialMT-35" x="55.615234"/>
       <use xlink:href="#ArialMT-30" x="111.230469"/>
      </g>
     </g>
    </g>
    <g id="xtick_6">
     <g id="line2d_6">
      <path d="M 881.84579 640.8 
L 881.84579 86.4 
" clip-path="url(#p78f5239925)" style="fill: none; stroke: #ffffff; stroke-width: 0.8; stroke-linecap: round"/>
     </g>
     <g id="text_6">
      <!-- 500 -->
      <g style="fill: #262626" transform="translate(873.504384 654.957813) scale(0.1 -0.1)">
       <use xlink:href="#ArialMT-35"/>
       <use xlink:href="#ArialMT-30" x="55.615234"/>
       <use xlink:href="#ArialMT-30" x="111.230469"/>
      </g>
     </g>
    </g>
    <g id="xtick_7">
     <g id="line2d_7">
      <path d="M 1013.849567 640.8 
L 1013.849567 86.4 
" clip-path="url(#p78f5239925)" style="fill: none; stroke: #ffffff; stroke-width: 0.8; stroke-linecap: round"/>
     </g>
     <g id="text_7">
      <!-- 550 -->
      <g style="fill: #262626" transform="translate(1005.50816 654.957813) scale(0.1 -0.1)">
       <use xlink:href="#ArialMT-35"/>
       <use xlink:href="#ArialMT-35" x="55.615234"/>
       <use xlink:href="#ArialMT-30" x="111.230469"/>
      </g>
     </g>
    </g>
    <g id="text_8">
     <!-- Значения -->
     <g style="fill: #262626" transform="translate(568.303906 668.103125) scale(0.1 -0.1)">
      <defs>
       <path id="ArialMT-417" d="M 244 1294 
L 822 1444 
Q 888 1109 1173 775 
Q 1459 441 1931 441 
Q 2413 441 2691 687 
Q 2969 934 2969 1284 
Q 2969 1663 2675 1886 
Q 2381 2109 1875 2109 
L 1584 2109 
L 1584 2638 
Q 2003 2638 2225 2686 
Q 2447 2734 2617 2932 
Q 2788 3131 2788 3384 
Q 2788 3684 2555 3906 
Q 2322 4128 1925 4128 
Q 1578 4128 1333 3954 
Q 1088 3781 994 3495 
Q 900 3209 900 3069 
L 319 3200 
Q 534 4659 1931 4659 
Q 2603 4659 2997 4286 
Q 3391 3913 3391 3413 
Q 3391 2772 2784 2419 
Q 3134 2322 3370 2023 
Q 3606 1725 3606 1309 
Q 3606 719 3148 320 
Q 2691 -78 1934 -78 
Q 634 -78 244 1294 
z
" transform="scale(0.015625)"/>
       <path id="ArialMT-43d" d="M 425 3319 
L 988 3319 
L 988 1938 
L 2547 1938 
L 2547 3319 
L 3109 3319 
L 3109 0 
L 2547 0 
L 2547 1472 
L 988 1472 
L 988 0 
L 425 0 
L 425 3319 
z
" transform="scale(0.015625)"/>
       <path id="ArialMT-430" d="M 2588 409 
Q 2275 144 1986 34 
Q 1697 -75 1366 -75 
Q 819 -75 525 192 
Q 231 459 231 875 
Q 231 1119 342 1320 
Q 453 1522 633 1644 
Q 813 1766 1038 1828 
Q 1203 1872 1538 1913 
Q 2219 1994 2541 2106 
Q 2544 2222 2544 2253 
Q 2544 2597 2384 2738 
Q 2169 2928 1744 2928 
Q 1347 2928 1158 2789 
Q 969 2650 878 2297 
L 328 2372 
Q 403 2725 575 2942 
Q 747 3159 1072 3276 
Q 1397 3394 1825 3394 
Q 2250 3394 2515 3294 
Q 2781 3194 2906 3042 
Q 3031 2891 3081 2659 
Q 3109 2516 3109 2141 
L 3109 1391 
Q 3109 606 3145 398 
Q 3181 191 3288 0 
L 2700 0 
Q 2613 175 2588 409 
z
M 2541 1666 
Q 2234 1541 1622 1453 
Q 1275 1403 1131 1340 
Q 988 1278 909 1158 
Q 831 1038 831 891 
Q 831 666 1001 516 
Q 1172 366 1500 366 
Q 1825 366 2078 508 
Q 2331 650 2450 897 
Q 2541 1088 2541 1459 
L 2541 1666 
z
" transform="scale(0.015625)"/>
       <path id="ArialMT-447" d="M 216 3319 
L 778 3319 
L 778 2691 
Q 778 2284 826 2101 
Q 875 1919 1059 1783 
Q 1244 1647 1522 1647 
Q 1841 1647 2347 1816 
L 2347 3319 
L 2909 3319 
L 2909 0 
L 2347 0 
L 2347 1338 
Q 1828 1175 1378 1175 
Q 1000 1175 711 1367 
Q 422 1559 319 1837 
Q 216 2116 216 2450 
L 216 3319 
z
" transform="scale(0.015625)"/>
       <path id="ArialMT-435" d="M 2694 1069 
L 3275 997 
Q 3138 488 2766 206 
Q 2394 -75 1816 -75 
Q 1088 -75 661 373 
Q 234 822 234 1631 
Q 234 2469 665 2931 
Q 1097 3394 1784 3394 
Q 2450 3394 2872 2941 
Q 3294 2488 3294 1666 
Q 3294 1616 3291 1516 
L 816 1516 
Q 847 969 1125 678 
Q 1403 388 1819 388 
Q 2128 388 2347 550 
Q 2566 713 2694 1069 
z
M 847 1978 
L 2700 1978 
Q 2663 2397 2488 2606 
Q 2219 2931 1791 2931 
Q 1403 2931 1139 2672 
Q 875 2413 847 1978 
z
" transform="scale(0.015625)"/>
       <path id="ArialMT-438" d="M 422 3319 
L 984 3319 
L 984 788 
L 2544 3319 
L 3150 3319 
L 3150 0 
L 2588 0 
L 2588 2516 
L 1028 0 
L 422 0 
L 422 3319 
z
" transform="scale(0.015625)"/>
       <path id="ArialMT-44f" d="M 3034 3319 
L 3034 0 
L 2475 0 
L 2475 1294 
L 2150 1294 
Q 1853 1294 1708 1217 
Q 1563 1141 1284 725 
L 794 0 
L 97 0 
L 703 894 
Q 981 1303 1256 1356 
Q 775 1422 542 1703 
Q 309 1984 309 2350 
Q 309 2781 614 3050 
Q 919 3319 1497 3319 
L 3034 3319 
z
M 2475 2853 
L 1675 2853 
Q 1172 2853 1026 2697 
Q 881 2541 881 2331 
Q 881 2034 1095 1895 
Q 1309 1756 1853 1756 
L 2475 1756 
L 2475 2853 
z
" transform="scale(0.015625)"/>
      </defs>
      <use xlink:href="#ArialMT-417"/>
      <use xlink:href="#ArialMT-43d" x="60.400391"/>
      <use xlink:href="#ArialMT-430" x="115.625"/>
      <use xlink:href="#ArialMT-447" x="168.990234"/>
      <use xlink:href="#ArialMT-435" x="221.089844"/>
      <use xlink:href="#ArialMT-43d" x="276.705078"/>
      <use xlink:href="#ArialMT-438" x="331.929688"/>
      <use xlink:href="#ArialMT-44f" x="387.789062"/>
     </g>
    </g>
   </g>
   <g id="matplotlib.axis_2">
    <g id="ytick_1">
     <g id="line2d_8">
      <path d="M 144 640.8 
L 1036.8 640.8 
" clip-path="url(#p78f5239925)" style="fill: none; stroke: #ffffff; stroke-width: 0.8; stroke-linecap: round"/>
     </g>
     <g id="text_9">
      <!-- 0.0000 -->
      <g style="fill: #262626" transform="translate(106.417187 644.378906) scale(0.1 -0.1)">
       <defs>
        <path id="ArialMT-2e" d="M 581 0 
L 581 641 
L 1222 641 
L 1222 0 
L 581 0 
z
" transform="scale(0.015625)"/>
       </defs>
       <use xlink:href="#ArialMT-30"/>
       <use xlink:href="#ArialMT-2e" x="55.615234"/>
       <use xlink:href="#ArialMT-30" x="83.398438"/>
       <use xlink:href="#ArialMT-30" x="139.013672"/>
       <use xlink:href="#ArialMT-30" x="194.628906"/>
       <use xlink:href="#ArialMT-30" x="250.244141"/>
      </g>
     </g>
    </g>
    <g id="ytick_2">
     <g id="line2d_9">
      <path d="M 144 565.991423 
L 1036.8 565.991423 
" clip-path="url(#p78f5239925)" style="fill: none; stroke: #ffffff; stroke-width: 0.8; stroke-linecap: round"/>
     </g>
     <g id="text_10">
      <!-- 0.0025 -->
      <g style="fill: #262626" transform="translate(106.417187 569.570329) scale(0.1 -0.1)">
       <use xlink:href="#ArialMT-30"/>
       <use xlink:href="#ArialMT-2e" x="55.615234"/>
       <use xlink:href="#ArialMT-30" x="83.398438"/>
       <use xlink:href="#ArialMT-30" x="139.013672"/>
       <use xlink:href="#ArialMT-32" x="194.628906"/>
       <use xlink:href="#ArialMT-35" x="250.244141"/>
      </g>
     </g>
    </g>
    <g id="ytick_3">
     <g id="line2d_10">
      <path d="M 144 491.182845 
L 1036.8 491.182845 
" clip-path="url(#p78f5239925)" style="fill: none; stroke: #ffffff; stroke-width: 0.8; stroke-linecap: round"/>
     </g>
     <g id="text_11">
      <!-- 0.0050 -->
      <g style="fill: #262626" transform="translate(106.417187 494.761751) scale(0.1 -0.1)">
       <use xlink:href="#ArialMT-30"/>
       <use xlink:href="#ArialMT-2e" x="55.615234"/>
       <use xlink:href="#ArialMT-30" x="83.398438"/>
       <use xlink:href="#ArialMT-30" x="139.013672"/>
       <use xlink:href="#ArialMT-35" x="194.628906"/>
       <use xlink:href="#ArialMT-30" x="250.244141"/>
      </g>
     </g>
    </g>
    <g id="ytick_4">
     <g id="line2d_11">
      <path d="M 144 416.374268 
L 1036.8 416.374268 
" clip-path="url(#p78f5239925)" style="fill: none; stroke: #ffffff; stroke-width: 0.8; stroke-linecap: round"/>
     </g>
     <g id="text_12">
      <!-- 0.0075 -->
      <g style="fill: #262626" transform="translate(106.417187 419.953174) scale(0.1 -0.1)">
       <defs>
        <path id="ArialMT-37" d="M 303 3981 
L 303 4522 
L 3269 4522 
L 3269 4084 
Q 2831 3619 2401 2847 
Q 1972 2075 1738 1259 
Q 1569 684 1522 0 
L 944 0 
Q 953 541 1156 1306 
Q 1359 2072 1739 2783 
Q 2119 3494 2547 3981 
L 303 3981 
z
" transform="scale(0.015625)"/>
       </defs>
       <use xlink:href="#ArialMT-30"/>
       <use xlink:href="#ArialMT-2e" x="55.615234"/>
       <use xlink:href="#ArialMT-30" x="83.398438"/>
       <use xlink:href="#ArialMT-30" x="139.013672"/>
       <use xlink:href="#ArialMT-37" x="194.628906"/>
       <use xlink:href="#ArialMT-35" x="250.244141"/>
      </g>
     </g>
    </g>
    <g id="ytick_5">
     <g id="line2d_12">
      <path d="M 144 341.56569 
L 1036.8 341.56569 
" clip-path="url(#p78f5239925)" style="fill: none; stroke: #ffffff; stroke-width: 0.8; stroke-linecap: round"/>
     </g>
     <g id="text_13">
      <!-- 0.0100 -->
      <g style="fill: #262626" transform="translate(106.417187 345.144596) scale(0.1 -0.1)">
       <defs>
        <path id="ArialMT-31" d="M 2384 0 
L 1822 0 
L 1822 3584 
Q 1619 3391 1289 3197 
Q 959 3003 697 2906 
L 697 3450 
Q 1169 3672 1522 3987 
Q 1875 4303 2022 4600 
L 2384 4600 
L 2384 0 
z
" transform="scale(0.015625)"/>
       </defs>
       <use xlink:href="#ArialMT-30"/>
       <use xlink:href="#ArialMT-2e" x="55.615234"/>
       <use xlink:href="#ArialMT-30" x="83.398438"/>
       <use xlink:href="#ArialMT-31" x="139.013672"/>
       <use xlink:href="#ArialMT-30" x="194.628906"/>
       <use xlink:href="#ArialMT-30" x="250.244141"/>
      </g>
     </g>
    </g>
    <g id="ytick_6">
     <g id="line2d_13">
      <path d="M 144 266.757113 
L 1036.8 266.757113 
" clip-path="url(#p78f5239925)" style="fill: none; stroke: #ffffff; stroke-width: 0.8; stroke-linecap: round"/>
     </g>
     <g id="text_14">
      <!-- 0.0125 -->
      <g style="fill: #262626" transform="translate(106.417187 270.336019) scale(0.1 -0.1)">
       <use xlink:href="#ArialMT-30"/>
       <use xlink:href="#ArialMT-2e" x="55.615234"/>
       <use xlink:href="#ArialMT-30" x="83.398438"/>
       <use xlink:href="#ArialMT-31" x="139.013672"/>
       <use xlink:href="#ArialMT-32" x="194.628906"/>
       <use xlink:href="#ArialMT-35" x="250.244141"/>
      </g>
     </g>
    </g>
    <g id="ytick_7">
     <g id="line2d_14">
      <path d="M 144 191.948535 
L 1036.8 191.948535 
" clip-path="url(#p78f5239925)" style="fill: none; stroke: #ffffff; stroke-width: 0.8; stroke-linecap: round"/>
     </g>
     <g id="text_15">
      <!-- 0.0150 -->
      <g style="fill: #262626" transform="translate(106.417187 195.527442) scale(0.1 -0.1)">
       <use xlink:href="#ArialMT-30"/>
       <use xlink:href="#ArialMT-2e" x="55.615234"/>
       <use xlink:href="#ArialMT-30" x="83.398438"/>
       <use xlink:href="#ArialMT-31" x="139.013672"/>
       <use xlink:href="#ArialMT-35" x="194.628906"/>
       <use xlink:href="#ArialMT-30" x="250.244141"/>
      </g>
     </g>
    </g>
    <g id="ytick_8">
     <g id="line2d_15">
      <path d="M 144 117.139958 
L 1036.8 117.139958 
" clip-path="url(#p78f5239925)" style="fill: none; stroke: #ffffff; stroke-width: 0.8; stroke-linecap: round"/>
     </g>
     <g id="text_16">
      <!-- 0.0175 -->
      <g style="fill: #262626" transform="translate(106.417187 120.718864) scale(0.1 -0.1)">
       <use xlink:href="#ArialMT-30"/>
       <use xlink:href="#ArialMT-2e" x="55.615234"/>
       <use xlink:href="#ArialMT-30" x="83.398438"/>
       <use xlink:href="#ArialMT-31" x="139.013672"/>
       <use xlink:href="#ArialMT-37" x="194.628906"/>
       <use xlink:href="#ArialMT-35" x="250.244141"/>
      </g>
     </g>
    </g>
    <g id="text_17">
     <!-- Плотность вероятности -->
     <g style="fill: #262626" transform="translate(100.429688 418.513281) rotate(-90) scale(0.1 -0.1)">
      <defs>
       <path id="ArialMT-41f" d="M 500 4581 
L 4103 4581 
L 4103 0 
L 3494 0 
L 3494 4041 
L 1106 4041 
L 1106 0 
L 500 0 
L 500 4581 
z
" transform="scale(0.015625)"/>
       <path id="ArialMT-43b" d="M 697 3319 
L 3309 3319 
L 3309 0 
L 2750 0 
L 2750 2853 
L 1259 2853 
L 1259 1200 
Q 1259 622 1221 437 
Q 1184 253 1015 115 
Q 847 -22 528 -22 
Q 331 -22 75 3 
L 75 472 
L 322 472 
Q 497 472 572 508 
Q 647 544 672 622 
Q 697 700 697 1131 
L 697 3319 
z
" transform="scale(0.015625)"/>
       <path id="ArialMT-43e" d="M 213 1659 
Q 213 2581 725 3025 
Q 1153 3394 1769 3394 
Q 2453 3394 2887 2945 
Q 3322 2497 3322 1706 
Q 3322 1066 3130 698 
Q 2938 331 2570 128 
Q 2203 -75 1769 -75 
Q 1072 -75 642 372 
Q 213 819 213 1659 
z
M 791 1659 
Q 791 1022 1069 705 
Q 1347 388 1769 388 
Q 2188 388 2466 706 
Q 2744 1025 2744 1678 
Q 2744 2294 2464 2611 
Q 2184 2928 1769 2928 
Q 1347 2928 1069 2612 
Q 791 2297 791 1659 
z
" transform="scale(0.015625)"/>
       <path id="ArialMT-442" d="M 119 3319 
L 2816 3319 
L 2816 2853 
L 1747 2853 
L 1747 0 
L 1188 0 
L 1188 2853 
L 119 2853 
L 119 3319 
z
" transform="scale(0.015625)"/>
       <path id="ArialMT-441" d="M 2588 1216 
L 3141 1144 
Q 3050 572 2676 248 
Q 2303 -75 1759 -75 
Q 1078 -75 664 370 
Q 250 816 250 1647 
Q 250 2184 428 2587 
Q 606 2991 970 3192 
Q 1334 3394 1763 3394 
Q 2303 3394 2647 3120 
Q 2991 2847 3088 2344 
L 2541 2259 
Q 2463 2594 2264 2762 
Q 2066 2931 1784 2931 
Q 1359 2931 1093 2626 
Q 828 2322 828 1663 
Q 828 994 1084 691 
Q 1341 388 1753 388 
Q 2084 388 2306 591 
Q 2528 794 2588 1216 
z
" transform="scale(0.015625)"/>
       <path id="ArialMT-44c" d="M 413 3319 
L 975 3319 
L 975 2022 
L 1688 2022 
Q 2384 2022 2761 1751 
Q 3138 1481 3138 1006 
Q 3138 591 2823 295 
Q 2509 0 1819 0 
L 413 0 
L 413 3319 
z
M 975 463 
L 1566 463 
Q 2100 463 2328 594 
Q 2556 725 2556 1003 
Q 2556 1219 2387 1387 
Q 2219 1556 1641 1556 
L 975 1556 
L 975 463 
z
" transform="scale(0.015625)"/>
       <path id="ArialMT-20" transform="scale(0.015625)"/>
       <path id="ArialMT-432" d="M 425 3319 
L 1722 3319 
Q 2200 3319 2433 3239 
Q 2666 3159 2833 2946 
Q 3000 2734 3000 2438 
Q 3000 2200 2901 2023 
Q 2803 1847 2606 1728 
Q 2841 1650 2995 1436 
Q 3150 1222 3150 928 
Q 3119 456 2812 228 
Q 2506 0 1922 0 
L 425 0 
L 425 3319 
z
M 988 1922 
L 1588 1922 
Q 1947 1922 2081 1959 
Q 2216 1997 2322 2111 
Q 2428 2225 2428 2384 
Q 2428 2647 2242 2750 
Q 2056 2853 1606 2853 
L 988 2853 
L 988 1922 
z
M 988 463 
L 1728 463 
Q 2206 463 2384 573 
Q 2563 684 2572 956 
Q 2572 1116 2469 1252 
Q 2366 1388 2200 1423 
Q 2034 1459 1669 1459 
L 988 1459 
L 988 463 
z
" transform="scale(0.015625)"/>
       <path id="ArialMT-440" d="M 422 -1272 
L 422 3319 
L 934 3319 
L 934 2888 
Q 1116 3141 1344 3267 
Q 1572 3394 1897 3394 
Q 2322 3394 2647 3175 
Q 2972 2956 3137 2557 
Q 3303 2159 3303 1684 
Q 3303 1175 3120 767 
Q 2938 359 2589 142 
Q 2241 -75 1856 -75 
Q 1575 -75 1351 44 
Q 1128 163 984 344 
L 984 -1272 
L 422 -1272 
z
M 931 1641 
Q 931 1000 1190 694 
Q 1450 388 1819 388 
Q 2194 388 2461 705 
Q 2728 1022 2728 1688 
Q 2728 2322 2467 2637 
Q 2206 2953 1844 2953 
Q 1484 2953 1207 2617 
Q 931 2281 931 1641 
z
" transform="scale(0.015625)"/>
      </defs>
      <use xlink:href="#ArialMT-41f"/>
      <use xlink:href="#ArialMT-43b" x="71.875"/>
      <use xlink:href="#ArialMT-43e" x="131.349609"/>
      <use xlink:href="#ArialMT-442" x="184.714844"/>
      <use xlink:href="#ArialMT-43d" x="230.515625"/>
      <use xlink:href="#ArialMT-43e" x="285.740234"/>
      <use xlink:href="#ArialMT-441" x="341.355469"/>
      <use xlink:href="#ArialMT-442" x="391.355469"/>
      <use xlink:href="#ArialMT-44c" x="437.15625"/>
      <use xlink:href="#ArialMT-20" x="489.255859"/>
      <use xlink:href="#ArialMT-432" x="517.039062"/>
      <use xlink:href="#ArialMT-435" x="569.039062"/>
      <use xlink:href="#ArialMT-440" x="624.654297"/>
      <use xlink:href="#ArialMT-43e" x="680.269531"/>
      <use xlink:href="#ArialMT-44f" x="735.884766"/>
      <use xlink:href="#ArialMT-442" x="790.035156"/>
      <use xlink:href="#ArialMT-43d" x="835.835938"/>
      <use xlink:href="#ArialMT-43e" x="891.060547"/>
      <use xlink:href="#ArialMT-441" x="946.675781"/>
      <use xlink:href="#ArialMT-442" x="996.675781"/>
      <use xlink:href="#ArialMT-438" x="1042.476562"/>
     </g>
    </g>
   </g>
   <g id="PolyCollection_1">
    <defs>
     <path id="m30d4990278" d="M 184.581818 -79.249739 
L 184.581818 -79.2 
L 188.660393 -79.2 
L 192.738968 -79.2 
L 196.817542 -79.2 
L 200.896117 -79.2 
L 204.974692 -79.2 
L 209.053266 -79.2 
L 213.131841 -79.2 
L 217.210416 -79.2 
L 221.28899 -79.2 
L 225.367565 -79.2 
L 229.44614 -79.2 
L 233.524714 -79.2 
L 237.603289 -79.2 
L 241.681864 -79.2 
L 245.760439 -79.2 
L 249.839013 -79.2 
L 253.917588 -79.2 
L 257.996163 -79.2 
L 262.074737 -79.2 
L 266.153312 -79.2 
L 270.231887 -79.2 
L 274.310461 -79.2 
L 278.389036 -79.2 
L 282.467611 -79.2 
L 286.546185 -79.2 
L 290.62476 -79.2 
L 294.703335 -79.2 
L 298.78191 -79.2 
L 302.860484 -79.2 
L 306.939059 -79.2 
L 311.017634 -79.2 
L 315.096208 -79.2 
L 319.174783 -79.2 
L 323.253358 -79.2 
L 327.331932 -79.2 
L 331.410507 -79.2 
L 335.489082 -79.2 
L 339.567656 -79.2 
L 343.646231 -79.2 
L 347.724806 -79.2 
L 351.803381 -79.2 
L 355.881955 -79.2 
L 359.96053 -79.2 
L 364.039105 -79.2 
L 368.117679 -79.2 
L 372.196254 -79.2 
L 376.274829 -79.2 
L 380.353403 -79.2 
L 384.431978 -79.2 
L 388.510553 -79.2 
L 392.589127 -79.2 
L 396.667702 -79.2 
L 400.746277 -79.2 
L 404.824852 -79.2 
L 408.903426 -79.2 
L 412.982001 -79.2 
L 417.060576 -79.2 
L 421.13915 -79.2 
L 425.217725 -79.2 
L 429.2963 -79.2 
L 433.374874 -79.2 
L 437.453449 -79.2 
L 441.532024 -79.2 
L 445.610598 -79.2 
L 449.689173 -79.2 
L 453.767748 -79.2 
L 457.846323 -79.2 
L 461.924897 -79.2 
L 466.003472 -79.2 
L 470.082047 -79.2 
L 474.160621 -79.2 
L 478.239196 -79.2 
L 482.317771 -79.2 
L 486.396345 -79.2 
L 490.47492 -79.2 
L 494.553495 -79.2 
L 498.632069 -79.2 
L 502.710644 -79.2 
L 506.789219 -79.2 
L 510.867794 -79.2 
L 514.946368 -79.2 
L 519.024943 -79.2 
L 523.103518 -79.2 
L 527.182092 -79.2 
L 531.260667 -79.2 
L 535.339242 -79.2 
L 539.417816 -79.2 
L 543.496391 -79.2 
L 547.574966 -79.2 
L 551.65354 -79.2 
L 555.732115 -79.2 
L 559.81069 -79.2 
L 563.889265 -79.2 
L 567.967839 -79.2 
L 572.046414 -79.2 
L 576.124989 -79.2 
L 580.203563 -79.2 
L 584.282138 -79.2 
L 588.360713 -79.2 
L 592.439287 -79.2 
L 596.517862 -79.2 
L 600.596437 -79.2 
L 604.675011 -79.2 
L 608.753586 -79.2 
L 612.832161 -79.2 
L 616.910735 -79.2 
L 620.98931 -79.2 
L 625.067885 -79.2 
L 629.14646 -79.2 
L 633.225034 -79.2 
L 637.303609 -79.2 
L 641.382184 -79.2 
L 645.460758 -79.2 
L 649.539333 -79.2 
L 653.617908 -79.2 
L 657.696482 -79.2 
L 661.775057 -79.2 
L 665.853632 -79.2 
L 669.932206 -79.2 
L 674.010781 -79.2 
L 678.089356 -79.2 
L 682.167931 -79.2 
L 686.246505 -79.2 
L 690.32508 -79.2 
L 694.403655 -79.2 
L 698.482229 -79.2 
L 702.560804 -79.2 
L 706.639379 -79.2 
L 710.717953 -79.2 
L 714.796528 -79.2 
L 718.875103 -79.2 
L 722.953677 -79.2 
L 727.032252 -79.2 
L 731.110827 -79.2 
L 735.189402 -79.2 
L 739.267976 -79.2 
L 743.346551 -79.2 
L 747.425126 -79.2 
L 751.5037 -79.2 
L 755.582275 -79.2 
L 759.66085 -79.2 
L 763.739424 -79.2 
L 767.817999 -79.2 
L 771.896574 -79.2 
L 775.975148 -79.2 
L 780.053723 -79.2 
L 784.132298 -79.2 
L 788.210873 -79.2 
L 792.289447 -79.2 
L 796.368022 -79.2 
L 800.446597 -79.2 
L 804.525171 -79.2 
L 808.603746 -79.2 
L 812.682321 -79.2 
L 816.760895 -79.2 
L 820.83947 -79.2 
L 824.918045 -79.2 
L 828.996619 -79.2 
L 833.075194 -79.2 
L 837.153769 -79.2 
L 841.232344 -79.2 
L 845.310918 -79.2 
L 849.389493 -79.2 
L 853.468068 -79.2 
L 857.546642 -79.2 
L 861.625217 -79.2 
L 865.703792 -79.2 
L 869.782366 -79.2 
L 873.860941 -79.2 
L 877.939516 -79.2 
L 882.01809 -79.2 
L 886.096665 -79.2 
L 890.17524 -79.2 
L 894.253815 -79.2 
L 898.332389 -79.2 
L 902.410964 -79.2 
L 906.489539 -79.2 
L 910.568113 -79.2 
L 914.646688 -79.2 
L 918.725263 -79.2 
L 922.803837 -79.2 
L 926.882412 -79.2 
L 930.960987 -79.2 
L 935.039561 -79.2 
L 939.118136 -79.2 
L 943.196711 -79.2 
L 947.275286 -79.2 
L 951.35386 -79.2 
L 955.432435 -79.2 
L 959.51101 -79.2 
L 963.589584 -79.2 
L 967.668159 -79.2 
L 971.746734 -79.2 
L 975.825308 -79.2 
L 979.903883 -79.2 
L 983.982458 -79.2 
L 988.061032 -79.2 
L 992.139607 -79.2 
L 996.218182 -79.2 
L 996.218182 -79.250585 
L 996.218182 -79.250585 
L 992.139607 -79.273994 
L 988.061032 -79.3068 
L 983.982458 -79.352113 
L 979.903883 -79.4138 
L 975.825308 -79.496571 
L 971.746734 -79.606033 
L 967.668159 -79.74871 
L 963.589584 -79.932008 
L 959.51101 -80.164108 
L 955.432435 -80.453787 
L 951.35386 -80.810152 
L 947.275286 -81.24229 
L 943.196711 -81.758853 
L 939.118136 -82.367574 
L 935.039561 -83.074768 
L 930.960987 -83.88483 
L 926.882412 -84.799784 
L 922.803837 -85.818909 
L 918.725263 -86.938486 
L 914.646688 -88.151691 
L 910.568113 -89.448649 
L 906.489539 -90.816644 
L 902.410964 -92.240481 
L 898.332389 -93.70297 
L 894.253815 -95.185489 
L 890.17524 -96.668597 
L 886.096665 -98.132649 
L 882.01809 -99.558386 
L 877.939516 -100.927473 
L 873.860941 -102.222983 
L 869.782366 -103.429822 
L 865.703792 -104.535112 
L 861.625217 -105.528536 
L 857.546642 -106.402676 
L 853.468068 -107.153323 
L 849.389493 -107.779777 
L 845.310918 -108.285097 
L 841.232344 -108.676282 
L 837.153769 -108.964343 
L 833.075194 -109.164215 
L 828.996619 -109.294498 
L 824.918045 -109.376993 
L 820.83947 -109.436027 
L 816.760895 -109.497615 
L 812.682321 -109.588464 
L 808.603746 -109.734912 
L 804.525171 -109.961849 
L 800.446597 -110.291703 
L 796.368022 -110.743554 
L 792.289447 -111.332435 
L 788.210873 -112.068848 
L 784.132298 -112.958518 
L 780.053723 -114.00237 
L 775.975148 -115.196707 
L 771.896574 -116.533545 
L 767.817999 -118.001066 
L 763.739424 -119.584134 
L 759.66085 -121.264835 
L 755.582275 -123.023018 
L 751.5037 -124.836821 
L 747.425126 -126.683181 
L 743.346551 -128.538347 
L 739.267976 -130.378407 
L 735.189402 -132.179855 
L 731.110827 -133.920211 
L 727.032252 -135.578682 
L 722.953677 -137.136864 
L 718.875103 -138.579423 
L 714.796528 -139.894723 
L 710.717953 -141.075323 
L 706.639379 -142.118283 
L 702.560804 -143.025225 
L 698.482229 -143.802104 
L 694.403655 -144.458685 
L 690.32508 -145.007752 
L 686.246505 -145.464091 
L 682.167931 -145.843347 
L 678.089356 -146.160845 
L 674.010781 -146.430502 
L 669.932206 -146.663909 
L 665.853632 -146.869705 
L 661.775057 -147.05326 
L 657.696482 -147.216711 
L 653.617908 -147.359317 
L 649.539333 -147.478064 
L 645.460758 -147.568448 
L 641.382184 -147.625311 
L 637.303609 -147.643629 
L 633.225034 -147.619155 
L 629.14646 -147.548839 
L 625.067885 -147.430987 
L 620.98931 -147.265159 
L 616.910735 -147.051838 
L 612.832161 -146.791944 
L 608.753586 -146.486284 
L 604.675011 -146.135028 
L 600.596437 -145.737319 
L 596.517862 -145.291096 
L 592.439287 -144.793167 
L 588.360713 -144.239568 
L 584.282138 -143.626185 
L 580.203563 -142.949578 
L 576.124989 -142.207953 
L 572.046414 -141.402173 
L 567.967839 -140.536727 
L 563.889265 -139.620568 
L 559.81069 -138.667763 
L 555.732115 -137.697909 
L 551.65354 -136.736314 
L 547.574966 -135.813967 
L 543.496391 -134.967329 
L 539.417816 -134.238031 
L 535.339242 -133.672528 
L 531.260667 -133.321784 
L 527.182092 -133.24104 
L 523.103518 -133.4897 
L 519.024943 -134.131337 
L 514.946368 -135.233794 
L 510.867794 -136.869335 
L 506.789219 -139.114765 
L 502.710644 -142.051412 
L 498.632069 -145.764872 
L 494.553495 -150.344387 
L 490.47492 -155.881758 
L 486.396345 -162.469686 
L 482.317771 -170.199482 
L 478.239196 -179.158116 
L 474.160621 -189.424609 
L 470.082047 -201.065847 
L 466.003472 -214.131921 
L 461.924897 -228.651166 
L 457.846323 -244.625103 
L 453.767748 -262.023531 
L 449.689173 -280.78003 
L 445.610598 -300.788156 
L 441.532024 -321.898591 
L 437.453449 -343.917504 
L 433.374874 -366.606349 
L 429.2963 -389.683277 
L 425.217725 -412.82631 
L 421.13915 -435.678362 
L 417.060576 -457.854106 
L 412.982001 -478.948665 
L 408.903426 -498.547949 
L 404.824852 -516.240432 
L 400.746277 -531.630003 
L 396.667702 -544.349461 
L 392.589127 -554.074078 
L 388.510553 -560.534617 
L 384.431978 -563.529079 
L 380.353403 -562.932495 
L 376.274829 -558.704066 
L 372.196254 -550.891088 
L 368.117679 -539.629243 
L 364.039105 -525.139039 
L 359.96053 -507.718445 
L 355.881955 -487.732025 
L 351.803381 -465.597117 
L 347.724806 -441.767848 
L 343.646231 -416.717897 
L 339.567656 -390.923052 
L 335.489082 -364.844544 
L 331.410507 -338.914092 
L 327.331932 -313.52142 
L 323.253358 -289.004758 
L 319.174783 -265.644635 
L 315.096208 -243.660955 
L 311.017634 -223.213169 
L 306.939059 -204.403123 
L 302.860484 -187.280049 
L 298.78191 -171.847082 
L 294.703335 -158.068688 
L 290.62476 -145.878429 
L 286.546185 -135.186568 
L 282.467611 -125.887137 
L 278.389036 -117.864206 
L 274.310461 -110.997204 
L 270.231887 -105.165241 
L 266.153312 -100.250462 
L 262.074737 -96.140521 
L 257.996163 -92.73028 
L 253.917588 -89.922883 
L 249.839013 -87.630306 
L 245.760439 -85.773534 
L 241.681864 -84.282425 
L 237.603289 -83.095385 
L 233.524714 -82.158878 
L 229.44614 -81.426853 
L 225.367565 -80.860108 
L 221.28899 -80.425621 
L 217.210416 -80.095878 
L 213.131841 -79.848212 
L 209.053266 -79.664158 
L 204.974692 -79.528855 
L 200.896117 -79.430488 
L 196.817542 -79.359777 
L 192.738968 -79.309528 
L 188.660393 -79.274235 
L 184.581818 -79.249739 
z
" style="stroke: #0000ff"/>
    </defs>
    <g clip-path="url(#p78f5239925)">
     <use xlink:href="#m30d4990278" x="0" y="720" style="fill: #0000ff; fill-opacity: 0.8; stroke: #0000ff"/>
    </g>
   </g>
   <g id="PolyCollection_2">
    <defs>
     <path id="mede728d0d8" d="M 205.754494 -79.31073 
L 205.754494 -79.2 
L 209.688327 -79.2 
L 213.622161 -79.2 
L 217.555994 -79.2 
L 221.489827 -79.2 
L 225.423661 -79.2 
L 229.357494 -79.2 
L 233.291327 -79.2 
L 237.225161 -79.2 
L 241.158994 -79.2 
L 245.092827 -79.2 
L 249.026661 -79.2 
L 252.960494 -79.2 
L 256.894327 -79.2 
L 260.828161 -79.2 
L 264.761994 -79.2 
L 268.695827 -79.2 
L 272.629661 -79.2 
L 276.563494 -79.2 
L 280.497327 -79.2 
L 284.431161 -79.2 
L 288.364994 -79.2 
L 292.298827 -79.2 
L 296.232661 -79.2 
L 300.166494 -79.2 
L 304.100328 -79.2 
L 308.034161 -79.2 
L 311.967994 -79.2 
L 315.901828 -79.2 
L 319.835661 -79.2 
L 323.769494 -79.2 
L 327.703328 -79.2 
L 331.637161 -79.2 
L 335.570994 -79.2 
L 339.504828 -79.2 
L 343.438661 -79.2 
L 347.372494 -79.2 
L 351.306328 -79.2 
L 355.240161 -79.2 
L 359.173994 -79.2 
L 363.107828 -79.2 
L 367.041661 -79.2 
L 370.975494 -79.2 
L 374.909328 -79.2 
L 378.843161 -79.2 
L 382.776994 -79.2 
L 386.710828 -79.2 
L 390.644661 -79.2 
L 394.578494 -79.2 
L 398.512328 -79.2 
L 402.446161 -79.2 
L 406.379994 -79.2 
L 410.313828 -79.2 
L 414.247661 -79.2 
L 418.181495 -79.2 
L 422.115328 -79.2 
L 426.049161 -79.2 
L 429.982995 -79.2 
L 433.916828 -79.2 
L 437.850661 -79.2 
L 441.784495 -79.2 
L 445.718328 -79.2 
L 449.652161 -79.2 
L 453.585995 -79.2 
L 457.519828 -79.2 
L 461.453661 -79.2 
L 465.387495 -79.2 
L 469.321328 -79.2 
L 473.255161 -79.2 
L 477.188995 -79.2 
L 481.122828 -79.2 
L 485.056661 -79.2 
L 488.990495 -79.2 
L 492.924328 -79.2 
L 496.858161 -79.2 
L 500.791995 -79.2 
L 504.725828 -79.2 
L 508.659661 -79.2 
L 512.593495 -79.2 
L 516.527328 -79.2 
L 520.461161 -79.2 
L 524.394995 -79.2 
L 528.328828 -79.2 
L 532.262661 -79.2 
L 536.196495 -79.2 
L 540.130328 -79.2 
L 544.064162 -79.2 
L 547.997995 -79.2 
L 551.931828 -79.2 
L 555.865662 -79.2 
L 559.799495 -79.2 
L 563.733328 -79.2 
L 567.667162 -79.2 
L 571.600995 -79.2 
L 575.534828 -79.2 
L 579.468662 -79.2 
L 583.402495 -79.2 
L 587.336328 -79.2 
L 591.270162 -79.2 
L 595.203995 -79.2 
L 599.137828 -79.2 
L 603.071662 -79.2 
L 607.005495 -79.2 
L 610.939328 -79.2 
L 614.873162 -79.2 
L 618.806995 -79.2 
L 622.740828 -79.2 
L 626.674662 -79.2 
L 630.608495 -79.2 
L 634.542328 -79.2 
L 638.476162 -79.2 
L 642.409995 -79.2 
L 646.343828 -79.2 
L 650.277662 -79.2 
L 654.211495 -79.2 
L 658.145329 -79.2 
L 662.079162 -79.2 
L 666.012995 -79.2 
L 669.946829 -79.2 
L 673.880662 -79.2 
L 677.814495 -79.2 
L 681.748329 -79.2 
L 685.682162 -79.2 
L 689.615995 -79.2 
L 693.549829 -79.2 
L 697.483662 -79.2 
L 701.417495 -79.2 
L 705.351329 -79.2 
L 709.285162 -79.2 
L 713.218995 -79.2 
L 717.152829 -79.2 
L 721.086662 -79.2 
L 725.020495 -79.2 
L 728.954329 -79.2 
L 732.888162 -79.2 
L 736.821995 -79.2 
L 740.755829 -79.2 
L 744.689662 -79.2 
L 748.623495 -79.2 
L 752.557329 -79.2 
L 756.491162 -79.2 
L 760.424995 -79.2 
L 764.358829 -79.2 
L 768.292662 -79.2 
L 772.226496 -79.2 
L 776.160329 -79.2 
L 780.094162 -79.2 
L 784.027996 -79.2 
L 787.961829 -79.2 
L 791.895662 -79.2 
L 795.829496 -79.2 
L 799.763329 -79.2 
L 803.697162 -79.2 
L 807.630996 -79.2 
L 811.564829 -79.2 
L 815.498662 -79.2 
L 819.432496 -79.2 
L 823.366329 -79.2 
L 827.300162 -79.2 
L 831.233996 -79.2 
L 835.167829 -79.2 
L 839.101662 -79.2 
L 843.035496 -79.2 
L 846.969329 -79.2 
L 850.903162 -79.2 
L 854.836996 -79.2 
L 858.770829 -79.2 
L 862.704662 -79.2 
L 866.638496 -79.2 
L 870.572329 -79.2 
L 874.506162 -79.2 
L 878.439996 -79.2 
L 882.373829 -79.2 
L 886.307663 -79.2 
L 890.241496 -79.2 
L 894.175329 -79.2 
L 898.109163 -79.2 
L 902.042996 -79.2 
L 905.976829 -79.2 
L 909.910663 -79.2 
L 913.844496 -79.2 
L 917.778329 -79.2 
L 921.712163 -79.2 
L 925.645996 -79.2 
L 929.579829 -79.2 
L 933.513663 -79.2 
L 937.447496 -79.2 
L 941.381329 -79.2 
L 945.315163 -79.2 
L 949.248996 -79.2 
L 953.182829 -79.2 
L 957.116663 -79.2 
L 961.050496 -79.2 
L 964.984329 -79.2 
L 968.918163 -79.2 
L 972.851996 -79.2 
L 976.785829 -79.2 
L 980.719663 -79.2 
L 984.653496 -79.2 
L 988.587329 -79.2 
L 988.587329 -79.245932 
L 988.587329 -79.245932 
L 984.653496 -79.266854 
L 980.719663 -79.296091 
L 976.785829 -79.336401 
L 972.851996 -79.391229 
L 968.918163 -79.464804 
L 964.984329 -79.562211 
L 961.050496 -79.68944 
L 957.116663 -79.853396 
L 953.182829 -80.061856 
L 949.248996 -80.323361 
L 945.315163 -80.647034 
L 941.381329 -81.042327 
L 937.447496 -81.518677 
L 933.513663 -82.085102 
L 929.579829 -82.749736 
L 925.645996 -83.519322 
L 921.712163 -84.398711 
L 917.778329 -85.390368 
L 913.844496 -86.493949 
L 909.910663 -87.705963 
L 905.976829 -89.019553 
L 902.042996 -90.424419 
L 898.109163 -91.906898 
L 894.175329 -93.450195 
L 890.241496 -95.034772 
L 886.307663 -96.638869 
L 882.373829 -98.239135 
L 878.439996 -99.811354 
L 874.506162 -101.331221 
L 870.572329 -102.775156 
L 866.638496 -104.121114 
L 862.704662 -105.34938 
L 858.770829 -106.443317 
L 854.836996 -107.390047 
L 850.903162 -108.181035 
L 846.969329 -108.81256 
L 843.035496 -109.286048 
L 839.101662 -109.608235 
L 835.167829 -109.791141 
L 831.233996 -109.851843 
L 827.300162 -109.812044 
L 823.366329 -109.697426 
L 819.432496 -109.536818 
L 815.498662 -109.361209 
L 811.564829 -109.202641 
L 807.630996 -109.093039 
L 803.697162 -109.063029 
L 799.763329 -109.140822 
L 795.829496 -109.351189 
L 791.895662 -109.714609 
L 787.961829 -110.246607 
L 784.027996 -110.95732 
L 780.094162 -111.851289 
L 776.160329 -112.927502 
L 772.226496 -114.179637 
L 768.292662 -115.596515 
L 764.358829 -117.162706 
L 760.424995 -118.859249 
L 756.491162 -120.664465 
L 752.557329 -122.55479 
L 748.623495 -124.505618 
L 744.689662 -126.492098 
L 740.755829 -128.489878 
L 736.821995 -130.475759 
L 732.888162 -132.428258 
L 728.954329 -134.328065 
L 725.020495 -136.158388 
L 721.086662 -137.905195 
L 717.152829 -139.557329 
L 713.218995 -141.106519 
L 709.285162 -142.547267 
L 705.351329 -143.876629 
L 701.417495 -145.093887 
L 697.483662 -146.200133 
L 693.549829 -147.197791 
L 689.615995 -148.090109 
L 685.682162 -148.880664 
L 681.748329 -149.572921 
L 677.814495 -150.169906 
L 673.880662 -150.674006 
L 669.946829 -151.086951 
L 666.012995 -151.409944 
L 662.079162 -151.643969 
L 658.145329 -151.79019 
L 654.211495 -151.850422 
L 650.277662 -151.827577 
L 646.343828 -151.726025 
L 642.409995 -151.551797 
L 638.476162 -151.312565 
L 634.542328 -151.017397 
L 630.608495 -150.676251 
L 626.674662 -150.299272 
L 622.740828 -149.895925 
L 618.806995 -149.474075 
L 614.873162 -149.039087 
L 610.939328 -148.593076 
L 607.005495 -148.134378 
L 603.071662 -147.657337 
L 599.137828 -147.152454 
L 595.203995 -146.606905 
L 591.270162 -146.005415 
L 587.336328 -145.331432 
L 583.402495 -144.568507 
L 579.468662 -143.701783 
L 575.534828 -142.719472 
L 571.600995 -141.614203 
L 567.667162 -140.384154 
L 563.733328 -139.033872 
L 559.799495 -137.57476 
L 555.865662 -136.025207 
L 551.931828 -134.410403 
L 547.997995 -132.761886 
L 544.064162 -131.11692 
L 540.130328 -129.5178 
L 536.196495 -128.011199 
L 532.262661 -126.647643 
L 528.328828 -125.481232 
L 524.394995 -124.569631 
L 520.461161 -123.974392 
L 516.527328 -123.761584 
L 512.593495 -124.002684 
L 508.659661 -124.775643 
L 504.725828 -126.165995 
L 500.791995 -128.267848 
L 496.858161 -131.184558 
L 492.924328 -135.028883 
L 488.990495 -139.922393 
L 485.056661 -145.993938 
L 481.122828 -153.376999 
L 477.188995 -162.20581 
L 473.255161 -172.61019 
L 469.321328 -184.709157 
L 465.387495 -198.603458 
L 461.453661 -214.367299 
L 457.519828 -232.039638 
L 453.585995 -251.615535 
L 449.652161 -273.038097 
L 445.718328 -296.191615 
L 441.784495 -320.89647 
L 437.850661 -346.906368 
L 433.916828 -373.908342 
L 429.982995 -401.525847 
L 426.049161 -429.325106 
L 422.115328 -456.824668 
L 418.181495 -483.507966 
L 414.247661 -508.838442 
L 410.313828 -532.276656 
L 406.379994 -553.298643 
L 402.446161 -571.414681 
L 398.512328 -586.187551 
L 394.578494 -597.249406 
L 390.644661 -604.316355 
L 386.710828 -607.2 
L 382.776994 -605.815286 
L 378.843161 -600.184204 
L 374.909328 -590.435116 
L 370.975494 -576.797674 
L 367.041661 -559.593598 
L 363.107828 -539.223763 
L 359.173994 -516.152286 
L 355.240161 -490.888476 
L 351.306328 -463.967615 
L 347.372494 -435.931589 
L 343.438661 -407.310388 
L 339.504828 -378.605366 
L 335.570994 -350.275036 
L 331.637161 -322.723939 
L 327.703328 -296.294908 
L 323.769494 -271.264807 
L 319.835661 -247.843572 
L 315.901828 -226.176218 
L 311.967994 -206.347295 
L 308.034161 -188.387211 
L 304.100328 -172.27978 
L 300.166494 -157.970403 
L 296.232661 -145.374333 
L 292.298827 -134.384588 
L 288.364994 -124.87917 
L 284.431161 -116.727394 
L 280.497327 -109.795203 
L 276.563494 -103.949466 
L 272.629661 -99.061295 
L 268.695827 -95.00849 
L 264.761994 -91.677223 
L 260.828161 -88.963093 
L 256.894327 -86.771665 
L 252.960494 -85.018615 
L 249.026661 -83.629561 
L 245.092827 -82.539671 
L 241.158994 -81.693099 
L 237.225161 -81.042307 
L 233.291327 -80.547315 
L 229.357494 -80.174907 
L 225.423661 -79.897834 
L 221.489827 -79.694024 
L 217.555994 -79.545836 
L 213.622161 -79.439355 
L 209.688327 -79.363756 
L 205.754494 -79.31073 
z
" style="stroke: #00ffff"/>
    </defs>
    <g clip-path="url(#p78f5239925)">
     <use xlink:href="#mede728d0d8" x="0" y="720" style="fill: #00ffff; fill-opacity: 0.8; stroke: #00ffff"/>
    </g>
   </g>
   <g id="patch_3">
    <path d="M 144 640.8 
L 144 86.4 
" style="fill: none; stroke: #ffffff; stroke-width: 0.8; stroke-linejoin: miter; stroke-linecap: square"/>
   </g>
   <g id="patch_4">
    <path d="M 1036.8 640.8 
L 1036.8 86.4 
" style="fill: none; stroke: #ffffff; stroke-width: 0.8; stroke-linejoin: miter; stroke-linecap: square"/>
   </g>
   <g id="patch_5">
    <path d="M 144 640.8 
L 1036.8 640.8 
" style="fill: none; stroke: #ffffff; stroke-width: 0.8; stroke-linejoin: miter; stroke-linecap: square"/>
   </g>
   <g id="patch_6">
    <path d="M 144 86.4 
L 1036.8 86.4 
" style="fill: none; stroke: #ffffff; stroke-width: 0.8; stroke-linejoin: miter; stroke-linecap: square"/>
   </g>
   <g id="text_18">
    <!-- Распределение предсказаний и реальных данных (XGB) -->
    <g style="fill: #262626" transform="translate(300.352344 80.4) scale(0.22 -0.22)">
     <defs>
      <path id="ArialMT-420" d="M 494 0 
L 494 4581 
L 2222 4581 
Q 2678 4581 2919 4538 
Q 3256 4481 3484 4323 
Q 3713 4166 3852 3881 
Q 3991 3597 3991 3256 
Q 3991 2672 3619 2267 
Q 3247 1863 2275 1863 
L 1100 1863 
L 1100 0 
L 494 0 
z
M 1100 2403 
L 2284 2403 
Q 2872 2403 3119 2622 
Q 3366 2841 3366 3238 
Q 3366 3525 3220 3729 
Q 3075 3934 2838 4000 
Q 2684 4041 2272 4041 
L 1100 4041 
L 1100 2403 
z
" transform="scale(0.015625)"/>
      <path id="ArialMT-43f" d="M 425 3319 
L 3044 3319 
L 3044 0 
L 2481 0 
L 2481 2853 
L 988 2853 
L 988 0 
L 425 0 
L 425 3319 
z
" transform="scale(0.015625)"/>
      <path id="ArialMT-434" d="M 866 3319 
L 3178 3319 
L 3178 463 
L 3538 463 
L 3538 -941 
L 3075 -941 
L 3075 0 
L 463 0 
L 463 -941 
L 0 -941 
L 0 463 
L 297 463 
Q 891 1269 866 3319 
z
M 1334 2853 
Q 1272 1238 834 463 
L 2619 463 
L 2619 2853 
L 1334 2853 
z
" transform="scale(0.015625)"/>
      <path id="ArialMT-43a" d="M 419 3319 
L 981 3319 
L 981 1884 
Q 1250 1884 1358 1987 
Q 1466 2091 1675 2588 
Q 1841 2981 1944 3106 
Q 2047 3231 2181 3275 
Q 2316 3319 2613 3319 
L 2725 3319 
L 2725 2853 
L 2569 2856 
Q 2347 2856 2284 2791 
Q 2219 2722 2084 2381 
Q 1956 2056 1850 1931 
Q 1744 1806 1522 1703 
Q 1884 1606 2234 1028 
L 2850 0 
L 2231 0 
L 1631 1028 
Q 1447 1338 1309 1436 
Q 1172 1534 981 1534 
L 981 0 
L 419 0 
L 419 3319 
z
" transform="scale(0.015625)"/>
      <path id="ArialMT-437" d="M 1156 1500 
L 1156 1941 
Q 1513 1944 1642 1969 
Q 1772 1994 1887 2119 
Q 2003 2244 2003 2431 
Q 2003 2659 1851 2795 
Q 1700 2931 1459 2931 
Q 984 2931 794 2372 
L 259 2459 
Q 509 3394 1466 3394 
Q 1997 3394 2298 3103 
Q 2600 2813 2600 2409 
Q 2600 2003 2206 1763 
Q 2456 1628 2581 1420 
Q 2706 1213 2706 928 
Q 2706 481 2381 203 
Q 2056 -75 1472 -75 
Q 338 -75 156 934 
L 684 1047 
Q 756 728 976 553 
Q 1197 378 1481 378 
Q 1766 378 1955 539 
Q 2144 700 2144 950 
Q 2144 1144 2025 1287 
Q 1906 1431 1772 1467 
Q 1638 1503 1284 1503 
Q 1256 1503 1156 1500 
z
" transform="scale(0.015625)"/>
      <path id="ArialMT-439" d="M 422 3319 
L 984 3319 
L 984 788 
L 2544 3319 
L 3150 3319 
L 3150 0 
L 2588 0 
L 2588 2516 
L 1028 0 
L 422 0 
L 422 3319 
z
M 2374 4575 
L 2759 4575 
Q 2712 4184 2473 3975 
Q 2234 3766 1837 3766 
Q 1437 3766 1198 3973 
Q 959 4181 912 4575 
L 1296 4575 
Q 1340 4363 1469 4258 
Q 1599 4153 1818 4153 
Q 2071 4153 2201 4254 
Q 2331 4356 2374 4575 
z
" transform="scale(0.015625)"/>
      <path id="ArialMT-44b" d="M 3581 3319 
L 4144 3319 
L 4144 0 
L 3581 0 
L 3581 3319 
z
M 434 3319 
L 997 3319 
L 997 2022 
L 1709 2022 
Q 2406 2022 2782 1751 
Q 3159 1481 3159 1006 
Q 3159 591 2845 295 
Q 2531 0 1841 0 
L 434 0 
L 434 3319 
z
M 997 463 
L 1588 463 
Q 2122 463 2350 594 
Q 2578 725 2578 1003 
Q 2578 1219 2409 1387 
Q 2241 1556 1663 1556 
L 997 1556 
L 997 463 
z
" transform="scale(0.015625)"/>
      <path id="ArialMT-445" d="M 47 0 
L 1259 1725 
L 138 3319 
L 841 3319 
L 1350 2541 
Q 1494 2319 1581 2169 
Q 1719 2375 1834 2534 
L 2394 3319 
L 3066 3319 
L 1919 1756 
L 3153 0 
L 2463 0 
L 1781 1031 
L 1600 1309 
L 728 0 
L 47 0 
z
" transform="scale(0.015625)"/>
      <path id="ArialMT-28" d="M 1497 -1347 
Q 1031 -759 709 28 
Q 388 816 388 1659 
Q 388 2403 628 3084 
Q 909 3875 1497 4659 
L 1900 4659 
Q 1522 4009 1400 3731 
Q 1209 3300 1100 2831 
Q 966 2247 966 1656 
Q 966 153 1900 -1347 
L 1497 -1347 
z
" transform="scale(0.015625)"/>
      <path id="ArialMT-58" d="M 28 0 
L 1800 2388 
L 238 4581 
L 959 4581 
L 1791 3406 
Q 2050 3041 2159 2844 
Q 2313 3094 2522 3366 
L 3444 4581 
L 4103 4581 
L 2494 2422 
L 4228 0 
L 3478 0 
L 2325 1634 
Q 2228 1775 2125 1941 
Q 1972 1691 1906 1597 
L 756 0 
L 28 0 
z
" transform="scale(0.015625)"/>
      <path id="ArialMT-47" d="M 2638 1797 
L 2638 2334 
L 4578 2338 
L 4578 638 
Q 4131 281 3656 101 
Q 3181 -78 2681 -78 
Q 2006 -78 1454 211 
Q 903 500 622 1047 
Q 341 1594 341 2269 
Q 341 2938 620 3517 
Q 900 4097 1425 4378 
Q 1950 4659 2634 4659 
Q 3131 4659 3532 4498 
Q 3934 4338 4162 4050 
Q 4391 3763 4509 3300 
L 3963 3150 
Q 3859 3500 3706 3700 
Q 3553 3900 3268 4020 
Q 2984 4141 2638 4141 
Q 2222 4141 1919 4014 
Q 1616 3888 1430 3681 
Q 1244 3475 1141 3228 
Q 966 2803 966 2306 
Q 966 1694 1177 1281 
Q 1388 869 1791 669 
Q 2194 469 2647 469 
Q 3041 469 3416 620 
Q 3791 772 3984 944 
L 3984 1797 
L 2638 1797 
z
" transform="scale(0.015625)"/>
      <path id="ArialMT-42" d="M 469 0 
L 469 4581 
L 2188 4581 
Q 2713 4581 3030 4442 
Q 3347 4303 3526 4014 
Q 3706 3725 3706 3409 
Q 3706 3116 3547 2856 
Q 3388 2597 3066 2438 
Q 3481 2316 3704 2022 
Q 3928 1728 3928 1328 
Q 3928 1006 3792 729 
Q 3656 453 3456 303 
Q 3256 153 2954 76 
Q 2653 0 2216 0 
L 469 0 
z
M 1075 2656 
L 2066 2656 
Q 2469 2656 2644 2709 
Q 2875 2778 2992 2937 
Q 3109 3097 3109 3338 
Q 3109 3566 3000 3739 
Q 2891 3913 2687 3977 
Q 2484 4041 1991 4041 
L 1075 4041 
L 1075 2656 
z
M 1075 541 
L 2216 541 
Q 2509 541 2628 563 
Q 2838 600 2978 687 
Q 3119 775 3209 942 
Q 3300 1109 3300 1328 
Q 3300 1584 3169 1773 
Q 3038 1963 2805 2039 
Q 2572 2116 2134 2116 
L 1075 2116 
L 1075 541 
z
" transform="scale(0.015625)"/>
      <path id="ArialMT-29" d="M 791 -1347 
L 388 -1347 
Q 1322 153 1322 1656 
Q 1322 2244 1188 2822 
Q 1081 3291 891 3722 
Q 769 4003 388 4659 
L 791 4659 
Q 1378 3875 1659 3084 
Q 1900 2403 1900 1659 
Q 1900 816 1576 28 
Q 1253 -759 791 -1347 
z
" transform="scale(0.015625)"/>
     </defs>
     <use xlink:href="#ArialMT-420"/>
     <use xlink:href="#ArialMT-430" x="63.324219"/>
     <use xlink:href="#ArialMT-441" x="118.939453"/>
     <use xlink:href="#ArialMT-43f" x="168.939453"/>
     <use xlink:href="#ArialMT-440" x="223.089844"/>
     <use xlink:href="#ArialMT-435" x="278.705078"/>
     <use xlink:href="#ArialMT-434" x="332.070312"/>
     <use xlink:href="#ArialMT-435" x="390.419922"/>
     <use xlink:href="#ArialMT-43b" x="442.660156"/>
     <use xlink:href="#ArialMT-435" x="501.009766"/>
     <use xlink:href="#ArialMT-43d" x="556.625"/>
     <use xlink:href="#ArialMT-438" x="611.849609"/>
     <use xlink:href="#ArialMT-435" x="667.708984"/>
     <use xlink:href="#ArialMT-20" x="723.324219"/>
     <use xlink:href="#ArialMT-43f" x="751.107422"/>
     <use xlink:href="#ArialMT-440" x="805.257812"/>
     <use xlink:href="#ArialMT-435" x="860.873047"/>
     <use xlink:href="#ArialMT-434" x="914.238281"/>
     <use xlink:href="#ArialMT-441" x="972.587891"/>
     <use xlink:href="#ArialMT-43a" x="1022.587891"/>
     <use xlink:href="#ArialMT-430" x="1068.587891"/>
     <use xlink:href="#ArialMT-437" x="1123.078125"/>
     <use xlink:href="#ArialMT-430" x="1168.927734"/>
     <use xlink:href="#ArialMT-43d" x="1224.542969"/>
     <use xlink:href="#ArialMT-438" x="1279.767578"/>
     <use xlink:href="#ArialMT-439" x="1335.626953"/>
     <use xlink:href="#ArialMT-20" x="1391.486328"/>
     <use xlink:href="#ArialMT-438" x="1419.269531"/>
     <use xlink:href="#ArialMT-20" x="1475.128906"/>
     <use xlink:href="#ArialMT-440" x="1502.912109"/>
     <use xlink:href="#ArialMT-435" x="1558.527344"/>
     <use xlink:href="#ArialMT-430" x="1614.142578"/>
     <use xlink:href="#ArialMT-43b" x="1669.757812"/>
     <use xlink:href="#ArialMT-44c" x="1728.107422"/>
     <use xlink:href="#ArialMT-43d" x="1780.207031"/>
     <use xlink:href="#ArialMT-44b" x="1835.431641"/>
     <use xlink:href="#ArialMT-445" x="1907.306641"/>
     <use xlink:href="#ArialMT-20" x="1957.306641"/>
     <use xlink:href="#ArialMT-434" x="1985.089844"/>
     <use xlink:href="#ArialMT-430" x="2043.439453"/>
     <use xlink:href="#ArialMT-43d" x="2099.054688"/>
     <use xlink:href="#ArialMT-43d" x="2154.279297"/>
     <use xlink:href="#ArialMT-44b" x="2209.503906"/>
     <use xlink:href="#ArialMT-445" x="2281.378906"/>
     <use xlink:href="#ArialMT-20" x="2331.378906"/>
     <use xlink:href="#ArialMT-28" x="2359.162109"/>
     <use xlink:href="#ArialMT-58" x="2392.462891"/>
     <use xlink:href="#ArialMT-47" x="2459.162109"/>
     <use xlink:href="#ArialMT-42" x="2536.945312"/>
     <use xlink:href="#ArialMT-29" x="2603.644531"/>
    </g>
   </g>
   <g id="legend_1">
    <g id="patch_7">
     <path d="M 932.164062 122.690625 
L 1029.8 122.690625 
Q 1031.8 122.690625 1031.8 120.690625 
L 1031.8 93.4 
Q 1031.8 91.4 1029.8 91.4 
L 932.164062 91.4 
Q 930.164062 91.4 930.164062 93.4 
L 930.164062 120.690625 
Q 930.164062 122.690625 932.164062 122.690625 
z
" style="fill: #eaeaf2; opacity: 0.8; stroke: #cccccc; stroke-linejoin: miter"/>
    </g>
    <g id="patch_8">
     <path d="M 934.164062 102.557812 
L 954.164062 102.557812 
L 954.164062 95.557812 
L 934.164062 95.557812 
z
" style="fill: #0000ff; fill-opacity: 0.8; stroke: #0000ff; stroke-linejoin: miter"/>
    </g>
    <g id="text_19">
     <!-- Реальные -->
     <g style="fill: #262626" transform="translate(962.164062 102.557812) scale(0.1 -0.1)">
      <use xlink:href="#ArialMT-420"/>
      <use xlink:href="#ArialMT-435" x="62.324219"/>
      <use xlink:href="#ArialMT-430" x="117.939453"/>
      <use xlink:href="#ArialMT-43b" x="173.554688"/>
      <use xlink:href="#ArialMT-44c" x="231.904297"/>
      <use xlink:href="#ArialMT-43d" x="284.003906"/>
      <use xlink:href="#ArialMT-44b" x="339.228516"/>
      <use xlink:href="#ArialMT-435" x="411.103516"/>
     </g>
    </g>
    <g id="patch_9">
     <path d="M 934.164062 116.703125 
L 954.164062 116.703125 
L 954.164062 109.703125 
L 934.164062 109.703125 
z
" style="fill: #00ffff; fill-opacity: 0.8; stroke: #00ffff; stroke-linejoin: miter"/>
    </g>
    <g id="text_20">
     <!-- Предсказания -->
     <g style="fill: #262626" transform="translate(962.164062 116.703125) scale(0.1 -0.1)">
      <use xlink:href="#ArialMT-41f"/>
      <use xlink:href="#ArialMT-440" x="71.875"/>
      <use xlink:href="#ArialMT-435" x="127.490234"/>
      <use xlink:href="#ArialMT-434" x="180.855469"/>
      <use xlink:href="#ArialMT-441" x="239.205078"/>
      <use xlink:href="#ArialMT-43a" x="289.205078"/>
      <use xlink:href="#ArialMT-430" x="335.205078"/>
      <use xlink:href="#ArialMT-437" x="389.695312"/>
      <use xlink:href="#ArialMT-430" x="435.544922"/>
      <use xlink:href="#ArialMT-43d" x="491.160156"/>
      <use xlink:href="#ArialMT-438" x="546.384766"/>
      <use xlink:href="#ArialMT-44f" x="602.244141"/>
     </g>
    </g>
   </g>
  </g>
 </g>
 <defs>
  <clipPath id="p78f5239925">
   <rect x="144" y="86.4" width="892.8" height="554.4"/>
  </clipPath>
 </defs>
</svg>
