<?xml version="1.0" encoding="utf-8" standalone="no"?>
<!DOCTYPE svg PUBLIC "-//W3C//DTD SVG 1.1//EN"
  "http://www.w3.org/Graphics/SVG/1.1/DTD/svg11.dtd">
<svg xmlns:xlink="http://www.w3.org/1999/xlink" width="460.8pt" height="345.6pt" viewBox="0 0 460.8 345.6" xmlns="http://www.w3.org/2000/svg" version="1.1">
 <metadata>
  <rdf:RDF xmlns:dc="http://purl.org/dc/elements/1.1/" xmlns:cc="http://creativecommons.org/ns#" xmlns:rdf="http://www.w3.org/1999/02/22-rdf-syntax-ns#">
   <cc:Work>
    <dc:type rdf:resource="http://purl.org/dc/dcmitype/StillImage"/>
    <dc:date>2023-06-21T21:18:22.643263</dc:date>
    <dc:format>image/svg+xml</dc:format>
    <dc:creator>
     <cc:Agent>
      <dc:title>Matplotlib v3.7.1, https://matplotlib.org/</dc:title>
     </cc:Agent>
    </dc:creator>
   </cc:Work>
  </rdf:RDF>
 </metadata>
 <defs>
  <style type="text/css">*{stroke-linejoin: round; stroke-linecap: butt}</style>
 </defs>
 <g id="figure_1">
  <g id="patch_1">
   <path d="M 0 345.6 
L 460.8 345.6 
L 460.8 0 
L 0 0 
z
" style="fill: #ffffff"/>
  </g>
  <g id="axes_1">
   <g id="patch_2">
    <path d="M 57.6 307.584 
L 414.72 307.584 
L 414.72 41.472 
L 57.6 41.472 
z
" style="fill: #eaeaf2"/>
   </g>
   <g id="matplotlib.axis_1">
    <g id="xtick_1">
     <g id="line2d_1">
      <path d="M 73.832727 307.584 
L 73.832727 41.472 
" clip-path="url(#p5c9d8a0739)" style="fill: none; stroke: #ffffff; stroke-width: 0.8; stroke-linecap: round"/>
     </g>
     <g id="text_1">
      <!-- 0 -->
      <g style="fill: #262626" transform="translate(71.052259 321.741812) scale(0.1 -0.1)">
       <defs>
        <path id="ArialMT-30" d="M 266 2259 
Q 266 3072 433 3567 
Q 600 4063 929 4331 
Q 1259 4600 1759 4600 
Q 2128 4600 2406 4451 
Q 2684 4303 2865 4023 
Q 3047 3744 3150 3342 
Q 3253 2941 3253 2259 
Q 3253 1453 3087 958 
Q 2922 463 2592 192 
Q 2263 -78 1759 -78 
Q 1097 -78 719 397 
Q 266 969 266 2259 
z
M 844 2259 
Q 844 1131 1108 757 
Q 1372 384 1759 384 
Q 2147 384 2411 759 
Q 2675 1134 2675 2259 
Q 2675 3391 2411 3762 
Q 2147 4134 1753 4134 
Q 1366 4134 1134 3806 
Q 844 3388 844 2259 
z
" transform="scale(0.015625)"/>
       </defs>
       <use xlink:href="#ArialMT-30"/>
      </g>
     </g>
    </g>
    <g id="xtick_2">
     <g id="line2d_2">
      <path d="M 133.898323 307.584 
L 133.898323 41.472 
" clip-path="url(#p5c9d8a0739)" style="fill: none; stroke: #ffffff; stroke-width: 0.8; stroke-linecap: round"/>
     </g>
     <g id="text_2">
      <!-- 200 -->
      <g style="fill: #262626" transform="translate(125.556917 321.741812) scale(0.1 -0.1)">
       <defs>
        <path id="ArialMT-32" d="M 3222 541 
L 3222 0 
L 194 0 
Q 188 203 259 391 
Q 375 700 629 1000 
Q 884 1300 1366 1694 
Q 2113 2306 2375 2664 
Q 2638 3022 2638 3341 
Q 2638 3675 2398 3904 
Q 2159 4134 1775 4134 
Q 1369 4134 1125 3890 
Q 881 3647 878 3216 
L 300 3275 
Q 359 3922 746 4261 
Q 1134 4600 1788 4600 
Q 2447 4600 2831 4234 
Q 3216 3869 3216 3328 
Q 3216 3053 3103 2787 
Q 2991 2522 2730 2228 
Q 2469 1934 1863 1422 
Q 1356 997 1212 845 
Q 1069 694 975 541 
L 3222 541 
z
" transform="scale(0.015625)"/>
       </defs>
       <use xlink:href="#ArialMT-32"/>
       <use xlink:href="#ArialMT-30" x="55.615234"/>
       <use xlink:href="#ArialMT-30" x="111.230469"/>
      </g>
     </g>
    </g>
    <g id="xtick_3">
     <g id="line2d_3">
      <path d="M 193.963919 307.584 
L 193.963919 41.472 
" clip-path="url(#p5c9d8a0739)" style="fill: none; stroke: #ffffff; stroke-width: 0.8; stroke-linecap: round"/>
     </g>
     <g id="text_3">
      <!-- 400 -->
      <g style="fill: #262626" transform="translate(185.622513 321.741812) scale(0.1 -0.1)">
       <defs>
        <path id="ArialMT-34" d="M 2069 0 
L 2069 1097 
L 81 1097 
L 81 1613 
L 2172 4581 
L 2631 4581 
L 2631 1613 
L 3250 1613 
L 3250 1097 
L 2631 1097 
L 2631 0 
L 2069 0 
z
M 2069 1613 
L 2069 3678 
L 634 1613 
L 2069 1613 
z
" transform="scale(0.015625)"/>
       </defs>
       <use xlink:href="#ArialMT-34"/>
       <use xlink:href="#ArialMT-30" x="55.615234"/>
       <use xlink:href="#ArialMT-30" x="111.230469"/>
      </g>
     </g>
    </g>
    <g id="xtick_4">
     <g id="line2d_4">
      <path d="M 254.029515 307.584 
L 254.029515 41.472 
" clip-path="url(#p5c9d8a0739)" style="fill: none; stroke: #ffffff; stroke-width: 0.8; stroke-linecap: round"/>
     </g>
     <g id="text_4">
      <!-- 600 -->
      <g style="fill: #262626" transform="translate(245.688109 321.741812) scale(0.1 -0.1)">
       <defs>
        <path id="ArialMT-36" d="M 3184 3459 
L 2625 3416 
Q 2550 3747 2413 3897 
Q 2184 4138 1850 4138 
Q 1581 4138 1378 3988 
Q 1113 3794 959 3422 
Q 806 3050 800 2363 
Q 1003 2672 1297 2822 
Q 1591 2972 1913 2972 
Q 2475 2972 2870 2558 
Q 3266 2144 3266 1488 
Q 3266 1056 3080 686 
Q 2894 316 2569 119 
Q 2244 -78 1831 -78 
Q 1128 -78 684 439 
Q 241 956 241 2144 
Q 241 3472 731 4075 
Q 1159 4600 1884 4600 
Q 2425 4600 2770 4297 
Q 3116 3994 3184 3459 
z
M 888 1484 
Q 888 1194 1011 928 
Q 1134 663 1356 523 
Q 1578 384 1822 384 
Q 2178 384 2434 671 
Q 2691 959 2691 1453 
Q 2691 1928 2437 2201 
Q 2184 2475 1800 2475 
Q 1419 2475 1153 2201 
Q 888 1928 888 1484 
z
" transform="scale(0.015625)"/>
       </defs>
       <use xlink:href="#ArialMT-36"/>
       <use xlink:href="#ArialMT-30" x="55.615234"/>
       <use xlink:href="#ArialMT-30" x="111.230469"/>
      </g>
     </g>
    </g>
    <g id="xtick_5">
     <g id="line2d_5">
      <path d="M 314.095111 307.584 
L 314.095111 41.472 
" clip-path="url(#p5c9d8a0739)" style="fill: none; stroke: #ffffff; stroke-width: 0.8; stroke-linecap: round"/>
     </g>
     <g id="text_5">
      <!-- 800 -->
      <g style="fill: #262626" transform="translate(305.753704 321.741812) scale(0.1 -0.1)">
       <defs>
        <path id="ArialMT-38" d="M 1131 2484 
Q 781 2613 612 2850 
Q 444 3088 444 3419 
Q 444 3919 803 4259 
Q 1163 4600 1759 4600 
Q 2359 4600 2725 4251 
Q 3091 3903 3091 3403 
Q 3091 3084 2923 2848 
Q 2756 2613 2416 2484 
Q 2838 2347 3058 2040 
Q 3278 1734 3278 1309 
Q 3278 722 2862 322 
Q 2447 -78 1769 -78 
Q 1091 -78 675 323 
Q 259 725 259 1325 
Q 259 1772 486 2073 
Q 713 2375 1131 2484 
z
M 1019 3438 
Q 1019 3113 1228 2906 
Q 1438 2700 1772 2700 
Q 2097 2700 2305 2904 
Q 2513 3109 2513 3406 
Q 2513 3716 2298 3927 
Q 2084 4138 1766 4138 
Q 1444 4138 1231 3931 
Q 1019 3725 1019 3438 
z
M 838 1322 
Q 838 1081 952 856 
Q 1066 631 1291 507 
Q 1516 384 1775 384 
Q 2178 384 2440 643 
Q 2703 903 2703 1303 
Q 2703 1709 2433 1975 
Q 2163 2241 1756 2241 
Q 1359 2241 1098 1978 
Q 838 1716 838 1322 
z
" transform="scale(0.015625)"/>
       </defs>
       <use xlink:href="#ArialMT-38"/>
       <use xlink:href="#ArialMT-30" x="55.615234"/>
       <use xlink:href="#ArialMT-30" x="111.230469"/>
      </g>
     </g>
    </g>
    <g id="xtick_6">
     <g id="line2d_6">
      <path d="M 374.160706 307.584 
L 374.160706 41.472 
" clip-path="url(#p5c9d8a0739)" style="fill: none; stroke: #ffffff; stroke-width: 0.8; stroke-linecap: round"/>
     </g>
     <g id="text_6">
      <!-- 1000 -->
      <g style="fill: #262626" transform="translate(363.038831 321.741812) scale(0.1 -0.1)">
       <defs>
        <path id="ArialMT-31" d="M 2384 0 
L 1822 0 
L 1822 3584 
Q 1619 3391 1289 3197 
Q 959 3003 697 2906 
L 697 3450 
Q 1169 3672 1522 3987 
Q 1875 4303 2022 4600 
L 2384 4600 
L 2384 0 
z
" transform="scale(0.015625)"/>
       </defs>
       <use xlink:href="#ArialMT-31"/>
       <use xlink:href="#ArialMT-30" x="55.615234"/>
       <use xlink:href="#ArialMT-30" x="111.230469"/>
       <use xlink:href="#ArialMT-30" x="166.845703"/>
      </g>
     </g>
    </g>
   </g>
   <g id="matplotlib.axis_2">
    <g id="ytick_1">
     <g id="line2d_7">
      <path d="M 57.6 268.912013 
L 414.72 268.912013 
" clip-path="url(#p5c9d8a0739)" style="fill: none; stroke: #ffffff; stroke-width: 0.8; stroke-linecap: round"/>
     </g>
     <g id="text_7">
      <!-- 300 -->
      <g style="fill: #262626" transform="translate(33.917187 272.490919) scale(0.1 -0.1)">
       <defs>
        <path id="ArialMT-33" d="M 269 1209 
L 831 1284 
Q 928 806 1161 595 
Q 1394 384 1728 384 
Q 2125 384 2398 659 
Q 2672 934 2672 1341 
Q 2672 1728 2419 1979 
Q 2166 2231 1775 2231 
Q 1616 2231 1378 2169 
L 1441 2663 
Q 1497 2656 1531 2656 
Q 1891 2656 2178 2843 
Q 2466 3031 2466 3422 
Q 2466 3731 2256 3934 
Q 2047 4138 1716 4138 
Q 1388 4138 1169 3931 
Q 950 3725 888 3313 
L 325 3413 
Q 428 3978 793 4289 
Q 1159 4600 1703 4600 
Q 2078 4600 2393 4439 
Q 2709 4278 2876 4000 
Q 3044 3722 3044 3409 
Q 3044 3113 2884 2869 
Q 2725 2625 2413 2481 
Q 2819 2388 3044 2092 
Q 3269 1797 3269 1353 
Q 3269 753 2831 336 
Q 2394 -81 1725 -81 
Q 1122 -81 723 278 
Q 325 638 269 1209 
z
" transform="scale(0.015625)"/>
       </defs>
       <use xlink:href="#ArialMT-33"/>
       <use xlink:href="#ArialMT-30" x="55.615234"/>
       <use xlink:href="#ArialMT-30" x="111.230469"/>
      </g>
     </g>
    </g>
    <g id="ytick_2">
     <g id="line2d_8">
      <path d="M 57.6 216.246493 
L 414.72 216.246493 
" clip-path="url(#p5c9d8a0739)" style="fill: none; stroke: #ffffff; stroke-width: 0.8; stroke-linecap: round"/>
     </g>
     <g id="text_8">
      <!-- 350 -->
      <g style="fill: #262626" transform="translate(33.917187 219.825399) scale(0.1 -0.1)">
       <defs>
        <path id="ArialMT-35" d="M 266 1200 
L 856 1250 
Q 922 819 1161 601 
Q 1400 384 1738 384 
Q 2144 384 2425 690 
Q 2706 997 2706 1503 
Q 2706 1984 2436 2262 
Q 2166 2541 1728 2541 
Q 1456 2541 1237 2417 
Q 1019 2294 894 2097 
L 366 2166 
L 809 4519 
L 3088 4519 
L 3088 3981 
L 1259 3981 
L 1013 2750 
Q 1425 3038 1878 3038 
Q 2478 3038 2890 2622 
Q 3303 2206 3303 1553 
Q 3303 931 2941 478 
Q 2500 -78 1738 -78 
Q 1113 -78 717 272 
Q 322 622 266 1200 
z
" transform="scale(0.015625)"/>
       </defs>
       <use xlink:href="#ArialMT-33"/>
       <use xlink:href="#ArialMT-35" x="55.615234"/>
       <use xlink:href="#ArialMT-30" x="111.230469"/>
      </g>
     </g>
    </g>
    <g id="ytick_3">
     <g id="line2d_9">
      <path d="M 57.6 163.580972 
L 414.72 163.580972 
" clip-path="url(#p5c9d8a0739)" style="fill: none; stroke: #ffffff; stroke-width: 0.8; stroke-linecap: round"/>
     </g>
     <g id="text_9">
      <!-- 400 -->
      <g style="fill: #262626" transform="translate(33.917187 167.159879) scale(0.1 -0.1)">
       <use xlink:href="#ArialMT-34"/>
       <use xlink:href="#ArialMT-30" x="55.615234"/>
       <use xlink:href="#ArialMT-30" x="111.230469"/>
      </g>
     </g>
    </g>
    <g id="ytick_4">
     <g id="line2d_10">
      <path d="M 57.6 110.915452 
L 414.72 110.915452 
" clip-path="url(#p5c9d8a0739)" style="fill: none; stroke: #ffffff; stroke-width: 0.8; stroke-linecap: round"/>
     </g>
     <g id="text_10">
      <!-- 450 -->
      <g style="fill: #262626" transform="translate(33.917187 114.494358) scale(0.1 -0.1)">
       <use xlink:href="#ArialMT-34"/>
       <use xlink:href="#ArialMT-35" x="55.615234"/>
       <use xlink:href="#ArialMT-30" x="111.230469"/>
      </g>
     </g>
    </g>
    <g id="ytick_5">
     <g id="line2d_11">
      <path d="M 57.6 58.249932 
L 414.72 58.249932 
" clip-path="url(#p5c9d8a0739)" style="fill: none; stroke: #ffffff; stroke-width: 0.8; stroke-linecap: round"/>
     </g>
     <g id="text_11">
      <!-- 500 -->
      <g style="fill: #262626" transform="translate(33.917187 61.828838) scale(0.1 -0.1)">
       <use xlink:href="#ArialMT-35"/>
       <use xlink:href="#ArialMT-30" x="55.615234"/>
       <use xlink:href="#ArialMT-30" x="111.230469"/>
      </g>
     </g>
    </g>
   </g>
   <g id="line2d_12">
    <path d="M 73.832727 258.718448 
L 74.133055 274.357954 
L 74.733711 249.935947 
L 75.034039 245.08933 
L 75.334367 253.889173 
L 75.634695 244.195928 
L 76.535679 185.44267 
L 76.836007 132.847561 
L 77.136335 124.300428 
L 77.436663 157.82136 
L 77.736991 155.287467 
L 78.037319 154.518803 
L 78.337647 150.884829 
L 78.637975 143.761729 
L 78.938303 141.313366 
L 79.238631 139.855309 
L 79.538959 136.622156 
L 79.839287 131.081896 
L 80.139615 86.133497 
L 80.439943 83.020813 
L 80.740271 117.201862 
L 81.040599 111.521882 
L 81.340927 120.914669 
L 81.641255 122.768942 
L 81.941583 105.639579 
L 82.241911 78.03237 
L 82.542239 61.948524 
L 82.842567 66.368249 
L 83.142895 102.199015 
L 83.443223 179.41929 
L 83.743551 213.319724 
L 84.043879 184.559228 
L 84.344207 134.690476 
L 84.644535 144.489582 
L 84.944863 158.357874 
L 85.24519 149.03577 
L 85.545518 113.189221 
L 85.845846 157.058049 
L 86.146174 163.323496 
L 86.446502 175.901423 
L 86.74683 219.580974 
L 87.047158 225.339983 
L 87.347486 246.160127 
L 87.647814 220.281778 
L 88.24847 258.334882 
L 88.548798 254.189364 
L 88.849126 253.855513 
L 89.449782 183.171774 
L 89.75011 113.136904 
L 90.050438 98.59792 
L 90.651094 151.138623 
L 90.951422 110.028292 
L 91.25175 153.709061 
L 91.552078 144.28095 
L 91.852406 157.948927 
L 92.152734 127.976238 
L 92.75339 106.565866 
L 93.053718 55.493985 
L 93.354046 59.627879 
L 93.654374 100.094194 
L 93.954702 119.743645 
L 94.25503 58.126092 
L 94.555358 75.221336 
L 94.855686 100.152978 
L 95.156014 71.182318 
L 95.456342 71.971659 
L 95.75667 114.947464 
L 96.056998 109.359401 
L 96.357326 97.809128 
L 96.657654 141.131291 
L 96.957982 166.1532 
L 97.25831 152.145109 
L 97.858966 187.365752 
L 98.159294 204.477842 
L 98.459622 168.145316 
L 99.060278 225.909455 
L 99.360605 200.703177 
L 99.660933 187.812567 
L 99.961261 183.570283 
L 100.261589 188.428925 
L 100.561917 199.408618 
L 100.862245 171.909784 
L 101.162573 127.511864 
L 101.462901 164.057054 
L 101.763229 175.411666 
L 102.063557 195.825685 
L 102.363885 180.609617 
L 102.664213 154.602057 
L 102.964541 217.871265 
L 103.264869 223.847098 
L 103.565197 218.566136 
L 103.865525 177.300726 
L 104.165853 226.884593 
L 104.466181 253.29319 
L 104.766509 244.389649 
L 105.066837 259.165394 
L 105.367165 239.615489 
L 106.268149 213.719813 
L 106.568477 266.330234 
L 106.868805 250.413441 
L 107.169133 256.071617 
L 107.469461 266.624848 
L 107.769789 257.530794 
L 108.070117 272.540631 
L 108.370445 266.624964 
L 108.670773 244.055777 
L 108.971101 248.423301 
L 109.271429 269.535215 
L 109.571757 251.430296 
L 109.872085 255.420203 
L 110.172413 253.046694 
L 110.472741 261.446567 
L 110.773069 263.806662 
L 111.073397 261.578192 
L 111.373725 262.661231 
L 111.674053 262.822607 
L 111.974381 269.069267 
L 112.274709 278.216781 
L 112.575037 281.487556 
L 112.875365 263.888029 
L 113.175693 260.918514 
L 113.476021 260.988127 
L 114.076676 272.321332 
L 114.377004 261.468306 
L 114.677332 279.170532 
L 114.97766 262.999233 
L 115.277988 277.532702 
L 115.578316 275.25374 
L 115.878644 250.619166 
L 116.178972 260.635721 
L 116.4793 261.34486 
L 116.779628 240.662436 
L 117.079956 243.812394 
L 117.680612 257.419191 
L 117.98094 243.981844 
L 118.281268 241.71509 
L 118.581596 262.74992 
L 118.881924 265.104385 
L 119.182252 269.408476 
L 119.48258 263.665589 
L 119.782908 269.648497 
L 120.083236 266.416027 
L 120.383564 269.213539 
L 120.683892 265.598698 
L 120.98422 255.893155 
L 121.284548 250.675228 
L 121.584876 247.452285 
L 121.885204 269.159312 
L 122.185532 270.991462 
L 122.48586 271.700325 
L 123.687172 266.311628 
L 123.9875 254.307358 
L 124.287828 254.379545 
L 124.588156 252.946631 
L 124.888484 260.451258 
L 125.188812 262.600993 
L 125.48914 268.472218 
L 126.390124 258.092326 
L 126.690452 261.054009 
L 126.99078 261.738087 
L 127.591436 265.135391 
L 127.891764 271.143023 
L 128.492419 266.702226 
L 128.792747 266.651914 
L 129.093075 267.654445 
L 129.393403 269.220206 
L 129.693731 269.710586 
L 129.994059 279.669253 
L 130.294387 270.762023 
L 130.594715 277.32047 
L 130.895043 271.184638 
L 131.195371 274.384785 
L 131.495699 278.776668 
L 131.796027 270.796366 
L 132.096355 259.07828 
L 132.697011 271.480567 
L 132.997339 260.768408 
L 133.597995 246.134935 
L 133.898323 258.125295 
L 134.198651 259.683095 
L 134.498979 246.111659 
L 134.799307 261.759032 
L 135.099635 269.079481 
L 135.399963 266.26775 
L 135.700291 262.086143 
L 136.300947 265.250298 
L 136.601275 270.743737 
L 136.901603 266.240162 
L 137.201931 273.551178 
L 137.502259 265.579206 
L 137.802587 266.664037 
L 138.102915 274.389043 
L 138.403243 273.043449 
L 138.703571 266.479091 
L 139.003899 266.149346 
L 139.304227 274.453589 
L 139.604555 266.732108 
L 139.904883 270.831765 
L 140.205211 287.828936 
L 140.505539 286.645677 
L 140.805867 293.964526 
L 141.106195 295.488 
L 141.706851 292.740063 
L 142.007179 287.654105 
L 142.307507 287.432909 
L 142.607834 284.501302 
L 142.908162 288.347286 
L 143.20849 278.83137 
L 143.508818 284.933863 
L 143.809146 285.646501 
L 144.109474 286.009202 
L 144.409802 284.95498 
L 144.71013 284.314082 
L 145.010458 276.763563 
L 145.310786 285.052035 
L 145.611114 283.596611 
L 145.911442 281.001428 
L 146.21177 285.966217 
L 146.512098 282.10007 
L 146.812426 259.249741 
L 147.112754 268.783761 
L 147.413082 269.043083 
L 147.71341 267.159446 
L 148.013738 282.430666 
L 148.314066 282.893809 
L 148.614394 282.701846 
L 148.914722 283.989304 
L 149.21505 284.393411 
L 149.815706 277.112607 
L 150.116034 264.270029 
L 150.416362 268.969396 
L 150.71669 266.309387 
L 151.017018 272.062584 
L 151.317346 261.61169 
L 151.617674 258.514597 
L 152.21833 265.65396 
L 152.518658 254.528342 
L 152.818986 260.481478 
L 153.119314 258.283779 
L 153.419642 263.283541 
L 153.71997 264.801027 
L 154.020298 262.351409 
L 154.320626 261.868373 
L 154.921282 256.518079 
L 155.22161 265.435092 
L 155.521938 259.289079 
L 156.122594 271.065834 
L 156.422922 265.501224 
L 156.72325 266.674844 
L 157.023577 265.941255 
L 157.323905 275.136682 
L 157.624233 266.991079 
L 157.924561 262.132273 
L 158.224889 261.716804 
L 158.525217 249.372282 
L 158.825545 244.020873 
L 159.125873 235.055396 
L 159.426201 200.672057 
L 159.726529 147.095965 
L 160.026857 122.540808 
L 160.627513 195.233473 
L 160.927841 168.542598 
L 161.228169 123.887072 
L 161.528497 131.208446 
L 161.828825 171.625048 
L 162.129153 170.454729 
L 162.429481 175.418189 
L 162.729809 166.49353 
L 163.030137 184.429943 
L 163.330465 173.115423 
L 163.630793 154.956116 
L 164.231449 177.970288 
L 164.531777 176.296698 
L 164.832105 186.719931 
L 165.132433 183.401329 
L 165.432761 177.295145 
L 165.733089 111.978045 
L 166.634073 142.554054 
L 166.934401 55.079035 
L 167.234729 119.931888 
L 167.535057 149.031615 
L 167.835385 135.407907 
L 168.135713 112.678472 
L 168.436041 123.555687 
L 168.736369 130.027717 
L 169.036697 130.177115 
L 169.337025 126.572597 
L 169.637353 105.637708 
L 169.937681 114.404494 
L 170.238009 128.612775 
L 170.838665 175.935845 
L 171.138993 142.647912 
L 171.739648 179.277861 
L 172.039976 158.214077 
L 172.340304 185.800212 
L 172.640632 181.28282 
L 172.94096 184.180747 
L 173.241288 177.562719 
L 173.541616 151.773533 
L 174.142272 178.602801 
L 174.4426 118.646743 
L 174.742928 130.677993 
L 175.043256 148.212457 
L 175.343584 138.130203 
L 175.94424 157.76249 
L 176.244568 160.12409 
L 176.544896 149.262453 
L 176.845224 151.460543 
L 177.145552 148.456468 
L 177.44588 151.100957 
L 177.746208 148.5025 
L 178.046536 155.530809 
L 178.647192 160.422414 
L 178.94752 114.690563 
L 179.247848 141.58917 
L 179.548176 124.835846 
L 179.848504 117.016347 
L 180.148832 70.802348 
L 180.44916 66.735393 
L 180.749488 90.264838 
L 181.049816 96.786892 
L 181.350144 76.474924 
L 181.650472 74.716206 
L 181.9508 78.548416 
L 182.551456 124.640287 
L 182.851784 139.374674 
L 183.152112 177.190661 
L 183.45244 140.969131 
L 183.752768 217.761704 
L 184.053096 250.827941 
L 184.353424 249.503969 
L 184.95408 264.570677 
L 185.254408 268.077879 
L 185.554736 269.785115 
L 185.855063 265.207296 
L 186.155391 265.071412 
L 186.455719 266.114475 
L 186.756047 251.570874 
L 187.056375 265.85683 
L 187.356703 264.034287 
L 187.657031 264.103305 
L 187.957359 257.793774 
L 188.257687 237.242986 
L 188.558015 253.701033 
L 188.858343 259.505094 
L 189.158671 256.868059 
L 189.458999 258.033963 
L 189.759327 264.226482 
L 190.059655 257.80643 
L 190.359983 263.869617 
L 190.660311 245.727552 
L 190.960639 236.528065 
L 191.561295 262.583326 
L 191.861623 246.180517 
L 192.161951 262.416976 
L 192.462279 245.627564 
L 192.762607 235.754469 
L 193.062935 260.339774 
L 193.363263 261.664452 
L 193.963919 252.406138 
L 194.264247 273.552577 
L 194.564575 275.465155 
L 194.864903 271.147834 
L 195.165231 279.039902 
L 195.465559 282.898143 
L 195.765887 279.348162 
L 196.066215 274.10799 
L 196.366543 282.384674 
L 196.666871 275.574193 
L 196.967199 271.658261 
L 197.267527 262.517206 
L 197.567855 266.780204 
L 197.868183 264.962428 
L 198.168511 235.830581 
L 198.468839 232.265062 
L 198.769167 247.685035 
L 199.069495 243.704548 
L 199.369823 256.784839 
L 199.670151 228.624726 
L 200.270806 257.153022 
L 200.571134 252.81975 
L 200.871462 259.300128 
L 201.472118 261.305001 
L 201.772446 255.575593 
L 202.072774 255.879621 
L 202.373102 255.03444 
L 202.67343 254.866499 
L 202.973758 261.100914 
L 203.274086 252.701848 
L 203.574414 254.684768 
L 203.874742 261.612584 
L 204.17507 250.592419 
L 204.775726 253.843316 
L 205.076054 254.991436 
L 205.376382 235.080563 
L 205.67671 254.45515 
L 205.977038 254.902588 
L 206.277366 257.57639 
L 206.878022 249.525201 
L 207.17835 252.689465 
L 207.478678 253.158226 
L 207.779006 254.691618 
L 208.079334 256.877826 
L 208.379662 251.945113 
L 208.67999 231.529165 
L 208.980318 252.502904 
L 209.280646 243.058417 
L 209.580974 238.584438 
L 209.881302 240.239076 
L 210.481958 250.496946 
L 210.782286 237.209993 
L 211.082614 236.606907 
L 211.382942 258.092577 
L 211.983598 256.312249 
L 212.283926 252.062078 
L 212.584254 257.493026 
L 212.884582 257.520228 
L 213.18491 254.424602 
L 213.485238 258.095571 
L 213.785566 256.351627 
L 214.386222 248.351686 
L 214.686549 256.294324 
L 214.986877 252.883692 
L 215.287205 247.861497 
L 215.587533 249.043847 
L 215.887861 251.987147 
L 216.188189 247.256959 
L 216.788845 260.49326 
L 217.089173 262.960021 
L 217.389501 258.026668 
L 217.689829 257.247609 
L 217.990157 253.893798 
L 218.290485 245.508432 
L 218.590813 244.033554 
L 218.891141 247.197823 
L 219.191469 257.857764 
L 219.491797 246.396064 
L 219.792125 256.464413 
L 220.092453 261.07105 
L 220.693109 253.548663 
L 220.993437 263.102116 
L 221.293765 258.830695 
L 221.594093 257.049041 
L 221.894421 264.331127 
L 222.495077 259.329858 
L 222.795405 256.453568 
L 223.095733 244.762155 
L 223.696389 237.070145 
L 223.996717 238.862724 
L 224.597373 245.393757 
L 224.897701 243.079048 
L 225.198029 242.784383 
L 225.498357 241.583631 
L 225.798685 255.35225 
L 226.099013 253.316194 
L 226.399341 249.240177 
L 226.699669 253.029448 
L 226.999997 251.803913 
L 227.300325 248.226963 
L 227.600653 246.987299 
L 227.900981 261.688378 
L 228.201309 262.239911 
L 228.501637 264.962697 
L 228.801965 256.830364 
L 229.102292 262.487534 
L 229.702948 252.853703 
L 230.003276 264.088877 
L 230.303604 265.538541 
L 230.603932 265.436999 
L 230.90426 264.035234 
L 231.204588 268.352882 
L 231.504916 268.621978 
L 231.805244 265.035593 
L 232.105572 268.170356 
L 232.4059 266.365013 
L 232.706228 267.289563 
L 233.006556 267.132987 
L 233.306884 265.218976 
L 233.607212 260.662964 
L 233.90754 263.777985 
L 234.207868 259.40572 
L 234.808524 267.471083 
L 235.40918 247.956441 
L 235.709508 257.019446 
L 236.009836 235.37329 
L 236.310164 246.867921 
L 236.610492 249.241465 
L 236.91082 247.607567 
L 237.211148 266.412637 
L 237.511476 267.371319 
L 237.811804 265.863848 
L 238.112132 262.877033 
L 238.41246 271.726668 
L 238.712788 267.236764 
L 239.013116 273.676486 
L 239.313444 270.285859 
L 239.613772 272.517268 
L 239.9141 258.150953 
L 240.214428 271.898108 
L 240.514756 270.582628 
L 240.815084 272.487313 
L 241.115412 262.042047 
L 241.41574 271.176152 
L 241.716068 271.68807 
L 242.016396 267.847772 
L 242.316724 266.163651 
L 242.617052 260.143339 
L 242.91738 268.16611 
L 243.217708 264.920181 
L 243.518035 263.024595 
L 243.818363 266.987701 
L 244.118691 265.400763 
L 244.419019 267.574271 
L 244.719347 268.703185 
L 245.320003 264.174309 
L 245.620331 263.547445 
L 245.920659 259.639861 
L 246.220987 250.483076 
L 246.521315 246.176164 
L 246.821643 251.348654 
L 247.121971 242.430899 
L 247.422299 258.602708 
L 247.722627 260.36713 
L 248.022955 253.120426 
L 248.323283 253.374511 
L 248.623611 256.324614 
L 248.923939 245.425221 
L 249.224267 239.147758 
L 249.824923 160.930325 
L 250.125251 189.257238 
L 250.425579 195.876474 
L 250.725907 182.726392 
L 251.026235 197.712987 
L 251.626891 181.234844 
L 251.927219 184.070589 
L 252.227547 184.095229 
L 252.527875 196.869864 
L 252.828203 144.879527 
L 253.128531 163.157513 
L 253.428859 163.210992 
L 253.729187 170.435969 
L 254.029515 166.078362 
L 254.329843 167.986891 
L 254.630171 189.019259 
L 254.930499 185.596736 
L 255.230827 152.711482 
L 255.531155 132.505397 
L 255.831483 136.167776 
L 256.131811 76.880595 
L 256.432139 76.310182 
L 256.732467 92.676416 
L 257.333123 70.800318 
L 257.633451 62.535953 
L 257.933778 78.592538 
L 258.234106 53.568 
L 258.534434 136.799284 
L 258.834762 125.142893 
L 259.13509 174.878771 
L 259.435418 177.692202 
L 259.735746 174.003516 
L 260.036074 193.410856 
L 260.336402 190.809332 
L 260.63673 172.782712 
L 260.937058 213.012181 
L 261.537714 230.724671 
L 261.838042 229.52375 
L 262.13837 221.511034 
L 262.438698 218.314309 
L 262.739026 232.765525 
L 263.039354 220.160878 
L 263.339682 215.609184 
L 263.64001 218.403692 
L 264.240666 238.693299 
L 264.540994 245.503452 
L 264.841322 228.289335 
L 265.742306 254.524363 
L 266.042634 255.443874 
L 266.342962 208.523672 
L 266.64329 239.921714 
L 266.943618 252.667088 
L 267.243946 251.80782 
L 267.544274 251.912147 
L 267.844602 250.657159 
L 268.14493 232.730683 
L 268.445258 227.941494 
L 268.745586 229.691047 
L 269.045914 242.485627 
L 269.346242 233.380694 
L 269.64657 244.513268 
L 269.946898 235.292538 
L 270.247226 246.65336 
L 270.547554 245.392064 
L 270.847882 258.79629 
L 271.14821 262.81937 
L 271.448538 262.176685 
L 271.748866 244.880557 
L 272.049194 236.328384 
L 272.649849 272.842902 
L 272.950177 258.528905 
L 273.250505 259.56001 
L 273.851161 267.780634 
L 274.151489 265.970783 
L 274.451817 256.651472 
L 274.752145 265.53759 
L 275.052473 253.263502 
L 275.352801 261.489427 
L 275.653129 259.41315 
L 276.253785 260.323849 
L 276.854441 252.587921 
L 277.154769 215.329449 
L 277.455097 262.683955 
L 277.755425 279.881994 
L 278.055753 281.392964 
L 278.656409 275.996272 
L 278.956737 269.311069 
L 279.257065 285.362398 
L 279.557393 277.863898 
L 280.158049 273.535264 
L 280.458377 256.201096 
L 280.758705 254.136123 
L 281.059033 256.917334 
L 281.359361 251.3497 
L 281.659689 249.842005 
L 281.960017 249.372484 
L 282.260345 256.489974 
L 282.560673 254.932502 
L 282.861001 243.839217 
L 283.161329 241.683922 
L 283.761985 262.925929 
L 284.062313 264.740802 
L 284.362641 264.521706 
L 284.662969 260.306437 
L 284.963297 268.767288 
L 285.263625 260.979193 
L 285.864281 268.089213 
L 286.164609 268.292869 
L 286.464937 264.637528 
L 286.765264 271.10035 
L 287.065592 266.58763 
L 287.36592 269.44211 
L 287.666248 265.84282 
L 287.966576 243.553391 
L 288.266904 232.151699 
L 288.567232 239.67432 
L 288.86756 244.118944 
L 289.167888 238.8998 
L 289.468216 247.271244 
L 289.768544 242.221495 
L 290.068872 239.273864 
L 290.3692 241.435834 
L 290.669528 238.947128 
L 290.969856 242.699884 
L 291.570512 252.872884 
L 291.87084 243.224315 
L 292.171168 247.295426 
L 292.471496 242.169596 
L 292.771824 241.128766 
L 293.072152 248.938244 
L 293.37248 250.028841 
L 293.672808 247.928413 
L 293.973136 249.88242 
L 294.273464 241.548376 
L 294.87412 236.77821 
L 295.174448 235.351023 
L 295.474776 230.289475 
L 295.775104 229.126845 
L 296.075432 240.026084 
L 296.37576 239.105683 
L 296.676088 244.28611 
L 296.976416 241.472646 
L 297.276744 249.986798 
L 297.577072 233.880191 
L 297.8774 258.144271 
L 299.078712 250.47106 
L 299.37904 249.722475 
L 299.679368 265.66069 
L 299.979696 264.691858 
L 300.280024 258.251687 
L 300.580352 266.082552 
L 300.88068 263.614069 
L 301.181007 264.661113 
L 301.481335 266.59326 
L 301.781663 265.830083 
L 302.081991 269.431555 
L 302.382319 269.414599 
L 302.682647 263.934043 
L 302.982975 264.914841 
L 303.283303 275.625772 
L 303.583631 274.270028 
L 304.184287 257.532299 
L 304.484615 258.524578 
L 305.085271 276.311645 
L 305.385599 270.519653 
L 305.685927 274.951228 
L 305.986255 260.807356 
L 306.286583 272.376531 
L 306.586911 269.339422 
L 306.887239 270.164145 
L 307.187567 272.968907 
L 307.487895 268.121071 
L 307.788223 254.46683 
L 308.088551 264.888598 
L 308.388879 260.081132 
L 308.989535 245.738635 
L 309.590191 250.318976 
L 309.890519 248.302335 
L 310.190847 244.761942 
L 311.091831 252.26632 
L 311.392159 245.832027 
L 311.692487 261.92642 
L 311.992815 241.972852 
L 312.293143 257.023479 
L 312.893799 266.125442 
L 313.194127 272.922015 
L 313.494455 268.228947 
L 313.794783 268.551991 
L 314.095111 266.463804 
L 314.395439 262.621897 
L 314.695767 265.540858 
L 314.996095 259.296275 
L 315.296423 245.11157 
L 315.59675 276.873118 
L 315.897078 275.957471 
L 316.197406 273.686945 
L 316.497734 244.888711 
L 316.798062 237.571478 
L 317.09839 219.358945 
L 317.398718 238.619102 
L 317.699046 229.530814 
L 318.299702 243.352726 
L 318.60003 253.700122 
L 318.900358 252.745188 
L 319.200686 263.913269 
L 319.501014 265.041183 
L 319.801342 255.799053 
L 320.10167 259.074681 
L 320.401998 241.07311 
L 320.702326 230.369286 
L 321.002654 228.3367 
L 321.302982 243.086617 
L 321.60331 242.402074 
L 321.903638 252.594344 
L 322.203966 256.969192 
L 322.504294 257.265819 
L 322.804622 255.337281 
L 323.10495 252.507032 
L 323.405278 247.654034 
L 323.705606 240.725952 
L 324.306262 205.402299 
L 324.60659 206.053485 
L 324.906918 211.687314 
L 325.207246 203.501302 
L 325.507574 210.472994 
L 325.807902 203.649041 
L 326.10823 192.224486 
L 326.408558 185.366594 
L 326.708886 191.133233 
L 327.009214 188.052487 
L 327.309542 190.514956 
L 327.60987 187.460938 
L 327.910198 156.944068 
L 328.210526 172.397009 
L 328.510854 164.682673 
L 328.811182 107.119741 
L 329.11151 156.441171 
L 329.411838 156.277951 
L 329.712166 162.722682 
L 330.012493 103.111001 
L 330.312821 108.046332 
L 330.613149 90.583771 
L 330.913477 131.779894 
L 331.213805 141.270291 
L 331.514133 131.403364 
L 331.814461 71.110238 
L 332.114789 122.855911 
L 332.415117 131.035522 
L 332.715445 151.354532 
L 333.015773 109.969036 
L 333.316101 133.918856 
L 333.616429 126.679573 
L 333.916757 136.200146 
L 334.217085 139.243054 
L 334.517413 162.758782 
L 334.817741 167.524603 
L 335.118069 157.679115 
L 335.418397 129.645241 
L 335.718725 118.706957 
L 336.319381 58.264781 
L 336.619709 129.748181 
L 336.920037 132.955246 
L 337.220365 119.408998 
L 337.520693 77.187959 
L 337.821021 145.629977 
L 338.121349 57.126415 
L 338.421677 127.332952 
L 338.722005 129.332412 
L 339.022333 164.264296 
L 339.322661 144.701445 
L 339.622989 107.002313 
L 339.923317 110.391798 
L 340.223645 131.430003 
L 340.523973 129.321599 
L 341.725285 55.897694 
L 342.025613 76.197579 
L 342.325941 59.849675 
L 342.626269 64.371916 
L 342.926597 58.072356 
L 343.226925 83.972224 
L 343.527253 84.722769 
L 343.827581 79.446556 
L 344.127909 91.19081 
L 344.428236 136.933109 
L 344.728564 80.89807 
L 345.028892 191.402817 
L 345.32922 199.771038 
L 345.629548 202.332116 
L 345.929876 211.535269 
L 346.230204 246.693396 
L 346.530532 254.650548 
L 346.83086 275.720265 
L 347.131188 254.990595 
L 347.731844 257.660958 
L 348.032172 261.803487 
L 348.3325 259.837245 
L 348.933156 268.039742 
L 349.233484 265.092012 
L 349.533812 271.090508 
L 349.83414 268.07004 
L 350.134468 257.465128 
L 350.434796 260.590016 
L 350.735124 243.962566 
L 351.035452 235.261782 
L 351.33578 210.781779 
L 351.636108 245.019833 
L 351.936436 256.902151 
L 352.236764 232.970446 
L 352.537092 250.588908 
L 352.83742 247.766457 
L 353.137748 249.146032 
L 353.438076 247.624959 
L 353.738404 254.49109 
L 354.038732 257.813634 
L 354.33906 258.300755 
L 354.639388 257.608029 
L 354.939716 264.183636 
L 355.240044 258.557407 
L 355.540372 227.955345 
L 355.8407 236.670257 
L 356.141028 237.072463 
L 356.441356 246.432479 
L 356.741684 246.653705 
L 357.042012 244.360698 
L 357.34234 249.021968 
L 357.642668 248.08045 
L 357.942996 245.371906 
L 358.543652 232.904891 
L 359.144307 205.594237 
L 359.744963 202.318047 
L 360.045291 223.815278 
L 360.345619 226.254907 
L 360.645947 221.321954 
L 360.946275 253.43849 
L 361.246603 267.654264 
L 361.546931 261.154026 
L 361.847259 264.633369 
L 362.147587 249.240728 
L 362.447915 255.549977 
L 362.748243 256.821627 
L 363.048571 254.585796 
L 363.348899 250.660464 
L 363.649227 245.10718 
L 363.949555 251.463526 
L 364.249883 252.904833 
L 364.550211 267.110288 
L 364.850539 275.118641 
L 365.150867 254.807259 
L 365.451195 256.258514 
L 365.751523 255.235804 
L 366.051851 255.462718 
L 366.352179 243.709401 
L 366.652507 253.324782 
L 366.952835 248.249863 
L 367.253163 247.413218 
L 367.553491 256.630662 
L 367.853819 255.062974 
L 368.154147 254.804525 
L 368.454475 254.964455 
L 368.754803 230.692553 
L 369.055131 253.843718 
L 369.355459 248.527114 
L 369.655787 237.556792 
L 369.956115 247.942374 
L 370.256443 241.151317 
L 370.556771 229.423896 
L 370.857099 237.945052 
L 371.457755 222.286958 
L 371.758083 238.252213 
L 372.058411 240.622933 
L 372.358739 242.006071 
L 372.659067 241.659003 
L 372.959395 241.626911 
L 373.259722 247.945856 
L 373.56005 244.754316 
L 373.860378 230.56947 
L 374.160706 237.773857 
L 374.461034 233.313302 
L 374.761362 247.457793 
L 375.06169 254.478799 
L 375.362018 258.171567 
L 375.662346 257.27793 
L 375.962674 258.953616 
L 376.263002 259.257478 
L 376.56333 260.82492 
L 376.863658 256.293677 
L 377.163986 243.72777 
L 377.464314 247.924156 
L 377.764642 241.110027 
L 378.06497 248.467795 
L 378.365298 260.758215 
L 378.665626 260.013537 
L 378.965954 260.75317 
L 379.266282 259.724398 
L 379.56661 264.329191 
L 379.866938 260.881841 
L 380.167266 262.034856 
L 380.467594 258.879723 
L 380.767922 259.177373 
L 381.06825 255.910417 
L 381.368578 249.213875 
L 381.668906 254.008384 
L 381.969234 252.125601 
L 382.269562 240.267639 
L 382.56989 255.492594 
L 382.870218 261.726423 
L 383.170546 253.640799 
L 383.470874 253.006641 
L 383.771202 258.531131 
L 384.07153 258.571994 
L 384.371858 253.798241 
L 384.672186 265.113305 
L 384.972514 255.556686 
L 385.272842 252.134853 
L 385.57317 252.631574 
L 385.873498 255.718354 
L 386.173826 240.039784 
L 386.474154 236.460095 
L 386.774482 251.965406 
L 387.07481 247.909346 
L 387.375137 252.647855 
L 387.675465 252.316861 
L 387.975793 250.850913 
L 388.276121 247.346606 
L 388.576449 266.341888 
L 388.876777 262.44757 
L 389.177105 247.683995 
L 389.477433 260.815133 
L 389.777761 242.749058 
L 390.078089 273.141196 
L 390.678745 267.333645 
L 390.979073 240.990457 
L 391.279401 248.213255 
L 391.579729 247.683624 
L 391.880057 237.420743 
L 392.180385 214.320123 
L 392.480713 244.443222 
L 392.781041 239.05959 
L 393.081369 239.333246 
L 393.682025 249.134762 
L 393.982353 241.312534 
L 394.282681 241.342663 
L 394.583009 240.520637 
L 395.183665 231.848495 
L 396.384977 255.312235 
L 396.685305 254.971797 
L 396.985633 248.289724 
L 397.285961 246.636141 
L 397.586289 250.680238 
L 397.886617 244.439296 
L 398.186945 249.164671 
L 398.487273 235.393961 
L 398.487273 235.393961 
" clip-path="url(#p5c9d8a0739)" style="fill: none; stroke: #0000ff; stroke-linecap: round"/>
   </g>
   <g id="line2d_13">
    <path d="M 73.832727 259.765911 
L 74.133055 273.273215 
L 75.034039 245.170901 
L 75.334367 253.545857 
L 75.634695 244.06301 
L 76.535679 185.565388 
L 76.836007 134.766948 
L 77.136335 125.367451 
L 77.436663 155.487024 
L 77.736991 153.46819 
L 78.037319 153.471468 
L 78.337647 150.702253 
L 78.637975 143.492857 
L 78.938303 141.894376 
L 79.238631 138.387991 
L 79.839287 133.932798 
L 80.139615 90.141438 
L 80.439943 83.063351 
L 80.740271 117.036147 
L 81.040599 111.484249 
L 81.340927 122.394376 
L 81.641255 122.40434 
L 81.941583 108.936895 
L 82.241911 76.736224 
L 82.542239 62.276093 
L 82.842567 65.416866 
L 83.142895 102.176846 
L 83.443223 180.29485 
L 83.743551 209.419776 
L 84.043879 184.636091 
L 84.344207 133.97494 
L 84.944863 156.256756 
L 85.24519 149.394905 
L 85.545518 112.794651 
L 85.845846 154.191665 
L 86.446502 173.100304 
L 86.74683 218.43071 
L 87.047158 220.913003 
L 87.347486 246.518077 
L 87.647814 216.221998 
L 88.24847 258.435676 
L 88.548798 255.167868 
L 88.849126 255.15861 
L 89.449782 185.270494 
L 89.75011 114.161659 
L 90.050438 102.56888 
L 90.651094 150.659308 
L 90.951422 113.953395 
L 91.25175 152.496558 
L 91.552078 147.026371 
L 91.852406 156.971231 
L 92.152734 126.635133 
L 92.75339 105.425625 
L 93.053718 58.868649 
L 93.354046 60.886198 
L 93.654374 100.38897 
L 93.954702 121.66971 
L 94.25503 60.074292 
L 94.555358 76.969079 
L 94.855686 101.398725 
L 95.156014 71.714195 
L 95.456342 73.006757 
L 95.75667 114.797863 
L 96.056998 110.884465 
L 96.357326 98.280613 
L 96.657654 140.734121 
L 96.957982 166.658357 
L 97.25831 151.041988 
L 97.858966 187.773874 
L 98.159294 204.908812 
L 98.459622 167.84886 
L 99.060278 225.30275 
L 99.360605 198.356577 
L 99.660933 187.894673 
L 99.961261 184.509088 
L 100.261589 189.095045 
L 100.561917 199.215831 
L 100.862245 171.60761 
L 101.162573 132.660873 
L 101.462901 165.558212 
L 101.763229 175.478385 
L 102.063557 195.851847 
L 102.664213 158.335089 
L 102.964541 222.545204 
L 103.264869 226.743755 
L 103.565197 219.752266 
L 103.865525 177.187282 
L 104.165853 226.089133 
L 104.466181 253.356944 
L 104.766509 244.634442 
L 105.066837 256.330791 
L 105.367165 240.029424 
L 105.667493 233.796834 
L 105.967821 225.189698 
L 106.268149 213.255866 
L 106.568477 264.831013 
L 106.868805 251.398252 
L 107.469461 266.851005 
L 107.769789 260.36547 
L 108.070117 272.020931 
L 108.370445 266.285133 
L 108.670773 246.628589 
L 108.971101 250.714764 
L 109.271429 269.481034 
L 109.571757 249.792153 
L 109.872085 256.715303 
L 110.172413 253.867752 
L 110.472741 262.26148 
L 110.773069 263.685063 
L 111.073397 262.738472 
L 111.373725 263.177051 
L 111.674053 263.065992 
L 111.974381 267.044643 
L 112.274709 277.874119 
L 112.575037 277.976628 
L 112.875365 263.966102 
L 113.175693 258.514815 
L 113.476021 259.649548 
L 114.076676 269.806754 
L 114.377004 261.32929 
L 114.677332 278.30058 
L 114.97766 264.280282 
L 115.277988 276.868222 
L 115.578316 275.153282 
L 115.878644 252.147733 
L 116.178972 261.009806 
L 116.4793 262.822787 
L 116.779628 241.703508 
L 117.680612 256.153803 
L 117.98094 245.195524 
L 118.281268 244.359768 
L 118.581596 263.457415 
L 118.881924 264.327984 
L 119.182252 269.275695 
L 119.48258 263.315626 
L 119.782908 268.52435 
L 120.083236 266.511109 
L 120.383564 267.930899 
L 120.683892 265.024813 
L 121.284548 252.386534 
L 121.584876 249.261255 
L 121.885204 267.791649 
L 122.185532 270.984175 
L 122.48586 271.211307 
L 123.086516 267.010441 
L 123.386844 266.684175 
L 123.687172 263.5732 
L 123.9875 254.40299 
L 124.287828 254.572648 
L 124.588156 254.40299 
L 124.888484 262.079896 
L 125.188812 263.582907 
L 125.48914 265.905507 
L 125.789468 264.831624 
L 126.390124 258.944041 
L 126.690452 260.927484 
L 126.99078 260.442552 
L 127.891764 268.056294 
L 128.192091 266.990769 
L 128.492419 266.689575 
L 128.792747 265.222951 
L 129.093075 264.877076 
L 129.393403 269.820255 
L 129.693731 269.49341 
L 129.994059 277.117149 
L 130.294387 270.851032 
L 130.594715 273.399222 
L 130.895043 269.747287 
L 131.495699 277.577812 
L 132.096355 261.254522 
L 132.396683 262.227439 
L 132.697011 269.975449 
L 133.297667 254.086849 
L 133.597995 246.870348 
L 133.898323 257.24228 
L 134.198651 259.400203 
L 134.498979 247.724845 
L 134.799307 262.008021 
L 135.099635 268.005635 
L 135.700291 262.350038 
L 136.000619 263.844756 
L 136.300947 266.19889 
L 136.601275 269.504853 
L 136.901603 265.25696 
L 137.201931 271.689971 
L 137.502259 266.028749 
L 137.802587 266.702465 
L 138.102915 272.262368 
L 138.403243 272.753503 
L 138.703571 266.345308 
L 139.003899 265.958674 
L 139.304227 272.94727 
L 139.604555 267.290163 
L 139.904883 269.988017 
L 140.205211 285.606314 
L 140.505539 285.427366 
L 140.805867 290.398156 
L 141.106195 292.35897 
L 141.406523 291.434591 
L 141.706851 291.177499 
L 142.007179 286.682029 
L 142.607834 284.329117 
L 142.908162 287.463719 
L 143.20849 277.89122 
L 143.508818 285.563144 
L 143.809146 285.434534 
L 144.109474 285.434534 
L 144.409802 283.941519 
L 144.71013 281.519786 
L 145.010458 277.869266 
L 145.310786 282.363 
L 145.611114 283.775107 
L 145.911442 281.65145 
L 146.21177 284.925622 
L 146.512098 282.8515 
L 146.812426 259.676581 
L 147.112754 268.285035 
L 147.413082 267.752786 
L 147.71341 266.599731 
L 148.013738 281.08365 
L 148.314066 280.79496 
L 148.614394 283.121995 
L 148.914722 283.460605 
L 149.515378 279.990384 
L 149.815706 278.552336 
L 150.116034 263.359085 
L 150.416362 267.772041 
L 150.71669 264.707386 
L 151.017018 271.277364 
L 151.617674 258.474603 
L 152.21833 265.802548 
L 152.518658 254.738675 
L 152.818986 260.588649 
L 153.119314 260.261997 
L 153.419642 261.528007 
L 153.71997 263.644657 
L 154.020298 260.681997 
L 154.320626 261.252272 
L 154.921282 255.912237 
L 155.22161 262.059548 
L 155.521938 257.996968 
L 156.122594 270.405349 
L 156.422922 265.771722 
L 156.72325 266.794302 
L 157.023577 266.794302 
L 157.323905 274.487023 
L 157.924561 260.729217 
L 158.224889 260.998041 
L 158.825545 240.954542 
L 159.125873 234.697458 
L 160.026857 121.551322 
L 160.627513 193.613048 
L 160.927841 169.14814 
L 161.228169 123.760227 
L 161.528497 132.348107 
L 161.828825 172.720549 
L 162.129153 170.97385 
L 162.429481 175.621588 
L 162.729809 166.682947 
L 163.030137 183.382134 
L 163.330465 172.891493 
L 163.630793 156.286939 
L 164.231449 176.11941 
L 164.531777 176.11941 
L 164.832105 186.089728 
L 165.432761 176.563004 
L 165.733089 113.009183 
L 166.634073 142.66504 
L 166.934401 56.847597 
L 167.234729 119.79588 
L 167.535057 145.82031 
L 167.835385 134.498895 
L 168.135713 114.208204 
L 168.436041 125.683045 
L 168.736369 129.036326 
L 169.036697 130.737412 
L 169.337025 125.586612 
L 169.637353 109.085467 
L 169.937681 115.178003 
L 170.238009 128.835294 
L 170.838665 176.056889 
L 171.138993 146.361173 
L 171.739648 177.479089 
L 172.039976 159.787248 
L 172.340304 184.333354 
L 172.640632 179.204541 
L 172.94096 184.225831 
L 173.241288 175.751002 
L 173.541616 152.047532 
L 174.142272 177.223155 
L 174.4426 118.162137 
L 174.742928 130.275592 
L 175.043256 147.840526 
L 175.343584 137.852818 
L 175.94424 157.437422 
L 176.244568 157.412125 
L 176.544896 148.74099 
L 176.845224 151.293712 
L 177.145552 149.871254 
L 177.44588 150.911064 
L 177.746208 147.857788 
L 178.046536 153.3958 
L 178.346864 155.384965 
L 178.647192 160.606965 
L 178.94752 114.465489 
L 179.247848 142.688441 
L 179.548176 124.730251 
L 179.848504 116.914384 
L 180.148832 70.798977 
L 180.44916 68.532856 
L 180.749488 90.725599 
L 181.049816 98.532626 
L 181.350144 76.151227 
L 181.650472 73.971059 
L 181.9508 77.462593 
L 182.551456 126.448373 
L 182.851784 139.326803 
L 183.152112 176.832696 
L 183.45244 145.373855 
L 183.752768 218.61702 
L 184.053096 250.385251 
L 184.353424 250.344781 
L 184.653752 258.060357 
L 185.254408 267.451367 
L 185.554736 266.892793 
L 185.855063 265.056732 
L 186.155391 260.444995 
L 186.455719 261.997509 
L 186.756047 252.607367 
L 187.056375 263.370979 
L 187.356703 261.524053 
L 187.657031 260.91514 
L 187.957359 257.901081 
L 188.257687 239.097812 
L 188.558015 255.522132 
L 188.858343 259.470246 
L 189.158671 254.79197 
L 189.458999 257.737273 
L 189.759327 261.885711 
L 190.059655 256.965098 
L 190.359983 262.152639 
L 190.660311 241.45606 
L 190.960639 238.152154 
L 191.561295 258.025287 
L 191.861623 245.014872 
L 192.161951 262.002556 
L 192.762607 236.224996 
L 193.062935 260.028499 
L 193.363263 261.418459 
L 193.663591 257.232444 
L 193.963919 255.994945 
L 194.264247 273.251679 
L 194.564575 274.397051 
L 194.864903 268.986845 
L 195.165231 278.674678 
L 195.465559 282.161936 
L 196.066215 274.051465 
L 196.366543 280.01237 
L 196.666871 276.779439 
L 196.967199 271.466792 
L 197.267527 262.165046 
L 197.567855 268.115922 
L 197.868183 268.035947 
L 198.168511 240.42914 
L 198.468839 232.431754 
L 198.769167 244.323766 
L 199.069495 244.804904 
L 199.369823 255.889126 
L 199.670151 230.858571 
L 200.270806 254.773873 
L 200.571134 256.422435 
L 200.871462 258.987854 
L 201.17179 259.267318 
L 201.472118 260.110243 
L 201.772446 256.145639 
L 202.072774 255.876686 
L 202.373102 254.682422 
L 202.67343 254.631698 
L 202.973758 260.738314 
L 203.274086 252.237191 
L 203.574414 254.343137 
L 203.874742 261.361595 
L 204.17507 250.393737 
L 204.475398 251.499507 
L 204.775726 254.023235 
L 205.076054 251.882702 
L 205.376382 238.534834 
L 205.67671 253.545086 
L 205.977038 254.455932 
L 206.277366 257.242987 
L 206.577694 251.912242 
L 206.878022 248.607436 
L 207.17835 253.695458 
L 207.478678 253.088795 
L 208.079334 256.442396 
L 208.379662 252.305852 
L 208.67999 234.939698 
L 208.980318 252.217711 
L 209.280646 242.055394 
L 209.580974 239.358793 
L 209.881302 241.114171 
L 210.481958 250.719939 
L 210.782286 240.823489 
L 211.082614 240.413582 
L 211.382942 256.740504 
L 211.68327 253.862834 
L 211.983598 255.398987 
L 212.283926 251.834228 
L 212.584254 256.420185 
L 212.884582 256.371968 
L 213.18491 256.131238 
L 213.485238 256.701385 
L 213.785566 256.588268 
L 214.386222 249.098604 
L 214.686549 257.055102 
L 215.287205 248.079206 
L 215.587533 249.283209 
L 215.887861 252.467281 
L 216.188189 246.384034 
L 216.788845 260.79267 
L 217.089173 261.837751 
L 217.389501 255.718149 
L 217.689829 256.668147 
L 217.990157 253.143119 
L 218.290485 246.693521 
L 218.590813 245.258752 
L 218.891141 247.567305 
L 219.191469 257.397377 
L 219.491797 246.173391 
L 220.092453 258.557857 
L 220.392781 256.839638 
L 220.693109 251.246466 
L 220.993437 259.435208 
L 221.293765 257.602941 
L 221.594093 258.346764 
L 221.894421 261.612547 
L 222.194749 261.728942 
L 222.495077 259.178374 
L 222.795405 254.497623 
L 223.095733 244.070371 
L 223.396061 241.81595 
L 223.696389 238.013418 
L 223.996717 240.462378 
L 224.597373 246.88867 
L 225.198029 244.816155 
L 225.498357 242.750326 
L 225.798685 255.051055 
L 226.099013 253.644476 
L 226.399341 250.131631 
L 226.699669 252.440408 
L 226.999997 251.702435 
L 227.300325 247.665153 
L 227.600653 246.035942 
L 227.900981 261.333469 
L 228.201309 261.358863 
L 228.501637 263.417235 
L 228.801965 256.233714 
L 229.102292 260.766215 
L 229.40262 258.463609 
L 229.702948 252.741699 
L 230.003276 260.521853 
L 230.303604 262.321172 
L 230.603932 262.202527 
L 230.90426 260.243899 
L 231.204588 268.111454 
L 231.504916 267.260429 
L 231.805244 264.598062 
L 232.105572 266.920341 
L 232.4059 267.082252 
L 232.706228 267.939964 
L 233.006556 267.925209 
L 233.306884 266.098406 
L 233.607212 262.546762 
L 233.90754 263.255644 
L 234.207868 260.080927 
L 234.508196 264.322327 
L 234.808524 266.978618 
L 235.108852 259.267704 
L 235.40918 247.869849 
L 235.709508 257.491432 
L 236.009836 239.142461 
L 236.310164 249.560713 
L 236.610492 249.678169 
L 236.91082 254.267822 
L 237.211148 266.481279 
L 237.511476 266.168835 
L 237.811804 266.037042 
L 238.112132 261.956686 
L 238.41246 271.440658 
L 238.712788 264.543288 
L 239.013116 270.083036 
L 239.313444 268.171532 
L 239.613772 271.488232 
L 239.9141 258.875766 
L 240.214428 269.104976 
L 240.514756 270.720365 
L 240.815084 271.628768 
L 241.115412 265.581298 
L 241.41574 271.420504 
L 241.716068 270.720365 
L 242.316724 267.089967 
L 242.617052 260.738474 
L 242.91738 265.492836 
L 243.518035 264.004032 
L 243.818363 267.566252 
L 244.118691 265.098327 
L 244.419019 267.698687 
L 244.719347 268.216856 
L 245.019675 265.05715 
L 245.320003 258.638668 
L 245.620331 260.931631 
L 246.521315 245.453259 
L 246.821643 251.642518 
L 247.121971 242.236817 
L 247.422299 258.136089 
L 247.722627 260.430723 
L 248.022955 253.032028 
L 248.323283 253.377934 
L 248.623611 257.161372 
L 248.923939 244.668644 
L 249.224267 237.521254 
L 249.824923 158.32956 
L 250.125251 188.399984 
L 250.425579 195.344253 
L 250.725907 182.580129 
L 251.026235 196.98629 
L 251.326563 187.662815 
L 251.626891 182.019755 
L 251.927219 181.078082 
L 252.227547 184.039489 
L 252.527875 196.543918 
L 252.828203 143.684888 
L 253.128531 162.884562 
L 253.428859 162.621749 
L 253.729187 166.436045 
L 254.029515 168.057542 
L 254.329843 167.7351 
L 254.630171 186.040129 
L 254.930499 182.627414 
L 255.230827 150.911964 
L 255.531155 132.502529 
L 255.831483 135.639445 
L 256.131811 77.203669 
L 256.432139 76.609768 
L 256.732467 90.142691 
L 257.633451 62.783815 
L 257.933778 78.108343 
L 258.234106 58.288377 
L 258.534434 139.579234 
L 258.834762 129.895001 
L 259.13509 176.407167 
L 259.435418 177.678739 
L 259.735746 176.687532 
L 260.036074 192.986777 
L 260.336402 187.928361 
L 260.63673 172.65626 
L 260.937058 215.038696 
L 261.537714 233.566293 
L 261.838042 231.451476 
L 262.13837 224.183126 
L 262.438698 220.473653 
L 262.739026 235.859384 
L 263.039354 222.438323 
L 263.339682 219.202242 
L 263.64001 220.919657 
L 263.940338 233.879831 
L 264.540994 244.705899 
L 264.841322 231.3697 
L 265.441978 248.328293 
L 265.742306 254.410865 
L 266.042634 255.446625 
L 266.342962 210.487198 
L 266.64329 240.658298 
L 266.943618 252.765228 
L 267.243946 251.921275 
L 267.544274 249.119176 
L 267.844602 250.019222 
L 268.14493 233.059986 
L 268.445258 227.127368 
L 268.745586 232.417707 
L 269.045914 240.076226 
L 269.346242 235.751829 
L 269.64657 245.389163 
L 269.946898 240.601981 
L 270.247226 245.804309 
L 270.547554 244.920496 
L 270.847882 257.741709 
L 271.14821 258.761428 
L 271.448538 261.101932 
L 271.748866 245.787111 
L 272.049194 237.214081 
L 272.349521 256.956901 
L 272.649849 266.267647 
L 272.950177 255.222224 
L 273.250505 258.123039 
L 273.550833 264.080761 
L 273.851161 264.534931 
L 274.151489 262.821758 
L 274.451817 253.9737 
L 274.752145 261.087146 
L 275.052473 253.199115 
L 275.352801 259.035845 
L 275.653129 259.627786 
L 275.953457 259.125721 
L 276.253785 259.125721 
L 276.854441 252.133621 
L 277.154769 222.055933 
L 277.455097 262.907745 
L 277.755425 276.319709 
L 278.055753 275.784246 
L 278.356081 272.825571 
L 278.656409 275.486009 
L 278.956737 269.635038 
L 279.257065 279.728502 
L 279.557393 273.081216 
L 279.857721 272.901079 
L 280.158049 273.393468 
L 280.458377 259.437812 
L 280.758705 252.781718 
L 281.059033 259.176606 
L 281.359361 252.795026 
L 281.659689 249.078545 
L 281.960017 250.140053 
L 282.260345 257.116209 
L 282.560673 254.047086 
L 282.861001 243.465122 
L 283.161329 243.506524 
L 283.761985 262.567335 
L 284.062313 262.474823 
L 284.362641 261.528425 
L 284.662969 261.312639 
L 284.963297 262.867403 
L 285.263625 260.389514 
L 285.864281 263.560181 
L 286.164609 263.968127 
L 286.464937 264.744931 
L 286.765264 269.293793 
L 287.065592 264.498318 
L 287.36592 267.820707 
L 287.666248 265.642501 
L 287.966576 244.047098 
L 288.266904 234.694565 
L 288.86756 244.438714 
L 289.167888 238.775114 
L 289.468216 248.139798 
L 289.768544 241.083731 
L 290.068872 240.326439 
L 290.3692 241.778341 
L 290.669528 238.641682 
L 290.969856 241.33719 
L 291.270184 245.954038 
L 291.570512 252.597241 
L 291.87084 242.903301 
L 292.171168 248.648709 
L 292.471496 245.930797 
L 292.771824 241.010023 
L 293.072152 249.50356 
L 293.37248 248.851734 
L 293.672808 246.686096 
L 293.973136 251.953227 
L 294.273464 242.643574 
L 294.87412 238.358907 
L 295.174448 239.002182 
L 295.775104 232.036087 
L 296.075432 243.444646 
L 296.37576 241.347701 
L 296.676088 247.483986 
L 296.976416 241.908397 
L 297.276744 251.214161 
L 297.577072 241.129922 
L 297.8774 258.356118 
L 298.177728 256.923053 
L 298.478056 254.79901 
L 298.778384 253.717702 
L 299.078712 253.324189 
L 299.37904 255.038325 
L 299.679368 264.751745 
L 299.979696 265.470496 
L 300.280024 261.371978 
L 300.580352 267.363774 
L 300.88068 263.211799 
L 301.181007 265.541374 
L 301.481335 266.865277 
L 301.781663 265.276311 
L 302.081991 268.070599 
L 302.382319 269.73324 
L 302.982975 265.596116 
L 303.283303 271.434583 
L 303.583631 271.935973 
L 304.184287 258.504915 
L 304.484615 256.523111 
L 305.085271 277.360354 
L 305.385599 270.467548 
L 305.685927 272.57928 
L 305.986255 261.32929 
L 306.286583 274.918402 
L 306.586911 270.324602 
L 306.887239 269.121659 
L 307.187567 269.427257 
L 307.487895 269.995475 
L 307.788223 259.015144 
L 308.088551 266.663217 
L 308.388879 262.202013 
L 308.689207 252.891878 
L 308.989535 251.74043 
L 309.289863 252.267535 
L 309.590191 254.788627 
L 310.190847 245.243516 
L 310.491175 248.720842 
L 310.791503 249.076295 
L 311.091831 255.530072 
L 311.392159 250.140342 
L 311.692487 262.783506 
L 311.992815 243.77792 
L 312.293143 255.831073 
L 313.194127 272.745274 
L 313.494455 269.375665 
L 313.794783 270.259799 
L 314.095111 266.428048 
L 314.395439 259.552472 
L 314.695767 263.659604 
L 314.996095 258.504015 
L 315.296423 247.255568 
L 315.59675 274.01331 
L 315.897078 273.236988 
L 316.197406 267.409001 
L 316.497734 245.836582 
L 316.798062 239.641343 
L 317.09839 222.465807 
L 317.398718 239.762882 
L 317.699046 231.388022 
L 317.999374 236.494366 
L 318.60003 253.03881 
L 318.900358 251.405356 
L 319.200686 261.672689 
L 319.501014 263.62521 
L 319.801342 254.909394 
L 320.10167 259.112028 
L 320.702326 231.537848 
L 321.002654 228.348312 
L 321.302982 242.376228 
L 321.60331 241.62694 
L 321.903638 252.363519 
L 322.203966 257.020708 
L 322.504294 257.00335 
L 322.804622 256.055473 
L 323.405278 247.711666 
L 323.705606 240.53197 
L 324.306262 204.91807 
L 324.60659 206.504239 
L 324.906918 213.092669 
L 325.207246 204.271773 
L 325.507574 209.724152 
L 326.408558 187.626942 
L 326.708886 189.888853 
L 327.009214 188.321938 
L 327.309542 190.562665 
L 327.60987 187.235293 
L 327.910198 157.219451 
L 328.210526 172.744561 
L 328.510854 162.263884 
L 328.811182 107.701968 
L 329.11151 156.141293 
L 329.411838 157.280075 
L 329.712166 162.188313 
L 330.012493 103.666904 
L 330.312821 107.816756 
L 330.613149 89.320821 
L 330.913477 131.483196 
L 331.213805 142.302225 
L 331.514133 131.13745 
L 331.814461 71.391754 
L 332.114789 121.00702 
L 332.415117 130.651104 
L 332.715445 154.193466 
L 333.015773 112.873598 
L 333.316101 134.138362 
L 333.616429 126.522145 
L 334.217085 142.842606 
L 334.517413 162.888998 
L 334.817741 170.20055 
L 335.118069 158.319371 
L 335.418397 129.894133 
L 335.718725 121.666592 
L 336.319381 58.803846 
L 336.619709 129.08525 
L 336.920037 134.250354 
L 337.220365 121.922173 
L 337.520693 76.725906 
L 337.821021 146.028638 
L 338.121349 59.865096 
L 338.421677 130.873833 
L 338.722005 130.838602 
L 339.022333 160.486037 
L 339.322661 144.626721 
L 339.622989 106.891927 
L 339.923317 110.78906 
L 340.223645 131.637264 
L 340.523973 126.562936 
L 341.725285 56.026852 
L 342.025613 75.640258 
L 342.325941 59.978116 
L 342.626269 64.614379 
L 342.926597 59.939157 
L 343.226925 84.568452 
L 343.527253 84.35932 
L 343.827581 78.824297 
L 344.127909 91.285749 
L 344.428236 137.954877 
L 344.728564 84.644892 
L 345.028892 189.883324 
L 345.32922 200.574354 
L 345.629548 200.192156 
L 345.929876 208.010658 
L 346.230204 246.318009 
L 346.530532 254.720095 
L 346.83086 275.157686 
L 347.131188 253.641776 
L 347.431516 256.012753 
L 347.731844 255.704616 
L 348.032172 262.235475 
L 348.3325 258.600031 
L 348.632828 264.584433 
L 348.933156 266.505516 
L 349.233484 264.775596 
L 349.533812 268.175133 
L 349.83414 268.280213 
L 350.134468 260.151195 
L 350.434796 262.118405 
L 350.735124 242.54698 
L 351.035452 235.71872 
L 351.33578 214.191303 
L 351.636108 244.522162 
L 351.936436 254.722538 
L 352.236764 234.66901 
L 352.537092 249.389736 
L 352.83742 247.115386 
L 353.137748 249.473408 
L 353.438076 246.209908 
L 354.038732 255.634348 
L 354.33906 258.209411 
L 354.639388 254.251686 
L 354.939716 261.948939 
L 355.240044 256.92196 
L 355.540372 234.261032 
L 355.8407 239.765614 
L 356.141028 240.304902 
L 356.441356 246.790598 
L 356.741684 247.075301 
L 357.042012 246.325113 
L 357.34234 249.55512 
L 357.642668 248.619844 
L 357.942996 245.317416 
L 358.543652 236.506613 
L 359.144307 211.284477 
L 359.444635 203.416054 
L 359.744963 206.994025 
L 360.045291 224.630545 
L 360.345619 232.22124 
L 360.645947 230.107772 
L 361.246603 266.988358 
L 361.546931 261.491009 
L 361.847259 263.554652 
L 362.147587 250.789789 
L 362.447915 255.825865 
L 362.748243 257.143435 
L 363.348899 252.836589 
L 363.649227 244.834188 
L 363.949555 252.531345 
L 364.249883 253.478225 
L 364.550211 267.006938 
L 364.850539 273.672 
L 365.150867 255.95409 
L 365.451195 256.608808 
L 365.751523 255.522646 
L 366.051851 258.116224 
L 366.352179 244.084643 
L 366.652507 253.327242 
L 366.952835 248.361338 
L 367.253163 247.189671 
L 367.553491 254.26194 
L 367.853819 252.785929 
L 368.154147 253.773183 
L 368.454475 252.741281 
L 368.754803 234.489258 
L 369.055131 253.116664 
L 369.655787 238.893052 
L 369.956115 248.23006 
L 370.256443 244.045812 
L 370.556771 232.905885 
L 370.857099 242.121547 
L 371.457755 228.081898 
L 371.758083 240.203486 
L 372.058411 241.724659 
L 372.358739 245.105391 
L 372.659067 244.368382 
L 372.959395 242.277673 
L 373.259722 247.430305 
L 373.56005 244.671408 
L 373.860378 235.814093 
L 374.160706 239.292383 
L 374.461034 236.231714 
L 374.761362 249.729793 
L 375.06169 253.720177 
L 375.962674 260.469779 
L 376.263002 260.399961 
L 376.56333 260.98364 
L 376.863658 257.259734 
L 377.163986 246.613835 
L 377.464314 248.181232 
L 377.764642 241.801838 
L 378.06497 249.248333 
L 378.365298 260.521563 
L 378.665626 260.469875 
L 378.965954 260.607903 
L 379.266282 259.631804 
L 379.56661 264.497161 
L 379.866938 260.805753 
L 380.167266 261.607693 
L 381.06825 254.897918 
L 381.368578 249.522268 
L 381.668906 254.49608 
L 381.969234 254.211634 
L 382.269562 241.420926 
L 382.56989 255.02325 
L 382.870218 258.720444 
L 383.170546 253.102199 
L 383.470874 253.537596 
L 383.771202 257.989253 
L 384.07153 259.566037 
L 384.371858 256.200477 
L 384.672186 264.401949 
L 385.272842 252.293122 
L 385.57317 253.284394 
L 385.873498 257.139096 
L 386.173826 240.162952 
L 386.474154 237.075796 
L 386.774482 251.791797 
L 387.07481 247.317221 
L 387.375137 252.89072 
L 387.675465 251.931658 
L 387.975793 250.291325 
L 388.276121 250.907534 
L 388.576449 265.295758 
L 388.876777 259.151919 
L 389.177105 249.003231 
L 389.477433 259.020673 
L 389.777761 243.973359 
L 390.078089 270.851161 
L 390.378417 269.742948 
L 390.678745 263.165576 
L 390.979073 244.579282 
L 391.279401 245.434904 
L 391.579729 246.636979 
L 391.880057 236.443032 
L 392.180385 216.28632 
L 392.480713 243.999557 
L 392.781041 239.089101 
L 393.081369 239.047024 
L 393.682025 248.985648 
L 393.982353 242.213256 
L 394.282681 241.164381 
L 394.583009 240.716223 
L 395.183665 233.225851 
L 395.784321 245.187199 
L 396.384977 254.234681 
L 396.685305 254.037186 
L 397.285961 246.829975 
L 397.586289 249.921567 
L 397.886617 244.468641 
L 398.186945 248.804257 
L 398.487273 234.905175 
L 398.487273 234.905175 
" clip-path="url(#p5c9d8a0739)" style="fill: none; stroke: #ff0000; stroke-width: 1.2; stroke-linecap: round"/>
   </g>
   <g id="patch_3">
    <path d="M 57.6 307.584 
L 57.6 41.472 
" style="fill: none; stroke: #ffffff; stroke-width: 0.8; stroke-linejoin: miter; stroke-linecap: square"/>
   </g>
   <g id="patch_4">
    <path d="M 414.72 307.584 
L 414.72 41.472 
" style="fill: none; stroke: #ffffff; stroke-width: 0.8; stroke-linejoin: miter; stroke-linecap: square"/>
   </g>
   <g id="patch_5">
    <path d="M 57.6 307.584 
L 414.72 307.584 
" style="fill: none; stroke: #ffffff; stroke-width: 0.8; stroke-linejoin: miter; stroke-linecap: square"/>
   </g>
   <g id="patch_6">
    <path d="M 57.6 41.472 
L 414.72 41.472 
" style="fill: none; stroke: #ffffff; stroke-width: 0.8; stroke-linejoin: miter; stroke-linecap: square"/>
   </g>
   <g id="text_12">
    <!--   (XGB)     -->
    <g style="fill: #262626" transform="translate(93.920625 35.472) scale(0.12 -0.12)">
     <defs>
      <path id="ArialMT-421" d="M 3763 1606 
L 4369 1453 
Q 4178 706 3683 314 
Q 3188 -78 2472 -78 
Q 1731 -78 1267 223 
Q 803 525 561 1097 
Q 319 1669 319 2325 
Q 319 3041 592 3573 
Q 866 4106 1370 4382 
Q 1875 4659 2481 4659 
Q 3169 4659 3637 4309 
Q 4106 3959 4291 3325 
L 3694 3184 
Q 3534 3684 3231 3912 
Q 2928 4141 2469 4141 
Q 1941 4141 1586 3887 
Q 1231 3634 1087 3207 
Q 944 2781 944 2328 
Q 944 1744 1114 1308 
Q 1284 872 1643 656 
Q 2003 441 2422 441 
Q 2931 441 3284 734 
Q 3638 1028 3763 1606 
z
" transform="scale(0.015625)"/>
      <path id="ArialMT-445" d="M 47 0 
L 1259 1725 
L 138 3319 
L 841 3319 
L 1350 2541 
Q 1494 2319 1581 2169 
Q 1719 2375 1834 2534 
L 2394 3319 
L 3066 3319 
L 1919 1756 
L 3153 0 
L 2463 0 
L 1781 1031 
L 1600 1309 
L 728 0 
L 47 0 
z
" transform="scale(0.015625)"/>
      <path id="ArialMT-43e" d="M 213 1659 
Q 213 2581 725 3025 
Q 1153 3394 1769 3394 
Q 2453 3394 2887 2945 
Q 3322 2497 3322 1706 
Q 3322 1066 3130 698 
Q 2938 331 2570 128 
Q 2203 -75 1769 -75 
Q 1072 -75 642 372 
Q 213 819 213 1659 
z
M 791 1659 
Q 791 1022 1069 705 
Q 1347 388 1769 388 
Q 2188 388 2466 706 
Q 2744 1025 2744 1678 
Q 2744 2294 2464 2611 
Q 2184 2928 1769 2928 
Q 1347 2928 1069 2612 
Q 791 2297 791 1659 
z
" transform="scale(0.015625)"/>
      <path id="ArialMT-434" d="M 866 3319 
L 3178 3319 
L 3178 463 
L 3538 463 
L 3538 -941 
L 3075 -941 
L 3075 0 
L 463 0 
L 463 -941 
L 0 -941 
L 0 463 
L 297 463 
Q 891 1269 866 3319 
z
M 1334 2853 
Q 1272 1238 834 463 
L 2619 463 
L 2619 2853 
L 1334 2853 
z
" transform="scale(0.015625)"/>
      <path id="ArialMT-438" d="M 422 3319 
L 984 3319 
L 984 788 
L 2544 3319 
L 3150 3319 
L 3150 0 
L 2588 0 
L 2588 2516 
L 1028 0 
L 422 0 
L 422 3319 
z
" transform="scale(0.015625)"/>
      <path id="ArialMT-43c" d="M 438 3319 
L 1313 3319 
L 2184 663 
L 3153 3319 
L 3963 3319 
L 3963 0 
L 3400 0 
L 3400 2672 
L 2419 0 
L 1916 0 
L 988 2800 
L 988 0 
L 438 0 
L 438 3319 
z
" transform="scale(0.015625)"/>
      <path id="ArialMT-441" d="M 2588 1216 
L 3141 1144 
Q 3050 572 2676 248 
Q 2303 -75 1759 -75 
Q 1078 -75 664 370 
Q 250 816 250 1647 
Q 250 2184 428 2587 
Q 606 2991 970 3192 
Q 1334 3394 1763 3394 
Q 2303 3394 2647 3120 
Q 2991 2847 3088 2344 
L 2541 2259 
Q 2463 2594 2264 2762 
Q 2066 2931 1784 2931 
Q 1359 2931 1093 2626 
Q 828 2322 828 1663 
Q 828 994 1084 691 
Q 1341 388 1753 388 
Q 2084 388 2306 591 
Q 2528 794 2588 1216 
z
" transform="scale(0.015625)"/>
      <path id="ArialMT-442" d="M 119 3319 
L 2816 3319 
L 2816 2853 
L 1747 2853 
L 1747 0 
L 1188 0 
L 1188 2853 
L 119 2853 
L 119 3319 
z
" transform="scale(0.015625)"/>
      <path id="ArialMT-44c" d="M 413 3319 
L 975 3319 
L 975 2022 
L 1688 2022 
Q 2384 2022 2761 1751 
Q 3138 1481 3138 1006 
Q 3138 591 2823 295 
Q 2509 0 1819 0 
L 413 0 
L 413 3319 
z
M 975 463 
L 1566 463 
Q 2100 463 2328 594 
Q 2556 725 2556 1003 
Q 2556 1219 2387 1387 
Q 2219 1556 1641 1556 
L 975 1556 
L 975 463 
z
" transform="scale(0.015625)"/>
      <path id="ArialMT-20" transform="scale(0.015625)"/>
      <path id="ArialMT-435" d="M 2694 1069 
L 3275 997 
Q 3138 488 2766 206 
Q 2394 -75 1816 -75 
Q 1088 -75 661 373 
Q 234 822 234 1631 
Q 234 2469 665 2931 
Q 1097 3394 1784 3394 
Q 2450 3394 2872 2941 
Q 3294 2488 3294 1666 
Q 3294 1616 3291 1516 
L 816 1516 
Q 847 969 1125 678 
Q 1403 388 1819 388 
Q 2128 388 2347 550 
Q 2566 713 2694 1069 
z
M 847 1978 
L 2700 1978 
Q 2663 2397 2488 2606 
Q 2219 2931 1791 2931 
Q 1403 2931 1139 2672 
Q 875 2413 847 1978 
z
" transform="scale(0.015625)"/>
      <path id="ArialMT-43b" d="M 697 3319 
L 3309 3319 
L 3309 0 
L 2750 0 
L 2750 2853 
L 1259 2853 
L 1259 1200 
Q 1259 622 1221 437 
Q 1184 253 1015 115 
Q 847 -22 528 -22 
Q 331 -22 75 3 
L 75 472 
L 322 472 
Q 497 472 572 508 
Q 647 544 672 622 
Q 697 700 697 1131 
L 697 3319 
z
" transform="scale(0.015625)"/>
      <path id="ArialMT-28" d="M 1497 -1347 
Q 1031 -759 709 28 
Q 388 816 388 1659 
Q 388 2403 628 3084 
Q 909 3875 1497 4659 
L 1900 4659 
Q 1522 4009 1400 3731 
Q 1209 3300 1100 2831 
Q 966 2247 966 1656 
Q 966 153 1900 -1347 
L 1497 -1347 
z
" transform="scale(0.015625)"/>
      <path id="ArialMT-58" d="M 28 0 
L 1800 2388 
L 238 4581 
L 959 4581 
L 1791 3406 
Q 2050 3041 2159 2844 
Q 2313 3094 2522 3366 
L 3444 4581 
L 4103 4581 
L 2494 2422 
L 4228 0 
L 3478 0 
L 2325 1634 
Q 2228 1775 2125 1941 
Q 1972 1691 1906 1597 
L 756 0 
L 28 0 
z
" transform="scale(0.015625)"/>
      <path id="ArialMT-47" d="M 2638 1797 
L 2638 2334 
L 4578 2338 
L 4578 638 
Q 4131 281 3656 101 
Q 3181 -78 2681 -78 
Q 2006 -78 1454 211 
Q 903 500 622 1047 
Q 341 1594 341 2269 
Q 341 2938 620 3517 
Q 900 4097 1425 4378 
Q 1950 4659 2634 4659 
Q 3131 4659 3532 4498 
Q 3934 4338 4162 4050 
Q 4391 3763 4509 3300 
L 3963 3150 
Q 3859 3500 3706 3700 
Q 3553 3900 3268 4020 
Q 2984 4141 2638 4141 
Q 2222 4141 1919 4014 
Q 1616 3888 1430 3681 
Q 1244 3475 1141 3228 
Q 966 2803 966 2306 
Q 966 1694 1177 1281 
Q 1388 869 1791 669 
Q 2194 469 2647 469 
Q 3041 469 3416 620 
Q 3791 772 3984 944 
L 3984 1797 
L 2638 1797 
z
" transform="scale(0.015625)"/>
      <path id="ArialMT-42" d="M 469 0 
L 469 4581 
L 2188 4581 
Q 2713 4581 3030 4442 
Q 3347 4303 3526 4014 
Q 3706 3725 3706 3409 
Q 3706 3116 3547 2856 
Q 3388 2597 3066 2438 
Q 3481 2316 3704 2022 
Q 3928 1728 3928 1328 
Q 3928 1006 3792 729 
Q 3656 453 3456 303 
Q 3256 153 2954 76 
Q 2653 0 2216 0 
L 469 0 
z
M 1075 2656 
L 2066 2656 
Q 2469 2656 2644 2709 
Q 2875 2778 2992 2937 
Q 3109 3097 3109 3338 
Q 3109 3566 3000 3739 
Q 2891 3913 2687 3977 
Q 2484 4041 1991 4041 
L 1075 4041 
L 1075 2656 
z
M 1075 541 
L 2216 541 
Q 2509 541 2628 563 
Q 2838 600 2978 687 
Q 3119 775 3209 942 
Q 3300 1109 3300 1328 
Q 3300 1584 3169 1773 
Q 3038 1963 2805 2039 
Q 2572 2116 2134 2116 
L 1075 2116 
L 1075 541 
z
" transform="scale(0.015625)"/>
      <path id="ArialMT-29" d="M 791 -1347 
L 388 -1347 
Q 1322 153 1322 1656 
Q 1322 2244 1188 2822 
Q 1081 3291 891 3722 
Q 769 4003 388 4659 
L 791 4659 
Q 1378 3875 1659 3084 
Q 1900 2403 1900 1659 
Q 1900 816 1576 28 
Q 1253 -759 791 -1347 
z
" transform="scale(0.015625)"/>
      <path id="ArialMT-43d" d="M 425 3319 
L 988 3319 
L 988 1938 
L 2547 1938 
L 2547 3319 
L 3109 3319 
L 3109 0 
L 2547 0 
L 2547 1472 
L 988 1472 
L 988 0 
L 425 0 
L 425 3319 
z
" transform="scale(0.015625)"/>
      <path id="ArialMT-430" d="M 2588 409 
Q 2275 144 1986 34 
Q 1697 -75 1366 -75 
Q 819 -75 525 192 
Q 231 459 231 875 
Q 231 1119 342 1320 
Q 453 1522 633 1644 
Q 813 1766 1038 1828 
Q 1203 1872 1538 1913 
Q 2219 1994 2541 2106 
Q 2544 2222 2544 2253 
Q 2544 2597 2384 2738 
Q 2169 2928 1744 2928 
Q 1347 2928 1158 2789 
Q 969 2650 878 2297 
L 328 2372 
Q 403 2725 575 2942 
Q 747 3159 1072 3276 
Q 1397 3394 1825 3394 
Q 2250 3394 2515 3294 
Q 2781 3194 2906 3042 
Q 3031 2891 3081 2659 
Q 3109 2516 3109 2141 
L 3109 1391 
Q 3109 606 3145 398 
Q 3181 191 3288 0 
L 2700 0 
Q 2613 175 2588 409 
z
M 2541 1666 
Q 2234 1541 1622 1453 
Q 1275 1403 1131 1340 
Q 988 1278 909 1158 
Q 831 1038 831 891 
Q 831 666 1001 516 
Q 1172 366 1500 366 
Q 1825 366 2078 508 
Q 2331 650 2450 897 
Q 2541 1088 2541 1459 
L 2541 1666 
z
" transform="scale(0.015625)"/>
      <path id="ArialMT-432" d="M 425 3319 
L 1722 3319 
Q 2200 3319 2433 3239 
Q 2666 3159 2833 2946 
Q 3000 2734 3000 2438 
Q 3000 2200 2901 2023 
Q 2803 1847 2606 1728 
Q 2841 1650 2995 1436 
Q 3150 1222 3150 928 
Q 3119 456 2812 228 
Q 2506 0 1922 0 
L 425 0 
L 425 3319 
z
M 988 1922 
L 1588 1922 
Q 1947 1922 2081 1959 
Q 2216 1997 2322 2111 
Q 2428 2225 2428 2384 
Q 2428 2647 2242 2750 
Q 2056 2853 1606 2853 
L 988 2853 
L 988 1922 
z
M 988 463 
L 1728 463 
Q 2206 463 2384 573 
Q 2563 684 2572 956 
Q 2572 1116 2469 1252 
Q 2366 1388 2200 1423 
Q 2034 1459 1669 1459 
L 988 1459 
L 988 463 
z
" transform="scale(0.015625)"/>
      <path id="ArialMT-451" d="M 2694 1069 
L 3275 997 
Q 3138 488 2766 206 
Q 2394 -75 1816 -75 
Q 1088 -75 661 373 
Q 234 822 234 1631 
Q 234 2469 665 2931 
Q 1097 3394 1784 3394 
Q 2450 3394 2872 2941 
Q 3294 2488 3294 1666 
Q 3294 1616 3291 1516 
L 816 1516 
Q 847 969 1125 678 
Q 1403 388 1819 388 
Q 2128 388 2347 550 
Q 2566 713 2694 1069 
z
M 847 1978 
L 2700 1978 
Q 2663 2397 2488 2606 
Q 2219 2931 1791 2931 
Q 1403 2931 1139 2672 
Q 875 2413 847 1978 
z
M 887 3969 
L 887 4609 
L 1474 4609 
L 1474 3969 
L 887 3969 
z
M 2052 3969 
L 2052 4609 
L 2640 4609 
L 2640 3969 
L 2052 3969 
z
" transform="scale(0.015625)"/>
      <path id="ArialMT-431" d="M 2853 4691 
L 3350 4684 
Q 3316 4350 3202 4219 
Q 3088 4088 2908 4050 
Q 2728 4013 2203 4013 
Q 1506 4013 1253 3878 
Q 1000 3744 889 3448 
Q 778 3153 766 2688 
Q 978 3003 1262 3161 
Q 1547 3319 1903 3319 
Q 2556 3319 2984 2870 
Q 3413 2422 3413 1656 
Q 3413 1075 3197 703 
Q 2981 331 2686 128 
Q 2391 -75 1881 -75 
Q 1291 -75 962 195 
Q 634 466 459 887 
Q 284 1309 284 2356 
Q 284 3672 729 4128 
Q 1175 4584 2100 4584 
Q 2675 4584 2753 4603 
Q 2831 4622 2853 4691 
z
M 2825 1672 
Q 2825 2191 2579 2522 
Q 2334 2853 1888 2853 
Q 1422 2853 1169 2503 
Q 916 2153 916 1569 
Q 916 991 1195 684 
Q 1475 378 1884 378 
Q 2303 378 2564 733 
Q 2825 1088 2825 1672 
z
" transform="scale(0.015625)"/>
      <path id="ArialMT-440" d="M 422 -1272 
L 422 3319 
L 934 3319 
L 934 2888 
Q 1116 3141 1344 3267 
Q 1572 3394 1897 3394 
Q 2322 3394 2647 3175 
Q 2972 2956 3137 2557 
Q 3303 2159 3303 1684 
Q 3303 1175 3120 767 
Q 2938 359 2589 142 
Q 2241 -75 1856 -75 
Q 1575 -75 1351 44 
Q 1128 163 984 344 
L 984 -1272 
L 422 -1272 
z
M 931 1641 
Q 931 1000 1190 694 
Q 1450 388 1819 388 
Q 2194 388 2461 705 
Q 2728 1022 2728 1688 
Q 2728 2322 2467 2637 
Q 2206 2953 1844 2953 
Q 1484 2953 1207 2617 
Q 931 2281 931 1641 
z
" transform="scale(0.015625)"/>
      <path id="ArialMT-44b" d="M 3581 3319 
L 4144 3319 
L 4144 0 
L 3581 0 
L 3581 3319 
z
M 434 3319 
L 997 3319 
L 997 2022 
L 1709 2022 
Q 2406 2022 2782 1751 
Q 3159 1481 3159 1006 
Q 3159 591 2845 295 
Q 2531 0 1841 0 
L 434 0 
L 434 3319 
z
M 997 463 
L 1588 463 
Q 2122 463 2350 594 
Q 2578 725 2578 1003 
Q 2578 1219 2409 1387 
Q 2241 1556 1663 1556 
L 997 1556 
L 997 463 
z
" transform="scale(0.015625)"/>
     </defs>
     <use xlink:href="#ArialMT-421"/>
     <use xlink:href="#ArialMT-445" x="72.216797"/>
     <use xlink:href="#ArialMT-43e" x="121.091797"/>
     <use xlink:href="#ArialMT-434" x="174.457031"/>
     <use xlink:href="#ArialMT-438" x="232.806641"/>
     <use xlink:href="#ArialMT-43c" x="288.666016"/>
     <use xlink:href="#ArialMT-43e" x="357.416016"/>
     <use xlink:href="#ArialMT-441" x="413.03125"/>
     <use xlink:href="#ArialMT-442" x="463.03125"/>
     <use xlink:href="#ArialMT-44c" x="508.832031"/>
     <use xlink:href="#ArialMT-20" x="560.931641"/>
     <use xlink:href="#ArialMT-43c" x="588.714844"/>
     <use xlink:href="#ArialMT-43e" x="657.464844"/>
     <use xlink:href="#ArialMT-434" x="710.830078"/>
     <use xlink:href="#ArialMT-435" x="769.179688"/>
     <use xlink:href="#ArialMT-43b" x="821.419922"/>
     <use xlink:href="#ArialMT-438" x="879.769531"/>
     <use xlink:href="#ArialMT-20" x="935.628906"/>
     <use xlink:href="#ArialMT-28" x="963.412109"/>
     <use xlink:href="#ArialMT-58" x="996.712891"/>
     <use xlink:href="#ArialMT-47" x="1063.412109"/>
     <use xlink:href="#ArialMT-42" x="1141.195312"/>
     <use xlink:href="#ArialMT-29" x="1207.894531"/>
     <use xlink:href="#ArialMT-20" x="1241.195312"/>
     <use xlink:href="#ArialMT-43d" x="1268.978516"/>
     <use xlink:href="#ArialMT-430" x="1324.203125"/>
     <use xlink:href="#ArialMT-20" x="1379.818359"/>
     <use xlink:href="#ArialMT-432" x="1407.601562"/>
     <use xlink:href="#ArialMT-441" x="1459.601562"/>
     <use xlink:href="#ArialMT-451" x="1509.601562"/>
     <use xlink:href="#ArialMT-43c" x="1565.216797"/>
     <use xlink:href="#ArialMT-20" x="1633.966797"/>
     <use xlink:href="#ArialMT-43d" x="1661.75"/>
     <use xlink:href="#ArialMT-430" x="1716.974609"/>
     <use xlink:href="#ArialMT-431" x="1772.589844"/>
     <use xlink:href="#ArialMT-43e" x="1829.865234"/>
     <use xlink:href="#ArialMT-440" x="1885.480469"/>
     <use xlink:href="#ArialMT-435" x="1941.095703"/>
     <use xlink:href="#ArialMT-20" x="1996.710938"/>
     <use xlink:href="#ArialMT-434" x="2024.494141"/>
     <use xlink:href="#ArialMT-430" x="2082.84375"/>
     <use xlink:href="#ArialMT-43d" x="2138.458984"/>
     <use xlink:href="#ArialMT-43d" x="2193.683594"/>
     <use xlink:href="#ArialMT-44b" x="2248.908203"/>
     <use xlink:href="#ArialMT-445" x="2320.783203"/>
    </g>
   </g>
   <g id="legend_1">
    <g id="patch_7">
     <path d="M 333.47625 302.584 
L 407.72 302.584 
Q 409.72 302.584 409.72 300.584 
L 409.72 273.293375 
Q 409.72 271.293375 407.72 271.293375 
L 333.47625 271.293375 
Q 331.47625 271.293375 331.47625 273.293375 
L 331.47625 300.584 
Q 331.47625 302.584 333.47625 302.584 
z
" style="fill: #eaeaf2; opacity: 0.8; stroke: #cccccc; stroke-linejoin: miter"/>
    </g>
    <g id="line2d_14">
     <path d="M 335.47625 278.951187 
L 345.47625 278.951187 
L 355.47625 278.951187 
" style="fill: none; stroke: #0000ff; stroke-linecap: round"/>
    </g>
    <g id="text_13">
     <!-- Real -->
     <g style="fill: #262626" transform="translate(363.47625 282.451187) scale(0.1 -0.1)">
      <defs>
       <path id="ArialMT-52" d="M 503 0 
L 503 4581 
L 2534 4581 
Q 3147 4581 3465 4457 
Q 3784 4334 3975 4021 
Q 4166 3709 4166 3331 
Q 4166 2844 3850 2509 
Q 3534 2175 2875 2084 
Q 3116 1969 3241 1856 
Q 3506 1613 3744 1247 
L 4541 0 
L 3778 0 
L 3172 953 
Q 2906 1366 2734 1584 
Q 2563 1803 2427 1890 
Q 2291 1978 2150 2013 
Q 2047 2034 1813 2034 
L 1109 2034 
L 1109 0 
L 503 0 
z
M 1109 2559 
L 2413 2559 
Q 2828 2559 3062 2645 
Q 3297 2731 3419 2920 
Q 3541 3109 3541 3331 
Q 3541 3656 3305 3865 
Q 3069 4075 2559 4075 
L 1109 4075 
L 1109 2559 
z
" transform="scale(0.015625)"/>
       <path id="ArialMT-65" d="M 2694 1069 
L 3275 997 
Q 3138 488 2766 206 
Q 2394 -75 1816 -75 
Q 1088 -75 661 373 
Q 234 822 234 1631 
Q 234 2469 665 2931 
Q 1097 3394 1784 3394 
Q 2450 3394 2872 2941 
Q 3294 2488 3294 1666 
Q 3294 1616 3291 1516 
L 816 1516 
Q 847 969 1125 678 
Q 1403 388 1819 388 
Q 2128 388 2347 550 
Q 2566 713 2694 1069 
z
M 847 1978 
L 2700 1978 
Q 2663 2397 2488 2606 
Q 2219 2931 1791 2931 
Q 1403 2931 1139 2672 
Q 875 2413 847 1978 
z
" transform="scale(0.015625)"/>
       <path id="ArialMT-61" d="M 2588 409 
Q 2275 144 1986 34 
Q 1697 -75 1366 -75 
Q 819 -75 525 192 
Q 231 459 231 875 
Q 231 1119 342 1320 
Q 453 1522 633 1644 
Q 813 1766 1038 1828 
Q 1203 1872 1538 1913 
Q 2219 1994 2541 2106 
Q 2544 2222 2544 2253 
Q 2544 2597 2384 2738 
Q 2169 2928 1744 2928 
Q 1347 2928 1158 2789 
Q 969 2650 878 2297 
L 328 2372 
Q 403 2725 575 2942 
Q 747 3159 1072 3276 
Q 1397 3394 1825 3394 
Q 2250 3394 2515 3294 
Q 2781 3194 2906 3042 
Q 3031 2891 3081 2659 
Q 3109 2516 3109 2141 
L 3109 1391 
Q 3109 606 3145 398 
Q 3181 191 3288 0 
L 2700 0 
Q 2613 175 2588 409 
z
M 2541 1666 
Q 2234 1541 1622 1453 
Q 1275 1403 1131 1340 
Q 988 1278 909 1158 
Q 831 1038 831 891 
Q 831 666 1001 516 
Q 1172 366 1500 366 
Q 1825 366 2078 508 
Q 2331 650 2450 897 
Q 2541 1088 2541 1459 
L 2541 1666 
z
" transform="scale(0.015625)"/>
       <path id="ArialMT-6c" d="M 409 0 
L 409 4581 
L 972 4581 
L 972 0 
L 409 0 
z
" transform="scale(0.015625)"/>
      </defs>
      <use xlink:href="#ArialMT-52"/>
      <use xlink:href="#ArialMT-65" x="72.216797"/>
      <use xlink:href="#ArialMT-61" x="127.832031"/>
      <use xlink:href="#ArialMT-6c" x="183.447266"/>
     </g>
    </g>
    <g id="line2d_15">
     <path d="M 335.47625 293.0965 
L 345.47625 293.0965 
L 355.47625 293.0965 
" style="fill: none; stroke: #ff0000; stroke-width: 1.2; stroke-linecap: round"/>
    </g>
    <g id="text_14">
     <!-- Predicted -->
     <g style="fill: #262626" transform="translate(363.47625 296.5965) scale(0.1 -0.1)">
      <defs>
       <path id="ArialMT-50" d="M 494 0 
L 494 4581 
L 2222 4581 
Q 2678 4581 2919 4538 
Q 3256 4481 3484 4323 
Q 3713 4166 3852 3881 
Q 3991 3597 3991 3256 
Q 3991 2672 3619 2267 
Q 3247 1863 2275 1863 
L 1100 1863 
L 1100 0 
L 494 0 
z
M 1100 2403 
L 2284 2403 
Q 2872 2403 3119 2622 
Q 3366 2841 3366 3238 
Q 3366 3525 3220 3729 
Q 3075 3934 2838 4000 
Q 2684 4041 2272 4041 
L 1100 4041 
L 1100 2403 
z
" transform="scale(0.015625)"/>
       <path id="ArialMT-72" d="M 416 0 
L 416 3319 
L 922 3319 
L 922 2816 
Q 1116 3169 1280 3281 
Q 1444 3394 1641 3394 
Q 1925 3394 2219 3213 
L 2025 2691 
Q 1819 2813 1613 2813 
Q 1428 2813 1281 2702 
Q 1134 2591 1072 2394 
Q 978 2094 978 1738 
L 978 0 
L 416 0 
z
" transform="scale(0.015625)"/>
       <path id="ArialMT-64" d="M 2575 0 
L 2575 419 
Q 2259 -75 1647 -75 
Q 1250 -75 917 144 
Q 584 363 401 755 
Q 219 1147 219 1656 
Q 219 2153 384 2558 
Q 550 2963 881 3178 
Q 1213 3394 1622 3394 
Q 1922 3394 2156 3267 
Q 2391 3141 2538 2938 
L 2538 4581 
L 3097 4581 
L 3097 0 
L 2575 0 
z
M 797 1656 
Q 797 1019 1065 703 
Q 1334 388 1700 388 
Q 2069 388 2326 689 
Q 2584 991 2584 1609 
Q 2584 2291 2321 2609 
Q 2059 2928 1675 2928 
Q 1300 2928 1048 2622 
Q 797 2316 797 1656 
z
" transform="scale(0.015625)"/>
       <path id="ArialMT-69" d="M 425 3934 
L 425 4581 
L 988 4581 
L 988 3934 
L 425 3934 
z
M 425 0 
L 425 3319 
L 988 3319 
L 988 0 
L 425 0 
z
" transform="scale(0.015625)"/>
       <path id="ArialMT-63" d="M 2588 1216 
L 3141 1144 
Q 3050 572 2676 248 
Q 2303 -75 1759 -75 
Q 1078 -75 664 370 
Q 250 816 250 1647 
Q 250 2184 428 2587 
Q 606 2991 970 3192 
Q 1334 3394 1763 3394 
Q 2303 3394 2647 3120 
Q 2991 2847 3088 2344 
L 2541 2259 
Q 2463 2594 2264 2762 
Q 2066 2931 1784 2931 
Q 1359 2931 1093 2626 
Q 828 2322 828 1663 
Q 828 994 1084 691 
Q 1341 388 1753 388 
Q 2084 388 2306 591 
Q 2528 794 2588 1216 
z
" transform="scale(0.015625)"/>
       <path id="ArialMT-74" d="M 1650 503 
L 1731 6 
Q 1494 -44 1306 -44 
Q 1000 -44 831 53 
Q 663 150 594 308 
Q 525 466 525 972 
L 525 2881 
L 113 2881 
L 113 3319 
L 525 3319 
L 525 4141 
L 1084 4478 
L 1084 3319 
L 1650 3319 
L 1650 2881 
L 1084 2881 
L 1084 941 
Q 1084 700 1114 631 
Q 1144 563 1211 522 
Q 1278 481 1403 481 
Q 1497 481 1650 503 
z
" transform="scale(0.015625)"/>
      </defs>
      <use xlink:href="#ArialMT-50"/>
      <use xlink:href="#ArialMT-72" x="66.699219"/>
      <use xlink:href="#ArialMT-65" x="100"/>
      <use xlink:href="#ArialMT-64" x="155.615234"/>
      <use xlink:href="#ArialMT-69" x="211.230469"/>
      <use xlink:href="#ArialMT-63" x="233.447266"/>
      <use xlink:href="#ArialMT-74" x="283.447266"/>
      <use xlink:href="#ArialMT-65" x="311.230469"/>
      <use xlink:href="#ArialMT-64" x="366.845703"/>
     </g>
    </g>
   </g>
  </g>
 </g>
 <defs>
  <clipPath id="p5c9d8a0739">
   <rect x="57.6" y="41.472" width="357.12" height="266.112"/>
  </clipPath>
 </defs>
</svg>
