<?xml version="1.0" encoding="utf-8" standalone="no"?>
<!DOCTYPE svg PUBLIC "-//W3C//DTD SVG 1.1//EN"
  "http://www.w3.org/Graphics/SVG/1.1/DTD/svg11.dtd">
<svg xmlns:xlink="http://www.w3.org/1999/xlink" width="460.8pt" height="345.6pt" viewBox="0 0 460.8 345.6" xmlns="http://www.w3.org/2000/svg" version="1.1">
 <metadata>
  <rdf:RDF xmlns:dc="http://purl.org/dc/elements/1.1/" xmlns:cc="http://creativecommons.org/ns#" xmlns:rdf="http://www.w3.org/1999/02/22-rdf-syntax-ns#">
   <cc:Work>
    <dc:type rdf:resource="http://purl.org/dc/dcmitype/StillImage"/>
    <dc:date>2023-06-24T23:39:48.302635</dc:date>
    <dc:format>image/svg+xml</dc:format>
    <dc:creator>
     <cc:Agent>
      <dc:title>Matplotlib v3.7.1, https://matplotlib.org/</dc:title>
     </cc:Agent>
    </dc:creator>
   </cc:Work>
  </rdf:RDF>
 </metadata>
 <defs>
  <style type="text/css">*{stroke-linejoin: round; stroke-linecap: butt}</style>
 </defs>
 <g id="figure_1">
  <g id="patch_1">
   <path d="M 0 345.6 
L 460.8 345.6 
L 460.8 0 
L 0 0 
z
" style="fill: #ffffff"/>
  </g>
  <g id="axes_1">
   <g id="patch_2">
    <path d="M 57.6 307.584 
L 414.72 307.584 
L 414.72 41.472 
L 57.6 41.472 
z
" style="fill: #eaeaf2"/>
   </g>
   <g id="matplotlib.axis_1">
    <g id="xtick_1">
     <g id="line2d_1">
      <path d="M 73.832727 307.584 
L 73.832727 41.472 
" clip-path="url(#p2b712b8d33)" style="fill: none; stroke: #ffffff; stroke-width: 0.8; stroke-linecap: round"/>
     </g>
     <g id="text_1">
      <!-- 0 -->
      <g style="fill: #262626" transform="translate(66.881555 332.478531) scale(0.25 -0.25)">
       <defs>
        <path id="ArialMT-30" d="M 266 2259 
Q 266 3072 433 3567 
Q 600 4063 929 4331 
Q 1259 4600 1759 4600 
Q 2128 4600 2406 4451 
Q 2684 4303 2865 4023 
Q 3047 3744 3150 3342 
Q 3253 2941 3253 2259 
Q 3253 1453 3087 958 
Q 2922 463 2592 192 
Q 2263 -78 1759 -78 
Q 1097 -78 719 397 
Q 266 969 266 2259 
z
M 844 2259 
Q 844 1131 1108 757 
Q 1372 384 1759 384 
Q 2147 384 2411 759 
Q 2675 1134 2675 2259 
Q 2675 3391 2411 3762 
Q 2147 4134 1753 4134 
Q 1366 4134 1134 3806 
Q 844 3388 844 2259 
z
" transform="scale(0.015625)"/>
       </defs>
       <use xlink:href="#ArialMT-30"/>
      </g>
     </g>
    </g>
    <g id="xtick_2">
     <g id="line2d_2">
      <path d="M 223.996717 307.584 
L 223.996717 41.472 
" clip-path="url(#p2b712b8d33)" style="fill: none; stroke: #ffffff; stroke-width: 0.8; stroke-linecap: round"/>
     </g>
     <g id="text_2">
      <!-- 500 -->
      <g style="fill: #262626" transform="translate(203.143201 332.478531) scale(0.25 -0.25)">
       <defs>
        <path id="ArialMT-35" d="M 266 1200 
L 856 1250 
Q 922 819 1161 601 
Q 1400 384 1738 384 
Q 2144 384 2425 690 
Q 2706 997 2706 1503 
Q 2706 1984 2436 2262 
Q 2166 2541 1728 2541 
Q 1456 2541 1237 2417 
Q 1019 2294 894 2097 
L 366 2166 
L 809 4519 
L 3088 4519 
L 3088 3981 
L 1259 3981 
L 1013 2750 
Q 1425 3038 1878 3038 
Q 2478 3038 2890 2622 
Q 3303 2206 3303 1553 
Q 3303 931 2941 478 
Q 2500 -78 1738 -78 
Q 1113 -78 717 272 
Q 322 622 266 1200 
z
" transform="scale(0.015625)"/>
       </defs>
       <use xlink:href="#ArialMT-35"/>
       <use xlink:href="#ArialMT-30" x="55.615234"/>
       <use xlink:href="#ArialMT-30" x="111.230469"/>
      </g>
     </g>
    </g>
    <g id="xtick_3">
     <g id="line2d_3">
      <path d="M 374.160706 307.584 
L 374.160706 41.472 
" clip-path="url(#p2b712b8d33)" style="fill: none; stroke: #ffffff; stroke-width: 0.8; stroke-linecap: round"/>
     </g>
     <g id="text_3">
      <!-- 1000 -->
      <g style="fill: #262626" transform="translate(346.356019 332.478531) scale(0.25 -0.25)">
       <defs>
        <path id="ArialMT-31" d="M 2384 0 
L 1822 0 
L 1822 3584 
Q 1619 3391 1289 3197 
Q 959 3003 697 2906 
L 697 3450 
Q 1169 3672 1522 3987 
Q 1875 4303 2022 4600 
L 2384 4600 
L 2384 0 
z
" transform="scale(0.015625)"/>
       </defs>
       <use xlink:href="#ArialMT-31"/>
       <use xlink:href="#ArialMT-30" x="55.615234"/>
       <use xlink:href="#ArialMT-30" x="111.230469"/>
       <use xlink:href="#ArialMT-30" x="166.845703"/>
      </g>
     </g>
    </g>
   </g>
   <g id="matplotlib.axis_2">
    <g id="ytick_1">
     <g id="line2d_4">
      <path d="M 57.6 268.912013 
L 414.72 268.912013 
" clip-path="url(#p2b712b8d33)" style="fill: none; stroke: #ffffff; stroke-width: 0.8; stroke-linecap: round"/>
     </g>
     <g id="text_4">
      <!-- 300 -->
      <g style="fill: #262626" transform="translate(8.892969 277.859278) scale(0.25 -0.25)">
       <defs>
        <path id="ArialMT-33" d="M 269 1209 
L 831 1284 
Q 928 806 1161 595 
Q 1394 384 1728 384 
Q 2125 384 2398 659 
Q 2672 934 2672 1341 
Q 2672 1728 2419 1979 
Q 2166 2231 1775 2231 
Q 1616 2231 1378 2169 
L 1441 2663 
Q 1497 2656 1531 2656 
Q 1891 2656 2178 2843 
Q 2466 3031 2466 3422 
Q 2466 3731 2256 3934 
Q 2047 4138 1716 4138 
Q 1388 4138 1169 3931 
Q 950 3725 888 3313 
L 325 3413 
Q 428 3978 793 4289 
Q 1159 4600 1703 4600 
Q 2078 4600 2393 4439 
Q 2709 4278 2876 4000 
Q 3044 3722 3044 3409 
Q 3044 3113 2884 2869 
Q 2725 2625 2413 2481 
Q 2819 2388 3044 2092 
Q 3269 1797 3269 1353 
Q 3269 753 2831 336 
Q 2394 -81 1725 -81 
Q 1122 -81 723 278 
Q 325 638 269 1209 
z
" transform="scale(0.015625)"/>
       </defs>
       <use xlink:href="#ArialMT-33"/>
       <use xlink:href="#ArialMT-30" x="55.615234"/>
       <use xlink:href="#ArialMT-30" x="111.230469"/>
      </g>
     </g>
    </g>
    <g id="ytick_2">
     <g id="line2d_5">
      <path d="M 57.6 163.580972 
L 414.72 163.580972 
" clip-path="url(#p2b712b8d33)" style="fill: none; stroke: #ffffff; stroke-width: 0.8; stroke-linecap: round"/>
     </g>
     <g id="text_5">
      <!-- 400 -->
      <g style="fill: #262626" transform="translate(8.892969 172.528238) scale(0.25 -0.25)">
       <defs>
        <path id="ArialMT-34" d="M 2069 0 
L 2069 1097 
L 81 1097 
L 81 1613 
L 2172 4581 
L 2631 4581 
L 2631 1613 
L 3250 1613 
L 3250 1097 
L 2631 1097 
L 2631 0 
L 2069 0 
z
M 2069 1613 
L 2069 3678 
L 634 1613 
L 2069 1613 
z
" transform="scale(0.015625)"/>
       </defs>
       <use xlink:href="#ArialMT-34"/>
       <use xlink:href="#ArialMT-30" x="55.615234"/>
       <use xlink:href="#ArialMT-30" x="111.230469"/>
      </g>
     </g>
    </g>
    <g id="ytick_3">
     <g id="line2d_6">
      <path d="M 57.6 58.249932 
L 414.72 58.249932 
" clip-path="url(#p2b712b8d33)" style="fill: none; stroke: #ffffff; stroke-width: 0.8; stroke-linecap: round"/>
     </g>
     <g id="text_6">
      <!-- 500 -->
      <g style="fill: #262626" transform="translate(8.892969 67.197198) scale(0.25 -0.25)">
       <use xlink:href="#ArialMT-35"/>
       <use xlink:href="#ArialMT-30" x="55.615234"/>
       <use xlink:href="#ArialMT-30" x="111.230469"/>
      </g>
     </g>
    </g>
   </g>
   <g id="line2d_7">
    <path d="M 73.832727 258.718448 
L 74.133055 274.357954 
L 74.733711 249.935947 
L 75.034039 245.08933 
L 75.334367 253.889173 
L 75.634695 244.195928 
L 76.535679 185.44267 
L 76.836007 132.847561 
L 77.136335 124.300428 
L 77.436663 157.82136 
L 77.736991 155.287467 
L 78.037319 154.518803 
L 78.337647 150.884829 
L 78.637975 143.761729 
L 78.938303 141.313366 
L 79.238631 139.855309 
L 79.538959 136.622156 
L 79.839287 131.081896 
L 80.139615 86.133497 
L 80.439943 83.020813 
L 80.740271 117.201862 
L 81.040599 111.521882 
L 81.340927 120.914669 
L 81.641255 122.768942 
L 81.941583 105.639579 
L 82.241911 78.03237 
L 82.542239 61.948524 
L 82.842567 66.368249 
L 83.142895 102.199015 
L 83.443223 179.41929 
L 83.743551 213.319724 
L 84.043879 184.559228 
L 84.344207 134.690476 
L 84.644535 144.489582 
L 84.944863 158.357874 
L 85.24519 149.03577 
L 85.545518 113.189221 
L 85.845846 157.058049 
L 86.146174 163.323496 
L 86.446502 175.901423 
L 86.74683 219.580974 
L 87.047158 225.339983 
L 87.347486 246.160127 
L 87.647814 220.281778 
L 88.24847 258.334882 
L 88.548798 254.189364 
L 88.849126 253.855513 
L 89.449782 183.171774 
L 89.75011 113.136904 
L 90.050438 98.59792 
L 90.651094 151.138623 
L 90.951422 110.028292 
L 91.25175 153.709061 
L 91.552078 144.28095 
L 91.852406 157.948927 
L 92.152734 127.976238 
L 92.75339 106.565866 
L 93.053718 55.493985 
L 93.354046 59.627879 
L 93.654374 100.094194 
L 93.954702 119.743645 
L 94.25503 58.126092 
L 94.555358 75.221336 
L 94.855686 100.152978 
L 95.156014 71.182318 
L 95.456342 71.971659 
L 95.75667 114.947464 
L 96.056998 109.359401 
L 96.357326 97.809128 
L 96.657654 141.131291 
L 96.957982 166.1532 
L 97.25831 152.145109 
L 97.858966 187.365752 
L 98.159294 204.477842 
L 98.459622 168.145316 
L 99.060278 225.909455 
L 99.360605 200.703177 
L 99.660933 187.812567 
L 99.961261 183.570283 
L 100.261589 188.428925 
L 100.561917 199.408618 
L 100.862245 171.909784 
L 101.162573 127.511864 
L 101.462901 164.057054 
L 101.763229 175.411666 
L 102.063557 195.825685 
L 102.363885 180.609617 
L 102.664213 154.602057 
L 102.964541 217.871265 
L 103.264869 223.847098 
L 103.565197 218.566136 
L 103.865525 177.300726 
L 104.165853 226.884593 
L 104.466181 253.29319 
L 104.766509 244.389649 
L 105.066837 259.165394 
L 105.367165 239.615489 
L 106.268149 213.719813 
L 106.568477 266.330234 
L 106.868805 250.413441 
L 107.169133 256.071617 
L 107.469461 266.624848 
L 107.769789 257.530794 
L 108.070117 272.540631 
L 108.370445 266.624964 
L 108.670773 244.055777 
L 108.971101 248.423301 
L 109.271429 269.535215 
L 109.571757 251.430296 
L 109.872085 255.420203 
L 110.172413 253.046694 
L 110.472741 261.446567 
L 110.773069 263.806662 
L 111.073397 261.578192 
L 111.373725 262.661231 
L 111.674053 262.822607 
L 111.974381 269.069267 
L 112.274709 278.216781 
L 112.575037 281.487556 
L 112.875365 263.888029 
L 113.175693 260.918514 
L 113.476021 260.988127 
L 114.076676 272.321332 
L 114.377004 261.468306 
L 114.677332 279.170532 
L 114.97766 262.999233 
L 115.277988 277.532702 
L 115.578316 275.25374 
L 115.878644 250.619166 
L 116.178972 260.635721 
L 116.4793 261.34486 
L 116.779628 240.662436 
L 117.079956 243.812394 
L 117.680612 257.419191 
L 117.98094 243.981844 
L 118.281268 241.71509 
L 118.581596 262.74992 
L 118.881924 265.104385 
L 119.182252 269.408476 
L 119.48258 263.665589 
L 119.782908 269.648497 
L 120.083236 266.416027 
L 120.383564 269.213539 
L 120.683892 265.598698 
L 120.98422 255.893155 
L 121.284548 250.675228 
L 121.584876 247.452285 
L 121.885204 269.159312 
L 122.185532 270.991462 
L 122.48586 271.700325 
L 123.687172 266.311628 
L 123.9875 254.307358 
L 124.287828 254.379545 
L 124.588156 252.946631 
L 124.888484 260.451258 
L 125.188812 262.600993 
L 125.48914 268.472218 
L 126.390124 258.092326 
L 126.690452 261.054009 
L 126.99078 261.738087 
L 127.591436 265.135391 
L 127.891764 271.143023 
L 128.492419 266.702226 
L 128.792747 266.651914 
L 129.093075 267.654445 
L 129.393403 269.220206 
L 129.693731 269.710586 
L 129.994059 279.669253 
L 130.294387 270.762023 
L 130.594715 277.32047 
L 130.895043 271.184638 
L 131.195371 274.384785 
L 131.495699 278.776668 
L 131.796027 270.796366 
L 132.096355 259.07828 
L 132.697011 271.480567 
L 132.997339 260.768408 
L 133.597995 246.134935 
L 133.898323 258.125295 
L 134.198651 259.683095 
L 134.498979 246.111659 
L 134.799307 261.759032 
L 135.099635 269.079481 
L 135.399963 266.26775 
L 135.700291 262.086143 
L 136.300947 265.250298 
L 136.601275 270.743737 
L 136.901603 266.240162 
L 137.201931 273.551178 
L 137.502259 265.579206 
L 137.802587 266.664037 
L 138.102915 274.389043 
L 138.403243 273.043449 
L 138.703571 266.479091 
L 139.003899 266.149346 
L 139.304227 274.453589 
L 139.604555 266.732108 
L 139.904883 270.831765 
L 140.205211 287.828936 
L 140.505539 286.645677 
L 140.805867 293.964526 
L 141.106195 295.488 
L 141.706851 292.740063 
L 142.007179 287.654105 
L 142.307507 287.432909 
L 142.607834 284.501302 
L 142.908162 288.347286 
L 143.20849 278.83137 
L 143.508818 284.933863 
L 143.809146 285.646501 
L 144.109474 286.009202 
L 144.409802 284.95498 
L 144.71013 284.314082 
L 145.010458 276.763563 
L 145.310786 285.052035 
L 145.611114 283.596611 
L 145.911442 281.001428 
L 146.21177 285.966217 
L 146.512098 282.10007 
L 146.812426 259.249741 
L 147.112754 268.783761 
L 147.413082 269.043083 
L 147.71341 267.159446 
L 148.013738 282.430666 
L 148.314066 282.893809 
L 148.614394 282.701846 
L 148.914722 283.989304 
L 149.21505 284.393411 
L 149.815706 277.112607 
L 150.116034 264.270029 
L 150.416362 268.969396 
L 150.71669 266.309387 
L 151.017018 272.062584 
L 151.317346 261.61169 
L 151.617674 258.514597 
L 152.21833 265.65396 
L 152.518658 254.528342 
L 152.818986 260.481478 
L 153.119314 258.283779 
L 153.419642 263.283541 
L 153.71997 264.801027 
L 154.020298 262.351409 
L 154.320626 261.868373 
L 154.921282 256.518079 
L 155.22161 265.435092 
L 155.521938 259.289079 
L 156.122594 271.065834 
L 156.422922 265.501224 
L 156.72325 266.674844 
L 157.023577 265.941255 
L 157.323905 275.136682 
L 157.624233 266.991079 
L 157.924561 262.132273 
L 158.224889 261.716804 
L 158.525217 249.372282 
L 158.825545 244.020873 
L 159.125873 235.055396 
L 159.426201 200.672057 
L 159.726529 147.095965 
L 160.026857 122.540808 
L 160.627513 195.233473 
L 160.927841 168.542598 
L 161.228169 123.887072 
L 161.528497 131.208446 
L 161.828825 171.625048 
L 162.129153 170.454729 
L 162.429481 175.418189 
L 162.729809 166.49353 
L 163.030137 184.429943 
L 163.330465 173.115423 
L 163.630793 154.956116 
L 164.231449 177.970288 
L 164.531777 176.296698 
L 164.832105 186.719931 
L 165.132433 183.401329 
L 165.432761 177.295145 
L 165.733089 111.978045 
L 166.634073 142.554054 
L 166.934401 55.079035 
L 167.234729 119.931888 
L 167.535057 149.031615 
L 167.835385 135.407907 
L 168.135713 112.678472 
L 168.436041 123.555687 
L 168.736369 130.027717 
L 169.036697 130.177115 
L 169.337025 126.572597 
L 169.637353 105.637708 
L 169.937681 114.404494 
L 170.238009 128.612775 
L 170.838665 175.935845 
L 171.138993 142.647912 
L 171.739648 179.277861 
L 172.039976 158.214077 
L 172.340304 185.800212 
L 172.640632 181.28282 
L 172.94096 184.180747 
L 173.241288 177.562719 
L 173.541616 151.773533 
L 174.142272 178.602801 
L 174.4426 118.646743 
L 174.742928 130.677993 
L 175.043256 148.212457 
L 175.343584 138.130203 
L 175.94424 157.76249 
L 176.244568 160.12409 
L 176.544896 149.262453 
L 176.845224 151.460543 
L 177.145552 148.456468 
L 177.44588 151.100957 
L 177.746208 148.5025 
L 178.046536 155.530809 
L 178.647192 160.422414 
L 178.94752 114.690563 
L 179.247848 141.58917 
L 179.548176 124.835846 
L 179.848504 117.016347 
L 180.148832 70.802348 
L 180.44916 66.735393 
L 180.749488 90.264838 
L 181.049816 96.786892 
L 181.350144 76.474924 
L 181.650472 74.716206 
L 181.9508 78.548416 
L 182.551456 124.640287 
L 182.851784 139.374674 
L 183.152112 177.190661 
L 183.45244 140.969131 
L 183.752768 217.761704 
L 184.053096 250.827941 
L 184.353424 249.503969 
L 184.95408 264.570677 
L 185.254408 268.077879 
L 185.554736 269.785115 
L 185.855063 265.207296 
L 186.155391 265.071412 
L 186.455719 266.114475 
L 186.756047 251.570874 
L 187.056375 265.85683 
L 187.356703 264.034287 
L 187.657031 264.103305 
L 187.957359 257.793774 
L 188.257687 237.242986 
L 188.558015 253.701033 
L 188.858343 259.505094 
L 189.158671 256.868059 
L 189.458999 258.033963 
L 189.759327 264.226482 
L 190.059655 257.80643 
L 190.359983 263.869617 
L 190.660311 245.727552 
L 190.960639 236.528065 
L 191.561295 262.583326 
L 191.861623 246.180517 
L 192.161951 262.416976 
L 192.462279 245.627564 
L 192.762607 235.754469 
L 193.062935 260.339774 
L 193.363263 261.664452 
L 193.963919 252.406138 
L 194.264247 273.552577 
L 194.564575 275.465155 
L 194.864903 271.147834 
L 195.165231 279.039902 
L 195.465559 282.898143 
L 195.765887 279.348162 
L 196.066215 274.10799 
L 196.366543 282.384674 
L 196.666871 275.574193 
L 196.967199 271.658261 
L 197.267527 262.517206 
L 197.567855 266.780204 
L 197.868183 264.962428 
L 198.168511 235.830581 
L 198.468839 232.265062 
L 198.769167 247.685035 
L 199.069495 243.704548 
L 199.369823 256.784839 
L 199.670151 228.624726 
L 200.270806 257.153022 
L 200.571134 252.81975 
L 200.871462 259.300128 
L 201.472118 261.305001 
L 201.772446 255.575593 
L 202.072774 255.879621 
L 202.373102 255.03444 
L 202.67343 254.866499 
L 202.973758 261.100914 
L 203.274086 252.701848 
L 203.574414 254.684768 
L 203.874742 261.612584 
L 204.17507 250.592419 
L 204.775726 253.843316 
L 205.076054 254.991436 
L 205.376382 235.080563 
L 205.67671 254.45515 
L 205.977038 254.902588 
L 206.277366 257.57639 
L 206.878022 249.525201 
L 207.17835 252.689465 
L 207.478678 253.158226 
L 207.779006 254.691618 
L 208.079334 256.877826 
L 208.379662 251.945113 
L 208.67999 231.529165 
L 208.980318 252.502904 
L 209.280646 243.058417 
L 209.580974 238.584438 
L 209.881302 240.239076 
L 210.481958 250.496946 
L 210.782286 237.209993 
L 211.082614 236.606907 
L 211.382942 258.092577 
L 211.983598 256.312249 
L 212.283926 252.062078 
L 212.584254 257.493026 
L 212.884582 257.520228 
L 213.18491 254.424602 
L 213.485238 258.095571 
L 213.785566 256.351627 
L 214.386222 248.351686 
L 214.686549 256.294324 
L 214.986877 252.883692 
L 215.287205 247.861497 
L 215.587533 249.043847 
L 215.887861 251.987147 
L 216.188189 247.256959 
L 216.788845 260.49326 
L 217.089173 262.960021 
L 217.389501 258.026668 
L 217.689829 257.247609 
L 217.990157 253.893798 
L 218.290485 245.508432 
L 218.590813 244.033554 
L 218.891141 247.197823 
L 219.191469 257.857764 
L 219.491797 246.396064 
L 219.792125 256.464413 
L 220.092453 261.07105 
L 220.693109 253.548663 
L 220.993437 263.102116 
L 221.293765 258.830695 
L 221.594093 257.049041 
L 221.894421 264.331127 
L 222.495077 259.329858 
L 222.795405 256.453568 
L 223.095733 244.762155 
L 223.696389 237.070145 
L 223.996717 238.862724 
L 224.597373 245.393757 
L 224.897701 243.079048 
L 225.198029 242.784383 
L 225.498357 241.583631 
L 225.798685 255.35225 
L 226.099013 253.316194 
L 226.399341 249.240177 
L 226.699669 253.029448 
L 226.999997 251.803913 
L 227.300325 248.226963 
L 227.600653 246.987299 
L 227.900981 261.688378 
L 228.201309 262.239911 
L 228.501637 264.962697 
L 228.801965 256.830364 
L 229.102292 262.487534 
L 229.702948 252.853703 
L 230.003276 264.088877 
L 230.303604 265.538541 
L 230.603932 265.436999 
L 230.90426 264.035234 
L 231.204588 268.352882 
L 231.504916 268.621978 
L 231.805244 265.035593 
L 232.105572 268.170356 
L 232.4059 266.365013 
L 232.706228 267.289563 
L 233.006556 267.132987 
L 233.306884 265.218976 
L 233.607212 260.662964 
L 233.90754 263.777985 
L 234.207868 259.40572 
L 234.808524 267.471083 
L 235.40918 247.956441 
L 235.709508 257.019446 
L 236.009836 235.37329 
L 236.310164 246.867921 
L 236.610492 249.241465 
L 236.91082 247.607567 
L 237.211148 266.412637 
L 237.511476 267.371319 
L 237.811804 265.863848 
L 238.112132 262.877033 
L 238.41246 271.726668 
L 238.712788 267.236764 
L 239.013116 273.676486 
L 239.313444 270.285859 
L 239.613772 272.517268 
L 239.9141 258.150953 
L 240.214428 271.898108 
L 240.514756 270.582628 
L 240.815084 272.487313 
L 241.115412 262.042047 
L 241.41574 271.176152 
L 241.716068 271.68807 
L 242.016396 267.847772 
L 242.316724 266.163651 
L 242.617052 260.143339 
L 242.91738 268.16611 
L 243.217708 264.920181 
L 243.518035 263.024595 
L 243.818363 266.987701 
L 244.118691 265.400763 
L 244.419019 267.574271 
L 244.719347 268.703185 
L 245.320003 264.174309 
L 245.620331 263.547445 
L 245.920659 259.639861 
L 246.220987 250.483076 
L 246.521315 246.176164 
L 246.821643 251.348654 
L 247.121971 242.430899 
L 247.422299 258.602708 
L 247.722627 260.36713 
L 248.022955 253.120426 
L 248.323283 253.374511 
L 248.623611 256.324614 
L 248.923939 245.425221 
L 249.224267 239.147758 
L 249.824923 160.930325 
L 250.125251 189.257238 
L 250.425579 195.876474 
L 250.725907 182.726392 
L 251.026235 197.712987 
L 251.626891 181.234844 
L 251.927219 184.070589 
L 252.227547 184.095229 
L 252.527875 196.869864 
L 252.828203 144.879527 
L 253.128531 163.157513 
L 253.428859 163.210992 
L 253.729187 170.435969 
L 254.029515 166.078362 
L 254.329843 167.986891 
L 254.630171 189.019259 
L 254.930499 185.596736 
L 255.230827 152.711482 
L 255.531155 132.505397 
L 255.831483 136.167776 
L 256.131811 76.880595 
L 256.432139 76.310182 
L 256.732467 92.676416 
L 257.333123 70.800318 
L 257.633451 62.535953 
L 257.933778 78.592538 
L 258.234106 53.568 
L 258.534434 136.799284 
L 258.834762 125.142893 
L 259.13509 174.878771 
L 259.435418 177.692202 
L 259.735746 174.003516 
L 260.036074 193.410856 
L 260.336402 190.809332 
L 260.63673 172.782712 
L 260.937058 213.012181 
L 261.537714 230.724671 
L 261.838042 229.52375 
L 262.13837 221.511034 
L 262.438698 218.314309 
L 262.739026 232.765525 
L 263.039354 220.160878 
L 263.339682 215.609184 
L 263.64001 218.403692 
L 264.240666 238.693299 
L 264.540994 245.503452 
L 264.841322 228.289335 
L 265.742306 254.524363 
L 266.042634 255.443874 
L 266.342962 208.523672 
L 266.64329 239.921714 
L 266.943618 252.667088 
L 267.243946 251.80782 
L 267.544274 251.912147 
L 267.844602 250.657159 
L 268.14493 232.730683 
L 268.445258 227.941494 
L 268.745586 229.691047 
L 269.045914 242.485627 
L 269.346242 233.380694 
L 269.64657 244.513268 
L 269.946898 235.292538 
L 270.247226 246.65336 
L 270.547554 245.392064 
L 270.847882 258.79629 
L 271.14821 262.81937 
L 271.448538 262.176685 
L 271.748866 244.880557 
L 272.049194 236.328384 
L 272.649849 272.842902 
L 272.950177 258.528905 
L 273.250505 259.56001 
L 273.851161 267.780634 
L 274.151489 265.970783 
L 274.451817 256.651472 
L 274.752145 265.53759 
L 275.052473 253.263502 
L 275.352801 261.489427 
L 275.653129 259.41315 
L 276.253785 260.323849 
L 276.854441 252.587921 
L 277.154769 215.329449 
L 277.455097 262.683955 
L 277.755425 279.881994 
L 278.055753 281.392964 
L 278.656409 275.996272 
L 278.956737 269.311069 
L 279.257065 285.362398 
L 279.557393 277.863898 
L 280.158049 273.535264 
L 280.458377 256.201096 
L 280.758705 254.136123 
L 281.059033 256.917334 
L 281.359361 251.3497 
L 281.659689 249.842005 
L 281.960017 249.372484 
L 282.260345 256.489974 
L 282.560673 254.932502 
L 282.861001 243.839217 
L 283.161329 241.683922 
L 283.761985 262.925929 
L 284.062313 264.740802 
L 284.362641 264.521706 
L 284.662969 260.306437 
L 284.963297 268.767288 
L 285.263625 260.979193 
L 285.864281 268.089213 
L 286.164609 268.292869 
L 286.464937 264.637528 
L 286.765264 271.10035 
L 287.065592 266.58763 
L 287.36592 269.44211 
L 287.666248 265.84282 
L 287.966576 243.553391 
L 288.266904 232.151699 
L 288.567232 239.67432 
L 288.86756 244.118944 
L 289.167888 238.8998 
L 289.468216 247.271244 
L 289.768544 242.221495 
L 290.068872 239.273864 
L 290.3692 241.435834 
L 290.669528 238.947128 
L 290.969856 242.699884 
L 291.570512 252.872884 
L 291.87084 243.224315 
L 292.171168 247.295426 
L 292.471496 242.169596 
L 292.771824 241.128766 
L 293.072152 248.938244 
L 293.37248 250.028841 
L 293.672808 247.928413 
L 293.973136 249.88242 
L 294.273464 241.548376 
L 294.87412 236.77821 
L 295.174448 235.351023 
L 295.474776 230.289475 
L 295.775104 229.126845 
L 296.075432 240.026084 
L 296.37576 239.105683 
L 296.676088 244.28611 
L 296.976416 241.472646 
L 297.276744 249.986798 
L 297.577072 233.880191 
L 297.8774 258.144271 
L 299.078712 250.47106 
L 299.37904 249.722475 
L 299.679368 265.66069 
L 299.979696 264.691858 
L 300.280024 258.251687 
L 300.580352 266.082552 
L 300.88068 263.614069 
L 301.181007 264.661113 
L 301.481335 266.59326 
L 301.781663 265.830083 
L 302.081991 269.431555 
L 302.382319 269.414599 
L 302.682647 263.934043 
L 302.982975 264.914841 
L 303.283303 275.625772 
L 303.583631 274.270028 
L 304.184287 257.532299 
L 304.484615 258.524578 
L 305.085271 276.311645 
L 305.385599 270.519653 
L 305.685927 274.951228 
L 305.986255 260.807356 
L 306.286583 272.376531 
L 306.586911 269.339422 
L 306.887239 270.164145 
L 307.187567 272.968907 
L 307.487895 268.121071 
L 307.788223 254.46683 
L 308.088551 264.888598 
L 308.388879 260.081132 
L 308.989535 245.738635 
L 309.590191 250.318976 
L 309.890519 248.302335 
L 310.190847 244.761942 
L 311.091831 252.26632 
L 311.392159 245.832027 
L 311.692487 261.92642 
L 311.992815 241.972852 
L 312.293143 257.023479 
L 312.893799 266.125442 
L 313.194127 272.922015 
L 313.494455 268.228947 
L 313.794783 268.551991 
L 314.095111 266.463804 
L 314.395439 262.621897 
L 314.695767 265.540858 
L 314.996095 259.296275 
L 315.296423 245.11157 
L 315.59675 276.873118 
L 315.897078 275.957471 
L 316.197406 273.686945 
L 316.497734 244.888711 
L 316.798062 237.571478 
L 317.09839 219.358945 
L 317.398718 238.619102 
L 317.699046 229.530814 
L 318.299702 243.352726 
L 318.60003 253.700122 
L 318.900358 252.745188 
L 319.200686 263.913269 
L 319.501014 265.041183 
L 319.801342 255.799053 
L 320.10167 259.074681 
L 320.401998 241.07311 
L 320.702326 230.369286 
L 321.002654 228.3367 
L 321.302982 243.086617 
L 321.60331 242.402074 
L 321.903638 252.594344 
L 322.203966 256.969192 
L 322.504294 257.265819 
L 322.804622 255.337281 
L 323.10495 252.507032 
L 323.405278 247.654034 
L 323.705606 240.725952 
L 324.306262 205.402299 
L 324.60659 206.053485 
L 324.906918 211.687314 
L 325.207246 203.501302 
L 325.507574 210.472994 
L 325.807902 203.649041 
L 326.10823 192.224486 
L 326.408558 185.366594 
L 326.708886 191.133233 
L 327.009214 188.052487 
L 327.309542 190.514956 
L 327.60987 187.460938 
L 327.910198 156.944068 
L 328.210526 172.397009 
L 328.510854 164.682673 
L 328.811182 107.119741 
L 329.11151 156.441171 
L 329.411838 156.277951 
L 329.712166 162.722682 
L 330.012493 103.111001 
L 330.312821 108.046332 
L 330.613149 90.583771 
L 330.913477 131.779894 
L 331.213805 141.270291 
L 331.514133 131.403364 
L 331.814461 71.110238 
L 332.114789 122.855911 
L 332.415117 131.035522 
L 332.715445 151.354532 
L 333.015773 109.969036 
L 333.316101 133.918856 
L 333.616429 126.679573 
L 333.916757 136.200146 
L 334.217085 139.243054 
L 334.517413 162.758782 
L 334.817741 167.524603 
L 335.118069 157.679115 
L 335.418397 129.645241 
L 335.718725 118.706957 
L 336.319381 58.264781 
L 336.619709 129.748181 
L 336.920037 132.955246 
L 337.220365 119.408998 
L 337.520693 77.187959 
L 337.821021 145.629977 
L 338.121349 57.126415 
L 338.421677 127.332952 
L 338.722005 129.332412 
L 339.022333 164.264296 
L 339.322661 144.701445 
L 339.622989 107.002313 
L 339.923317 110.391798 
L 340.223645 131.430003 
L 340.523973 129.321599 
L 341.725285 55.897694 
L 342.025613 76.197579 
L 342.325941 59.849675 
L 342.626269 64.371916 
L 342.926597 58.072356 
L 343.226925 83.972224 
L 343.527253 84.722769 
L 343.827581 79.446556 
L 344.127909 91.19081 
L 344.428236 136.933109 
L 344.728564 80.89807 
L 345.028892 191.402817 
L 345.32922 199.771038 
L 345.629548 202.332116 
L 345.929876 211.535269 
L 346.230204 246.693396 
L 346.530532 254.650548 
L 346.83086 275.720265 
L 347.131188 254.990595 
L 347.731844 257.660958 
L 348.032172 261.803487 
L 348.3325 259.837245 
L 348.933156 268.039742 
L 349.233484 265.092012 
L 349.533812 271.090508 
L 349.83414 268.07004 
L 350.134468 257.465128 
L 350.434796 260.590016 
L 350.735124 243.962566 
L 351.035452 235.261782 
L 351.33578 210.781779 
L 351.636108 245.019833 
L 351.936436 256.902151 
L 352.236764 232.970446 
L 352.537092 250.588908 
L 352.83742 247.766457 
L 353.137748 249.146032 
L 353.438076 247.624959 
L 353.738404 254.49109 
L 354.038732 257.813634 
L 354.33906 258.300755 
L 354.639388 257.608029 
L 354.939716 264.183636 
L 355.240044 258.557407 
L 355.540372 227.955345 
L 355.8407 236.670257 
L 356.141028 237.072463 
L 356.441356 246.432479 
L 356.741684 246.653705 
L 357.042012 244.360698 
L 357.34234 249.021968 
L 357.642668 248.08045 
L 357.942996 245.371906 
L 358.543652 232.904891 
L 359.144307 205.594237 
L 359.744963 202.318047 
L 360.045291 223.815278 
L 360.345619 226.254907 
L 360.645947 221.321954 
L 360.946275 253.43849 
L 361.246603 267.654264 
L 361.546931 261.154026 
L 361.847259 264.633369 
L 362.147587 249.240728 
L 362.447915 255.549977 
L 362.748243 256.821627 
L 363.048571 254.585796 
L 363.348899 250.660464 
L 363.649227 245.10718 
L 363.949555 251.463526 
L 364.249883 252.904833 
L 364.550211 267.110288 
L 364.850539 275.118641 
L 365.150867 254.807259 
L 365.451195 256.258514 
L 365.751523 255.235804 
L 366.051851 255.462718 
L 366.352179 243.709401 
L 366.652507 253.324782 
L 366.952835 248.249863 
L 367.253163 247.413218 
L 367.553491 256.630662 
L 367.853819 255.062974 
L 368.154147 254.804525 
L 368.454475 254.964455 
L 368.754803 230.692553 
L 369.055131 253.843718 
L 369.355459 248.527114 
L 369.655787 237.556792 
L 369.956115 247.942374 
L 370.256443 241.151317 
L 370.556771 229.423896 
L 370.857099 237.945052 
L 371.457755 222.286958 
L 371.758083 238.252213 
L 372.058411 240.622933 
L 372.358739 242.006071 
L 372.659067 241.659003 
L 372.959395 241.626911 
L 373.259722 247.945856 
L 373.56005 244.754316 
L 373.860378 230.56947 
L 374.160706 237.773857 
L 374.461034 233.313302 
L 374.761362 247.457793 
L 375.06169 254.478799 
L 375.362018 258.171567 
L 375.662346 257.27793 
L 375.962674 258.953616 
L 376.263002 259.257478 
L 376.56333 260.82492 
L 376.863658 256.293677 
L 377.163986 243.72777 
L 377.464314 247.924156 
L 377.764642 241.110027 
L 378.06497 248.467795 
L 378.365298 260.758215 
L 378.665626 260.013537 
L 378.965954 260.75317 
L 379.266282 259.724398 
L 379.56661 264.329191 
L 379.866938 260.881841 
L 380.167266 262.034856 
L 380.467594 258.879723 
L 380.767922 259.177373 
L 381.06825 255.910417 
L 381.368578 249.213875 
L 381.668906 254.008384 
L 381.969234 252.125601 
L 382.269562 240.267639 
L 382.56989 255.492594 
L 382.870218 261.726423 
L 383.170546 253.640799 
L 383.470874 253.006641 
L 383.771202 258.531131 
L 384.07153 258.571994 
L 384.371858 253.798241 
L 384.672186 265.113305 
L 384.972514 255.556686 
L 385.272842 252.134853 
L 385.57317 252.631574 
L 385.873498 255.718354 
L 386.173826 240.039784 
L 386.474154 236.460095 
L 386.774482 251.965406 
L 387.07481 247.909346 
L 387.375137 252.647855 
L 387.675465 252.316861 
L 387.975793 250.850913 
L 388.276121 247.346606 
L 388.576449 266.341888 
L 388.876777 262.44757 
L 389.177105 247.683995 
L 389.477433 260.815133 
L 389.777761 242.749058 
L 390.078089 273.141196 
L 390.678745 267.333645 
L 390.979073 240.990457 
L 391.279401 248.213255 
L 391.579729 247.683624 
L 391.880057 237.420743 
L 392.180385 214.320123 
L 392.480713 244.443222 
L 392.781041 239.05959 
L 393.081369 239.333246 
L 393.682025 249.134762 
L 393.982353 241.312534 
L 394.282681 241.342663 
L 394.583009 240.520637 
L 395.183665 231.848495 
L 396.384977 255.312235 
L 396.685305 254.971797 
L 396.985633 248.289724 
L 397.285961 246.636141 
L 397.586289 250.680238 
L 397.886617 244.439296 
L 398.186945 249.164671 
L 398.487273 235.393961 
L 398.487273 235.393961 
" clip-path="url(#p2b712b8d33)" style="fill: none; stroke: #0000ff; stroke-linecap: round"/>
   </g>
   <g id="line2d_8">
    <path d="M 73.832727 259.07924 
L 74.133055 273.763547 
L 74.733711 250.355999 
L 75.034039 245.223747 
L 75.334367 253.720016 
L 75.634695 244.494003 
L 76.535679 185.743404 
L 76.836007 132.940755 
L 77.136335 124.645904 
L 77.436663 157.396888 
L 78.037319 153.839812 
L 78.337647 151.419622 
L 78.637975 143.833717 
L 78.938303 140.887096 
L 79.238631 139.827196 
L 79.538959 136.951969 
L 79.839287 130.999325 
L 80.139615 86.589279 
L 80.439943 82.971675 
L 80.740271 117.331812 
L 81.040599 111.478559 
L 81.340927 120.840672 
L 81.641255 122.191094 
L 81.941583 105.951862 
L 82.241911 77.436363 
L 82.542239 62.596798 
L 82.842567 66.231793 
L 83.142895 102.340944 
L 83.443223 179.402326 
L 83.743551 213.055542 
L 84.043879 184.78627 
L 84.344207 134.690862 
L 84.644535 144.492229 
L 84.944863 158.105996 
L 85.24519 149.198277 
L 85.545518 113.372351 
L 85.845846 156.967342 
L 86.146174 163.289261 
L 86.446502 175.652704 
L 86.74683 219.55956 
L 87.047158 225.222807 
L 87.347486 246.480307 
L 87.647814 220.24173 
L 88.24847 258.312145 
L 88.548798 254.344197 
L 88.849126 254.073252 
L 89.449782 183.236648 
L 89.75011 113.039077 
L 90.050438 98.755516 
L 90.651094 150.986057 
L 90.951422 110.859071 
L 91.25175 152.42523 
L 91.552078 144.815313 
L 91.852406 157.978382 
L 92.152734 127.541093 
L 92.75339 105.741412 
L 93.053718 56.181981 
L 93.354046 59.497395 
L 93.654374 100.212175 
L 93.954702 119.656244 
L 94.25503 58.172689 
L 94.555358 75.588248 
L 94.855686 99.857107 
L 95.156014 71.305285 
L 95.456342 72.051423 
L 95.75667 114.80606 
L 96.056998 109.158499 
L 96.357326 97.752962 
L 96.657654 141.007863 
L 96.957982 165.739474 
L 97.25831 152.128793 
L 97.858966 187.75253 
L 98.159294 204.174343 
L 98.459622 168.155872 
L 98.75995 203.601785 
L 99.060278 225.901474 
L 99.360605 200.605116 
L 99.660933 188.213321 
L 99.961261 183.938362 
L 100.261589 188.454244 
L 100.561917 198.514053 
L 100.862245 172.059883 
L 101.162573 127.950999 
L 101.462901 164.287058 
L 101.763229 175.354853 
L 102.063557 195.538695 
L 102.363885 180.399641 
L 102.664213 155.102222 
L 102.964541 218.180787 
L 103.264869 223.785402 
L 103.565197 218.354303 
L 103.865525 177.351251 
L 104.165853 226.761371 
L 104.466181 253.265043 
L 104.766509 244.591465 
L 105.066837 258.511697 
L 105.367165 239.661498 
L 106.268149 213.850314 
L 106.568477 266.105156 
L 106.868805 250.475963 
L 107.169133 255.905005 
L 107.469461 266.570287 
L 107.769789 258.149397 
L 108.070117 271.860272 
L 108.370445 266.204965 
L 108.670773 245.033195 
L 108.971101 248.48818 
L 109.271429 269.501446 
L 109.571757 251.345567 
L 109.872085 255.364238 
L 110.172413 252.949866 
L 110.472741 262.110722 
L 110.773069 263.716307 
L 111.073397 261.941417 
L 111.373725 262.838506 
L 111.674053 262.651843 
L 111.974381 268.972412 
L 112.274709 278.127482 
L 112.575037 280.42832 
L 112.875365 264.112391 
L 113.175693 260.834329 
L 113.476021 260.940599 
L 114.076676 272.01823 
L 114.377004 262.163471 
L 114.677332 278.799045 
L 114.97766 263.093379 
L 115.277988 277.171505 
L 115.578316 275.385622 
L 115.878644 251.162247 
L 116.178972 261.05124 
L 116.4793 261.255615 
L 116.779628 240.594717 
L 117.079956 243.812894 
L 117.680612 256.690488 
L 117.98094 244.014022 
L 118.281268 242.548105 
L 118.581596 262.94979 
L 118.881924 265.260239 
L 119.182252 268.771895 
L 119.48258 263.542148 
L 119.782908 269.60058 
L 120.083236 266.337079 
L 120.383564 269.084693 
L 120.683892 265.29113 
L 121.284548 250.260305 
L 121.584876 248.357384 
L 121.885204 269.147117 
L 122.185532 271.183245 
L 122.48586 271.66792 
L 122.786188 269.599294 
L 123.086516 269.290675 
L 123.687172 265.246834 
L 123.9875 254.944689 
L 124.588156 253.489701 
L 124.888484 260.478522 
L 125.188812 262.185233 
L 125.48914 268.26054 
L 126.390124 258.701929 
L 126.690452 261.282745 
L 126.99078 261.414537 
L 127.591436 265.36429 
L 127.891764 271.112849 
L 128.192091 268.39574 
L 128.492419 266.902243 
L 128.792747 267.002791 
L 129.093075 267.455096 
L 129.393403 269.262162 
L 129.693731 269.615784 
L 129.994059 278.701004 
L 130.294387 270.918375 
L 130.594715 276.333659 
L 130.895043 271.737448 
L 131.195371 274.009356 
L 131.495699 278.850026 
L 132.096355 259.869416 
L 132.396683 264.608284 
L 132.697011 271.417707 
L 133.297667 253.741553 
L 133.597995 246.938559 
L 133.898323 257.935668 
L 134.198651 259.673881 
L 134.498979 246.444016 
L 134.799307 261.872692 
L 135.099635 269.060038 
L 135.700291 261.912166 
L 136.300947 265.563425 
L 136.601275 270.479667 
L 136.901603 266.749139 
L 137.201931 273.254893 
L 137.502259 265.54671 
L 137.802587 266.736828 
L 138.102915 273.650527 
L 138.403243 272.996548 
L 138.703571 266.955474 
L 139.003899 266.1211 
L 139.304227 274.700559 
L 139.604555 267.564902 
L 139.904883 270.38963 
L 140.205211 288.120816 
L 140.505539 286.537315 
L 140.805867 293.956325 
L 141.106195 294.82368 
L 141.406523 294.082396 
L 141.706851 292.741843 
L 142.007179 287.738972 
L 142.307507 287.218938 
L 142.607834 284.987243 
L 142.908162 287.744083 
L 143.20849 278.906311 
L 143.508818 284.925847 
L 143.809146 285.558194 
L 144.109474 285.720202 
L 144.71013 284.168234 
L 145.010458 277.444283 
L 145.310786 284.668145 
L 145.911442 281.724514 
L 146.21177 285.345558 
L 146.512098 282.238119 
L 146.812426 259.441927 
L 147.112754 269.234293 
L 147.413082 269.259109 
L 147.71341 266.858527 
L 148.013738 281.825705 
L 148.614394 282.807494 
L 149.21505 284.63674 
L 149.815706 277.649237 
L 150.116034 264.318373 
L 150.416362 269.000667 
L 150.71669 266.09667 
L 151.017018 271.931215 
L 151.317346 261.67494 
L 151.617674 258.71019 
L 151.918002 263.004178 
L 152.21833 265.261653 
L 152.518658 254.740539 
L 152.818986 260.423491 
L 153.119314 259.225337 
L 153.419642 263.080361 
L 153.71997 265.020891 
L 154.020298 261.536558 
L 154.320626 262.229785 
L 154.921282 256.759116 
L 155.22161 264.910089 
L 155.521938 259.310166 
L 156.122594 271.009344 
L 156.422922 266.064237 
L 156.72325 267.018928 
L 157.023577 265.679081 
L 157.323905 275.442968 
L 157.624233 266.026949 
L 157.924561 262.414906 
L 158.224889 261.632798 
L 158.525217 250.004435 
L 159.125873 235.1199 
L 159.426201 200.567153 
L 159.726529 146.999563 
L 160.026857 122.628227 
L 160.627513 194.557357 
L 160.927841 169.142418 
L 161.228169 123.970709 
L 161.528497 131.186727 
L 161.828825 171.652066 
L 162.129153 171.096835 
L 162.429481 175.247266 
L 162.729809 166.709563 
L 163.030137 184.332132 
L 163.330465 172.713252 
L 163.630793 156.463573 
L 164.231449 177.051696 
L 164.531777 176.647576 
L 164.832105 186.516575 
L 165.132433 183.504251 
L 165.432761 176.293344 
L 165.733089 112.650869 
L 166.033417 123.945572 
L 166.333745 130.51375 
L 166.634073 143.197449 
L 166.934401 55.400549 
L 167.234729 120.019348 
L 167.535057 148.016485 
L 167.835385 135.695216 
L 168.135713 113.245927 
L 168.436041 124.193438 
L 168.736369 129.077728 
L 169.036697 130.128338 
L 169.337025 126.055343 
L 169.637353 106.329431 
L 169.937681 114.244946 
L 170.238009 128.836323 
L 170.838665 175.890573 
L 171.138993 142.935246 
L 171.739648 178.219666 
L 172.039976 159.684193 
L 172.340304 184.581606 
L 172.640632 181.080525 
L 172.94096 184.2501 
L 173.241288 177.707315 
L 173.541616 152.591899 
L 174.142272 177.654502 
L 174.4426 119.3411 
L 174.742928 130.72375 
L 175.043256 147.460997 
L 175.343584 138.915547 
L 175.94424 157.204343 
L 176.244568 159.352591 
L 176.544896 149.066613 
L 176.845224 151.224119 
L 177.145552 149.013961 
L 177.44588 150.971753 
L 177.746208 149.23534 
L 178.046536 154.92276 
L 178.647192 160.234796 
L 178.94752 115.332201 
L 179.247848 141.513335 
L 179.548176 124.340563 
L 179.848504 116.960126 
L 180.148832 71.135948 
L 180.44916 66.616466 
L 180.749488 89.83854 
L 181.049816 96.887021 
L 181.350144 76.320467 
L 181.650472 74.717261 
L 181.9508 78.615262 
L 182.551456 125.619817 
L 182.851784 139.264282 
L 183.152112 177.128007 
L 183.45244 140.829847 
L 183.752768 217.977987 
L 184.053096 251.113581 
L 184.353424 249.454411 
L 184.95408 264.758753 
L 185.254408 267.958961 
L 185.554736 269.554484 
L 185.855063 265.033106 
L 186.155391 265.109256 
L 186.455719 265.465513 
L 186.756047 251.540459 
L 187.056375 265.811259 
L 187.356703 263.753563 
L 187.657031 263.8508 
L 187.957359 257.94904 
L 188.257687 238.110077 
L 188.558015 253.738242 
L 188.858343 259.073358 
L 189.158671 257.47806 
L 189.458999 258.028437 
L 189.759327 264.080215 
L 190.059655 257.837788 
L 190.359983 264.071536 
L 190.660311 245.413239 
L 190.960639 236.920474 
L 191.561295 261.772852 
L 191.861623 246.248802 
L 192.161951 262.109501 
L 192.462279 245.720572 
L 192.762607 235.709109 
L 193.062935 260.525871 
L 193.363263 261.377603 
L 193.963919 253.412843 
L 194.264247 273.270258 
L 194.564575 274.812872 
L 194.864903 270.736405 
L 195.165231 279.044661 
L 195.465559 282.972652 
L 196.066215 274.622416 
L 196.366543 281.583978 
L 197.267527 262.365339 
L 197.567855 267.113529 
L 197.868183 265.415336 
L 198.168511 237.011571 
L 198.468839 231.544116 
L 198.769167 247.573702 
L 199.069495 243.743719 
L 199.369823 256.437028 
L 199.670151 229.508502 
L 200.270806 257.133342 
L 200.571134 252.904318 
L 200.871462 259.830168 
L 201.17179 259.763596 
L 201.472118 261.363974 
L 201.772446 255.555241 
L 202.072774 255.91722 
L 202.373102 255.120133 
L 202.67343 255.120133 
L 202.973758 261.035747 
L 203.274086 252.659216 
L 203.574414 254.346351 
L 203.874742 261.066252 
L 204.17507 250.518972 
L 204.475398 252.71579 
L 205.076054 254.950635 
L 205.376382 235.860863 
L 205.67671 254.484701 
L 205.977038 254.530989 
L 206.277366 257.567357 
L 206.878022 250.242465 
L 207.17835 252.347993 
L 207.478678 253.11345 
L 208.079334 256.716717 
L 208.379662 252.015555 
L 208.67999 231.817762 
L 208.980318 252.43758 
L 209.280646 242.980737 
L 209.580974 238.966181 
L 209.881302 240.325089 
L 210.481958 250.556774 
L 210.782286 237.273934 
L 211.082614 236.469036 
L 211.382942 258.017572 
L 211.68327 256.73864 
L 211.983598 256.255283 
L 212.283926 252.729741 
L 212.584254 257.305122 
L 212.884582 257.282139 
L 213.18491 255.43351 
L 213.485238 257.371243 
L 213.785566 256.380261 
L 214.386222 248.527075 
L 214.686549 256.044319 
L 214.986877 253.071919 
L 215.287205 247.908969 
L 215.587533 248.739196 
L 215.887861 251.993118 
L 216.188189 247.453481 
L 216.788845 260.568559 
L 217.089173 262.371414 
L 217.389501 257.717311 
L 217.689829 257.279503 
L 217.990157 253.733613 
L 218.290485 246.147676 
L 218.590813 244.561089 
L 218.891141 247.081023 
L 219.191469 257.690149 
L 219.491797 247.061736 
L 219.792125 255.876332 
L 220.092453 261.170946 
L 220.693109 253.20474 
L 220.993437 262.67894 
L 221.293765 258.776729 
L 221.594093 258.006033 
L 221.894421 263.556742 
L 222.495077 260.122554 
L 222.795405 256.342524 
L 223.095733 244.674334 
L 223.696389 237.446068 
L 223.996717 239.211957 
L 224.597373 244.736662 
L 225.198029 243.344388 
L 225.498357 241.607653 
L 225.798685 255.241704 
L 226.099013 253.204515 
L 226.399341 249.848309 
L 226.699669 253.080791 
L 226.999997 251.568136 
L 227.300325 248.242789 
L 227.600653 246.850836 
L 227.900981 260.903729 
L 228.201309 262.344509 
L 228.501637 265.014205 
L 228.801965 257.144882 
L 229.102292 262.642071 
L 229.702948 253.510852 
L 230.003276 263.799722 
L 230.303604 265.522473 
L 230.603932 265.468664 
L 230.90426 263.791429 
L 231.204588 267.596339 
L 231.504916 268.739461 
L 231.805244 265.883585 
L 232.105572 267.189679 
L 232.4059 266.158259 
L 232.706228 267.280841 
L 233.006556 267.347541 
L 233.306884 265.147122 
L 233.607212 260.828029 
L 233.90754 263.0856 
L 234.207868 259.585452 
L 234.508196 264.287611 
L 234.808524 266.923426 
L 235.108852 259.249381 
L 235.40918 248.424084 
L 235.709508 256.511153 
L 236.009836 236.55798 
L 236.310164 246.629779 
L 236.610492 249.30105 
L 236.91082 248.736785 
L 237.211148 266.129072 
L 237.511476 267.139212 
L 237.811804 266.366073 
L 238.112132 262.516546 
L 238.41246 271.850468 
L 238.712788 267.989241 
L 239.013116 272.739745 
L 239.313444 270.563178 
L 239.613772 272.546075 
L 239.9141 258.229726 
L 240.214428 271.080576 
L 240.514756 270.53772 
L 240.815084 272.389371 
L 241.115412 263.081164 
L 241.41574 270.956145 
L 241.716068 271.010533 
L 242.316724 266.185196 
L 242.617052 260.857955 
L 242.91738 267.713698 
L 243.217708 264.89842 
L 243.518035 263.385476 
L 243.818363 267.136416 
L 244.118691 265.574162 
L 244.419019 267.678854 
L 244.719347 268.074649 
L 245.320003 263.89982 
L 245.620331 263.242787 
L 245.920659 259.6112 
L 246.220987 250.693291 
L 246.521315 246.109778 
L 246.821643 251.452737 
L 247.121971 242.425152 
L 247.422299 258.603116 
L 247.722627 259.870445 
L 248.022955 253.192429 
L 248.323283 253.453474 
L 248.623611 256.302118 
L 249.224267 238.496968 
L 249.824923 161.441243 
L 250.125251 189.247409 
L 250.425579 195.984957 
L 250.725907 182.749595 
L 251.026235 197.967372 
L 251.626891 181.10129 
L 251.927219 183.503158 
L 252.227547 184.032546 
L 252.527875 196.429708 
L 252.828203 145.136822 
L 253.128531 164.385259 
L 253.428859 162.529333 
L 253.729187 170.477571 
L 254.029515 166.369346 
L 254.329843 167.895148 
L 254.630171 188.98675 
L 254.930499 184.86033 
L 255.531155 132.654155 
L 255.831483 136.201074 
L 256.131811 76.848473 
L 256.432139 76.33625 
L 256.732467 92.209131 
L 257.333123 70.824307 
L 257.633451 62.579922 
L 257.933778 78.354313 
L 258.234106 54.004546 
L 258.534434 136.214896 
L 258.834762 126.088773 
L 259.13509 175.140514 
L 259.435418 177.448616 
L 259.735746 174.692645 
L 260.036074 193.342809 
L 260.336402 190.29098 
L 260.63673 173.204805 
L 260.937058 213.414789 
L 261.537714 230.541851 
L 261.838042 229.648781 
L 262.13837 222.170238 
L 262.438698 218.502746 
L 262.739026 232.485242 
L 263.039354 219.888559 
L 263.339682 216.106343 
L 263.64001 218.567967 
L 264.240666 238.416896 
L 264.540994 245.362033 
L 264.841322 228.971175 
L 265.742306 254.549215 
L 266.042634 254.638094 
L 266.342962 208.634615 
L 266.64329 239.974971 
L 266.943618 252.332499 
L 267.243946 251.865311 
L 267.544274 252.379012 
L 267.844602 249.865925 
L 268.14493 232.688427 
L 268.445258 228.02812 
L 268.745586 229.735475 
L 269.045914 242.246204 
L 269.346242 234.067426 
L 269.64657 244.275163 
L 269.946898 235.4615 
L 270.247226 246.78613 
L 270.547554 245.559818 
L 270.847882 258.565861 
L 271.14821 262.657275 
L 271.448538 261.956429 
L 271.748866 245.322077 
L 272.049194 236.697102 
L 272.649849 271.932533 
L 272.950177 258.558982 
L 273.250505 259.581177 
L 273.851161 267.873842 
L 274.151489 266.210719 
L 274.451817 256.435646 
L 274.752145 264.801119 
L 275.052473 253.282208 
L 275.352801 260.952396 
L 275.653129 259.564815 
L 275.953457 259.735952 
L 276.253785 260.199251 
L 276.854441 251.952873 
L 277.154769 216.599568 
L 277.455097 262.712081 
L 277.755425 279.497287 
L 278.055753 280.674097 
L 278.656409 276.160143 
L 278.956737 269.925142 
L 279.257065 284.437251 
L 279.557393 277.857565 
L 280.158049 272.578991 
L 280.458377 257.243148 
L 280.758705 254.159881 
L 281.059033 257.055006 
L 281.359361 251.520626 
L 281.659689 249.931628 
L 281.960017 249.263987 
L 282.260345 256.771459 
L 282.560673 254.73935 
L 282.861001 243.587368 
L 283.161329 241.893354 
L 283.761985 262.601183 
L 284.062313 264.678841 
L 284.362641 264.465499 
L 284.662969 260.705141 
L 284.963297 268.320008 
L 285.263625 261.019064 
L 285.864281 268.047776 
L 286.164609 268.06372 
L 286.464937 264.546567 
L 286.765264 271.195975 
L 287.065592 266.566976 
L 287.36592 269.13667 
L 287.666248 266.046589 
L 287.966576 243.112208 
L 288.266904 232.316259 
L 288.567232 240.185035 
L 288.86756 243.77207 
L 289.167888 239.385602 
L 289.468216 246.910529 
L 289.768544 241.710355 
L 290.068872 239.722958 
L 290.3692 241.656095 
L 290.669528 239.423854 
L 290.969856 242.557426 
L 291.570512 252.248892 
L 291.87084 242.833901 
L 292.171168 247.795273 
L 292.471496 242.17555 
L 292.771824 241.34619 
L 293.072152 248.932931 
L 293.37248 250.061202 
L 293.672808 247.813628 
L 293.973136 248.938942 
L 294.273464 242.041122 
L 294.87412 236.504331 
L 295.174448 235.454653 
L 295.474776 230.497524 
L 295.775104 229.063108 
L 296.075432 240.50198 
L 296.37576 238.844353 
L 296.676088 244.499725 
L 296.976416 241.260557 
L 297.276744 249.705716 
L 297.577072 234.873738 
L 297.8774 258.477431 
L 298.778384 252.041206 
L 299.078712 250.402095 
L 299.37904 250.02115 
L 299.679368 265.366573 
L 299.979696 264.727605 
L 300.280024 258.814402 
L 300.580352 266.037942 
L 300.88068 263.153843 
L 301.181007 265.348057 
L 301.481335 265.77574 
L 301.781663 266.599571 
L 302.081991 269.070131 
L 302.382319 269.083953 
L 302.682647 264.163919 
L 302.982975 264.983185 
L 303.283303 274.409137 
L 303.583631 274.572527 
L 304.184287 257.544052 
L 304.484615 258.700996 
L 305.085271 276.263102 
L 305.385599 270.283553 
L 305.685927 274.571627 
L 305.986255 261.171332 
L 306.286583 271.961785 
L 306.586911 269.908974 
L 306.887239 270.254688 
L 307.187567 272.229355 
L 307.487895 267.799396 
L 307.788223 255.275262 
L 308.088551 264.16183 
L 308.388879 260.202883 
L 308.989535 245.45043 
L 309.289863 248.977998 
L 309.590191 250.717078 
L 309.890519 248.305953 
L 310.190847 244.368543 
L 310.491175 247.681836 
L 310.791503 249.56936 
L 311.091831 252.382741 
L 311.392159 246.422254 
L 311.692487 262.045726 
L 311.992815 242.145624 
L 312.293143 256.946904 
L 312.893799 266.407732 
L 313.194127 272.403353 
L 313.494455 268.325151 
L 313.794783 268.892051 
L 314.095111 266.50963 
L 314.395439 262.552484 
L 314.695767 265.02282 
L 314.996095 259.312963 
L 315.296423 244.843574 
L 315.59675 276.772464 
L 315.897078 275.822305 
L 316.197406 273.532428 
L 316.497734 245.556539 
L 316.798062 237.90477 
L 317.09839 220.010194 
L 317.398718 238.451194 
L 317.699046 229.713841 
L 318.299702 243.081446 
L 318.60003 253.606803 
L 318.900358 253.017241 
L 319.200686 263.632024 
L 319.501014 264.065718 
L 319.801342 255.763537 
L 320.10167 259.143722 
L 320.401998 241.19344 
L 320.702326 230.385982 
L 321.002654 228.306909 
L 321.302982 243.076367 
L 321.60331 242.009234 
L 321.903638 252.89731 
L 322.203966 256.659147 
L 322.504294 257.475745 
L 322.804622 255.359417 
L 323.405278 247.614782 
L 323.705606 240.943548 
L 324.306262 206.058363 
L 324.60659 205.823676 
L 324.906918 211.82608 
L 325.207246 203.418562 
L 325.507574 210.597807 
L 326.408558 186.416156 
L 326.708886 191.036025 
L 327.009214 188.085901 
L 327.309542 190.213383 
L 327.60987 187.496917 
L 327.910198 156.803308 
L 328.210526 172.598143 
L 328.510854 164.025788 
L 328.811182 107.457381 
L 329.11151 156.539627 
L 329.411838 156.574825 
L 329.712166 162.085097 
L 330.012493 103.192933 
L 330.312821 108.380731 
L 330.613149 90.189494 
L 330.913477 131.243719 
L 331.213805 141.959822 
L 331.514133 131.663783 
L 331.814461 71.894654 
L 332.114789 121.985883 
L 332.415117 131.488693 
L 332.715445 151.263335 
L 333.015773 110.41297 
L 333.316101 133.687343 
L 333.616429 126.48534 
L 333.916757 136.175615 
L 334.217085 139.683993 
L 334.517413 162.853382 
L 334.817741 168.282521 
L 335.118069 157.237677 
L 335.418397 129.575871 
L 335.718725 118.471881 
L 336.319381 58.87945 
L 336.619709 129.304411 
L 336.920037 132.960331 
L 337.220365 119.660841 
L 337.520693 76.9604 
L 337.821021 146.059722 
L 338.121349 58.121676 
L 338.421677 127.716762 
L 338.722005 129.127455 
L 339.022333 163.154061 
L 339.322661 145.089409 
L 339.622989 106.188831 
L 339.923317 110.518982 
L 340.223645 131.324145 
L 340.523973 129.237422 
L 341.725285 56.032831 
L 342.025613 76.07498 
L 342.325941 59.92556 
L 342.626269 64.223341 
L 342.926597 58.323382 
L 343.226925 84.044851 
L 343.527253 84.598057 
L 343.827581 79.33787 
L 344.127909 91.120044 
L 344.428236 136.745408 
L 344.728564 80.872447 
L 345.028892 191.349626 
L 345.32922 199.962612 
L 345.629548 202.300898 
L 345.929876 211.599879 
L 346.230204 246.680278 
L 346.530532 254.486951 
L 346.83086 275.747794 
L 347.131188 255.085546 
L 347.431516 256.231754 
L 347.731844 256.896598 
L 348.032172 262.36116 
L 348.3325 259.77684 
L 348.933156 267.798238 
L 349.233484 264.888295 
L 349.533812 270.823838 
L 349.83414 267.94935 
L 350.134468 258.822213 
L 350.434796 260.087484 
L 350.735124 243.751337 
L 351.035452 234.862745 
L 351.33578 211.553141 
L 351.636108 245.002689 
L 351.936436 256.523626 
L 352.236764 233.709465 
L 352.537092 250.364196 
L 352.83742 248.143752 
L 353.137748 248.527139 
L 353.438076 247.744967 
L 353.738404 254.523596 
L 354.038732 257.86749 
L 354.33906 257.91111 
L 354.639388 257.579636 
L 354.939716 263.439157 
L 355.240044 258.843557 
L 355.540372 228.463807 
L 355.8407 236.933139 
L 356.141028 237.389847 
L 356.441356 246.285319 
L 356.741684 246.7572 
L 357.042012 244.274424 
L 357.34234 249.003102 
L 357.642668 248.392904 
L 357.942996 245.582897 
L 358.243324 237.864911 
L 358.543652 233.024562 
L 359.144307 206.515747 
L 359.444635 203.215666 
L 359.744963 202.679689 
L 360.045291 223.797103 
L 360.345619 226.23748 
L 360.645947 221.082662 
L 360.946275 253.368998 
L 361.246603 267.609583 
L 361.546931 261.296824 
L 361.847259 264.703336 
L 362.147587 248.914159 
L 362.447915 255.525571 
L 362.748243 256.587272 
L 363.048571 254.68554 
L 363.348899 251.171537 
L 363.649227 245.143547 
L 363.949555 251.619728 
L 364.249883 253.165556 
L 364.550211 266.625093 
L 364.850539 273.748375 
L 365.150867 255.070888 
L 365.451195 256.262162 
L 365.751523 255.512232 
L 366.051851 255.541451 
L 366.352179 244.36205 
L 366.652507 253.2013 
L 366.952835 248.322861 
L 367.253163 247.540111 
L 367.553491 256.141588 
L 368.154147 254.332561 
L 368.454475 254.98458 
L 368.754803 231.770574 
L 369.055131 253.395389 
L 369.355459 248.595607 
L 369.655787 237.510421 
L 369.956115 247.930987 
L 370.256443 240.822139 
L 370.556771 230.319893 
L 370.857099 237.663943 
L 371.457755 222.753854 
L 371.758083 238.361961 
L 372.058411 241.158209 
L 372.358739 242.073973 
L 372.659067 241.610611 
L 372.959395 242.131062 
L 373.259722 246.848168 
L 373.56005 244.756463 
L 373.860378 231.240544 
L 374.160706 237.836045 
L 374.461034 234.545575 
L 374.761362 247.668431 
L 375.06169 254.488848 
L 375.362018 256.943722 
L 375.662346 257.566232 
L 375.962674 258.72459 
L 376.56333 260.245796 
L 376.863658 256.782903 
L 377.163986 244.096472 
L 377.464314 248.006013 
L 377.764642 241.085306 
L 378.06497 248.685161 
L 378.365298 260.53185 
L 378.665626 260.001659 
L 378.965954 260.679425 
L 379.266282 260.174146 
L 379.56661 264.249359 
L 379.866938 260.801285 
L 380.167266 261.763723 
L 380.467594 258.958184 
L 380.767922 258.948798 
L 381.368578 250.037415 
L 381.668906 253.436534 
L 381.969234 251.758367 
L 382.269562 240.685075 
L 382.56989 255.249933 
L 382.870218 261.245971 
L 383.170546 253.415704 
L 383.470874 253.461831 
L 383.771202 258.208543 
L 384.07153 258.297937 
L 384.371858 254.118672 
L 384.672186 264.227308 
L 384.972514 255.433445 
L 385.272842 252.271264 
L 385.57317 252.574772 
L 385.873498 255.393779 
L 386.173826 240.32361 
L 386.474154 236.810057 
L 386.774482 252.244873 
L 387.07481 247.881324 
L 387.375137 252.466542 
L 387.675465 252.202378 
L 387.975793 251.005479 
L 388.276121 247.809449 
L 388.576449 266.226438 
L 388.876777 262.028111 
L 389.177105 247.658209 
L 389.477433 260.279162 
L 389.777761 243.290739 
L 390.078089 272.964018 
L 390.378417 270.74322 
L 390.678745 267.13079 
L 390.979073 241.181996 
L 391.279401 248.134751 
L 391.579729 247.546925 
L 391.880057 237.396437 
L 392.180385 214.944545 
L 392.480713 244.120773 
L 392.781041 238.930982 
L 393.081369 239.771818 
L 393.682025 248.923706 
L 393.982353 241.736649 
L 394.282681 241.126643 
L 394.583009 241.106746 
L 395.183665 231.782114 
L 396.084649 251.939533 
L 396.384977 254.544072 
L 396.685305 255.378671 
L 396.985633 248.311642 
L 397.285961 246.732545 
L 397.586289 250.445297 
L 397.886617 244.573175 
L 398.186945 249.163568 
L 398.487273 235.582299 
L 398.487273 235.582299 
" clip-path="url(#p2b712b8d33)" style="fill: none; stroke: #ff0000; stroke-width: 1.2; stroke-linecap: round"/>
   </g>
   <g id="patch_3">
    <path d="M 57.6 307.584 
L 57.6 41.472 
" style="fill: none; stroke: #ffffff; stroke-width: 0.8; stroke-linejoin: miter; stroke-linecap: square"/>
   </g>
   <g id="patch_4">
    <path d="M 414.72 307.584 
L 414.72 41.472 
" style="fill: none; stroke: #ffffff; stroke-width: 0.8; stroke-linejoin: miter; stroke-linecap: square"/>
   </g>
   <g id="patch_5">
    <path d="M 57.6 307.584 
L 414.72 307.584 
" style="fill: none; stroke: #ffffff; stroke-width: 0.8; stroke-linejoin: miter; stroke-linecap: square"/>
   </g>
   <g id="patch_6">
    <path d="M 57.6 41.472 
L 414.72 41.472 
" style="fill: none; stroke: #ffffff; stroke-width: 0.8; stroke-linejoin: miter; stroke-linecap: square"/>
   </g>
   <g id="text_7">
    <!--   (XGB)     -->
    <g style="fill: #262626" transform="translate(-119.438437 35.472) scale(0.3 -0.3)">
     <defs>
      <path id="ArialMT-421" d="M 3763 1606 
L 4369 1453 
Q 4178 706 3683 314 
Q 3188 -78 2472 -78 
Q 1731 -78 1267 223 
Q 803 525 561 1097 
Q 319 1669 319 2325 
Q 319 3041 592 3573 
Q 866 4106 1370 4382 
Q 1875 4659 2481 4659 
Q 3169 4659 3637 4309 
Q 4106 3959 4291 3325 
L 3694 3184 
Q 3534 3684 3231 3912 
Q 2928 4141 2469 4141 
Q 1941 4141 1586 3887 
Q 1231 3634 1087 3207 
Q 944 2781 944 2328 
Q 944 1744 1114 1308 
Q 1284 872 1643 656 
Q 2003 441 2422 441 
Q 2931 441 3284 734 
Q 3638 1028 3763 1606 
z
" transform="scale(0.015625)"/>
      <path id="ArialMT-445" d="M 47 0 
L 1259 1725 
L 138 3319 
L 841 3319 
L 1350 2541 
Q 1494 2319 1581 2169 
Q 1719 2375 1834 2534 
L 2394 3319 
L 3066 3319 
L 1919 1756 
L 3153 0 
L 2463 0 
L 1781 1031 
L 1600 1309 
L 728 0 
L 47 0 
z
" transform="scale(0.015625)"/>
      <path id="ArialMT-43e" d="M 213 1659 
Q 213 2581 725 3025 
Q 1153 3394 1769 3394 
Q 2453 3394 2887 2945 
Q 3322 2497 3322 1706 
Q 3322 1066 3130 698 
Q 2938 331 2570 128 
Q 2203 -75 1769 -75 
Q 1072 -75 642 372 
Q 213 819 213 1659 
z
M 791 1659 
Q 791 1022 1069 705 
Q 1347 388 1769 388 
Q 2188 388 2466 706 
Q 2744 1025 2744 1678 
Q 2744 2294 2464 2611 
Q 2184 2928 1769 2928 
Q 1347 2928 1069 2612 
Q 791 2297 791 1659 
z
" transform="scale(0.015625)"/>
      <path id="ArialMT-434" d="M 866 3319 
L 3178 3319 
L 3178 463 
L 3538 463 
L 3538 -941 
L 3075 -941 
L 3075 0 
L 463 0 
L 463 -941 
L 0 -941 
L 0 463 
L 297 463 
Q 891 1269 866 3319 
z
M 1334 2853 
Q 1272 1238 834 463 
L 2619 463 
L 2619 2853 
L 1334 2853 
z
" transform="scale(0.015625)"/>
      <path id="ArialMT-438" d="M 422 3319 
L 984 3319 
L 984 788 
L 2544 3319 
L 3150 3319 
L 3150 0 
L 2588 0 
L 2588 2516 
L 1028 0 
L 422 0 
L 422 3319 
z
" transform="scale(0.015625)"/>
      <path id="ArialMT-43c" d="M 438 3319 
L 1313 3319 
L 2184 663 
L 3153 3319 
L 3963 3319 
L 3963 0 
L 3400 0 
L 3400 2672 
L 2419 0 
L 1916 0 
L 988 2800 
L 988 0 
L 438 0 
L 438 3319 
z
" transform="scale(0.015625)"/>
      <path id="ArialMT-441" d="M 2588 1216 
L 3141 1144 
Q 3050 572 2676 248 
Q 2303 -75 1759 -75 
Q 1078 -75 664 370 
Q 250 816 250 1647 
Q 250 2184 428 2587 
Q 606 2991 970 3192 
Q 1334 3394 1763 3394 
Q 2303 3394 2647 3120 
Q 2991 2847 3088 2344 
L 2541 2259 
Q 2463 2594 2264 2762 
Q 2066 2931 1784 2931 
Q 1359 2931 1093 2626 
Q 828 2322 828 1663 
Q 828 994 1084 691 
Q 1341 388 1753 388 
Q 2084 388 2306 591 
Q 2528 794 2588 1216 
z
" transform="scale(0.015625)"/>
      <path id="ArialMT-442" d="M 119 3319 
L 2816 3319 
L 2816 2853 
L 1747 2853 
L 1747 0 
L 1188 0 
L 1188 2853 
L 119 2853 
L 119 3319 
z
" transform="scale(0.015625)"/>
      <path id="ArialMT-44c" d="M 413 3319 
L 975 3319 
L 975 2022 
L 1688 2022 
Q 2384 2022 2761 1751 
Q 3138 1481 3138 1006 
Q 3138 591 2823 295 
Q 2509 0 1819 0 
L 413 0 
L 413 3319 
z
M 975 463 
L 1566 463 
Q 2100 463 2328 594 
Q 2556 725 2556 1003 
Q 2556 1219 2387 1387 
Q 2219 1556 1641 1556 
L 975 1556 
L 975 463 
z
" transform="scale(0.015625)"/>
      <path id="ArialMT-20" transform="scale(0.015625)"/>
      <path id="ArialMT-435" d="M 2694 1069 
L 3275 997 
Q 3138 488 2766 206 
Q 2394 -75 1816 -75 
Q 1088 -75 661 373 
Q 234 822 234 1631 
Q 234 2469 665 2931 
Q 1097 3394 1784 3394 
Q 2450 3394 2872 2941 
Q 3294 2488 3294 1666 
Q 3294 1616 3291 1516 
L 816 1516 
Q 847 969 1125 678 
Q 1403 388 1819 388 
Q 2128 388 2347 550 
Q 2566 713 2694 1069 
z
M 847 1978 
L 2700 1978 
Q 2663 2397 2488 2606 
Q 2219 2931 1791 2931 
Q 1403 2931 1139 2672 
Q 875 2413 847 1978 
z
" transform="scale(0.015625)"/>
      <path id="ArialMT-43b" d="M 697 3319 
L 3309 3319 
L 3309 0 
L 2750 0 
L 2750 2853 
L 1259 2853 
L 1259 1200 
Q 1259 622 1221 437 
Q 1184 253 1015 115 
Q 847 -22 528 -22 
Q 331 -22 75 3 
L 75 472 
L 322 472 
Q 497 472 572 508 
Q 647 544 672 622 
Q 697 700 697 1131 
L 697 3319 
z
" transform="scale(0.015625)"/>
      <path id="ArialMT-28" d="M 1497 -1347 
Q 1031 -759 709 28 
Q 388 816 388 1659 
Q 388 2403 628 3084 
Q 909 3875 1497 4659 
L 1900 4659 
Q 1522 4009 1400 3731 
Q 1209 3300 1100 2831 
Q 966 2247 966 1656 
Q 966 153 1900 -1347 
L 1497 -1347 
z
" transform="scale(0.015625)"/>
      <path id="ArialMT-58" d="M 28 0 
L 1800 2388 
L 238 4581 
L 959 4581 
L 1791 3406 
Q 2050 3041 2159 2844 
Q 2313 3094 2522 3366 
L 3444 4581 
L 4103 4581 
L 2494 2422 
L 4228 0 
L 3478 0 
L 2325 1634 
Q 2228 1775 2125 1941 
Q 1972 1691 1906 1597 
L 756 0 
L 28 0 
z
" transform="scale(0.015625)"/>
      <path id="ArialMT-47" d="M 2638 1797 
L 2638 2334 
L 4578 2338 
L 4578 638 
Q 4131 281 3656 101 
Q 3181 -78 2681 -78 
Q 2006 -78 1454 211 
Q 903 500 622 1047 
Q 341 1594 341 2269 
Q 341 2938 620 3517 
Q 900 4097 1425 4378 
Q 1950 4659 2634 4659 
Q 3131 4659 3532 4498 
Q 3934 4338 4162 4050 
Q 4391 3763 4509 3300 
L 3963 3150 
Q 3859 3500 3706 3700 
Q 3553 3900 3268 4020 
Q 2984 4141 2638 4141 
Q 2222 4141 1919 4014 
Q 1616 3888 1430 3681 
Q 1244 3475 1141 3228 
Q 966 2803 966 2306 
Q 966 1694 1177 1281 
Q 1388 869 1791 669 
Q 2194 469 2647 469 
Q 3041 469 3416 620 
Q 3791 772 3984 944 
L 3984 1797 
L 2638 1797 
z
" transform="scale(0.015625)"/>
      <path id="ArialMT-42" d="M 469 0 
L 469 4581 
L 2188 4581 
Q 2713 4581 3030 4442 
Q 3347 4303 3526 4014 
Q 3706 3725 3706 3409 
Q 3706 3116 3547 2856 
Q 3388 2597 3066 2438 
Q 3481 2316 3704 2022 
Q 3928 1728 3928 1328 
Q 3928 1006 3792 729 
Q 3656 453 3456 303 
Q 3256 153 2954 76 
Q 2653 0 2216 0 
L 469 0 
z
M 1075 2656 
L 2066 2656 
Q 2469 2656 2644 2709 
Q 2875 2778 2992 2937 
Q 3109 3097 3109 3338 
Q 3109 3566 3000 3739 
Q 2891 3913 2687 3977 
Q 2484 4041 1991 4041 
L 1075 4041 
L 1075 2656 
z
M 1075 541 
L 2216 541 
Q 2509 541 2628 563 
Q 2838 600 2978 687 
Q 3119 775 3209 942 
Q 3300 1109 3300 1328 
Q 3300 1584 3169 1773 
Q 3038 1963 2805 2039 
Q 2572 2116 2134 2116 
L 1075 2116 
L 1075 541 
z
" transform="scale(0.015625)"/>
      <path id="ArialMT-29" d="M 791 -1347 
L 388 -1347 
Q 1322 153 1322 1656 
Q 1322 2244 1188 2822 
Q 1081 3291 891 3722 
Q 769 4003 388 4659 
L 791 4659 
Q 1378 3875 1659 3084 
Q 1900 2403 1900 1659 
Q 1900 816 1576 28 
Q 1253 -759 791 -1347 
z
" transform="scale(0.015625)"/>
      <path id="ArialMT-43d" d="M 425 3319 
L 988 3319 
L 988 1938 
L 2547 1938 
L 2547 3319 
L 3109 3319 
L 3109 0 
L 2547 0 
L 2547 1472 
L 988 1472 
L 988 0 
L 425 0 
L 425 3319 
z
" transform="scale(0.015625)"/>
      <path id="ArialMT-430" d="M 2588 409 
Q 2275 144 1986 34 
Q 1697 -75 1366 -75 
Q 819 -75 525 192 
Q 231 459 231 875 
Q 231 1119 342 1320 
Q 453 1522 633 1644 
Q 813 1766 1038 1828 
Q 1203 1872 1538 1913 
Q 2219 1994 2541 2106 
Q 2544 2222 2544 2253 
Q 2544 2597 2384 2738 
Q 2169 2928 1744 2928 
Q 1347 2928 1158 2789 
Q 969 2650 878 2297 
L 328 2372 
Q 403 2725 575 2942 
Q 747 3159 1072 3276 
Q 1397 3394 1825 3394 
Q 2250 3394 2515 3294 
Q 2781 3194 2906 3042 
Q 3031 2891 3081 2659 
Q 3109 2516 3109 2141 
L 3109 1391 
Q 3109 606 3145 398 
Q 3181 191 3288 0 
L 2700 0 
Q 2613 175 2588 409 
z
M 2541 1666 
Q 2234 1541 1622 1453 
Q 1275 1403 1131 1340 
Q 988 1278 909 1158 
Q 831 1038 831 891 
Q 831 666 1001 516 
Q 1172 366 1500 366 
Q 1825 366 2078 508 
Q 2331 650 2450 897 
Q 2541 1088 2541 1459 
L 2541 1666 
z
" transform="scale(0.015625)"/>
      <path id="ArialMT-432" d="M 425 3319 
L 1722 3319 
Q 2200 3319 2433 3239 
Q 2666 3159 2833 2946 
Q 3000 2734 3000 2438 
Q 3000 2200 2901 2023 
Q 2803 1847 2606 1728 
Q 2841 1650 2995 1436 
Q 3150 1222 3150 928 
Q 3119 456 2812 228 
Q 2506 0 1922 0 
L 425 0 
L 425 3319 
z
M 988 1922 
L 1588 1922 
Q 1947 1922 2081 1959 
Q 2216 1997 2322 2111 
Q 2428 2225 2428 2384 
Q 2428 2647 2242 2750 
Q 2056 2853 1606 2853 
L 988 2853 
L 988 1922 
z
M 988 463 
L 1728 463 
Q 2206 463 2384 573 
Q 2563 684 2572 956 
Q 2572 1116 2469 1252 
Q 2366 1388 2200 1423 
Q 2034 1459 1669 1459 
L 988 1459 
L 988 463 
z
" transform="scale(0.015625)"/>
      <path id="ArialMT-451" d="M 2694 1069 
L 3275 997 
Q 3138 488 2766 206 
Q 2394 -75 1816 -75 
Q 1088 -75 661 373 
Q 234 822 234 1631 
Q 234 2469 665 2931 
Q 1097 3394 1784 3394 
Q 2450 3394 2872 2941 
Q 3294 2488 3294 1666 
Q 3294 1616 3291 1516 
L 816 1516 
Q 847 969 1125 678 
Q 1403 388 1819 388 
Q 2128 388 2347 550 
Q 2566 713 2694 1069 
z
M 847 1978 
L 2700 1978 
Q 2663 2397 2488 2606 
Q 2219 2931 1791 2931 
Q 1403 2931 1139 2672 
Q 875 2413 847 1978 
z
M 887 3969 
L 887 4609 
L 1474 4609 
L 1474 3969 
L 887 3969 
z
M 2052 3969 
L 2052 4609 
L 2640 4609 
L 2640 3969 
L 2052 3969 
z
" transform="scale(0.015625)"/>
      <path id="ArialMT-431" d="M 2853 4691 
L 3350 4684 
Q 3316 4350 3202 4219 
Q 3088 4088 2908 4050 
Q 2728 4013 2203 4013 
Q 1506 4013 1253 3878 
Q 1000 3744 889 3448 
Q 778 3153 766 2688 
Q 978 3003 1262 3161 
Q 1547 3319 1903 3319 
Q 2556 3319 2984 2870 
Q 3413 2422 3413 1656 
Q 3413 1075 3197 703 
Q 2981 331 2686 128 
Q 2391 -75 1881 -75 
Q 1291 -75 962 195 
Q 634 466 459 887 
Q 284 1309 284 2356 
Q 284 3672 729 4128 
Q 1175 4584 2100 4584 
Q 2675 4584 2753 4603 
Q 2831 4622 2853 4691 
z
M 2825 1672 
Q 2825 2191 2579 2522 
Q 2334 2853 1888 2853 
Q 1422 2853 1169 2503 
Q 916 2153 916 1569 
Q 916 991 1195 684 
Q 1475 378 1884 378 
Q 2303 378 2564 733 
Q 2825 1088 2825 1672 
z
" transform="scale(0.015625)"/>
      <path id="ArialMT-440" d="M 422 -1272 
L 422 3319 
L 934 3319 
L 934 2888 
Q 1116 3141 1344 3267 
Q 1572 3394 1897 3394 
Q 2322 3394 2647 3175 
Q 2972 2956 3137 2557 
Q 3303 2159 3303 1684 
Q 3303 1175 3120 767 
Q 2938 359 2589 142 
Q 2241 -75 1856 -75 
Q 1575 -75 1351 44 
Q 1128 163 984 344 
L 984 -1272 
L 422 -1272 
z
M 931 1641 
Q 931 1000 1190 694 
Q 1450 388 1819 388 
Q 2194 388 2461 705 
Q 2728 1022 2728 1688 
Q 2728 2322 2467 2637 
Q 2206 2953 1844 2953 
Q 1484 2953 1207 2617 
Q 931 2281 931 1641 
z
" transform="scale(0.015625)"/>
      <path id="ArialMT-44b" d="M 3581 3319 
L 4144 3319 
L 4144 0 
L 3581 0 
L 3581 3319 
z
M 434 3319 
L 997 3319 
L 997 2022 
L 1709 2022 
Q 2406 2022 2782 1751 
Q 3159 1481 3159 1006 
Q 3159 591 2845 295 
Q 2531 0 1841 0 
L 434 0 
L 434 3319 
z
M 997 463 
L 1588 463 
Q 2122 463 2350 594 
Q 2578 725 2578 1003 
Q 2578 1219 2409 1387 
Q 2241 1556 1663 1556 
L 997 1556 
L 997 463 
z
" transform="scale(0.015625)"/>
     </defs>
     <use xlink:href="#ArialMT-421"/>
     <use xlink:href="#ArialMT-445" x="72.216797"/>
     <use xlink:href="#ArialMT-43e" x="121.091797"/>
     <use xlink:href="#ArialMT-434" x="174.457031"/>
     <use xlink:href="#ArialMT-438" x="232.806641"/>
     <use xlink:href="#ArialMT-43c" x="288.666016"/>
     <use xlink:href="#ArialMT-43e" x="357.416016"/>
     <use xlink:href="#ArialMT-441" x="413.03125"/>
     <use xlink:href="#ArialMT-442" x="463.03125"/>
     <use xlink:href="#ArialMT-44c" x="508.832031"/>
     <use xlink:href="#ArialMT-20" x="560.931641"/>
     <use xlink:href="#ArialMT-43c" x="588.714844"/>
     <use xlink:href="#ArialMT-43e" x="657.464844"/>
     <use xlink:href="#ArialMT-434" x="710.830078"/>
     <use xlink:href="#ArialMT-435" x="769.179688"/>
     <use xlink:href="#ArialMT-43b" x="821.419922"/>
     <use xlink:href="#ArialMT-438" x="879.769531"/>
     <use xlink:href="#ArialMT-20" x="935.628906"/>
     <use xlink:href="#ArialMT-28" x="963.412109"/>
     <use xlink:href="#ArialMT-58" x="996.712891"/>
     <use xlink:href="#ArialMT-47" x="1063.412109"/>
     <use xlink:href="#ArialMT-42" x="1141.195312"/>
     <use xlink:href="#ArialMT-29" x="1207.894531"/>
     <use xlink:href="#ArialMT-20" x="1241.195312"/>
     <use xlink:href="#ArialMT-43d" x="1268.978516"/>
     <use xlink:href="#ArialMT-430" x="1324.203125"/>
     <use xlink:href="#ArialMT-20" x="1379.818359"/>
     <use xlink:href="#ArialMT-432" x="1407.601562"/>
     <use xlink:href="#ArialMT-441" x="1459.601562"/>
     <use xlink:href="#ArialMT-451" x="1509.601562"/>
     <use xlink:href="#ArialMT-43c" x="1565.216797"/>
     <use xlink:href="#ArialMT-20" x="1633.966797"/>
     <use xlink:href="#ArialMT-43d" x="1661.75"/>
     <use xlink:href="#ArialMT-430" x="1716.974609"/>
     <use xlink:href="#ArialMT-431" x="1772.589844"/>
     <use xlink:href="#ArialMT-43e" x="1829.865234"/>
     <use xlink:href="#ArialMT-440" x="1885.480469"/>
     <use xlink:href="#ArialMT-435" x="1941.095703"/>
     <use xlink:href="#ArialMT-20" x="1996.710938"/>
     <use xlink:href="#ArialMT-434" x="2024.494141"/>
     <use xlink:href="#ArialMT-430" x="2082.84375"/>
     <use xlink:href="#ArialMT-43d" x="2138.458984"/>
     <use xlink:href="#ArialMT-43d" x="2193.683594"/>
     <use xlink:href="#ArialMT-44b" x="2248.908203"/>
     <use xlink:href="#ArialMT-445" x="2320.783203"/>
    </g>
   </g>
   <g id="legend_1">
    <g id="patch_7">
     <path d="M 211.610625 132.198562 
L 397.22 132.198562 
Q 402.22 132.198562 402.22 127.198562 
L 402.22 58.972 
Q 402.22 53.972 397.22 53.972 
L 211.610625 53.972 
Q 206.610625 53.972 206.610625 58.972 
L 206.610625 127.198562 
Q 206.610625 132.198562 211.610625 132.198562 
z
" style="fill: #eaeaf2; opacity: 0.8; stroke: #cccccc; stroke-linejoin: miter"/>
    </g>
    <g id="line2d_9">
     <path d="M 216.610625 73.116531 
L 241.610625 73.116531 
L 266.610625 73.116531 
" style="fill: none; stroke: #0000ff; stroke-linecap: round"/>
    </g>
    <g id="text_8">
     <!-- Real -->
     <g style="fill: #262626" transform="translate(286.610625 81.866531) scale(0.25 -0.25)">
      <defs>
       <path id="ArialMT-52" d="M 503 0 
L 503 4581 
L 2534 4581 
Q 3147 4581 3465 4457 
Q 3784 4334 3975 4021 
Q 4166 3709 4166 3331 
Q 4166 2844 3850 2509 
Q 3534 2175 2875 2084 
Q 3116 1969 3241 1856 
Q 3506 1613 3744 1247 
L 4541 0 
L 3778 0 
L 3172 953 
Q 2906 1366 2734 1584 
Q 2563 1803 2427 1890 
Q 2291 1978 2150 2013 
Q 2047 2034 1813 2034 
L 1109 2034 
L 1109 0 
L 503 0 
z
M 1109 2559 
L 2413 2559 
Q 2828 2559 3062 2645 
Q 3297 2731 3419 2920 
Q 3541 3109 3541 3331 
Q 3541 3656 3305 3865 
Q 3069 4075 2559 4075 
L 1109 4075 
L 1109 2559 
z
" transform="scale(0.015625)"/>
       <path id="ArialMT-65" d="M 2694 1069 
L 3275 997 
Q 3138 488 2766 206 
Q 2394 -75 1816 -75 
Q 1088 -75 661 373 
Q 234 822 234 1631 
Q 234 2469 665 2931 
Q 1097 3394 1784 3394 
Q 2450 3394 2872 2941 
Q 3294 2488 3294 1666 
Q 3294 1616 3291 1516 
L 816 1516 
Q 847 969 1125 678 
Q 1403 388 1819 388 
Q 2128 388 2347 550 
Q 2566 713 2694 1069 
z
M 847 1978 
L 2700 1978 
Q 2663 2397 2488 2606 
Q 2219 2931 1791 2931 
Q 1403 2931 1139 2672 
Q 875 2413 847 1978 
z
" transform="scale(0.015625)"/>
       <path id="ArialMT-61" d="M 2588 409 
Q 2275 144 1986 34 
Q 1697 -75 1366 -75 
Q 819 -75 525 192 
Q 231 459 231 875 
Q 231 1119 342 1320 
Q 453 1522 633 1644 
Q 813 1766 1038 1828 
Q 1203 1872 1538 1913 
Q 2219 1994 2541 2106 
Q 2544 2222 2544 2253 
Q 2544 2597 2384 2738 
Q 2169 2928 1744 2928 
Q 1347 2928 1158 2789 
Q 969 2650 878 2297 
L 328 2372 
Q 403 2725 575 2942 
Q 747 3159 1072 3276 
Q 1397 3394 1825 3394 
Q 2250 3394 2515 3294 
Q 2781 3194 2906 3042 
Q 3031 2891 3081 2659 
Q 3109 2516 3109 2141 
L 3109 1391 
Q 3109 606 3145 398 
Q 3181 191 3288 0 
L 2700 0 
Q 2613 175 2588 409 
z
M 2541 1666 
Q 2234 1541 1622 1453 
Q 1275 1403 1131 1340 
Q 988 1278 909 1158 
Q 831 1038 831 891 
Q 831 666 1001 516 
Q 1172 366 1500 366 
Q 1825 366 2078 508 
Q 2331 650 2450 897 
Q 2541 1088 2541 1459 
L 2541 1666 
z
" transform="scale(0.015625)"/>
       <path id="ArialMT-6c" d="M 409 0 
L 409 4581 
L 972 4581 
L 972 0 
L 409 0 
z
" transform="scale(0.015625)"/>
      </defs>
      <use xlink:href="#ArialMT-52"/>
      <use xlink:href="#ArialMT-65" x="72.216797"/>
      <use xlink:href="#ArialMT-61" x="127.832031"/>
      <use xlink:href="#ArialMT-6c" x="183.447266"/>
     </g>
    </g>
    <g id="line2d_10">
     <path d="M 216.610625 108.479812 
L 241.610625 108.479812 
L 266.610625 108.479812 
" style="fill: none; stroke: #ff0000; stroke-width: 1.2; stroke-linecap: round"/>
    </g>
    <g id="text_9">
     <!-- Predicted -->
     <g style="fill: #262626" transform="translate(286.610625 117.229812) scale(0.25 -0.25)">
      <defs>
       <path id="ArialMT-50" d="M 494 0 
L 494 4581 
L 2222 4581 
Q 2678 4581 2919 4538 
Q 3256 4481 3484 4323 
Q 3713 4166 3852 3881 
Q 3991 3597 3991 3256 
Q 3991 2672 3619 2267 
Q 3247 1863 2275 1863 
L 1100 1863 
L 1100 0 
L 494 0 
z
M 1100 2403 
L 2284 2403 
Q 2872 2403 3119 2622 
Q 3366 2841 3366 3238 
Q 3366 3525 3220 3729 
Q 3075 3934 2838 4000 
Q 2684 4041 2272 4041 
L 1100 4041 
L 1100 2403 
z
" transform="scale(0.015625)"/>
       <path id="ArialMT-72" d="M 416 0 
L 416 3319 
L 922 3319 
L 922 2816 
Q 1116 3169 1280 3281 
Q 1444 3394 1641 3394 
Q 1925 3394 2219 3213 
L 2025 2691 
Q 1819 2813 1613 2813 
Q 1428 2813 1281 2702 
Q 1134 2591 1072 2394 
Q 978 2094 978 1738 
L 978 0 
L 416 0 
z
" transform="scale(0.015625)"/>
       <path id="ArialMT-64" d="M 2575 0 
L 2575 419 
Q 2259 -75 1647 -75 
Q 1250 -75 917 144 
Q 584 363 401 755 
Q 219 1147 219 1656 
Q 219 2153 384 2558 
Q 550 2963 881 3178 
Q 1213 3394 1622 3394 
Q 1922 3394 2156 3267 
Q 2391 3141 2538 2938 
L 2538 4581 
L 3097 4581 
L 3097 0 
L 2575 0 
z
M 797 1656 
Q 797 1019 1065 703 
Q 1334 388 1700 388 
Q 2069 388 2326 689 
Q 2584 991 2584 1609 
Q 2584 2291 2321 2609 
Q 2059 2928 1675 2928 
Q 1300 2928 1048 2622 
Q 797 2316 797 1656 
z
" transform="scale(0.015625)"/>
       <path id="ArialMT-69" d="M 425 3934 
L 425 4581 
L 988 4581 
L 988 3934 
L 425 3934 
z
M 425 0 
L 425 3319 
L 988 3319 
L 988 0 
L 425 0 
z
" transform="scale(0.015625)"/>
       <path id="ArialMT-63" d="M 2588 1216 
L 3141 1144 
Q 3050 572 2676 248 
Q 2303 -75 1759 -75 
Q 1078 -75 664 370 
Q 250 816 250 1647 
Q 250 2184 428 2587 
Q 606 2991 970 3192 
Q 1334 3394 1763 3394 
Q 2303 3394 2647 3120 
Q 2991 2847 3088 2344 
L 2541 2259 
Q 2463 2594 2264 2762 
Q 2066 2931 1784 2931 
Q 1359 2931 1093 2626 
Q 828 2322 828 1663 
Q 828 994 1084 691 
Q 1341 388 1753 388 
Q 2084 388 2306 591 
Q 2528 794 2588 1216 
z
" transform="scale(0.015625)"/>
       <path id="ArialMT-74" d="M 1650 503 
L 1731 6 
Q 1494 -44 1306 -44 
Q 1000 -44 831 53 
Q 663 150 594 308 
Q 525 466 525 972 
L 525 2881 
L 113 2881 
L 113 3319 
L 525 3319 
L 525 4141 
L 1084 4478 
L 1084 3319 
L 1650 3319 
L 1650 2881 
L 1084 2881 
L 1084 941 
Q 1084 700 1114 631 
Q 1144 563 1211 522 
Q 1278 481 1403 481 
Q 1497 481 1650 503 
z
" transform="scale(0.015625)"/>
      </defs>
      <use xlink:href="#ArialMT-50"/>
      <use xlink:href="#ArialMT-72" x="66.699219"/>
      <use xlink:href="#ArialMT-65" x="100"/>
      <use xlink:href="#ArialMT-64" x="155.615234"/>
      <use xlink:href="#ArialMT-69" x="211.230469"/>
      <use xlink:href="#ArialMT-63" x="233.447266"/>
      <use xlink:href="#ArialMT-74" x="283.447266"/>
      <use xlink:href="#ArialMT-65" x="311.230469"/>
      <use xlink:href="#ArialMT-64" x="366.845703"/>
     </g>
    </g>
   </g>
  </g>
 </g>
 <defs>
  <clipPath id="p2b712b8d33">
   <rect x="57.6" y="41.472" width="357.12" height="266.112"/>
  </clipPath>
 </defs>
</svg>
