<?xml version="1.0" encoding="utf-8" standalone="no"?>
<!DOCTYPE svg PUBLIC "-//W3C//DTD SVG 1.1//EN"
  "http://www.w3.org/Graphics/SVG/1.1/DTD/svg11.dtd">
<svg xmlns:xlink="http://www.w3.org/1999/xlink" width="1152pt" height="720pt" viewBox="0 0 1152 720" xmlns="http://www.w3.org/2000/svg" version="1.1">
 <metadata>
  <rdf:RDF xmlns:dc="http://purl.org/dc/elements/1.1/" xmlns:cc="http://creativecommons.org/ns#" xmlns:rdf="http://www.w3.org/1999/02/22-rdf-syntax-ns#">
   <cc:Work>
    <dc:type rdf:resource="http://purl.org/dc/dcmitype/StillImage"/>
    <dc:date>2023-06-24T23:39:46.558246</dc:date>
    <dc:format>image/svg+xml</dc:format>
    <dc:creator>
     <cc:Agent>
      <dc:title>Matplotlib v3.7.1, https://matplotlib.org/</dc:title>
     </cc:Agent>
    </dc:creator>
   </cc:Work>
  </rdf:RDF>
 </metadata>
 <defs>
  <style type="text/css">*{stroke-linejoin: round; stroke-linecap: butt}</style>
 </defs>
 <g id="figure_1">
  <g id="patch_1">
   <path d="M 0 720 
L 1152 720 
L 1152 0 
L 0 0 
z
" style="fill: #ffffff"/>
  </g>
  <g id="axes_1">
   <g id="patch_2">
    <path d="M 144 640.8 
L 1036.8 640.8 
L 1036.8 86.4 
L 144 86.4 
z
" style="fill: #eaeaf2"/>
   </g>
   <g id="matplotlib.axis_1">
    <g id="xtick_1">
     <g id="line2d_1">
      <path d="M 233.486586 640.8 
L 233.486586 86.4 
" clip-path="url(#p4a87474e75)" style="fill: none; stroke: #ffffff; stroke-width: 0.8; stroke-linecap: round"/>
     </g>
     <g id="text_1">
      <!-- 250 -->
      <g style="fill: #262626" transform="translate(212.63307 665.694531) scale(0.25 -0.25)">
       <defs>
        <path id="ArialMT-32" d="M 3222 541 
L 3222 0 
L 194 0 
Q 188 203 259 391 
Q 375 700 629 1000 
Q 884 1300 1366 1694 
Q 2113 2306 2375 2664 
Q 2638 3022 2638 3341 
Q 2638 3675 2398 3904 
Q 2159 4134 1775 4134 
Q 1369 4134 1125 3890 
Q 881 3647 878 3216 
L 300 3275 
Q 359 3922 746 4261 
Q 1134 4600 1788 4600 
Q 2447 4600 2831 4234 
Q 3216 3869 3216 3328 
Q 3216 3053 3103 2787 
Q 2991 2522 2730 2228 
Q 2469 1934 1863 1422 
Q 1356 997 1212 845 
Q 1069 694 975 541 
L 3222 541 
z
" transform="scale(0.015625)"/>
        <path id="ArialMT-35" d="M 266 1200 
L 856 1250 
Q 922 819 1161 601 
Q 1400 384 1738 384 
Q 2144 384 2425 690 
Q 2706 997 2706 1503 
Q 2706 1984 2436 2262 
Q 2166 2541 1728 2541 
Q 1456 2541 1237 2417 
Q 1019 2294 894 2097 
L 366 2166 
L 809 4519 
L 3088 4519 
L 3088 3981 
L 1259 3981 
L 1013 2750 
Q 1425 3038 1878 3038 
Q 2478 3038 2890 2622 
Q 3303 2206 3303 1553 
Q 3303 931 2941 478 
Q 2500 -78 1738 -78 
Q 1113 -78 717 272 
Q 322 622 266 1200 
z
" transform="scale(0.015625)"/>
        <path id="ArialMT-30" d="M 266 2259 
Q 266 3072 433 3567 
Q 600 4063 929 4331 
Q 1259 4600 1759 4600 
Q 2128 4600 2406 4451 
Q 2684 4303 2865 4023 
Q 3047 3744 3150 3342 
Q 3253 2941 3253 2259 
Q 3253 1453 3087 958 
Q 2922 463 2592 192 
Q 2263 -78 1759 -78 
Q 1097 -78 719 397 
Q 266 969 266 2259 
z
M 844 2259 
Q 844 1131 1108 757 
Q 1372 384 1759 384 
Q 2147 384 2411 759 
Q 2675 1134 2675 2259 
Q 2675 3391 2411 3762 
Q 2147 4134 1753 4134 
Q 1366 4134 1134 3806 
Q 844 3388 844 2259 
z
" transform="scale(0.015625)"/>
       </defs>
       <use xlink:href="#ArialMT-32"/>
       <use xlink:href="#ArialMT-35" x="55.615234"/>
       <use xlink:href="#ArialMT-30" x="111.230469"/>
      </g>
     </g>
    </g>
    <g id="xtick_2">
     <g id="line2d_2">
      <path d="M 359.132416 640.8 
L 359.132416 86.4 
" clip-path="url(#p4a87474e75)" style="fill: none; stroke: #ffffff; stroke-width: 0.8; stroke-linecap: round"/>
     </g>
     <g id="text_2">
      <!-- 300 -->
      <g style="fill: #262626" transform="translate(338.2789 665.694531) scale(0.25 -0.25)">
       <defs>
        <path id="ArialMT-33" d="M 269 1209 
L 831 1284 
Q 928 806 1161 595 
Q 1394 384 1728 384 
Q 2125 384 2398 659 
Q 2672 934 2672 1341 
Q 2672 1728 2419 1979 
Q 2166 2231 1775 2231 
Q 1616 2231 1378 2169 
L 1441 2663 
Q 1497 2656 1531 2656 
Q 1891 2656 2178 2843 
Q 2466 3031 2466 3422 
Q 2466 3731 2256 3934 
Q 2047 4138 1716 4138 
Q 1388 4138 1169 3931 
Q 950 3725 888 3313 
L 325 3413 
Q 428 3978 793 4289 
Q 1159 4600 1703 4600 
Q 2078 4600 2393 4439 
Q 2709 4278 2876 4000 
Q 3044 3722 3044 3409 
Q 3044 3113 2884 2869 
Q 2725 2625 2413 2481 
Q 2819 2388 3044 2092 
Q 3269 1797 3269 1353 
Q 3269 753 2831 336 
Q 2394 -81 1725 -81 
Q 1122 -81 723 278 
Q 325 638 269 1209 
z
" transform="scale(0.015625)"/>
       </defs>
       <use xlink:href="#ArialMT-33"/>
       <use xlink:href="#ArialMT-30" x="55.615234"/>
       <use xlink:href="#ArialMT-30" x="111.230469"/>
      </g>
     </g>
    </g>
    <g id="xtick_3">
     <g id="line2d_3">
      <path d="M 484.778246 640.8 
L 484.778246 86.4 
" clip-path="url(#p4a87474e75)" style="fill: none; stroke: #ffffff; stroke-width: 0.8; stroke-linecap: round"/>
     </g>
     <g id="text_3">
      <!-- 350 -->
      <g style="fill: #262626" transform="translate(463.92473 665.694531) scale(0.25 -0.25)">
       <use xlink:href="#ArialMT-33"/>
       <use xlink:href="#ArialMT-35" x="55.615234"/>
       <use xlink:href="#ArialMT-30" x="111.230469"/>
      </g>
     </g>
    </g>
    <g id="xtick_4">
     <g id="line2d_4">
      <path d="M 610.424076 640.8 
L 610.424076 86.4 
" clip-path="url(#p4a87474e75)" style="fill: none; stroke: #ffffff; stroke-width: 0.8; stroke-linecap: round"/>
     </g>
     <g id="text_4">
      <!-- 400 -->
      <g style="fill: #262626" transform="translate(589.57056 665.694531) scale(0.25 -0.25)">
       <defs>
        <path id="ArialMT-34" d="M 2069 0 
L 2069 1097 
L 81 1097 
L 81 1613 
L 2172 4581 
L 2631 4581 
L 2631 1613 
L 3250 1613 
L 3250 1097 
L 2631 1097 
L 2631 0 
L 2069 0 
z
M 2069 1613 
L 2069 3678 
L 634 1613 
L 2069 1613 
z
" transform="scale(0.015625)"/>
       </defs>
       <use xlink:href="#ArialMT-34"/>
       <use xlink:href="#ArialMT-30" x="55.615234"/>
       <use xlink:href="#ArialMT-30" x="111.230469"/>
      </g>
     </g>
    </g>
    <g id="xtick_5">
     <g id="line2d_5">
      <path d="M 736.069905 640.8 
L 736.069905 86.4 
" clip-path="url(#p4a87474e75)" style="fill: none; stroke: #ffffff; stroke-width: 0.8; stroke-linecap: round"/>
     </g>
     <g id="text_5">
      <!-- 450 -->
      <g style="fill: #262626" transform="translate(715.21639 665.694531) scale(0.25 -0.25)">
       <use xlink:href="#ArialMT-34"/>
       <use xlink:href="#ArialMT-35" x="55.615234"/>
       <use xlink:href="#ArialMT-30" x="111.230469"/>
      </g>
     </g>
    </g>
    <g id="xtick_6">
     <g id="line2d_6">
      <path d="M 861.715735 640.8 
L 861.715735 86.4 
" clip-path="url(#p4a87474e75)" style="fill: none; stroke: #ffffff; stroke-width: 0.8; stroke-linecap: round"/>
     </g>
     <g id="text_6">
      <!-- 500 -->
      <g style="fill: #262626" transform="translate(840.86222 665.694531) scale(0.25 -0.25)">
       <use xlink:href="#ArialMT-35"/>
       <use xlink:href="#ArialMT-30" x="55.615234"/>
       <use xlink:href="#ArialMT-30" x="111.230469"/>
      </g>
     </g>
    </g>
    <g id="xtick_7">
     <g id="line2d_7">
      <path d="M 987.361565 640.8 
L 987.361565 86.4 
" clip-path="url(#p4a87474e75)" style="fill: none; stroke: #ffffff; stroke-width: 0.8; stroke-linecap: round"/>
     </g>
     <g id="text_7">
      <!-- 550 -->
      <g style="fill: #262626" transform="translate(966.508049 665.694531) scale(0.25 -0.25)">
       <use xlink:href="#ArialMT-35"/>
       <use xlink:href="#ArialMT-35" x="55.615234"/>
       <use xlink:href="#ArialMT-30" x="111.230469"/>
      </g>
     </g>
    </g>
    <g id="text_8">
     <!-- Значения -->
     <g style="fill: #262626" transform="translate(524.111719 696.136719) scale(0.3 -0.3)">
      <defs>
       <path id="ArialMT-417" d="M 244 1294 
L 822 1444 
Q 888 1109 1173 775 
Q 1459 441 1931 441 
Q 2413 441 2691 687 
Q 2969 934 2969 1284 
Q 2969 1663 2675 1886 
Q 2381 2109 1875 2109 
L 1584 2109 
L 1584 2638 
Q 2003 2638 2225 2686 
Q 2447 2734 2617 2932 
Q 2788 3131 2788 3384 
Q 2788 3684 2555 3906 
Q 2322 4128 1925 4128 
Q 1578 4128 1333 3954 
Q 1088 3781 994 3495 
Q 900 3209 900 3069 
L 319 3200 
Q 534 4659 1931 4659 
Q 2603 4659 2997 4286 
Q 3391 3913 3391 3413 
Q 3391 2772 2784 2419 
Q 3134 2322 3370 2023 
Q 3606 1725 3606 1309 
Q 3606 719 3148 320 
Q 2691 -78 1934 -78 
Q 634 -78 244 1294 
z
" transform="scale(0.015625)"/>
       <path id="ArialMT-43d" d="M 425 3319 
L 988 3319 
L 988 1938 
L 2547 1938 
L 2547 3319 
L 3109 3319 
L 3109 0 
L 2547 0 
L 2547 1472 
L 988 1472 
L 988 0 
L 425 0 
L 425 3319 
z
" transform="scale(0.015625)"/>
       <path id="ArialMT-430" d="M 2588 409 
Q 2275 144 1986 34 
Q 1697 -75 1366 -75 
Q 819 -75 525 192 
Q 231 459 231 875 
Q 231 1119 342 1320 
Q 453 1522 633 1644 
Q 813 1766 1038 1828 
Q 1203 1872 1538 1913 
Q 2219 1994 2541 2106 
Q 2544 2222 2544 2253 
Q 2544 2597 2384 2738 
Q 2169 2928 1744 2928 
Q 1347 2928 1158 2789 
Q 969 2650 878 2297 
L 328 2372 
Q 403 2725 575 2942 
Q 747 3159 1072 3276 
Q 1397 3394 1825 3394 
Q 2250 3394 2515 3294 
Q 2781 3194 2906 3042 
Q 3031 2891 3081 2659 
Q 3109 2516 3109 2141 
L 3109 1391 
Q 3109 606 3145 398 
Q 3181 191 3288 0 
L 2700 0 
Q 2613 175 2588 409 
z
M 2541 1666 
Q 2234 1541 1622 1453 
Q 1275 1403 1131 1340 
Q 988 1278 909 1158 
Q 831 1038 831 891 
Q 831 666 1001 516 
Q 1172 366 1500 366 
Q 1825 366 2078 508 
Q 2331 650 2450 897 
Q 2541 1088 2541 1459 
L 2541 1666 
z
" transform="scale(0.015625)"/>
       <path id="ArialMT-447" d="M 216 3319 
L 778 3319 
L 778 2691 
Q 778 2284 826 2101 
Q 875 1919 1059 1783 
Q 1244 1647 1522 1647 
Q 1841 1647 2347 1816 
L 2347 3319 
L 2909 3319 
L 2909 0 
L 2347 0 
L 2347 1338 
Q 1828 1175 1378 1175 
Q 1000 1175 711 1367 
Q 422 1559 319 1837 
Q 216 2116 216 2450 
L 216 3319 
z
" transform="scale(0.015625)"/>
       <path id="ArialMT-435" d="M 2694 1069 
L 3275 997 
Q 3138 488 2766 206 
Q 2394 -75 1816 -75 
Q 1088 -75 661 373 
Q 234 822 234 1631 
Q 234 2469 665 2931 
Q 1097 3394 1784 3394 
Q 2450 3394 2872 2941 
Q 3294 2488 3294 1666 
Q 3294 1616 3291 1516 
L 816 1516 
Q 847 969 1125 678 
Q 1403 388 1819 388 
Q 2128 388 2347 550 
Q 2566 713 2694 1069 
z
M 847 1978 
L 2700 1978 
Q 2663 2397 2488 2606 
Q 2219 2931 1791 2931 
Q 1403 2931 1139 2672 
Q 875 2413 847 1978 
z
" transform="scale(0.015625)"/>
       <path id="ArialMT-438" d="M 422 3319 
L 984 3319 
L 984 788 
L 2544 3319 
L 3150 3319 
L 3150 0 
L 2588 0 
L 2588 2516 
L 1028 0 
L 422 0 
L 422 3319 
z
" transform="scale(0.015625)"/>
       <path id="ArialMT-44f" d="M 3034 3319 
L 3034 0 
L 2475 0 
L 2475 1294 
L 2150 1294 
Q 1853 1294 1708 1217 
Q 1563 1141 1284 725 
L 794 0 
L 97 0 
L 703 894 
Q 981 1303 1256 1356 
Q 775 1422 542 1703 
Q 309 1984 309 2350 
Q 309 2781 614 3050 
Q 919 3319 1497 3319 
L 3034 3319 
z
M 2475 2853 
L 1675 2853 
Q 1172 2853 1026 2697 
Q 881 2541 881 2331 
Q 881 2034 1095 1895 
Q 1309 1756 1853 1756 
L 2475 1756 
L 2475 2853 
z
" transform="scale(0.015625)"/>
      </defs>
      <use xlink:href="#ArialMT-417"/>
      <use xlink:href="#ArialMT-43d" x="60.400391"/>
      <use xlink:href="#ArialMT-430" x="115.625"/>
      <use xlink:href="#ArialMT-447" x="168.990234"/>
      <use xlink:href="#ArialMT-435" x="221.089844"/>
      <use xlink:href="#ArialMT-43d" x="276.705078"/>
      <use xlink:href="#ArialMT-438" x="331.929688"/>
      <use xlink:href="#ArialMT-44f" x="387.789062"/>
     </g>
    </g>
   </g>
   <g id="matplotlib.axis_2">
    <g id="ytick_1">
     <g id="line2d_8">
      <path d="M 144 640.8 
L 1036.8 640.8 
" clip-path="url(#p4a87474e75)" style="fill: none; stroke: #ffffff; stroke-width: 0.8; stroke-linecap: round"/>
     </g>
     <g id="text_9">
      <!-- 0.000 -->
      <g style="fill: #262626" transform="translate(74.445312 649.747266) scale(0.25 -0.25)">
       <defs>
        <path id="ArialMT-2e" d="M 581 0 
L 581 641 
L 1222 641 
L 1222 0 
L 581 0 
z
" transform="scale(0.015625)"/>
       </defs>
       <use xlink:href="#ArialMT-30"/>
       <use xlink:href="#ArialMT-2e" x="55.615234"/>
       <use xlink:href="#ArialMT-30" x="83.398438"/>
       <use xlink:href="#ArialMT-30" x="139.013672"/>
       <use xlink:href="#ArialMT-30" x="194.628906"/>
      </g>
     </g>
    </g>
    <g id="ytick_2">
     <g id="line2d_9">
      <path d="M 144 575.556874 
L 1036.8 575.556874 
" clip-path="url(#p4a87474e75)" style="fill: none; stroke: #ffffff; stroke-width: 0.8; stroke-linecap: round"/>
     </g>
     <g id="text_10">
      <!-- 0.002 -->
      <g style="fill: #262626" transform="translate(74.445312 584.50414) scale(0.25 -0.25)">
       <use xlink:href="#ArialMT-30"/>
       <use xlink:href="#ArialMT-2e" x="55.615234"/>
       <use xlink:href="#ArialMT-30" x="83.398438"/>
       <use xlink:href="#ArialMT-30" x="139.013672"/>
       <use xlink:href="#ArialMT-32" x="194.628906"/>
      </g>
     </g>
    </g>
    <g id="ytick_3">
     <g id="line2d_10">
      <path d="M 144 510.313748 
L 1036.8 510.313748 
" clip-path="url(#p4a87474e75)" style="fill: none; stroke: #ffffff; stroke-width: 0.8; stroke-linecap: round"/>
     </g>
     <g id="text_11">
      <!-- 0.004 -->
      <g style="fill: #262626" transform="translate(74.445312 519.261014) scale(0.25 -0.25)">
       <use xlink:href="#ArialMT-30"/>
       <use xlink:href="#ArialMT-2e" x="55.615234"/>
       <use xlink:href="#ArialMT-30" x="83.398438"/>
       <use xlink:href="#ArialMT-30" x="139.013672"/>
       <use xlink:href="#ArialMT-34" x="194.628906"/>
      </g>
     </g>
    </g>
    <g id="ytick_4">
     <g id="line2d_11">
      <path d="M 144 445.070622 
L 1036.8 445.070622 
" clip-path="url(#p4a87474e75)" style="fill: none; stroke: #ffffff; stroke-width: 0.8; stroke-linecap: round"/>
     </g>
     <g id="text_12">
      <!-- 0.006 -->
      <g style="fill: #262626" transform="translate(74.445312 454.017888) scale(0.25 -0.25)">
       <defs>
        <path id="ArialMT-36" d="M 3184 3459 
L 2625 3416 
Q 2550 3747 2413 3897 
Q 2184 4138 1850 4138 
Q 1581 4138 1378 3988 
Q 1113 3794 959 3422 
Q 806 3050 800 2363 
Q 1003 2672 1297 2822 
Q 1591 2972 1913 2972 
Q 2475 2972 2870 2558 
Q 3266 2144 3266 1488 
Q 3266 1056 3080 686 
Q 2894 316 2569 119 
Q 2244 -78 1831 -78 
Q 1128 -78 684 439 
Q 241 956 241 2144 
Q 241 3472 731 4075 
Q 1159 4600 1884 4600 
Q 2425 4600 2770 4297 
Q 3116 3994 3184 3459 
z
M 888 1484 
Q 888 1194 1011 928 
Q 1134 663 1356 523 
Q 1578 384 1822 384 
Q 2178 384 2434 671 
Q 2691 959 2691 1453 
Q 2691 1928 2437 2201 
Q 2184 2475 1800 2475 
Q 1419 2475 1153 2201 
Q 888 1928 888 1484 
z
" transform="scale(0.015625)"/>
       </defs>
       <use xlink:href="#ArialMT-30"/>
       <use xlink:href="#ArialMT-2e" x="55.615234"/>
       <use xlink:href="#ArialMT-30" x="83.398438"/>
       <use xlink:href="#ArialMT-30" x="139.013672"/>
       <use xlink:href="#ArialMT-36" x="194.628906"/>
      </g>
     </g>
    </g>
    <g id="ytick_5">
     <g id="line2d_12">
      <path d="M 144 379.827496 
L 1036.8 379.827496 
" clip-path="url(#p4a87474e75)" style="fill: none; stroke: #ffffff; stroke-width: 0.8; stroke-linecap: round"/>
     </g>
     <g id="text_13">
      <!-- 0.008 -->
      <g style="fill: #262626" transform="translate(74.445312 388.774762) scale(0.25 -0.25)">
       <defs>
        <path id="ArialMT-38" d="M 1131 2484 
Q 781 2613 612 2850 
Q 444 3088 444 3419 
Q 444 3919 803 4259 
Q 1163 4600 1759 4600 
Q 2359 4600 2725 4251 
Q 3091 3903 3091 3403 
Q 3091 3084 2923 2848 
Q 2756 2613 2416 2484 
Q 2838 2347 3058 2040 
Q 3278 1734 3278 1309 
Q 3278 722 2862 322 
Q 2447 -78 1769 -78 
Q 1091 -78 675 323 
Q 259 725 259 1325 
Q 259 1772 486 2073 
Q 713 2375 1131 2484 
z
M 1019 3438 
Q 1019 3113 1228 2906 
Q 1438 2700 1772 2700 
Q 2097 2700 2305 2904 
Q 2513 3109 2513 3406 
Q 2513 3716 2298 3927 
Q 2084 4138 1766 4138 
Q 1444 4138 1231 3931 
Q 1019 3725 1019 3438 
z
M 838 1322 
Q 838 1081 952 856 
Q 1066 631 1291 507 
Q 1516 384 1775 384 
Q 2178 384 2440 643 
Q 2703 903 2703 1303 
Q 2703 1709 2433 1975 
Q 2163 2241 1756 2241 
Q 1359 2241 1098 1978 
Q 838 1716 838 1322 
z
" transform="scale(0.015625)"/>
       </defs>
       <use xlink:href="#ArialMT-30"/>
       <use xlink:href="#ArialMT-2e" x="55.615234"/>
       <use xlink:href="#ArialMT-30" x="83.398438"/>
       <use xlink:href="#ArialMT-30" x="139.013672"/>
       <use xlink:href="#ArialMT-38" x="194.628906"/>
      </g>
     </g>
    </g>
    <g id="ytick_6">
     <g id="line2d_13">
      <path d="M 144 314.58437 
L 1036.8 314.58437 
" clip-path="url(#p4a87474e75)" style="fill: none; stroke: #ffffff; stroke-width: 0.8; stroke-linecap: round"/>
     </g>
     <g id="text_14">
      <!-- 0.010 -->
      <g style="fill: #262626" transform="translate(74.445312 323.531636) scale(0.25 -0.25)">
       <defs>
        <path id="ArialMT-31" d="M 2384 0 
L 1822 0 
L 1822 3584 
Q 1619 3391 1289 3197 
Q 959 3003 697 2906 
L 697 3450 
Q 1169 3672 1522 3987 
Q 1875 4303 2022 4600 
L 2384 4600 
L 2384 0 
z
" transform="scale(0.015625)"/>
       </defs>
       <use xlink:href="#ArialMT-30"/>
       <use xlink:href="#ArialMT-2e" x="55.615234"/>
       <use xlink:href="#ArialMT-30" x="83.398438"/>
       <use xlink:href="#ArialMT-31" x="139.013672"/>
       <use xlink:href="#ArialMT-30" x="194.628906"/>
      </g>
     </g>
    </g>
    <g id="ytick_7">
     <g id="line2d_14">
      <path d="M 144 249.341244 
L 1036.8 249.341244 
" clip-path="url(#p4a87474e75)" style="fill: none; stroke: #ffffff; stroke-width: 0.8; stroke-linecap: round"/>
     </g>
     <g id="text_15">
      <!-- 0.012 -->
      <g style="fill: #262626" transform="translate(74.445312 258.28851) scale(0.25 -0.25)">
       <use xlink:href="#ArialMT-30"/>
       <use xlink:href="#ArialMT-2e" x="55.615234"/>
       <use xlink:href="#ArialMT-30" x="83.398438"/>
       <use xlink:href="#ArialMT-31" x="139.013672"/>
       <use xlink:href="#ArialMT-32" x="194.628906"/>
      </g>
     </g>
    </g>
    <g id="ytick_8">
     <g id="line2d_15">
      <path d="M 144 184.098118 
L 1036.8 184.098118 
" clip-path="url(#p4a87474e75)" style="fill: none; stroke: #ffffff; stroke-width: 0.8; stroke-linecap: round"/>
     </g>
     <g id="text_16">
      <!-- 0.014 -->
      <g style="fill: #262626" transform="translate(74.445312 193.045384) scale(0.25 -0.25)">
       <use xlink:href="#ArialMT-30"/>
       <use xlink:href="#ArialMT-2e" x="55.615234"/>
       <use xlink:href="#ArialMT-30" x="83.398438"/>
       <use xlink:href="#ArialMT-31" x="139.013672"/>
       <use xlink:href="#ArialMT-34" x="194.628906"/>
      </g>
     </g>
    </g>
    <g id="ytick_9">
     <g id="line2d_16">
      <path d="M 144 118.854993 
L 1036.8 118.854993 
" clip-path="url(#p4a87474e75)" style="fill: none; stroke: #ffffff; stroke-width: 0.8; stroke-linecap: round"/>
     </g>
     <g id="text_17">
      <!-- 0.016 -->
      <g style="fill: #262626" transform="translate(74.445312 127.802258) scale(0.25 -0.25)">
       <use xlink:href="#ArialMT-30"/>
       <use xlink:href="#ArialMT-2e" x="55.615234"/>
       <use xlink:href="#ArialMT-30" x="83.398438"/>
       <use xlink:href="#ArialMT-31" x="139.013672"/>
       <use xlink:href="#ArialMT-36" x="194.628906"/>
      </g>
     </g>
    </g>
    <g id="text_18">
     <!-- Плотность вероятности -->
     <g style="fill: #262626" transform="translate(64.482812 528.339844) rotate(-90) scale(0.3 -0.3)">
      <defs>
       <path id="ArialMT-41f" d="M 500 4581 
L 4103 4581 
L 4103 0 
L 3494 0 
L 3494 4041 
L 1106 4041 
L 1106 0 
L 500 0 
L 500 4581 
z
" transform="scale(0.015625)"/>
       <path id="ArialMT-43b" d="M 697 3319 
L 3309 3319 
L 3309 0 
L 2750 0 
L 2750 2853 
L 1259 2853 
L 1259 1200 
Q 1259 622 1221 437 
Q 1184 253 1015 115 
Q 847 -22 528 -22 
Q 331 -22 75 3 
L 75 472 
L 322 472 
Q 497 472 572 508 
Q 647 544 672 622 
Q 697 700 697 1131 
L 697 3319 
z
" transform="scale(0.015625)"/>
       <path id="ArialMT-43e" d="M 213 1659 
Q 213 2581 725 3025 
Q 1153 3394 1769 3394 
Q 2453 3394 2887 2945 
Q 3322 2497 3322 1706 
Q 3322 1066 3130 698 
Q 2938 331 2570 128 
Q 2203 -75 1769 -75 
Q 1072 -75 642 372 
Q 213 819 213 1659 
z
M 791 1659 
Q 791 1022 1069 705 
Q 1347 388 1769 388 
Q 2188 388 2466 706 
Q 2744 1025 2744 1678 
Q 2744 2294 2464 2611 
Q 2184 2928 1769 2928 
Q 1347 2928 1069 2612 
Q 791 2297 791 1659 
z
" transform="scale(0.015625)"/>
       <path id="ArialMT-442" d="M 119 3319 
L 2816 3319 
L 2816 2853 
L 1747 2853 
L 1747 0 
L 1188 0 
L 1188 2853 
L 119 2853 
L 119 3319 
z
" transform="scale(0.015625)"/>
       <path id="ArialMT-441" d="M 2588 1216 
L 3141 1144 
Q 3050 572 2676 248 
Q 2303 -75 1759 -75 
Q 1078 -75 664 370 
Q 250 816 250 1647 
Q 250 2184 428 2587 
Q 606 2991 970 3192 
Q 1334 3394 1763 3394 
Q 2303 3394 2647 3120 
Q 2991 2847 3088 2344 
L 2541 2259 
Q 2463 2594 2264 2762 
Q 2066 2931 1784 2931 
Q 1359 2931 1093 2626 
Q 828 2322 828 1663 
Q 828 994 1084 691 
Q 1341 388 1753 388 
Q 2084 388 2306 591 
Q 2528 794 2588 1216 
z
" transform="scale(0.015625)"/>
       <path id="ArialMT-44c" d="M 413 3319 
L 975 3319 
L 975 2022 
L 1688 2022 
Q 2384 2022 2761 1751 
Q 3138 1481 3138 1006 
Q 3138 591 2823 295 
Q 2509 0 1819 0 
L 413 0 
L 413 3319 
z
M 975 463 
L 1566 463 
Q 2100 463 2328 594 
Q 2556 725 2556 1003 
Q 2556 1219 2387 1387 
Q 2219 1556 1641 1556 
L 975 1556 
L 975 463 
z
" transform="scale(0.015625)"/>
       <path id="ArialMT-20" transform="scale(0.015625)"/>
       <path id="ArialMT-432" d="M 425 3319 
L 1722 3319 
Q 2200 3319 2433 3239 
Q 2666 3159 2833 2946 
Q 3000 2734 3000 2438 
Q 3000 2200 2901 2023 
Q 2803 1847 2606 1728 
Q 2841 1650 2995 1436 
Q 3150 1222 3150 928 
Q 3119 456 2812 228 
Q 2506 0 1922 0 
L 425 0 
L 425 3319 
z
M 988 1922 
L 1588 1922 
Q 1947 1922 2081 1959 
Q 2216 1997 2322 2111 
Q 2428 2225 2428 2384 
Q 2428 2647 2242 2750 
Q 2056 2853 1606 2853 
L 988 2853 
L 988 1922 
z
M 988 463 
L 1728 463 
Q 2206 463 2384 573 
Q 2563 684 2572 956 
Q 2572 1116 2469 1252 
Q 2366 1388 2200 1423 
Q 2034 1459 1669 1459 
L 988 1459 
L 988 463 
z
" transform="scale(0.015625)"/>
       <path id="ArialMT-440" d="M 422 -1272 
L 422 3319 
L 934 3319 
L 934 2888 
Q 1116 3141 1344 3267 
Q 1572 3394 1897 3394 
Q 2322 3394 2647 3175 
Q 2972 2956 3137 2557 
Q 3303 2159 3303 1684 
Q 3303 1175 3120 767 
Q 2938 359 2589 142 
Q 2241 -75 1856 -75 
Q 1575 -75 1351 44 
Q 1128 163 984 344 
L 984 -1272 
L 422 -1272 
z
M 931 1641 
Q 931 1000 1190 694 
Q 1450 388 1819 388 
Q 2194 388 2461 705 
Q 2728 1022 2728 1688 
Q 2728 2322 2467 2637 
Q 2206 2953 1844 2953 
Q 1484 2953 1207 2617 
Q 931 2281 931 1641 
z
" transform="scale(0.015625)"/>
      </defs>
      <use xlink:href="#ArialMT-41f"/>
      <use xlink:href="#ArialMT-43b" x="71.875"/>
      <use xlink:href="#ArialMT-43e" x="131.349609"/>
      <use xlink:href="#ArialMT-442" x="184.714844"/>
      <use xlink:href="#ArialMT-43d" x="230.515625"/>
      <use xlink:href="#ArialMT-43e" x="285.740234"/>
      <use xlink:href="#ArialMT-441" x="341.355469"/>
      <use xlink:href="#ArialMT-442" x="391.355469"/>
      <use xlink:href="#ArialMT-44c" x="437.15625"/>
      <use xlink:href="#ArialMT-20" x="489.255859"/>
      <use xlink:href="#ArialMT-432" x="517.039062"/>
      <use xlink:href="#ArialMT-435" x="569.039062"/>
      <use xlink:href="#ArialMT-440" x="624.654297"/>
      <use xlink:href="#ArialMT-43e" x="680.269531"/>
      <use xlink:href="#ArialMT-44f" x="735.884766"/>
      <use xlink:href="#ArialMT-442" x="790.035156"/>
      <use xlink:href="#ArialMT-43d" x="835.835938"/>
      <use xlink:href="#ArialMT-43e" x="891.060547"/>
      <use xlink:href="#ArialMT-441" x="946.675781"/>
      <use xlink:href="#ArialMT-442" x="996.675781"/>
      <use xlink:href="#ArialMT-438" x="1042.476562"/>
     </g>
    </g>
   </g>
   <g id="PolyCollection_1">
    <defs>
     <path id="mf619f6f6e7" d="M 198.035404 -79.254224 
L 198.035404 -79.2 
L 201.917534 -79.2 
L 205.799665 -79.2 
L 209.681795 -79.2 
L 213.563926 -79.2 
L 217.446057 -79.2 
L 221.328187 -79.2 
L 225.210318 -79.2 
L 229.092448 -79.2 
L 232.974579 -79.2 
L 236.85671 -79.2 
L 240.73884 -79.2 
L 244.620971 -79.2 
L 248.503101 -79.2 
L 252.385232 -79.2 
L 256.267363 -79.2 
L 260.149493 -79.2 
L 264.031624 -79.2 
L 267.913754 -79.2 
L 271.795885 -79.2 
L 275.678016 -79.2 
L 279.560146 -79.2 
L 283.442277 -79.2 
L 287.324407 -79.2 
L 291.206538 -79.2 
L 295.088669 -79.2 
L 298.970799 -79.2 
L 302.85293 -79.2 
L 306.73506 -79.2 
L 310.617191 -79.2 
L 314.499322 -79.2 
L 318.381452 -79.2 
L 322.263583 -79.2 
L 326.145714 -79.2 
L 330.027844 -79.2 
L 333.909975 -79.2 
L 337.792105 -79.2 
L 341.674236 -79.2 
L 345.556367 -79.2 
L 349.438497 -79.2 
L 353.320628 -79.2 
L 357.202758 -79.2 
L 361.084889 -79.2 
L 364.96702 -79.2 
L 368.84915 -79.2 
L 372.731281 -79.2 
L 376.613411 -79.2 
L 380.495542 -79.2 
L 384.377673 -79.2 
L 388.259803 -79.2 
L 392.141934 -79.2 
L 396.024064 -79.2 
L 399.906195 -79.2 
L 403.788326 -79.2 
L 407.670456 -79.2 
L 411.552587 -79.2 
L 415.434717 -79.2 
L 419.316848 -79.2 
L 423.198979 -79.2 
L 427.081109 -79.2 
L 430.96324 -79.2 
L 434.84537 -79.2 
L 438.727501 -79.2 
L 442.609632 -79.2 
L 446.491762 -79.2 
L 450.373893 -79.2 
L 454.256023 -79.2 
L 458.138154 -79.2 
L 462.020285 -79.2 
L 465.902415 -79.2 
L 469.784546 -79.2 
L 473.666677 -79.2 
L 477.548807 -79.2 
L 481.430938 -79.2 
L 485.313068 -79.2 
L 489.195199 -79.2 
L 493.07733 -79.2 
L 496.95946 -79.2 
L 500.841591 -79.2 
L 504.723721 -79.2 
L 508.605852 -79.2 
L 512.487983 -79.2 
L 516.370113 -79.2 
L 520.252244 -79.2 
L 524.134374 -79.2 
L 528.016505 -79.2 
L 531.898636 -79.2 
L 535.780766 -79.2 
L 539.662897 -79.2 
L 543.545027 -79.2 
L 547.427158 -79.2 
L 551.309289 -79.2 
L 555.191419 -79.2 
L 559.07355 -79.2 
L 562.95568 -79.2 
L 566.837811 -79.2 
L 570.719942 -79.2 
L 574.602072 -79.2 
L 578.484203 -79.2 
L 582.366333 -79.2 
L 586.248464 -79.2 
L 590.130595 -79.2 
L 594.012725 -79.2 
L 597.894856 -79.2 
L 601.776986 -79.2 
L 605.659117 -79.2 
L 609.541248 -79.2 
L 613.423378 -79.2 
L 617.305509 -79.2 
L 621.187639 -79.2 
L 625.06977 -79.2 
L 628.951901 -79.2 
L 632.834031 -79.2 
L 636.716162 -79.2 
L 640.598293 -79.2 
L 644.480423 -79.2 
L 648.362554 -79.2 
L 652.244684 -79.2 
L 656.126815 -79.2 
L 660.008946 -79.2 
L 663.891076 -79.2 
L 667.773207 -79.2 
L 671.655337 -79.2 
L 675.537468 -79.2 
L 679.419599 -79.2 
L 683.301729 -79.2 
L 687.18386 -79.2 
L 691.06599 -79.2 
L 694.948121 -79.2 
L 698.830252 -79.2 
L 702.712382 -79.2 
L 706.594513 -79.2 
L 710.476643 -79.2 
L 714.358774 -79.2 
L 718.240905 -79.2 
L 722.123035 -79.2 
L 726.005166 -79.2 
L 729.887296 -79.2 
L 733.769427 -79.2 
L 737.651558 -79.2 
L 741.533688 -79.2 
L 745.415819 -79.2 
L 749.297949 -79.2 
L 753.18008 -79.2 
L 757.062211 -79.2 
L 760.944341 -79.2 
L 764.826472 -79.2 
L 768.708602 -79.2 
L 772.590733 -79.2 
L 776.472864 -79.2 
L 780.354994 -79.2 
L 784.237125 -79.2 
L 788.119255 -79.2 
L 792.001386 -79.2 
L 795.883517 -79.2 
L 799.765647 -79.2 
L 803.647778 -79.2 
L 807.529909 -79.2 
L 811.412039 -79.2 
L 815.29417 -79.2 
L 819.1763 -79.2 
L 823.058431 -79.2 
L 826.940562 -79.2 
L 830.822692 -79.2 
L 834.704823 -79.2 
L 838.586953 -79.2 
L 842.469084 -79.2 
L 846.351215 -79.2 
L 850.233345 -79.2 
L 854.115476 -79.2 
L 857.997606 -79.2 
L 861.879737 -79.2 
L 865.761868 -79.2 
L 869.643998 -79.2 
L 873.526129 -79.2 
L 877.408259 -79.2 
L 881.29039 -79.2 
L 885.172521 -79.2 
L 889.054651 -79.2 
L 892.936782 -79.2 
L 896.818912 -79.2 
L 900.701043 -79.2 
L 904.583174 -79.2 
L 908.465304 -79.2 
L 912.347435 -79.2 
L 916.229565 -79.2 
L 920.111696 -79.2 
L 923.993827 -79.2 
L 927.875957 -79.2 
L 931.758088 -79.2 
L 935.640218 -79.2 
L 939.522349 -79.2 
L 943.40448 -79.2 
L 947.28661 -79.2 
L 951.168741 -79.2 
L 955.050871 -79.2 
L 958.933002 -79.2 
L 962.815133 -79.2 
L 966.697263 -79.2 
L 970.579394 -79.2 
L 970.579394 -79.255146 
L 970.579394 -79.255146 
L 966.697263 -79.280666 
L 962.815133 -79.31643 
L 958.933002 -79.365829 
L 955.050871 -79.433078 
L 951.168741 -79.523312 
L 947.28661 -79.642644 
L 943.40448 -79.798186 
L 939.522349 -79.998012 
L 935.640218 -80.25104 
L 931.758088 -80.566838 
L 927.875957 -80.955335 
L 923.993827 -81.426439 
L 920.111696 -81.98958 
L 916.229565 -82.653188 
L 912.347435 -83.424148 
L 908.465304 -84.307251 
L 904.583174 -85.304705 
L 900.701043 -86.415722 
L 896.818912 -87.636248 
L 892.936782 -88.958846 
L 889.054651 -90.372748 
L 885.172521 -91.864092 
L 881.29039 -93.416314 
L 877.408259 -95.010672 
L 873.526129 -96.626866 
L 869.643998 -98.243703 
L 865.761868 -99.839766 
L 861.879737 -101.394058 
L 857.997606 -102.886593 
L 854.115476 -104.298916 
L 850.233345 -105.614574 
L 846.351215 -106.819525 
L 842.469084 -107.902524 
L 838.586953 -108.855483 
L 834.704823 -109.673814 
L 830.822692 -110.356754 
L 826.940562 -110.907638 
L 823.058431 -111.334096 
L 819.1763 -111.64813 
L 815.29417 -111.866024 
L 811.412039 -112.008055 
L 807.529909 -112.097988 
L 803.647778 -112.162345 
L 799.765647 -112.229486 
L 795.883517 -112.328527 
L 792.001386 -112.48818 
L 788.119255 -112.735579 
L 784.237125 -113.095175 
L 780.354994 -113.587769 
L 776.472864 -114.229748 
L 772.590733 -115.032562 
L 768.708602 -116.002452 
L 764.826472 -117.140426 
L 760.944341 -118.442453 
L 757.062211 -119.899831 
L 753.18008 -121.499676 
L 749.297949 -123.225486 
L 745.415819 -125.057732 
L 741.533688 -126.974446 
L 737.651558 -128.951796 
L 733.769427 -130.964638 
L 729.887296 -132.987081 
L 726.005166 -134.993055 
L 722.123035 -136.956936 
L 718.240905 -138.854216 
L 714.358774 -140.662228 
L 710.476643 -142.360908 
L 706.594513 -143.933539 
L 702.712382 -145.367437 
L 698.830252 -146.654489 
L 694.948121 -147.79149 
L 691.06599 -148.780209 
L 687.18386 -149.627138 
L 683.301729 -150.342922 
L 679.419599 -150.941497 
L 675.537468 -151.438983 
L 671.655337 -151.852435 
L 667.773207 -152.198562 
L 663.891076 -152.492533 
L 660.008946 -152.746986 
L 656.126815 -152.971338 
L 652.244684 -153.171443 
L 648.362554 -153.349633 
L 644.480423 -153.505097 
L 640.598293 -153.634551 
L 636.716162 -153.733085 
L 632.834031 -153.795075 
L 628.951901 -153.815045 
L 625.06977 -153.788364 
L 621.187639 -153.711708 
L 617.305509 -153.58323 
L 613.423378 -153.40245 
L 609.541248 -153.169894 
L 605.659117 -152.886566 
L 601.776986 -152.553345 
L 597.894856 -152.170416 
L 594.012725 -151.736847 
L 590.130595 -151.250389 
L 586.248464 -150.707563 
L 582.366333 -150.104047 
L 578.484203 -149.435357 
L 574.602072 -148.697742 
L 570.719942 -147.889246 
L 566.837811 -147.01081 
L 562.95568 -146.067328 
L 559.07355 -145.068561 
L 555.191419 -144.029844 
L 551.309289 -142.97254 
L 547.427158 -141.924241 
L 543.545027 -140.918727 
L 539.662897 -139.99575 
L 535.780766 -139.200693 
L 531.898636 -138.5842 
L 528.016505 -138.20183 
L 524.134374 -138.113805 
L 520.252244 -138.384887 
L 516.370113 -139.084379 
L 512.487983 -140.286242 
L 508.605852 -142.069256 
L 504.723721 -144.517152 
L 500.841591 -147.71859 
L 496.95946 -151.766885 
L 493.07733 -156.759325 
L 489.195199 -162.795988 
L 485.313068 -169.977936 
L 481.430938 -178.404711 
L 477.548807 -188.171126 
L 473.666677 -199.363327 
L 469.784546 -212.054231 
L 465.902415 -226.298445 
L 462.020285 -242.126859 
L 458.138154 -259.541132 
L 454.256023 -278.508339 
L 450.373893 -298.956072 
L 446.491762 -320.768288 
L 442.609632 -343.782205 
L 438.727501 -367.786517 
L 434.84537 -392.521167 
L 430.96324 -417.678892 
L 427.081109 -442.908684 
L 423.198979 -467.821256 
L 419.316848 -491.99654 
L 415.434717 -514.99315 
L 411.552587 -536.35966 
L 407.670456 -555.647436 
L 403.788326 -572.424652 
L 399.906195 -586.290996 
L 396.024064 -596.892462 
L 392.141934 -603.935533 
L 388.259803 -607.2 
L 384.377673 -606.549623 
L 380.495542 -601.939925 
L 376.613411 -593.422468 
L 372.731281 -581.145167 
L 368.84915 -565.348411 
L 364.96702 -546.357039 
L 361.084889 -524.568486 
L 357.202758 -500.437722 
L 353.320628 -474.459818 
L 349.438497 -447.151166 
L 345.556367 -419.030456 
L 341.674236 -390.600504 
L 337.792105 -362.331958 
L 333.909975 -334.649682 
L 330.027844 -307.922406 
L 326.145714 -282.45595 
L 322.263583 -258.490049 
L 318.381452 -236.198529 
L 314.499322 -215.692422 
L 310.617191 -197.025396 
L 306.73506 -180.200871 
L 302.85293 -165.180109 
L 298.970799 -151.890681 
L 295.088669 -140.234758 
L 291.206538 -130.096817 
L 287.324407 -121.350475 
L 283.442277 -113.86429 
L 279.560146 -107.506471 
L 275.678016 -102.148538 
L 271.795885 -97.668012 
L 267.913754 -93.950277 
L 264.031624 -90.889742 
L 260.149493 -88.390449 
L 256.267363 -86.366255 
L 252.385232 -84.740697 
L 248.503101 -83.446623 
L 244.620971 -82.425673 
L 240.73884 -81.627643 
L 236.85671 -81.009796 
L 232.974579 -80.536132 
L 229.092448 -80.176658 
L 225.210318 -79.90666 
L 221.328187 -79.70601 
L 217.446057 -79.558507 
L 213.563926 -79.451271 
L 209.681795 -79.374184 
L 205.799665 -79.319404 
L 201.917534 -79.280929 
L 198.035404 -79.254224 
z
" style="stroke: #0000ff"/>
    </defs>
    <g clip-path="url(#p4a87474e75)">
     <use xlink:href="#mf619f6f6e7" x="0" y="720" style="fill: #0000ff; fill-opacity: 0.8; stroke: #0000ff"/>
    </g>
   </g>
   <g id="PolyCollection_2">
    <defs>
     <path id="me95bc4fb43" d="M 184.581818 -79.422002 
L 184.581818 -79.2 
L 188.660393 -79.2 
L 192.738968 -79.2 
L 196.817542 -79.2 
L 200.896117 -79.2 
L 204.974692 -79.2 
L 209.053266 -79.2 
L 213.131841 -79.2 
L 217.210416 -79.2 
L 221.28899 -79.2 
L 225.367565 -79.2 
L 229.44614 -79.2 
L 233.524714 -79.2 
L 237.603289 -79.2 
L 241.681864 -79.2 
L 245.760439 -79.2 
L 249.839013 -79.2 
L 253.917588 -79.2 
L 257.996163 -79.2 
L 262.074737 -79.2 
L 266.153312 -79.2 
L 270.231887 -79.2 
L 274.310461 -79.2 
L 278.389036 -79.2 
L 282.467611 -79.2 
L 286.546185 -79.2 
L 290.62476 -79.2 
L 294.703335 -79.2 
L 298.78191 -79.2 
L 302.860484 -79.2 
L 306.939059 -79.2 
L 311.017634 -79.2 
L 315.096208 -79.2 
L 319.174783 -79.2 
L 323.253358 -79.2 
L 327.331932 -79.2 
L 331.410507 -79.2 
L 335.489082 -79.2 
L 339.567656 -79.2 
L 343.646231 -79.2 
L 347.724806 -79.2 
L 351.803381 -79.2 
L 355.881955 -79.2 
L 359.96053 -79.2 
L 364.039105 -79.2 
L 368.117679 -79.2 
L 372.196254 -79.2 
L 376.274829 -79.2 
L 380.353403 -79.2 
L 384.431978 -79.2 
L 388.510553 -79.2 
L 392.589127 -79.2 
L 396.667702 -79.2 
L 400.746277 -79.2 
L 404.824852 -79.2 
L 408.903426 -79.2 
L 412.982001 -79.2 
L 417.060576 -79.2 
L 421.13915 -79.2 
L 425.217725 -79.2 
L 429.2963 -79.2 
L 433.374874 -79.2 
L 437.453449 -79.2 
L 441.532024 -79.2 
L 445.610598 -79.2 
L 449.689173 -79.2 
L 453.767748 -79.2 
L 457.846323 -79.2 
L 461.924897 -79.2 
L 466.003472 -79.2 
L 470.082047 -79.2 
L 474.160621 -79.2 
L 478.239196 -79.2 
L 482.317771 -79.2 
L 486.396345 -79.2 
L 490.47492 -79.2 
L 494.553495 -79.2 
L 498.632069 -79.2 
L 502.710644 -79.2 
L 506.789219 -79.2 
L 510.867794 -79.2 
L 514.946368 -79.2 
L 519.024943 -79.2 
L 523.103518 -79.2 
L 527.182092 -79.2 
L 531.260667 -79.2 
L 535.339242 -79.2 
L 539.417816 -79.2 
L 543.496391 -79.2 
L 547.574966 -79.2 
L 551.65354 -79.2 
L 555.732115 -79.2 
L 559.81069 -79.2 
L 563.889265 -79.2 
L 567.967839 -79.2 
L 572.046414 -79.2 
L 576.124989 -79.2 
L 580.203563 -79.2 
L 584.282138 -79.2 
L 588.360713 -79.2 
L 592.439287 -79.2 
L 596.517862 -79.2 
L 600.596437 -79.2 
L 604.675011 -79.2 
L 608.753586 -79.2 
L 612.832161 -79.2 
L 616.910735 -79.2 
L 620.98931 -79.2 
L 625.067885 -79.2 
L 629.14646 -79.2 
L 633.225034 -79.2 
L 637.303609 -79.2 
L 641.382184 -79.2 
L 645.460758 -79.2 
L 649.539333 -79.2 
L 653.617908 -79.2 
L 657.696482 -79.2 
L 661.775057 -79.2 
L 665.853632 -79.2 
L 669.932206 -79.2 
L 674.010781 -79.2 
L 678.089356 -79.2 
L 682.167931 -79.2 
L 686.246505 -79.2 
L 690.32508 -79.2 
L 694.403655 -79.2 
L 698.482229 -79.2 
L 702.560804 -79.2 
L 706.639379 -79.2 
L 710.717953 -79.2 
L 714.796528 -79.2 
L 718.875103 -79.2 
L 722.953677 -79.2 
L 727.032252 -79.2 
L 731.110827 -79.2 
L 735.189402 -79.2 
L 739.267976 -79.2 
L 743.346551 -79.2 
L 747.425126 -79.2 
L 751.5037 -79.2 
L 755.582275 -79.2 
L 759.66085 -79.2 
L 763.739424 -79.2 
L 767.817999 -79.2 
L 771.896574 -79.2 
L 775.975148 -79.2 
L 780.053723 -79.2 
L 784.132298 -79.2 
L 788.210873 -79.2 
L 792.289447 -79.2 
L 796.368022 -79.2 
L 800.446597 -79.2 
L 804.525171 -79.2 
L 808.603746 -79.2 
L 812.682321 -79.2 
L 816.760895 -79.2 
L 820.83947 -79.2 
L 824.918045 -79.2 
L 828.996619 -79.2 
L 833.075194 -79.2 
L 837.153769 -79.2 
L 841.232344 -79.2 
L 845.310918 -79.2 
L 849.389493 -79.2 
L 853.468068 -79.2 
L 857.546642 -79.2 
L 861.625217 -79.2 
L 865.703792 -79.2 
L 869.782366 -79.2 
L 873.860941 -79.2 
L 877.939516 -79.2 
L 882.01809 -79.2 
L 886.096665 -79.2 
L 890.17524 -79.2 
L 894.253815 -79.2 
L 898.332389 -79.2 
L 902.410964 -79.2 
L 906.489539 -79.2 
L 910.568113 -79.2 
L 914.646688 -79.2 
L 918.725263 -79.2 
L 922.803837 -79.2 
L 926.882412 -79.2 
L 930.960987 -79.2 
L 935.039561 -79.2 
L 939.118136 -79.2 
L 943.196711 -79.2 
L 947.275286 -79.2 
L 951.35386 -79.2 
L 955.432435 -79.2 
L 959.51101 -79.2 
L 963.589584 -79.2 
L 967.668159 -79.2 
L 971.746734 -79.2 
L 975.825308 -79.2 
L 979.903883 -79.2 
L 983.982458 -79.2 
L 988.061032 -79.2 
L 992.139607 -79.2 
L 996.218182 -79.2 
L 996.218182 -79.288193 
L 996.218182 -79.288193 
L 992.139607 -79.31538 
L 988.061032 -79.349868 
L 983.982458 -79.393273 
L 979.903883 -79.447475 
L 975.825308 -79.514625 
L 971.746734 -79.597162 
L 967.668159 -79.697809 
L 963.589584 -79.819567 
L 959.51101 -79.965688 
L 955.432435 -80.139644 
L 951.35386 -80.34507 
L 947.275286 -80.585693 
L 943.196711 -80.865243 
L 939.118136 -81.187345 
L 935.039561 -81.555393 
L 930.960987 -81.972411 
L 926.882412 -82.440899 
L 922.803837 -82.962677 
L 918.725263 -83.538718 
L 914.646688 -84.169001 
L 910.568113 -84.852362 
L 906.489539 -85.586379 
L 902.410964 -86.367275 
L 898.332389 -87.189864 
L 894.253815 -88.047549 
L 890.17524 -88.932354 
L 886.096665 -89.835029 
L 882.01809 -90.745202 
L 877.939516 -91.651593 
L 873.860941 -92.542285 
L 869.782366 -93.40504 
L 865.703792 -94.227663 
L 861.625217 -94.998393 
L 857.546642 -95.706316 
L 853.468068 -96.341776 
L 849.389493 -96.896784 
L 845.310918 -97.365387 
L 841.232344 -97.744004 
L 837.153769 -98.0317 
L 833.075194 -98.230385 
L 828.996619 -98.344941 
L 824.918045 -98.383248 
L 820.83947 -98.356133 
L 816.760895 -98.277211 
L 812.682321 -98.162643 
L 808.603746 -98.030813 
L 804.525171 -97.901927 
L 800.446597 -97.797551 
L 796.368022 -97.740098 
L 792.289447 -97.75229 
L 788.210873 -97.856596 
L 784.132298 -98.07467 
L 780.053723 -98.426809 
L 775.975148 -98.93143 
L 771.896574 -99.604603 
L 767.817999 -100.459624 
L 763.739424 -101.506661 
L 759.66085 -102.752464 
L 755.582275 -104.200161 
L 751.5037 -105.849123 
L 747.425126 -107.694926 
L 743.346551 -109.729387 
L 739.267976 -111.940684 
L 735.189402 -114.313563 
L 731.110827 -116.829608 
L 727.032252 -119.46759 
L 722.953677 -122.203873 
L 718.875103 -125.012872 
L 714.796528 -127.867547 
L 710.717953 -130.739938 
L 706.639379 -133.601703 
L 702.560804 -136.424674 
L 698.482229 -139.181392 
L 694.403655 -141.845631 
L 690.32508 -144.392884 
L 686.246505 -146.800807 
L 682.167931 -149.049613 
L 678.089356 -151.1224 
L 674.010781 -153.005415 
L 669.932206 -154.688244 
L 665.853632 -156.163917 
L 661.775057 -157.42894 
L 657.696482 -158.483238 
L 653.617908 -159.330012 
L 649.539333 -159.975521 
L 645.460758 -160.428776 
L 641.382184 -160.701167 
L 637.303609 -160.806024 
L 633.225034 -160.758128 
L 629.14646 -160.573194 
L 625.067885 -160.267331 
L 620.98931 -159.856527 
L 616.910735 -159.356162 
L 612.832161 -158.780592 
L 608.753586 -158.142835 
L 604.675011 -157.454366 
L 600.596437 -156.725071 
L 596.517862 -155.963358 
L 592.439287 -155.17644 
L 588.360713 -154.370795 
L 584.282138 -153.552788 
L 580.203563 -152.729437 
L 576.124989 -151.909294 
L 572.046414 -151.103397 
L 567.967839 -150.326255 
L 563.889265 -149.5968 
L 559.81069 -148.939266 
L 555.732115 -148.38393 
L 551.65354 -147.967666 
L 547.574966 -147.734285 
L 543.496391 -147.734596 
L 539.417816 -148.026191 
L 535.339242 -148.672936 
L 531.260667 -149.744161 
L 527.182092 -151.313565 
L 523.103518 -153.457871 
L 519.024943 -156.255243 
L 514.946368 -159.783523 
L 510.867794 -164.11832 
L 506.789219 -169.330999 
L 502.710644 -175.486625 
L 498.632069 -182.641888 
L 494.553495 -190.843072 
L 490.47492 -200.124092 
L 486.396345 -210.504643 
L 482.317771 -221.988495 
L 478.239196 -234.561955 
L 474.160621 -248.192553 
L 470.082047 -262.827959 
L 466.003472 -278.395183 
L 461.924897 -294.800095 
L 457.846323 -311.927299 
L 453.767748 -329.640412 
L 449.689173 -347.782779 
L 445.610598 -366.178682 
L 441.532024 -384.635049 
L 437.453449 -402.943721 
L 433.374874 -420.884252 
L 429.2963 -438.227262 
L 425.217725 -454.738304 
L 421.13915 -470.18218 
L 417.060576 -484.327651 
L 412.982001 -496.952413 
L 408.903426 -507.848224 
L 404.824852 -516.826017 
L 400.746277 -523.720841 
L 396.667702 -528.396452 
L 392.589127 -530.749357 
L 388.510553 -530.712167 
L 384.431978 -528.256077 
L 380.353403 -523.392357 
L 376.274829 -516.172757 
L 372.196254 -506.688775 
L 368.117679 -495.069775 
L 364.039105 -481.480003 
L 359.96053 -466.114589 
L 355.881955 -449.194671 
L 351.803381 -430.961818 
L 347.724806 -411.671945 
L 343.646231 -391.588967 
L 339.567656 -370.978395 
L 335.489082 -350.101139 
L 331.410507 -329.207704 
L 327.331932 -308.532989 
L 323.253358 -288.291836 
L 319.174783 -268.675449 
L 315.096208 -249.848761 
L 311.017634 -231.948773 
L 306.939059 -215.083843 
L 302.860484 -199.333884 
L 298.78191 -184.75138 
L 294.703335 -171.363093 
L 290.62476 -159.172343 
L 286.546185 -148.161713 
L 282.467611 -138.296028 
L 278.389036 -129.525479 
L 274.310461 -121.788758 
L 270.231887 -115.016089 
L 266.153312 -109.132071 
L 262.074737 -104.058252 
L 257.996163 -99.715396 
L 253.917588 -96.025399 
L 249.839013 -92.912858 
L 245.760439 -90.306288 
L 241.681864 -88.139015 
L 237.603289 -86.349764 
L 233.524714 -84.882986 
L 229.44614 -83.688961 
L 225.367565 -82.723715 
L 221.28899 -81.948797 
L 217.210416 -81.330947 
L 213.131841 -80.841689 
L 209.053266 -80.456892 
L 204.974692 -80.156299 
L 200.896117 -79.923065 
L 196.817542 -79.74331 
L 192.738968 -79.605698 
L 188.660393 -79.501051 
L 184.581818 -79.422002 
z
" style="stroke: #00ffff"/>
    </defs>
    <g clip-path="url(#p4a87474e75)">
     <use xlink:href="#me95bc4fb43" x="0" y="720" style="fill: #00ffff; fill-opacity: 0.8; stroke: #00ffff"/>
    </g>
   </g>
   <g id="patch_3">
    <path d="M 144 640.8 
L 144 86.4 
" style="fill: none; stroke: #ffffff; stroke-width: 0.8; stroke-linejoin: miter; stroke-linecap: square"/>
   </g>
   <g id="patch_4">
    <path d="M 1036.8 640.8 
L 1036.8 86.4 
" style="fill: none; stroke: #ffffff; stroke-width: 0.8; stroke-linejoin: miter; stroke-linecap: square"/>
   </g>
   <g id="patch_5">
    <path d="M 144 640.8 
L 1036.8 640.8 
" style="fill: none; stroke: #ffffff; stroke-width: 0.8; stroke-linejoin: miter; stroke-linecap: square"/>
   </g>
   <g id="patch_6">
    <path d="M 144 86.4 
L 1036.8 86.4 
" style="fill: none; stroke: #ffffff; stroke-width: 0.8; stroke-linejoin: miter; stroke-linecap: square"/>
   </g>
   <g id="text_19">
    <!-- Распределение предсказаний и реальных данных (XGB) -->
    <g style="fill: #262626" transform="translate(247.616406 80.4) scale(0.26 -0.26)">
     <defs>
      <path id="ArialMT-420" d="M 494 0 
L 494 4581 
L 2222 4581 
Q 2678 4581 2919 4538 
Q 3256 4481 3484 4323 
Q 3713 4166 3852 3881 
Q 3991 3597 3991 3256 
Q 3991 2672 3619 2267 
Q 3247 1863 2275 1863 
L 1100 1863 
L 1100 0 
L 494 0 
z
M 1100 2403 
L 2284 2403 
Q 2872 2403 3119 2622 
Q 3366 2841 3366 3238 
Q 3366 3525 3220 3729 
Q 3075 3934 2838 4000 
Q 2684 4041 2272 4041 
L 1100 4041 
L 1100 2403 
z
" transform="scale(0.015625)"/>
      <path id="ArialMT-43f" d="M 425 3319 
L 3044 3319 
L 3044 0 
L 2481 0 
L 2481 2853 
L 988 2853 
L 988 0 
L 425 0 
L 425 3319 
z
" transform="scale(0.015625)"/>
      <path id="ArialMT-434" d="M 866 3319 
L 3178 3319 
L 3178 463 
L 3538 463 
L 3538 -941 
L 3075 -941 
L 3075 0 
L 463 0 
L 463 -941 
L 0 -941 
L 0 463 
L 297 463 
Q 891 1269 866 3319 
z
M 1334 2853 
Q 1272 1238 834 463 
L 2619 463 
L 2619 2853 
L 1334 2853 
z
" transform="scale(0.015625)"/>
      <path id="ArialMT-43a" d="M 419 3319 
L 981 3319 
L 981 1884 
Q 1250 1884 1358 1987 
Q 1466 2091 1675 2588 
Q 1841 2981 1944 3106 
Q 2047 3231 2181 3275 
Q 2316 3319 2613 3319 
L 2725 3319 
L 2725 2853 
L 2569 2856 
Q 2347 2856 2284 2791 
Q 2219 2722 2084 2381 
Q 1956 2056 1850 1931 
Q 1744 1806 1522 1703 
Q 1884 1606 2234 1028 
L 2850 0 
L 2231 0 
L 1631 1028 
Q 1447 1338 1309 1436 
Q 1172 1534 981 1534 
L 981 0 
L 419 0 
L 419 3319 
z
" transform="scale(0.015625)"/>
      <path id="ArialMT-437" d="M 1156 1500 
L 1156 1941 
Q 1513 1944 1642 1969 
Q 1772 1994 1887 2119 
Q 2003 2244 2003 2431 
Q 2003 2659 1851 2795 
Q 1700 2931 1459 2931 
Q 984 2931 794 2372 
L 259 2459 
Q 509 3394 1466 3394 
Q 1997 3394 2298 3103 
Q 2600 2813 2600 2409 
Q 2600 2003 2206 1763 
Q 2456 1628 2581 1420 
Q 2706 1213 2706 928 
Q 2706 481 2381 203 
Q 2056 -75 1472 -75 
Q 338 -75 156 934 
L 684 1047 
Q 756 728 976 553 
Q 1197 378 1481 378 
Q 1766 378 1955 539 
Q 2144 700 2144 950 
Q 2144 1144 2025 1287 
Q 1906 1431 1772 1467 
Q 1638 1503 1284 1503 
Q 1256 1503 1156 1500 
z
" transform="scale(0.015625)"/>
      <path id="ArialMT-439" d="M 422 3319 
L 984 3319 
L 984 788 
L 2544 3319 
L 3150 3319 
L 3150 0 
L 2588 0 
L 2588 2516 
L 1028 0 
L 422 0 
L 422 3319 
z
M 2374 4575 
L 2759 4575 
Q 2712 4184 2473 3975 
Q 2234 3766 1837 3766 
Q 1437 3766 1198 3973 
Q 959 4181 912 4575 
L 1296 4575 
Q 1340 4363 1469 4258 
Q 1599 4153 1818 4153 
Q 2071 4153 2201 4254 
Q 2331 4356 2374 4575 
z
" transform="scale(0.015625)"/>
      <path id="ArialMT-44b" d="M 3581 3319 
L 4144 3319 
L 4144 0 
L 3581 0 
L 3581 3319 
z
M 434 3319 
L 997 3319 
L 997 2022 
L 1709 2022 
Q 2406 2022 2782 1751 
Q 3159 1481 3159 1006 
Q 3159 591 2845 295 
Q 2531 0 1841 0 
L 434 0 
L 434 3319 
z
M 997 463 
L 1588 463 
Q 2122 463 2350 594 
Q 2578 725 2578 1003 
Q 2578 1219 2409 1387 
Q 2241 1556 1663 1556 
L 997 1556 
L 997 463 
z
" transform="scale(0.015625)"/>
      <path id="ArialMT-445" d="M 47 0 
L 1259 1725 
L 138 3319 
L 841 3319 
L 1350 2541 
Q 1494 2319 1581 2169 
Q 1719 2375 1834 2534 
L 2394 3319 
L 3066 3319 
L 1919 1756 
L 3153 0 
L 2463 0 
L 1781 1031 
L 1600 1309 
L 728 0 
L 47 0 
z
" transform="scale(0.015625)"/>
      <path id="ArialMT-28" d="M 1497 -1347 
Q 1031 -759 709 28 
Q 388 816 388 1659 
Q 388 2403 628 3084 
Q 909 3875 1497 4659 
L 1900 4659 
Q 1522 4009 1400 3731 
Q 1209 3300 1100 2831 
Q 966 2247 966 1656 
Q 966 153 1900 -1347 
L 1497 -1347 
z
" transform="scale(0.015625)"/>
      <path id="ArialMT-58" d="M 28 0 
L 1800 2388 
L 238 4581 
L 959 4581 
L 1791 3406 
Q 2050 3041 2159 2844 
Q 2313 3094 2522 3366 
L 3444 4581 
L 4103 4581 
L 2494 2422 
L 4228 0 
L 3478 0 
L 2325 1634 
Q 2228 1775 2125 1941 
Q 1972 1691 1906 1597 
L 756 0 
L 28 0 
z
" transform="scale(0.015625)"/>
      <path id="ArialMT-47" d="M 2638 1797 
L 2638 2334 
L 4578 2338 
L 4578 638 
Q 4131 281 3656 101 
Q 3181 -78 2681 -78 
Q 2006 -78 1454 211 
Q 903 500 622 1047 
Q 341 1594 341 2269 
Q 341 2938 620 3517 
Q 900 4097 1425 4378 
Q 1950 4659 2634 4659 
Q 3131 4659 3532 4498 
Q 3934 4338 4162 4050 
Q 4391 3763 4509 3300 
L 3963 3150 
Q 3859 3500 3706 3700 
Q 3553 3900 3268 4020 
Q 2984 4141 2638 4141 
Q 2222 4141 1919 4014 
Q 1616 3888 1430 3681 
Q 1244 3475 1141 3228 
Q 966 2803 966 2306 
Q 966 1694 1177 1281 
Q 1388 869 1791 669 
Q 2194 469 2647 469 
Q 3041 469 3416 620 
Q 3791 772 3984 944 
L 3984 1797 
L 2638 1797 
z
" transform="scale(0.015625)"/>
      <path id="ArialMT-42" d="M 469 0 
L 469 4581 
L 2188 4581 
Q 2713 4581 3030 4442 
Q 3347 4303 3526 4014 
Q 3706 3725 3706 3409 
Q 3706 3116 3547 2856 
Q 3388 2597 3066 2438 
Q 3481 2316 3704 2022 
Q 3928 1728 3928 1328 
Q 3928 1006 3792 729 
Q 3656 453 3456 303 
Q 3256 153 2954 76 
Q 2653 0 2216 0 
L 469 0 
z
M 1075 2656 
L 2066 2656 
Q 2469 2656 2644 2709 
Q 2875 2778 2992 2937 
Q 3109 3097 3109 3338 
Q 3109 3566 3000 3739 
Q 2891 3913 2687 3977 
Q 2484 4041 1991 4041 
L 1075 4041 
L 1075 2656 
z
M 1075 541 
L 2216 541 
Q 2509 541 2628 563 
Q 2838 600 2978 687 
Q 3119 775 3209 942 
Q 3300 1109 3300 1328 
Q 3300 1584 3169 1773 
Q 3038 1963 2805 2039 
Q 2572 2116 2134 2116 
L 1075 2116 
L 1075 541 
z
" transform="scale(0.015625)"/>
      <path id="ArialMT-29" d="M 791 -1347 
L 388 -1347 
Q 1322 153 1322 1656 
Q 1322 2244 1188 2822 
Q 1081 3291 891 3722 
Q 769 4003 388 4659 
L 791 4659 
Q 1378 3875 1659 3084 
Q 1900 2403 1900 1659 
Q 1900 816 1576 28 
Q 1253 -759 791 -1347 
z
" transform="scale(0.015625)"/>
     </defs>
     <use xlink:href="#ArialMT-420"/>
     <use xlink:href="#ArialMT-430" x="63.324219"/>
     <use xlink:href="#ArialMT-441" x="118.939453"/>
     <use xlink:href="#ArialMT-43f" x="168.939453"/>
     <use xlink:href="#ArialMT-440" x="223.089844"/>
     <use xlink:href="#ArialMT-435" x="278.705078"/>
     <use xlink:href="#ArialMT-434" x="332.070312"/>
     <use xlink:href="#ArialMT-435" x="390.419922"/>
     <use xlink:href="#ArialMT-43b" x="442.660156"/>
     <use xlink:href="#ArialMT-435" x="501.009766"/>
     <use xlink:href="#ArialMT-43d" x="556.625"/>
     <use xlink:href="#ArialMT-438" x="611.849609"/>
     <use xlink:href="#ArialMT-435" x="667.708984"/>
     <use xlink:href="#ArialMT-20" x="723.324219"/>
     <use xlink:href="#ArialMT-43f" x="751.107422"/>
     <use xlink:href="#ArialMT-440" x="805.257812"/>
     <use xlink:href="#ArialMT-435" x="860.873047"/>
     <use xlink:href="#ArialMT-434" x="914.238281"/>
     <use xlink:href="#ArialMT-441" x="972.587891"/>
     <use xlink:href="#ArialMT-43a" x="1022.587891"/>
     <use xlink:href="#ArialMT-430" x="1068.587891"/>
     <use xlink:href="#ArialMT-437" x="1123.078125"/>
     <use xlink:href="#ArialMT-430" x="1168.927734"/>
     <use xlink:href="#ArialMT-43d" x="1224.542969"/>
     <use xlink:href="#ArialMT-438" x="1279.767578"/>
     <use xlink:href="#ArialMT-439" x="1335.626953"/>
     <use xlink:href="#ArialMT-20" x="1391.486328"/>
     <use xlink:href="#ArialMT-438" x="1419.269531"/>
     <use xlink:href="#ArialMT-20" x="1475.128906"/>
     <use xlink:href="#ArialMT-440" x="1502.912109"/>
     <use xlink:href="#ArialMT-435" x="1558.527344"/>
     <use xlink:href="#ArialMT-430" x="1614.142578"/>
     <use xlink:href="#ArialMT-43b" x="1669.757812"/>
     <use xlink:href="#ArialMT-44c" x="1728.107422"/>
     <use xlink:href="#ArialMT-43d" x="1780.207031"/>
     <use xlink:href="#ArialMT-44b" x="1835.431641"/>
     <use xlink:href="#ArialMT-445" x="1907.306641"/>
     <use xlink:href="#ArialMT-20" x="1957.306641"/>
     <use xlink:href="#ArialMT-434" x="1985.089844"/>
     <use xlink:href="#ArialMT-430" x="2043.439453"/>
     <use xlink:href="#ArialMT-43d" x="2099.054688"/>
     <use xlink:href="#ArialMT-43d" x="2154.279297"/>
     <use xlink:href="#ArialMT-44b" x="2209.503906"/>
     <use xlink:href="#ArialMT-445" x="2281.378906"/>
     <use xlink:href="#ArialMT-20" x="2331.378906"/>
     <use xlink:href="#ArialMT-28" x="2359.162109"/>
     <use xlink:href="#ArialMT-58" x="2392.462891"/>
     <use xlink:href="#ArialMT-47" x="2459.162109"/>
     <use xlink:href="#ArialMT-42" x="2536.945312"/>
     <use xlink:href="#ArialMT-29" x="2603.644531"/>
    </g>
   </g>
   <g id="legend_1">
    <g id="patch_7">
     <path d="M 757.038281 212.489844 
L 1019.3 212.489844 
Q 1024.3 212.489844 1024.3 207.489844 
L 1024.3 103.9 
Q 1024.3 98.9 1019.3 98.9 
L 757.038281 98.9 
Q 752.038281 98.9 752.038281 103.9 
L 752.038281 207.489844 
Q 752.038281 212.489844 757.038281 212.489844 
z
" style="fill: #eaeaf2; opacity: 0.8; stroke: #cccccc; stroke-linejoin: miter"/>
    </g>
    <g id="text_20">
     <!-- Данные -->
     <g style="fill: #262626" transform="translate(843.012891 126.794531) scale(0.25 -0.25)">
      <defs>
       <path id="ArialMT-414" d="M 909 4581 
L 3697 4581 
L 3697 541 
L 4109 541 
L 4109 -1069 
L 3569 -1069 
L 3569 0 
L 541 0 
L 541 -1069 
L 0 -1069 
L 0 541 
L 356 541 
Q 909 1375 909 3913 
L 909 4581 
z
M 3091 4041 
L 1494 4041 
L 1494 3806 
Q 1494 3222 1389 2208 
Q 1284 1194 978 541 
L 3091 541 
L 3091 4041 
z
" transform="scale(0.015625)"/>
      </defs>
      <use xlink:href="#ArialMT-414"/>
      <use xlink:href="#ArialMT-430" x="67.724609"/>
      <use xlink:href="#ArialMT-43d" x="123.339844"/>
      <use xlink:href="#ArialMT-43d" x="178.564453"/>
      <use xlink:href="#ArialMT-44b" x="233.789062"/>
      <use xlink:href="#ArialMT-435" x="305.664062"/>
     </g>
    </g>
    <g id="patch_8">
     <path d="M 762.038281 162.157812 
L 812.038281 162.157812 
L 812.038281 144.657812 
L 762.038281 144.657812 
z
" style="fill: #0000ff; fill-opacity: 0.8; stroke: #0000ff; stroke-linejoin: miter"/>
    </g>
    <g id="text_21">
     <!-- Реальные -->
     <g style="fill: #262626" transform="translate(832.038281 162.157812) scale(0.25 -0.25)">
      <use xlink:href="#ArialMT-420"/>
      <use xlink:href="#ArialMT-435" x="62.324219"/>
      <use xlink:href="#ArialMT-430" x="117.939453"/>
      <use xlink:href="#ArialMT-43b" x="173.554688"/>
      <use xlink:href="#ArialMT-44c" x="231.904297"/>
      <use xlink:href="#ArialMT-43d" x="284.003906"/>
      <use xlink:href="#ArialMT-44b" x="339.228516"/>
      <use xlink:href="#ArialMT-435" x="411.103516"/>
     </g>
    </g>
    <g id="patch_9">
     <path d="M 762.038281 197.521094 
L 812.038281 197.521094 
L 812.038281 180.021094 
L 762.038281 180.021094 
z
" style="fill: #00ffff; fill-opacity: 0.8; stroke: #00ffff; stroke-linejoin: miter"/>
    </g>
    <g id="text_22">
     <!-- Предсказанные -->
     <g style="fill: #262626" transform="translate(832.038281 197.521094) scale(0.25 -0.25)">
      <use xlink:href="#ArialMT-41f"/>
      <use xlink:href="#ArialMT-440" x="71.875"/>
      <use xlink:href="#ArialMT-435" x="127.490234"/>
      <use xlink:href="#ArialMT-434" x="180.855469"/>
      <use xlink:href="#ArialMT-441" x="239.205078"/>
      <use xlink:href="#ArialMT-43a" x="289.205078"/>
      <use xlink:href="#ArialMT-430" x="335.205078"/>
      <use xlink:href="#ArialMT-437" x="389.695312"/>
      <use xlink:href="#ArialMT-430" x="435.544922"/>
      <use xlink:href="#ArialMT-43d" x="491.160156"/>
      <use xlink:href="#ArialMT-43d" x="546.384766"/>
      <use xlink:href="#ArialMT-44b" x="601.609375"/>
      <use xlink:href="#ArialMT-435" x="673.484375"/>
     </g>
    </g>
   </g>
  </g>
 </g>
 <defs>
  <clipPath id="p4a87474e75">
   <rect x="144" y="86.4" width="892.8" height="554.4"/>
  </clipPath>
 </defs>
</svg>
